<?xml version="1.0" standalone="no"?>
<!DOCTYPE svg PUBLIC "-//W3C//DTD SVG 1.1//EN" "http://www.w3.org/Graphics/SVG/1.1/DTD/svg11.dtd" >
<svg xmlns="http://www.w3.org/2000/svg">
<metadata></metadata>
<defs>
<font id="exothinitalic" horiz-adv-x="1116" >
<font-face units-per-em="2048" ascent="1638" descent="-410" />
<missing-glyph horiz-adv-x="479" />
<glyph unicode="&#xfb01;" horiz-adv-x="1126" d="M123 1028l4 29l205 20l18 119q31 190 138.5 302t285.5 112q200 0 365 -39l-4 -27l-347 17q-148 6 -253.5 -86t-135.5 -279l-18 -119l758 -14l-170 -1063h-49l163 1028h-710l-164 -1028h-49l164 1028h-201z" />
<glyph unicode="&#xfb02;" horiz-adv-x="1427" d="M188 1038l5 29l204 20l17 109q14 86 43.5 158.5t77 131t119.5 91.5t161 33h490l-193 -1217q-10 -65 -10.5 -117t3.5 -85.5t19 -59.5t25 -38t33 -21.5t30.5 -11t29.5 -4.5q3 -1 5 -1q134 -22 148 -22l-4 -27h-131q-131 0 -180 93.5t-17 293.5l186 1168h-430 q-63 0 -119.5 -21t-104.5 -64t-82.5 -114.5t-49.5 -165.5l-17 -109h302l-9 -49h-301l-164 -1038h-49l164 1038h-201z" />
<glyph horiz-adv-x="0" />
<glyph unicode="&#xd;" horiz-adv-x="2048" />
<glyph unicode=" "  horiz-adv-x="479" />
<glyph unicode="&#x09;" horiz-adv-x="479" />
<glyph unicode="&#xa0;" horiz-adv-x="479" />
<glyph unicode="!" horiz-adv-x="483" d="M172 25l20 127q4 24 28 24h23q24 0 21 -24l-20 -127q-5 -25 -29 -25h-22q-10 0 -16.5 7t-4.5 18zM254 401l164 1096h45l-184 -1096h-25z" />
<glyph unicode="&#x22;" horiz-adv-x="587" d="M221 1087l29 275l22 137h52l-23 -137l-55 -275h-25zM426 1087l29 275l22 137h51l-22 -137l-55 -275h-25z" />
<glyph unicode="#" horiz-adv-x="1292" d="M115 512l8 25h366l132 419h-367l10 25h365l166 518h24l-166 -518h381l164 518h25l-164 -518h362l-8 -25h-364l-131 -421h362l-8 -25h-363l-161 -510h-25l162 510l-381 2l-162 -512h-25l162 512h-364zM514 537l379 -2l131 421h-379z" />
<glyph unicode="$" horiz-adv-x="1175" d="M164 14l4 31q132 -12 459 -12q64 0 114.5 6.5t99.5 25t83.5 50t60.5 83t37 121.5l20 140q23 140 -31.5 196t-209.5 56h-209q-66 0 -118 10.5t-85.5 27t-56.5 41.5t-34.5 50t-15.5 57t-3 58t6 57l22 135q17 110 55.5 182.5t102.5 112t141 54.5t187 15l26 177h37l-27 -179 q181 -9 359 -36l-4 -27l-393 18q-94 4 -161.5 -7t-126 -44.5t-95 -99.5t-52.5 -166l-22 -135q-12 -75 1 -125.5t51 -77.5t88 -38t122 -11h213q79 0 136 -15t88.5 -42.5t48.5 -65t17 -82.5t-7 -96l-21 -140q-11 -74 -36 -130.5t-61.5 -92.5t-78 -59.5t-95.5 -35t-102.5 -15 t-109.5 -2.5l-27 -164h-37l27 166q-290 10 -387 28z" />
<glyph unicode="%" horiz-adv-x="2017" d="M236 971l43 272q21 136 87 196t216 60h206q146 0 194.5 -60.5t27.5 -195.5l-43 -272q-21 -137 -85.5 -196.5t-213.5 -59.5h-207q-147 0 -196.5 60.5t-28.5 195.5zM266 971q-21 -128 25 -177t170 -49h207q125 0 186 47.5t82 178.5l43 272q19 123 -22.5 174t-170.5 51h-206 q-127 0 -188.5 -47t-82.5 -178zM461 0l1134 1499h43l-1134 -1499h-43zM1116 262l43 273q21 137 85.5 196.5t213.5 59.5h207q147 0 196.5 -60.5t28.5 -195.5l-43 -273q-21 -136 -86 -196t-215 -60h-207q-147 0 -195.5 60.5t-27.5 195.5zM1147 262q-21 -128 23.5 -176.5 t168.5 -48.5h207q125 0 187.5 47t83.5 178l43 273q19 122 -23 173.5t-172 51.5h-207q-127 0 -187 -46.5t-81 -178.5z" />
<glyph unicode="&#x26;" horiz-adv-x="1409" d="M127.5 376q4.5 105 63 201t161.5 173l199 149l-100 174q-51 88 -58 162t23.5 123.5t80 81.5t115.5 47q56 12 177 13t221.5 -4t191.5 -13l-4 -29h-436q-135 0 -218.5 -40.5t-102.5 -118.5t46 -193l465 -807l373 309l14 -16l-168 -172l-192 -160l151 -256h-49l-139 227 l-168 -137q-89 -72 -199.5 -92t-217.5 23t-171 147q-63 103 -58.5 208zM190 470q-45 -135 33 -271q50 -85 137 -128t190 -30.5t189 82.5l176 143l-340 592l-182 -135q-158 -118 -203 -253z" />
<glyph unicode="'" horiz-adv-x="270" d="M184 1087l29 275l23 137h51l-23 -137l-55 -275h-25z" />
<glyph unicode="(" horiz-adv-x="563" d="M234.5 545q2.5 134 23.5 266q18 114 55 235.5t82 223.5t95.5 198.5t97.5 170.5t84.5 130t60.5 85l23 30h51q-9 -11 -24 -31.5t-60 -87.5t-87.5 -136.5t-97 -173t-98 -204.5t-81.5 -223.5t-56 -236.5q-27 -186 -21 -350t35 -301.5t61.5 -237t58.5 -154.5l26 -55h-53 q-5 10 -14 28.5t-33.5 80t-45 128t-42 169.5t-32.5 207.5t-8.5 238.5z" />
<glyph unicode=")" horiz-adv-x="565" d="M-27 -307q17 20 45 56t103.5 153t138.5 238t127.5 300t91.5 351q24 169 17 327.5t-35.5 298t-60 243.5t-56.5 164l-25 60h52q5 -11 13.5 -32t32 -88t43 -137.5t40.5 -175t32.5 -206t10.5 -225.5t-19 -238q-21 -132 -59.5 -263.5t-83 -236t-94 -200t-94.5 -165t-81.5 -121 t-58.5 -77.5l-22 -26h-58z" />
<glyph unicode="*" horiz-adv-x="989" d="M285 1212l4 29l293 8l-7 -49zM391 838l111 274l51 -8l-137 -275zM604 1014l33 47l215 -170l-21 -23zM610 1481l29 8l96 -252l-51 -23zM713 1130l256 170l14 -24l-240 -184z" />
<glyph unicode="+" horiz-adv-x="1073" d="M205 705l8 49h371l57 370h49l-57 -370h371l-9 -49h-370l-60 -371h-49l59 371h-370z" />
<glyph unicode="," horiz-adv-x="350" d="M123 -139l2 12q33 0 38 31l15 96h-12q-11 0 -16.5 7.5t-3.5 19.5l20 127q4 26 28 26h21q25 0 20 -26l-36 -230q-6 -36 -25 -52t-35 -14z" />
<glyph unicode="-" horiz-adv-x="677" d="M123 569l8 49h582l-8 -49h-582z" />
<glyph unicode="." horiz-adv-x="352" d="M145 25l20 127q5 24 29 24h22q24 0 21 -24l-20 -127q-5 -25 -29 -25h-22q-10 0 -16.5 7t-4.5 18z" />
<glyph unicode="/" horiz-adv-x="595" d="M16 -147l848 1724h45l-848 -1724h-45z" />
<glyph unicode="0" horiz-adv-x="1329" d="M248 332l133 835q25 159 137.5 245.5t265.5 86.5h275q177 0 245.5 -90.5t45.5 -241.5l-133 -835q-53 -332 -396 -332h-274q-73 0 -131 18t-102.5 55.5t-62 103.5t-3.5 155zM297 332q-21 -138 48 -210.5t210 -72.5h274q294 0 338 283l133 835q22 139 -40 211t-209 72h-275 q-138 0 -231 -75t-115 -208z" />
<glyph unicode="1" horiz-adv-x="831" d="M274 1280l9 31q57 0 126.5 19.5t127.5 47t108 55t79 47.5l28 19h45l-234 -1499h-49l229 1438q-80 -54 -210 -106t-259 -52z" />
<glyph unicode="2" horiz-adv-x="1175" d="M96 0l8 47q9 6 82 58.5t112 80.5t125 92.5t141 108.5t138.5 113.5t139 123t120.5 121t105.5 123t71.5 114t39 108.5q17 87 8.5 151t-31 107.5t-67 70t-98.5 38t-126 11.5h-549l4 31q61 8 127.5 12.5t138.5 6.5t113.5 2.5t112.5 0t74 -0.5q217 0 298.5 -116t47.5 -319 q-12 -75 -68.5 -167t-133 -177.5t-179.5 -180t-193.5 -167.5t-191.5 -147.5t-157.5 -114t-104.5 -72.5q-11 -7 -15 -10h879l-8 -49h-963z" />
<glyph unicode="3" horiz-adv-x="1185" d="M80 8l6 29h559q312 0 361 303l18 121q9 59 -4.5 105t-41.5 74t-68 46.5t-77.5 26t-76.5 8.5l-434 14l4 29l438 12q84 1 157.5 27.5t129.5 86t69 142.5l21 142q23 144 -49.5 212t-208.5 68h-586l4 29q152 27 598 20q118 -2 190 -48t94.5 -119.5t6.5 -170.5l-21 -141 q-12 -75 -50.5 -132t-86 -86t-86 -42.5t-67.5 -15.5q22 -3 48 -13.5t58 -34t55 -55.5t34.5 -83t2.5 -111l-18 -121q-54 -344 -418 -344q-454 0 -561 22z" />
<glyph unicode="4" horiz-adv-x="1171" d="M113 485l788 1014h55l-784 -1016h774l76 484l45 153h29l-101 -637h185l-4 -28l-189 -21l-67 -430h-50l68 430h-809z" />
<glyph unicode="5" horiz-adv-x="1284" d="M162 12l4 29h608q55 0 110.5 19t104.5 55t85 95.5t48 133.5l31 195q46 295 -229 295h-314q-105 0 -198.5 -77.5t-108.5 -178.5h-49l190 921h867l-8 -49h-820l-145 -702q12 17 31 35t53 43t83.5 41t104.5 16h312q173 0 239 -90.5t41 -249.5l-33 -203q-13 -80 -46 -143.5 t-73.5 -101t-91 -61.5t-93.5 -33t-85 -9q-475 0 -618 20z" />
<glyph unicode="6" horiz-adv-x="1300" d="M224 466.5q1 138.5 30 319.5q30 191 81 334.5t114 227t131 123.5t141 40q395 0 553 -18l-4 -31h-545q-54 0 -103 -24.5t-87.5 -65t-72.5 -96.5t-58.5 -115t-44.5 -124.5t-32.5 -121t-21.5 -108.5q196 22 565 22q80 0 139 -15t93 -42t53.5 -64.5t21 -82t-5.5 -95.5 l-36 -227q-27 -166 -112.5 -235.5t-236.5 -69.5h-254q-70 0 -124 22t-98 77t-65.5 143t-20.5 226.5zM273 494q-2 -75 4 -138t23.5 -121.5t46 -99t75.5 -64.5t108 -24h244q268 0 309 252l35 217q6 54 6 94t-14.5 69.5t-33.5 48.5t-51 30t-66.5 15.5t-79.5 4.5h-578 q-12 -74 -19 -141.5t-9 -142.5z" />
<glyph unicode="7" horiz-adv-x="1105" d="M274 1450l9 49h897l24 -47l-717 -1452h-57l717 1450h-873z" />
<glyph unicode="8" horiz-adv-x="1318" d="M243.5 270.5q1.5 20.5 4.5 44.5l31 203q12 73 56 128.5t93 79.5t92 24q-199 36 -162 286l21 133q16 100 50.5 168t88.5 105t117 52t147 15h238q173 0 245.5 -90.5t43.5 -277.5l-21 -133q-14 -87 -78 -155.5t-149 -74.5q98 -29 130.5 -94t16.5 -168l-30 -201 q-12 -76 -43 -134.5t-68.5 -92t-85.5 -54t-89 -27.5t-85 -7h-236q-72 0 -129 13.5t-91.5 34t-58 50.5t-33.5 57.5t-13.5 61t-2 54zM297 309q-11 -69 6.5 -120.5t58.5 -81t95.5 -44t122.5 -14.5h221q50 0 99 13.5t96 42t81 81.5t45 123l35 215q10 62 -2 105.5t-32 65 t-60.5 32.5t-65 12.5t-67.5 1.5h-273q-40 0 -87.5 -11t-99 -34t-90 -68t-48.5 -104zM406 1012q-10 -60 1.5 -102.5t33.5 -66t62 -36.5t74 -16t82 -3h265q136 0 218.5 70.5t94.5 153.5l23 139q25 164 -37.5 236.5t-210.5 72.5h-234q-165 0 -246.5 -73.5t-105.5 -235.5z" />
<glyph unicode="9" horiz-adv-x="1302" d="M205 6l4 31h545q64 0 120.5 32t98.5 87.5t76.5 121.5t59 143.5t40 142t25.5 128.5q-196 -22 -580 -22q-80 0 -137.5 16t-89.5 44.5t-49.5 67.5t-17 84.5t6.5 96.5l37 227q14 84 47 142.5t83.5 91t110.5 47t136 14.5h237q70 0 123.5 -24t95.5 -82t62.5 -148.5t18.5 -230.5 t-31 -322q-30 -191 -81 -332t-114 -220.5t-130.5 -116.5t-141.5 -37q-397 0 -555 18zM350.5 897q-1.5 -32 8.5 -57t21 -43.5t31.5 -32t40.5 -22t47.5 -13t53.5 -6.5t57 -2h568q117 731 -220 731h-245q-283 0 -322 -252l-35 -231q-4 -40 -5.5 -72z" />
<glyph unicode=":" horiz-adv-x="362" d="M155 25l21 127q4 24 28 24h23q23 0 20 -24l-20 -127q-5 -25 -28 -25h-23q-10 0 -16.5 7t-4.5 18zM289 932l20 129q5 24 29 24h22q24 0 21 -24l-20 -129q-4 -23 -29 -23h-22q-24 0 -21 23z" />
<glyph unicode=";" horiz-adv-x="352" d="M123 -139l2 12q33 0 38 31l15 96h-12q-11 0 -16.5 7.5t-3.5 19.5l20 127q4 26 28 26h21q25 0 20 -26l-36 -230q-6 -36 -25 -52t-35 -14zM289 932l20 129q5 24 29 24h22q24 0 21 -24l-20 -129q-4 -23 -29 -23h-22q-24 0 -21 23z" />
<glyph unicode="&#x3c;" horiz-adv-x="966" d="M203 707l6 41l770 393l-10 -54l-705 -362l586 -387l-6 -49z" />
<glyph unicode="=" horiz-adv-x="946" d="M109 434l8 49h874l-8 -49h-874zM193 965l8 49h874l-8 -49h-874z" />
<glyph unicode="&#x3e;" horiz-adv-x="968" d="M147 289l9 55l712 387l-594 363l9 47l643 -393l-6 -41z" />
<glyph unicode="?" horiz-adv-x="1112" d="M256 1464l4 29q180 20 508 20q229 1 309 -93t49 -285l-30 -207q-32 -205 -170 -277.5t-428 -42.5l-33 -209h-53l39 250h208q168 0 264.5 65t120.5 214l33 207q28 177 -45 253t-266 76h-510zM350 25l20 127q4 24 29 24h22q24 0 21 -24l-20 -127q-5 -25 -29 -25h-22 q-10 0 -16.5 7t-4.5 18z" />
<glyph unicode="@" horiz-adv-x="1845" d="M131 18l166 1049q12 76 39.5 137.5t75 114.5t125.5 83t180 30h768q168 0 241 -95t46 -270l-109 -725q-3 -23 -6.5 -42t-15 -55.5t-26 -65.5t-41.5 -63t-61 -56.5t-84.5 -38t-111.5 -15.5h-60l5 123q-47 -52 -177.5 -93.5t-244.5 -43.5q-60 -1 -107 8.5t-90.5 34.5t-70 67 t-45 105.5t-16.5 151.5t17 204q80 518 441 551q128 11 259 -22t206 -105l-138 -934q25 0 46.5 1.5t52 8.5t55 18t52.5 33t48.5 51.5t38 75t25.5 101.5l108 725q13 74 5.5 128t-25 90t-52 57.5t-74.5 30.5t-93 9h-766q-72 0 -130.5 -16.5t-99 -45t-70 -69.5t-46.5 -86 t-25 -98l-166 -1049q-25 -157 50.5 -246t213.5 -89h787l-4 -29q-107 -21 -594 -21h-201q-159 0 -243 109.5t-58 275.5zM562.5 365q2.5 -68 9.5 -118t27.5 -86t42 -59t53 -36.5t61.5 -19t67 -5.5q105 -2 228 26.5t213 96.5l120 817q-98 53 -189.5 69t-205.5 13 q-350 -12 -416 -543q-13 -87 -10.5 -155z" />
<glyph unicode="A" horiz-adv-x="1316" d="M92 0l799 1499h70l299 -1499h-50l-104 518h-682l-274 -518h-58zM451 567h645l-176 885z" />
<glyph unicode="B" horiz-adv-x="1208" d="M164 0l237 1499h519q111 0 184.5 -25t108 -71t44.5 -112q4 -25 4 -53q0 -44 -10 -95q-22 -142 -119 -244t-200 -113q28 -6 59 -25t63.5 -51.5t55 -77t34.5 -102.5q6 -28 5 -59q0 -32 -6 -68q-64 -403 -461 -403h-518zM221 51h469q347 0 406 367q5 29 5 57q1 105 -69 186 q-85 99 -221 99h-8h-469zM342 809h469q144 0 251.5 89.5t137.5 238.5q10 61 11 109v5q-1 45 -15 77q-16 34 -38.5 57.5t-60.5 38t-83 20.5t-103 6h-469z" />
<glyph unicode="C" horiz-adv-x="1155" d="M240 770q17 106 35.5 190t45.5 163.5t60.5 138t79.5 108.5t102.5 81t129.5 48t161 17q177 0 434 -50l-4 -28l-14 2q-15 1 -40 3.5t-58 5.5t-73 6t-81 5.5t-85.5 4t-82.5 1.5q-94 0 -165.5 -19.5t-135.5 -67.5t-111 -129.5t-84.5 -205t-64.5 -294.5q-23 -144 -23 -259 q0 -169 49 -275q82 -179 312 -179q96 0 205.5 6t171.5 12l61 6l-4 -28q-107 -20 -235 -32.5t-210 -12.5q-401 0 -401 502q0 125 25 280z" />
<glyph unicode="D" horiz-adv-x="1347" d="M164 0l237 1499h517q96 0 171 -27t123 -72t80 -109t45.5 -132t15.5 -146q0 -18 1 -36q0 -59 -6 -111q-6 -68 -19 -139q-23 -123 -58 -227t-89 -198t-122 -159.5t-161.5 -104t-204.5 -38.5h-530zM221 49h473q107 0 199 44t155 113t112 163.5t77.5 186t44.5 189.5 q23 135 23 244q1 179 -61 287q-98 174 -337 174h-465z" />
<glyph unicode="E" horiz-adv-x="1148" d="M196 162v19q0 36 5 81l155 981q12 72 41.5 124.5t71.5 80.5t88 40q40 11 84 11h14l607 -20l-5 -29h-608q-208 0 -243 -217l-74 -465l733 -10l-4 -29l-737 -10l-74 -467q-4 -35 -5 -63t7 -49t16.5 -36.5t25.5 -26.5t32.5 -17.5t37 -10t40.5 -5t42 -1.5h588l-4 -29 l-592 -20h-16q-27 0 -51 2q-31 4 -63 14.5t-53 29.5t-39 49.5t-20 72.5z" />
<glyph unicode="F" horiz-adv-x="1136" d="M164 0l192 1225q13 84 42.5 141t71.5 85.5t86 38.5q37 9 83 9h18l607 -20l-4 -29h-613q-104 0 -162.5 -50.5t-76.5 -166.5l-74 -465l735 -10l-6 -29l-735 -10l-115 -719h-49z" />
<glyph unicode="G" horiz-adv-x="1310" d="M219 432q3 87 12 162t25 178q16 98 31 171t39 155t52.5 140t71 113.5t94.5 89.5t122.5 54.5t156.5 20.5q79 0 238 -18t264 -38l-6 -39q-2 0 -37.5 4.5t-90.5 11.5t-118 13.5t-133.5 11t-124.5 4.5q-84 0 -151 -21t-117 -65.5t-88 -102t-66.5 -142.5t-48.5 -173.5 t-39 -207.5q-34 -202 -34 -344q0 -35 3 -67q10 -159 87 -231.5t239 -72.5q71 0 196.5 25.5t215.5 51.5l90 25l94 604h-438l6 29q59 16 130 19.5t220 3.5q66 0 139 -6l-125 -791h-28v111q-72 -35 -229 -78t-279 -43h-8q-84 0 -148 20q-66 22 -108 58t-67 95.5t-35 120.5 q-8 47 -8 109q0 19 1 39z" />
<glyph unicode="H" horiz-adv-x="1333" d="M174 0l238 1499h49l-119 -749h901l119 749h49l-237 -1499h-50l111 700h-901l-111 -700h-49z" />
<glyph unicode="I" horiz-adv-x="393" d="M184 0l238 1499h49l-238 -1499h-49z" />
<glyph unicode="J" horiz-adv-x="653" d="M78 43l12 29q59 -19 110 -28q27 -4 58 -4q25 0 52 3q61 7 106.5 35.5t84 94.5t54.5 165l184 1161h49l-184 -1161q-32 -220 -153 -301q-70 -48 -178 -48h-9q-114 2 -186 54z" />
<glyph unicode="K" horiz-adv-x="1081" d="M164 0l237 1499h50l-115 -723h313l602 723h62l-619 -745l383 -754h-57l-371 727h-319l-115 -727h-51z" />
<glyph unicode="L" horiz-adv-x="1120" d="M198 188q-1 8 -1 16q0 25 6 54l196 1241h50l-197 -1241q-4 -35 -5 -63t7.5 -49t17 -36.5t25.5 -26.5t32.5 -17.5t37.5 -10t40.5 -5t41.5 -1.5h565l-8 -49h-555q-25 0 -45.5 1t-44.5 4.5t-42.5 10t-38.5 16t-33 23.5t-26 33.5t-17 43.5t-6 56z" />
<glyph unicode="M" horiz-adv-x="1576" d="M145 0l404 1499h69l216 -1415l651 1415h80l-66 -1499h-51l65 1436l-663 -1436h-57l-211 1425l-385 -1425h-52z" />
<glyph unicode="N" horiz-adv-x="1314" d="M164 0l237 1499h52l675 -1411l226 1411h49l-238 -1499h-49l-678 1413l-225 -1413h-49z" />
<glyph unicode="O" horiz-adv-x="1400" d="M209 383v16q0 67 7 149q8 92 26 206q24 149 55 263t65 194t81.5 135t93 87t111.5 49t124 22t143 5q64 0 112 -4t97 -14.5t83.5 -29t66.5 -48.5t51 -72t32 -100.5t15 -133.5v-24q0 -67 -7 -147q-8 -96 -26 -211q-19 -124 -43 -221.5t-54.5 -172t-63 -129t-76 -92t-87 -61 t-102.5 -36t-114 -17t-131 -4.5q-66 0 -115.5 3.5t-99.5 14t-84 28.5t-66 47t-50 70.5t-30.5 98t-13.5 129.5zM260 372q3 -72 14.5 -122.5t37.5 -88t58 -60.5t81.5 -36.5t102.5 -18.5t126 -5q80 0 139.5 7t117.5 25.5t100.5 51.5t82 84.5t69 126t55 174t46.5 229.5 q16 109 24 199q7 84 8 151v9q0 70 -12.5 123.5t-29 91.5t-46 65t-60 43t-77 24.5t-89.5 11.5t-103 3q-77 0 -125 -3.5t-109.5 -18.5t-101 -44t-85.5 -81.5t-77.5 -128.5t-62 -187.5t-53.5 -257.5q-18 -115 -26 -205q-6 -65 -6 -121q0 -21 1 -41z" />
<glyph unicode="P" horiz-adv-x="1196" d="M154 0l237 1499h565q30 0 55 -2t54 -7.5t52.5 -15t47 -25.5t40.5 -37.5t31 -52.5t20 -69q6 -33 5 -76v-14q-1 -50 -10 -110q-11 -68 -27.5 -124.5t-35 -98t-44 -74t-48.5 -54t-54 -36.5t-54.5 -23t-57 -12t-54.5 -5t-53 -1q-71 0 -288 8t-224 12l-108 -682h-49zM315 711 h516q53 0 96.5 8t89.5 32.5t80 65.5t61.5 110.5t41.5 164.5q9 58 10 106v10q0 40 -7 72q-8 36 -20 63t-32 45t-41.5 30t-49.5 18.5t-54 9t-58 2.5h-516z" />
<glyph unicode="Q" horiz-adv-x="1413" d="M217 383v16q0 67 7 149q8 93 26 206q27 173 62.5 299.5t84.5 208.5t98.5 132.5t123.5 75t139.5 32t165.5 7.5q64 0 112 -4t97 -14.5t83.5 -29t66.5 -48.5t51 -72t32 -100.5t14 -133.5q1 -12 1 -24q0 -66 -7 -147q-8 -95 -26 -211q-17 -110 -38.5 -199.5t-45.5 -160 t-55 -125t-62.5 -94t-73 -67t-82 -44.5t-94.5 -26.5t-104 -13t-117 -3.5q-66 0 -115.5 3.5t-99.5 14t-84 28.5t-66 47t-50 70.5t-30.5 98t-13.5 129.5zM268 372q3 -71 14.5 -122t37.5 -88.5t58 -60.5t81.5 -36.5t102.5 -18.5t126 -5q80 0 139.5 7t117.5 25.5t100.5 51.5 t82 84.5t69 126t55 174t46.5 229.5q17 110 24 199q8 84 8 151v9q-1 70 -13 123.5t-28.5 91.5t-46 65t-60 43t-77 24.5t-89.5 11.5t-103 3q-77 0 -125 -3.5t-109.5 -18.5t-101 -44t-85.5 -81.5t-77.5 -128.5t-62 -187.5t-53.5 -257.5q-18 -115 -26 -205q-6 -65 -6 -121 q0 -21 1 -41zM653 -68h29q12 -60 49 -96.5t87 -46.5q36 -7 74 -7h26q52 4 104 21l-8 -49q-60 -21 -121 -22h-6q-58 0 -108 18q-53 18 -87.5 65.5t-38.5 116.5z" />
<glyph unicode="R" horiz-adv-x="1253" d="M154 0l237 1499h565q29 0 54.5 -2t54.5 -8.5t52.5 -16.5t47 -26.5t40.5 -39t31 -54.5q14 -31 20 -70q6 -34 5 -77v-13q-1 -51 -10 -111q-13 -80 -33.5 -144t-43.5 -107t-54.5 -74t-60 -48.5t-66 -28t-66 -13.5t-67.5 -4l223 -662h-53l-223 662q-107 2 -299 9t-197 11 l-108 -682h-49zM315 711h516q54 0 96 7.5t88.5 31t80 63.5t61.5 110.5t43 166.5q9 58 10 106v11q0 41 -6 72q-8 35 -20.5 62.5t-32.5 45.5t-41.5 30.5t-49.5 19t-54 9t-58 2.5h-516z" />
<glyph unicode="S" horiz-adv-x="1157" d="M162 14l4 31q132 -12 485 -12q60 0 108 6.5t97 25t84.5 49.5t62 83t37.5 122l21 140q6 36 6 67q-1 81 -41 125q-56 60 -207 60h-229q-77 0 -134.5 11.5t-92 33.5t-55.5 49q-22 27 -28 65q-6 32 -5 62v9q1 34 8 79l22 135q14 87 44 151t69.5 103t95.5 62t113 31.5t131 8.5 q79 0 225 -12.5t223 -25.5l-4 -27q-57 4 -170 8t-198 6l-84 2h-26q-152 0 -243 -66q-99 -72 -127 -249l-22 -135q-4 -40 -6 -72t6.5 -57t18.5 -44t29 -33t39.5 -22.5t49.5 -14t58.5 -7.5t66.5 -2h233q79 0 136.5 -16t88.5 -45q30 -29 48 -68q17 -37 17 -80q0 -42 -7 -102 l-20 -140q-13 -84 -45.5 -145t-73 -95t-99.5 -54t-111.5 -25.5t-121.5 -5.5q-86 0 -249.5 9.5t-227.5 20.5z" />
<glyph unicode="T" horiz-adv-x="1292" d="M285 1450l8 49h1102l-9 -49h-532l-229 -1450h-50l230 1450h-520z" />
<glyph unicode="U" horiz-adv-x="1394" d="M268 655l133 844h50l-134 -844q-16 -101 -21 -183q-4 -63 -4 -112v-30q2 -60 18.5 -106.5t31.5 -77.5t49.5 -51.5t59 -31.5t73.5 -16.5t80 -6.5t90 -1q49 0 84 2t79.5 8.5t76.5 19t69.5 35t65.5 54t57.5 78t52 106t43 138.5t35.5 175l134 844h49l-133 -844 q-22 -138 -55 -245t-66.5 -176.5t-84.5 -118t-89.5 -72.5t-103 -36.5t-102.5 -14.5t-108 -2q-162 0 -227 14q-140 31 -191 154q-36 86 -36 228q0 116 24 269z" />
<glyph unicode="V" horiz-adv-x="1368" d="M307 1499h51l289 -1446l772 1446h56l-799 -1499h-70z" />
<glyph unicode="W" horiz-adv-x="2007" d="M307 1499h49l291 -1448l733 1448h54l-308 -616l199 -834l735 1450h54l-758 -1499h-70l-196 811l-414 -811h-70z" />
<glyph unicode="X" horiz-adv-x="1110" d="M78 0l563 748l-332 751h58l311 -704l543 704h63l-582 -756l334 -743h-57l-311 694l-527 -694h-63z" />
<glyph unicode="Y" horiz-adv-x="1286" d="M307 1499h55l320 -901l651 901h60l-693 -967l-84 -532h-49l84 532z" />
<glyph unicode="Z" horiz-adv-x="1038" d="M72 0l8 49l1104 1401h-883l8 49h948l-8 -49l-1104 -1401h883l-8 -49h-948z" />
<glyph unicode="[" horiz-adv-x="542" d="M148.5 -39.5q0.5 42.5 7.5 84.5l229 1450q7 46 18.5 88t37 92.5t60.5 86.5t92 60.5t128 24.5h100l-6 -49h-102q-107 0 -180.5 -74t-98.5 -229l-229 -1450q-12 -61 -7 -116.5t24 -96.5t61 -65.5t104 -24.5h102l-8 -49h-102q-67 0 -115 25.5t-71.5 62.5t-34 87t-10 92.5z " />
<glyph unicode="\" horiz-adv-x="884" d="M289 1577h39l303 -1724h-39z" />
<glyph unicode="]" horiz-adv-x="552" d="M-27 -307l9 49h102q119 0 186.5 83.5t89.5 219.5l230 1450q25 155 -24 229t-156 74h-103l8 49h103q70 0 118.5 -25.5t71 -62.5t32 -87.5t8 -92t-8.5 -84.5l-229 -1450q-56 -352 -334 -352h-103z" />
<glyph unicode="^" horiz-adv-x="874" d="M274 1087l314 267h43l200 -267h-34l-193 236l-293 -236h-37z" />
<glyph unicode="_" horiz-adv-x="1327" d="M39 -2l8 49h1237l-8 -49h-1237z" />
<glyph unicode="`" horiz-adv-x="448" d="M256 1360h53l205 -273h-29z" />
<glyph unicode="a" d="M162 362q1 92 22 209q17 97 42.5 175.5t53 132t64 93.5t68.5 63t75 39t74 22.5t74 11.5q33 4 68 4q86 0 183 -24q137 -34 212 -107l-144 -981h-28l2 123q-62 -41 -191 -89t-233 -48q-62 0 -111 10.5t-94 34.5t-74 68t-47 107q-17 60 -16 146v10zM223 504 q-13 -80 -13 -148q0 -124 44 -202q66 -121 233 -121q37 0 71 2.5t72 12t59 14t65 21t54.5 20.5t62.5 26.5t57 24.5l119 821q-27 17 -61.5 32.5t-93.5 33.5q-58 17 -118 21q-20 1 -43 2q-45 0 -98 -5q-123 -17 -200.5 -72.5t-128 -170.5t-81.5 -312z" />
<glyph unicode="b" d="M123 0l254 1608h45l-92 -586q97 37 221 59.5t201 22.5q75 0 131.5 -23t90 -65.5t53.5 -95.5q21 -54 25 -122q2 -36 2 -71q0 -32 -2 -63q-4 -66 -16 -140q-12 -80 -34 -152t-60 -144t-87.5 -124t-121.5 -84t-158 -32q-98 0 -224 46.5t-163 86.5l-38 -121h-27zM195 150 q95 -52 184.5 -82.5t198.5 -30.5q67 0 129.5 29t118.5 87.5t98 157.5t63 228q17 101 17 183v6q0 78 -14 132q-14 56 -37.5 94.5t-58.5 60t-72 31t-83 9.5q-108 0 -193.5 -14.5t-217.5 -47.5z" />
<glyph unicode="c" horiz-adv-x="1005" d="M163 352q2 90 21 207q19 116 44.5 204.5t59 146.5t69.5 96t82.5 58t90.5 27t101 7q168 0 397 -54l-6 -28q-217 33 -399 33q-61 0 -106 -10.5t-91.5 -42.5t-80.5 -87.5t-63.5 -148.5t-50.5 -223q-17 -103 -19 -183v-22q0 -65 10 -112q12 -54 33 -90t55 -55.5t70 -27.5 t83 -8q84 0 190.5 10.5t170.5 21.5l65 11l-4 -33q-128 -35 -213.5 -46t-216.5 -13q-54 0 -96 9.5t-81 32t-63.5 64.5t-38.5 104q-13 54 -13 130v22z" />
<glyph unicode="d" horiz-adv-x="1067" d="M170 426q2 63 12 129q15 90 36 165t59 148t87 123.5t122 81.5t163 31q76 0 190.5 -22.5t200.5 -59.5l93 586h45l-254 -1608h-27l-2 121q-51 -41 -188 -87t-234 -46q-72 0 -127.5 24.5t-89 67.5t-55 97.5t-27.5 120.5q-5 47 -5 93q0 17 1 35zM222 304q10 -96 50 -155 t93.5 -85.5t121.5 -26.5q109 0 203.5 30t208.5 83l135 843q-83 23 -128.5 33.5t-114.5 19.5t-144 9q-56 0 -103.5 -12t-97.5 -46.5t-89 -90.5t-72.5 -149.5t-53.5 -217.5q-13 -93 -12 -166q0 -37 3 -69z" />
<glyph unicode="e" horiz-adv-x="1099" d="M178 569q10 59 18.5 101t22 92t28 85t37 74t49 65t62.5 51t79 39.5t98.5 23t121.5 8.5q101 0 174 -16t126 -51q52 -35 74 -97q14 -41 15 -93q0 -27 -4 -56q-12 -92 -62 -158.5t-120.5 -101t-156.5 -52.5t-169.5 -18t-159.5 6.5t-125.5 16.5t-68.5 18q-13 -102 -13 -180 q0 -112 26 -177q46 -111 204 -114h15q172 0 473 43l-7 -33q-216 -59 -477 -59q-192 0 -252 140q-32 75 -32 196q0 106 24 247zM221 535q10 -2 26.5 -4.5t68.5 -8.5t103 -9q34 -2 76 -2q21 1 45 1q70 2 131 10t124.5 28t110.5 50.5t80.5 80.5t41.5 114q4 27 4 51 q0 104 -68 152q-82 60 -253 61q-95 0 -166 -14t-120 -52t-79.5 -69.5t-54.5 -102t-34 -111.5t-28 -135q-5 -26 -8 -40z" />
<glyph unicode="f" horiz-adv-x="735" d="M188 1038l5 29l182 20l31 203q1 8 4 25q5 34 8.5 52.5t12.5 53.5t19.5 56t30 48.5t43.5 43.5t59.5 27.5t78.5 13.5h31q50 0 119 -4q91 -6 138 -19l-4 -26h-291q-51 0 -86 -18.5t-57 -58t-34.5 -83.5t-22.5 -111l-31 -203h364l-8 -49h-364l-164 -1038h-49l164 1038h-179z " />
<glyph unicode="g" horiz-adv-x="1089" d="M76 -508l4 29l463 -31h14q38 0 79 12q49 16 96.5 50t84.5 95t49 140l43 272q-96 -36 -225.5 -57.5t-210.5 -21.5q-91 0 -154.5 30.5t-97 81t-46.5 127.5q-10 59 -10 120q0 19 1 39q4 81 20 185q42 262 158 399.5t305 137.5q76 0 156 -3.5t120.5 -6.5t114.5 -10t78 -7 l-203 -1286q-15 -92 -54.5 -163t-92.5 -111t-113 -58q-45 -13 -90 -13l-30 1zM236 555q-19 -121 -19 -213q0 -117 31 -188q55 -125 231 -125q72 0 148.5 10.5t123.5 21t164 39.5l152 940l-408 11h-10q-166 0 -269 -127q-106 -131 -144 -369z" />
<glyph unicode="h" horiz-adv-x="1105" d="M123 0l254 1606h49l-102 -645q247 145 473 145q104 0 172.5 -50t92.5 -128q15 -48 15 -101q0 -33 -6 -69l-121 -758h-49l121 758q5 33 5 63q1 91 -47 153q-64 84 -198 83q-128 0 -229 -29t-234 -96l-147 -932h-49z" />
<glyph unicode="i" horiz-adv-x="294" d="M123 0l172 1087h49l-172 -1087h-49zM322 1315l12 86q3 24 28 24h25q19 0 20 -19q0 -3 -1 -5l-13 -86q-3 -25 -28 -25h-23q-10 0 -16 7q-4 5 -4 13v5z" />
<glyph unicode="j" horiz-adv-x="309" d="M57 -553l260 1640h50l-174 -1095q-56 -365 -109 -545h-27zM340 1315l14 86q3 24 29 24h25q18 0 18 -18v-6l-14 -86q-3 -25 -27 -25h-23q-11 0 -17 7.5t-5 17.5z" />
<glyph unicode="k" horiz-adv-x="970" d="M123 0l254 1602h49l-158 -994h8q122 0 227 28q108 30 181 77t130.5 112.5t90.5 128.5t53 133h52q-30 -109 -82 -196t-117.5 -143.5t-130 -91.5t-137.5 -58l352 -598h-57l-342 584q-97 -24 -179 -24q-28 0 -55 3l-90 -563h-49z" />
<glyph unicode="l" horiz-adv-x="641" d="M182 387l193 1217h49l-193 -1217q-11 -65 -11 -117v-11q0 -45 4 -75q4 -34 19.5 -59.5t25 -37.5t33 -21.5t31 -11t29.5 -4.5q3 -1 5 -1q133 -22 147 -22l-4 -27h-133q-131 0 -179 93q-29 56 -29 151q0 63 13 143z" />
<glyph unicode="m" horiz-adv-x="1886" d="M123 0l172 1087h29v-126q247 145 467 145q100 0 167.5 -45.5t96.5 -122.5q96 65 245.5 116.5t266.5 51.5q155 0 229 -102q56 -78 56 -180q0 -32 -5 -66l-121 -758h-49l121 758q5 31 5 60q0 88 -48 152q-64 86 -196 87q-118 0 -238.5 -38t-257.5 -106q12 -44 12 -94 q0 -30 -4 -61l-121 -758h-49l121 758q5 31 5 60q-1 88 -49 152q-64 86 -196 87q-128 0 -229 -29t-234 -96l-147 -932h-49z" />
<glyph unicode="n" horiz-adv-x="1105" d="M123 0l172 1087h29v-126q247 145 467 145q155 0 229 -102q56 -78 56 -180q0 -32 -5 -66l-121 -758h-49l121 758q5 31 5 60q-1 88 -49 152q-64 86 -196 87q-128 0 -229 -29t-234 -96l-147 -932h-49z" />
<glyph unicode="o" horiz-adv-x="1146" d="M173 227q-7 46 -7 101q0 94 20 215q26 167 67 274t107.5 170t152 87t212.5 24q174 0 264 -66t107 -196q6 -47 6 -102q0 -97 -19 -220q-47 -298 -161.5 -411t-372.5 -113q-179 0 -268 57t-108 180zM218 342q0 -7 -1 -13q0 -69 15 -119q16 -54 41.5 -88t71.5 -52 t94.5 -24.5t119.5 -6.5q84 0 144.5 11t116.5 42t94.5 85t69 141t50.5 210q17 108 18 192v10q0 76 -15 130q-16 56 -42.5 94t-71 58.5t-93.5 28.5t-115 8q-59 0 -100.5 -4t-88 -16.5t-80 -35t-67.5 -61t-58.5 -93.5t-46.5 -132.5t-38 -178.5q-16 -107 -18 -186z" />
<glyph unicode="p" horiz-adv-x="1079" d="M35 -553l260 1632q137 21 465 21q187 0 259 -150q45 -95 45 -235q0 -82 -15 -180q-16 -104 -38 -183t-58.5 -151.5t-85.5 -119t-121 -74t-164 -27.5q-79 0 -198 21t-204 58l-96 -612h-49zM186 92q138 -36 216 -49.5t184 -13.5q182 0 276.5 129t136.5 391q16 82 16 157 q0 20 -1 40q-6 92 -31.5 159.5t-85 106.5t-149.5 39h-410z" />
<glyph unicode="q" horiz-adv-x="1130" d="M170 410q4 71 18 157q42 261 158.5 397t306.5 136q330 0 459 -21l-258 -1632h-49l96 612q-96 -37 -221.5 -58t-204.5 -21q-76 0 -133 20.5t-92 60t-55 91t-25 120.5q-3 36 -3 72q0 33 3 66zM238 549q-18 -115 -18 -205q0 -114 30 -186q53 -129 235 -129q106 0 190.5 13.5 t231.5 49.5l152 959h-412q-89 0 -160.5 -38t-120 -108t-79.5 -158t-49 -198z" />
<glyph unicode="r" horiz-adv-x="804" d="M123 0l172 1087h24l3 -137q92 48 146.5 73.5t146.5 51t178 25.5q102 0 149 -17l-8 -47q-71 15 -150 15q-44 0 -88.5 -6.5t-74 -12.5t-79 -25t-68 -26.5t-80.5 -35.5t-79 -36l-143 -909h-49z" />
<glyph unicode="s" horiz-adv-x="1032" d="M131 10l4 29h500q38 0 60.5 1.5t58 11.5t57.5 29t42.5 57t29.5 93l16 101q3 18 3 34q0 57 -36 98q-46 52 -149 52h-268q-39 0 -67.5 1.5t-56.5 6t-47.5 12.5t-36 20.5t-26 30.5t-15 42.5t-4.5 56t7 70.5l14 94q21 129 95 188.5t229 59.5q86 0 241.5 -6t229.5 -13l-6 -28 h-474q-127 0 -187.5 -50.5t-78.5 -162.5l-14 -95q-5 -29 -5.5 -52.5t1.5 -41t10.5 -31t16 -22.5t24.5 -15t29.5 -9t37.5 -4.5t42 -2t49 -0.5h262q119 0 183 -66q50 -52 50 -132q0 -23 -4 -48l-16 -100q-10 -64 -34 -109t-51 -68t-70 -35.5t-73.5 -14.5t-80.5 -2 q-78 0 -257.5 7t-234.5 13z" />
<glyph unicode="t" horiz-adv-x="704" d="M188 1040l7 33l174 17l63 303h33l-47 -303h358l-8 -50h-358l-105 -655q-11 -65 -11 -117q0 -6 1 -11q0 -45 3 -75q4 -34 19 -59.5t25 -37.5t33 -21.5t30.5 -11t29.5 -4.5q3 -1 5 -1q134 -22 148 -22l-4 -27h-129q-131 0 -181 94q-30 57 -30 153q0 62 12 140l104 655h-172 z" />
<glyph unicode="u" horiz-adv-x="1103" d="M154 332l120 758h50l-121 -758q-5 -31 -5 -60q0 -88 48 -152q64 -86 196 -87q128 0 229 29t234 96l148 932h49l-172 -1088h-29v127q-247 -145 -465 -145q-104 0 -174.5 50t-96.5 128q-16 49 -16 105q0 31 5 65z" />
<glyph unicode="v" horiz-adv-x="1091" d="M193 1087h49l262 -1019l495 850q68 118 76 172h31l3 -32q1 -10 -5 -27q-6 -21 -10 -32.5t-13.5 -32t-13.5 -28.5t-12 -22l-8 -15l-523 -901h-57z" />
<glyph unicode="w" horiz-adv-x="1650" d="M193 1087h49l260 -1021l489 845q1 1 13.5 23t17 29.5t15.5 28.5t16 33t10.5 29t7.5 31h31q6 -11 1.5 -33t-8 -37t-14 -37.5t-16.5 -34.5t-15 -28t-10 -18l-129 -223l158 -613l496 852q73 125 80 177h30q3 -20 3 -30q0 -12 -6 -30q-6 -20 -10.5 -32.5t-13.5 -31t-14 -28.5 t-12 -22.5t-8 -14.5l-522 -901h-56l-159 614l-357 -614h-53z" />
<glyph unicode="x" horiz-adv-x="909" d="M49 0l479 545l-307 542h66l282 -497l439 497h65l-479 -542l307 -545h-65l-281 498l-440 -498h-66z" />
<glyph unicode="y" horiz-adv-x="1097" d="M193 1087h49l168 -849q29 -150 137 -181q37 -11 57 -6l420 879q48 108 57 172h31q4 -14 4 -32q0 -60 -45 -157l-436 -911q-5 -12 -14 -31.5t-38 -77t-58.5 -110t-72 -116t-82 -109.5t-85.5 -77.5t-86 -31.5v29h1q41 0 94 53q54 54 102.5 130.5t91 153.5t67.5 131l25 54 q-23 1 -48 8.5t-61 28.5t-65.5 69.5t-43.5 118.5z" />
<glyph unicode="z" horiz-adv-x="919" d="M92 2l8 49l867 987h-742l8 49h811l-8 -49l-868 -987h713l-9 -49h-780z" />
<glyph unicode="{" horiz-adv-x="532" d="M137 778l8 56q189 17 209 149l78 498q10 64 26 114.5t45.5 99t70.5 81t103.5 52t141.5 19.5l-8 -47q-141 0 -222.5 -76.5t-109.5 -257.5l-76 -483q-12 -71 -66.5 -119t-125.5 -57q66 -9 105.5 -58t29.5 -112l-94 -592q-27 -169 30.5 -237t202.5 -68l-8 -47 q-63 0 -112 12.5t-80 32t-51 50t-29 60t-10.5 69.5t1.5 71t9 71l90 570q11 69 -40 111.5t-118 37.5z" />
<glyph unicode="|" horiz-adv-x="440" d="M152 -147l272 1724h49l-272 -1724h-49z" />
<glyph unicode="}" horiz-adv-x="528" d="M-27 -307l9 47q145 0 222.5 68t104.5 237l94 592q10 64 65 112.5t124 57.5q-67 9 -107 57t-28 119l75 483q28 182 -28.5 260t-196.5 78l8 43q79 0 134.5 -22.5t85.5 -59t43.5 -90t12.5 -106.5t-11 -117l-74 -469q-6 -41 7 -71t41.5 -45.5t54.5 -22.5t57 -10l-9 -56 q-66 5 -130.5 -37t-75.5 -112l-95 -594q-6 -40 -13 -70t-20.5 -67.5t-31.5 -65t-47 -55t-66 -45t-89 -28.5t-116 -11z" />
<glyph unicode="~" horiz-adv-x="999" d="M287 1171q54 41 81.5 60.5t72 39t81.5 19.5q27 0 61.5 -23.5t62.5 -51t60 -51t54 -23.5q13 0 26.5 2t28 7.5t25.5 9.5t27 13.5t24.5 14t25.5 16.5t22 15.5t21.5 16t18.5 13.5l10 -14q-52 -45 -79.5 -66t-71.5 -41t-84 -20q-29 0 -63.5 23.5t-61 51t-58 51t-53.5 23.5 q-19 0 -39 -4.5t-34 -9t-38.5 -18.5t-33.5 -19t-40 -25.5t-38 -25.5z" />
<glyph unicode="&#xa1;" horiz-adv-x="489" d="M92 -553l184 1098h25l-164 -1098h-45zM289 793l22 129q4 20 27 20h24q11 0 16.5 -5t4.5 -15l-23 -129q-3 -27 -28 -27h-23q-24 0 -20 27z" />
<glyph unicode="&#xa2;" horiz-adv-x="978" d="M143.5 372q3.5 83 20.5 187q16 104 39 185t49 137.5t61 96.5t69 63t80.5 36t87.5 17t97 4l27 168h37l-27 -170q159 -9 326 -52l-4 -28q-220 33 -402 33q-61 0 -106 -10.5t-90.5 -42.5t-79 -87.5t-63 -148.5t-50.5 -223q-17 -103 -19.5 -183t9.5 -134t32.5 -90t54 -55.5 t69.5 -27.5t83 -8q84 0 191 10.5t172 21.5l65 11l-6 -33q-185 -52 -356 -57l-27 -160h-37l25 158q-54 -1 -96 4t-82 20.5t-67.5 42t-48.5 70t-29 103t-4.5 142.5z" />
<glyph unicode="&#xa3;" horiz-adv-x="1144" d="M102 0l4 29l152 20l104 668h-147l6 28l150 17l43 272q15 92 38.5 163.5t51.5 120.5t68.5 83t78 53t92.5 29.5t100 13t111 2.5q52 0 136.5 -4.5t143.5 -8.5l58 -5l-6 -29h-336q-65 0 -111 -3.5t-94.5 -13.5t-83 -28.5t-68 -49.5t-56.5 -75t-42 -106t-32 -142l-43 -272 l594 -17l-6 -28h-596l-105 -668h756l-8 -49h-953z" />
<glyph unicode="&#xa4;" horiz-adv-x="960" d="M162 336l98 84q-66 103 -45 233q20 123 127 219l-82 95l21 18l79 -96q109 88 234 88q129 0 209 -80l108 90l19 -20l-109 -90q37 -45 53.5 -109.5t6.5 -132.5q-19 -120 -119 -223l65 -78l-22 -19l-64 78q-115 -100 -241 -100q-147 0 -226 106l-96 -84zM244 643 q-21 -131 52 -225t200 -94q128 0 232 94.5t124 224.5q20 127 -55 215t-203 88q-124 0 -227 -89t-123 -214z" />
<glyph unicode="&#xa5;" horiz-adv-x="1193" d="M217 406l4 28h402l30 195h-401l4 28h399l-360 842h55l338 -790l629 790h63l-671 -842h421l-4 -28h-424l-30 -195h424l-4 -28h-424l-64 -406h-49l63 406h-401z" />
<glyph unicode="&#xa6;" horiz-adv-x="444" d="M152 -147l106 671h49l-106 -671h-49zM313 879l111 698h49l-111 -698h-49z" />
<glyph unicode="&#xa7;" horiz-adv-x="1144" d="M190 4l5 29h483q118 0 182 42t82 150l25 150q13 58 1 91t-55 44.5t-145 11.5h-305q-34 0 -52.5 0.5t-46.5 2t-42.5 5.5t-34 11t-29 18t-19.5 26.5t-13 36.5t-2.5 49t5.5 62l19 133q11 76 44 119.5t99 54.5q-40 8 -62 35t-25 61t1 72l23 148q12 72 42.5 123t75 77.5 t90.5 38t99 11.5q77 0 258 -7.5t237 -13.5l-4 -29h-499q-219 0 -250 -204l-23 -144q-14 -91 31.5 -119t163.5 -28h305q113 0 170 -24t69.5 -73.5t-1.5 -125.5l-21 -127q-5 -36 -12 -60.5t-21 -50.5t-39 -40t-61 -17q34 -7 54 -24t25 -43.5t4.5 -47t-5.5 -53.5l-25 -150 q-8 -48 -23 -85.5t-33.5 -62.5t-44.5 -43t-49.5 -27.5t-56.5 -15t-56.5 -6.5t-57.5 -1q-78 0 -251.5 7t-228.5 13zM274 666.5q0 -23.5 2.5 -40t16 -27t23 -16.5t37.5 -8.5t46 -3t60 -0.5h12h305q56 0 87 1t60.5 7.5t43 15t26 27.5t18 41.5t11.5 61.5l20 127q9 40 5 68 t-12.5 46.5t-34 29t-61.5 14.5t-93 4h-305q-71 0 -101 -2.5t-65.5 -18t-51.5 -50t-26 -95.5l-18 -125q-5 -33 -5 -56.5z" />
<glyph unicode="&#xa8;" horiz-adv-x="907" d="M289 1192q3 15 15.5 25t27.5 10t23 -10t5 -25t-14.5 -26t-26.5 -11t-24 11t-6 26zM811 1192q3 15 15.5 25t27.5 10t23.5 -10t5.5 -25t-14.5 -26t-26.5 -11t-24.5 11t-6.5 26z" />
<glyph unicode="&#xa9;" horiz-adv-x="1775" d="M214 608q2 79 13 152q17 108 46 206t79.5 197.5t115.5 172t161 118t209 45.5h524q83 0 146.5 -29t102 -75.5t63 -113t33.5 -133t9 -143.5t-6 -137.5t-16 -122.5q-24 -152 -72.5 -284t-118.5 -236t-167.5 -164.5t-209.5 -60.5h-524q-91 0 -161.5 37t-113 99.5t-70 140 t-36.5 165t-7 166.5zM240.5 588.5q-1.5 -83.5 10 -165t39.5 -152.5t69.5 -125.5t104.5 -85.5t140 -31h526q181 0 330.5 191.5t204.5 533.5q16 101 20 189.5t-3 170t-30 145.5t-60.5 112t-95.5 73.5t-134 25.5h-528q-72 0 -138.5 -20.5t-135.5 -72t-125.5 -131t-104 -205.5 t-74.5 -287q-14 -82 -15.5 -165.5zM572 568q-5 78 14 186q19 120 55.5 207.5t85.5 137t104.5 72.5t120.5 23t171.5 -10t187.5 -25l-2 -18q-169 24 -361 24q-266 0 -334 -424q-32 -203 14 -307t187 -104q244 0 383 32l-4 -18q-159 -43 -383 -43q-51 0 -91 12.5t-74.5 43 t-51.5 82t-22 129.5z" />
<glyph unicode="&#xaa;" horiz-adv-x="690" d="M147 596l5 27h571l-4 -27h-572zM214.5 1023q-2.5 58 6.5 134q13 84 41.5 147.5t60 98.5t73.5 57t72.5 29t66.5 10q195 15 301 -100l-97 -619h-20l4 115q-46 -55 -120.5 -89t-151.5 -34q-32 0 -61.5 7.5t-61 25t-54 46.5t-40 71.5t-20 100.5zM254 1147q-25 -154 30.5 -248 t172.5 -94q122 0 272 119l72 467q-21 29 -93 53.5t-157 21.5q-129 -3 -201 -84.5t-96 -234.5z" />
<glyph unicode="&#xab;" horiz-adv-x="1150" d="M217 725l485 418l31 -35l-446 -387l327 -391l-34 -33zM596 725l485 418l31 -35l-450 -385l335 -395l-39 -31z" />
<glyph unicode="&#xac;" horiz-adv-x="1095" d="M184 575l9 50h813q-9 -59 -24 -150t-24 -149h-49l39 249h-764z" />
<glyph unicode="&#xad;" horiz-adv-x="739" d="M123 569l8 49h643l-8 -49h-643z" />
<glyph unicode="&#xae;" horiz-adv-x="1775" d="M214 629.5q3 66.5 13 128.5q17 108 46 206t79.5 198t115.5 173t161 118.5t209 45.5h524q83 0 146.5 -29t102 -75.5t63 -113t33.5 -133t9 -143.5t-6 -137.5t-16 -122.5q-24 -152 -72.5 -284t-118.5 -236t-167.5 -164.5t-209.5 -60.5h-524q-78 0 -141.5 28t-105.5 74.5 t-72 110t-45 132t-21 143.5t-3 141.5zM240.5 588.5q-1.5 -83.5 9 -165t38.5 -152.5t69 -125.5t103.5 -85.5t139.5 -31h530q181 0 330.5 191.5t204.5 533.5q19 121 22 225t-13 196t-52.5 156t-102 101.5t-155.5 37.5h-530q-72 0 -138.5 -20.5t-135.5 -72t-125.5 -131 t-104 -205.5t-74.5 -287q-14 -82 -15.5 -165.5zM590 313l137 875h363q43 0 77 -7t66 -24.5t49 -47.5t25.5 -76t-4.5 -111q-8 -49 -22 -86t-34.5 -59t-39.5 -36t-46 -20t-44 -8t-43 -2.5t-34 -1.5l166 -396h-30l-166 394l-328 10l-64 -404h-28zM684 735h346q113 0 169 38.5 t75 154.5q21 126 -25 178.5t-151 52.5h-346z" />
<glyph unicode="&#xaf;" horiz-adv-x="804" d="M274 1087l5 31h516l-4 -31h-517z" />
<glyph unicode="&#xb0;" horiz-adv-x="727" d="M305 1294q14 88 83 149.5t155 61.5q87 0 139 -62t39 -149q-14 -88 -81 -148.5t-153 -60.5q-87 0 -141 61t-41 148zM334 1294q-12 -75 32.5 -127.5t118.5 -52.5t134.5 52.5t72.5 127.5t-32 129t-117 54q-74 0 -135.5 -54t-73.5 -129z" />
<glyph unicode="&#xb1;" horiz-adv-x="1048" d="M141 281l9 49h790l-8 -49h-791zM229 842l9 49h370l60 371h49l-60 -371h371l-8 -49h-371l-57 -371h-49l57 371h-371z" />
<glyph unicode="&#xb2;" horiz-adv-x="813" d="M154 729l4 29q4 3 55.5 39.5t75 53t82 60t93 71t90 73t90.5 79t77.5 77.5t68 79t45.5 72.5t25 69.5q11 53 6 98t-24 78t-65 52t-118 19h-362q-5 0 2 20l2 3q29 3 54.5 5.5t56.5 4t46.5 2.5t54.5 1.5t48 0.5h59h58q73 0 123.5 -23.5t73.5 -63t31 -93t-5 -113.5 q-7 -42 -37 -92.5t-70.5 -98t-98 -102.5t-108.5 -98t-114 -92t-101.5 -77t-84.5 -60.5t-51 -36.5h557l-7 -37h-632z" />
<glyph unicode="&#xb3;" horiz-adv-x="872" d="M156 743l2 15h358q131 0 195 46.5t84 168.5l6 47q13 86 -48 134t-149 50l-293 8l4 21l281 8q101 3 181 50t89 120l8 74q30 184 -184 184h-395l2 21q16 3 33 5.5t39 4t39 2.5t45 2t44 1.5t49.5 0.5h48h52.5h51q126 0 177 -63.5t36 -163.5l-12 -78q-11 -77 -79 -125.5 t-120 -52.5q19 -3 43 -17t49.5 -37.5t39.5 -62.5t8 -84l-11 -61q-19 -118 -86 -179t-211 -61q-273 0 -376 22z" />
<glyph unicode="&#xb4;" horiz-adv-x="403" d="M213 1087l291 273h53l-315 -273h-29z" />
<glyph unicode="&#xb5;" horiz-adv-x="1191" d="M96 -553l140 885l120 758h50l-121 -758q-21 -126 43 -212.5t196 -86.5q128 0 229 29t234 96l148 932h49l-172 -1088h-29v127q-247 -145 -467 -145q-97 0 -163 42.5t-97 114.5l-111 -694h-49z" />
<glyph unicode="&#xb6;" horiz-adv-x="1144" d="M242 1036l30 191q11 70 47.5 124t88 85.5t109.5 47t120 15.5h686l-8 -53h-141l-230 -1446h-49l229 1450h-336l-317 -2003h-49l207 1301q-32 -20 -115 -17q-101 0 -168.5 43.5t-92 111.5t-11.5 150zM291 1026q-10 -63 5.5 -111t43.5 -73.5t66.5 -41.5t65.5 -20t50 -4h111 l106 674h-110q-127 0 -211 -67t-99 -171z" />
<glyph unicode="&#xb7;" horiz-adv-x="575" d="M285 770l4 25q3 24 28 24h25q21 0 18 -24l-4 -25q-3 -25 -26 -25h-25q-10 0 -16 7t-4 18z" />
<glyph unicode="&#xb8;" horiz-adv-x="555" d="M45 -354l2 14l70 10q34 5 53 9.5t43.5 14.5t39 26.5t30 43t25.5 66t18 94.5h34q-13 -81 -29 -130.5t-45 -84.5t-71 -49t-106 -14h-64z" />
<glyph unicode="&#xb9;" horiz-adv-x="565" d="M236 1548l2 23q73 0 153.5 34.5t124.5 68.5l45 34h37l-156 -979h-36l145 924q-25 -20 -62 -40.5t-109 -42.5t-144 -22z" />
<glyph unicode="&#xba;" horiz-adv-x="751" d="M170 596l4 27h571l-4 -27h-571zM218 924q-11 83 11 213q12 76 25.5 129t34 96.5t46 70t64 44.5t86.5 25t115 7q130 0 189.5 -37t70 -124.5t-15.5 -231.5q-16 -104 -37.5 -166.5t-62 -107t-103 -61.5t-160.5 -17q-128 0 -190 38.5t-73 121.5zM248.5 964.5 q-0.5 -63.5 27 -100.5t76.5 -52t135 -15q83 0 133.5 12t90 48t62 99.5t38.5 169.5q15 105 17.5 172.5t-23.5 107.5t-74.5 55.5t-136.5 15.5q-86 0 -137 -12t-91.5 -51t-63 -106t-40.5 -182q-13 -98 -13.5 -161.5z" />
<glyph unicode="&#xbb;" horiz-adv-x="1144" d="M166 334l461 397l-322 379l37 33l352 -418l-497 -428zM545 334l463 395l-324 383l37 31l352 -418l-498 -428z" />
<glyph unicode="&#xbc;" horiz-adv-x="1888" d="M236 1343l2 23q46 0 96 14t89 34t71 40.5t50 34.5l17 14h37l-156 -979h-36l145 924q-25 -20 -62 -40.5t-109 -42.5t-144 -22zM430 0l1040 1577h41l-1040 -1577h-41zM1030 362l486 611h45l-467 -592h534l39 248l35 98h18l-55 -346h121l-2 -16l-125 -23l-53 -340h-37 l53 340h-588z" />
<glyph unicode="&#xbd;" horiz-adv-x="1941" d="M236 1343l2 23q46 0 96 14t89 34t71 40.5t50 34.5l17 14h37l-156 -979h-36l145 924q-25 -20 -62 -40.5t-109 -42.5t-144 -22zM336 0l1040 1577h41l-1040 -1577h-41zM1114 2l4 29q6 4 56 39.5t75 53t82.5 60t92.5 70.5t90 73.5t90.5 79t78 77.5t68 79t45.5 72.5t25 69.5 q11 53 6 98t-24 78t-65 52t-118 19h-363q-5 0 2 19l3 4q29 3 54.5 5.5t56.5 4t46 2.5t54 1.5t48 0.5h59h58q73 0 123.5 -22.5t73.5 -61t31 -91t-4 -112.5q-6 -40 -29.5 -86t-61 -92t-79 -90.5t-95 -91t-98 -83.5t-99 -77t-86 -63t-71 -50t-43.5 -30h553l-6 -37h-633z" />
<glyph unicode="&#xbe;" horiz-adv-x="2113" d="M156 539l2 14h358q131 0 195 46.5t84 168.5l6 47q13 86 -48 134t-149 50l-293 9l4 20l281 8q101 3 181 50t89 120l8 74q30 184 -184 184h-395l2 21q16 3 33 5.5t39 4t39 2.5t45 2t44 1.5t49.5 0.5h48h52.5h51q126 0 177 -63.5t36 -163.5l-12 -78q-11 -77 -79 -125.5 t-120 -52.5q19 -3 43 -17t49.5 -37.5t39.5 -62.5t8 -84l-11 -61q-19 -118 -86 -179t-211 -61q-269 0 -376 23zM647 0l1041 1577h41l-1041 -1577h-41zM1202 362l488 611h45l-471 -592h538l39 248l35 98h18l-55 -346h121l-2 -16l-125 -23l-53 -340h-37l53 340h-588z" />
<glyph unicode="&#xbf;" horiz-adv-x="1107" d="M47.5 -293.5q-0.5 59.5 9.5 129.5l33 205q31 197 171 270.5t425 44.5l33 209h53l-39 -250h-217q-167 0 -260 -64t-117 -214l-33 -209q-29 -182 42 -255t266 -73h514l-4 -28q-189 -21 -521 -21q-95 -2 -163.5 15.5t-108 51t-61.5 81.5t-22.5 107.5zM752 811l18 127 q3 25 29 25h22q10 0 16.5 -7t4.5 -18l-19 -127q-3 -25 -28 -25h-25q-22 0 -18 25z" />
<glyph unicode="&#xc0;" horiz-adv-x="1316" d="M92 0l799 1499h70l299 -1499h-50l-104 518h-682l-274 -518h-58zM451 567h645l-176 885zM703 1905h54l204 -273h-28z" />
<glyph unicode="&#xc1;" horiz-adv-x="1316" d="M92 0l799 1499h70l299 -1499h-50l-104 518h-682l-274 -518h-58zM451 567h645l-176 885zM933 1632l291 273h53l-316 -273h-28z" />
<glyph unicode="&#xc2;" horiz-adv-x="1316" d="M92 0l799 1499h70l299 -1499h-50l-104 518h-682l-274 -518h-58zM451 567h645l-176 885zM669 1632l313 266h43l201 -266h-35l-193 236l-293 -236h-36z" />
<glyph unicode="&#xc3;" horiz-adv-x="1316" d="M92 0l799 1499h70l299 -1499h-50l-104 518h-682l-274 -518h-58zM451 567h645l-176 885zM611 1696q54 41 81.5 60.5t72 39t81.5 19.5q27 0 61.5 -23.5t62.5 -51.5t60 -51.5t54 -23.5q15 0 31 3.5t29 7.5t31 13.5t28 15t29 18.5t25.5 17.5t25 18t20.5 15.5l10 -15 q-52 -45 -79.5 -66t-71.5 -41t-84 -20q-29 0 -63.5 23.5t-61 51.5t-58 51.5t-53.5 23.5q-19 0 -39 -4.5t-34.5 -9.5t-37.5 -18t-34 -20t-39.5 -26t-38.5 -25z" />
<glyph unicode="&#xc4;" horiz-adv-x="1316" d="M92 0l799 1499h70l299 -1499h-50l-104 518h-682l-274 -518h-58zM451 567h645l-176 885zM656 1669q3 15 15.5 25t27.5 10t23.5 -10t5.5 -25t-14.5 -26t-26.5 -11t-24.5 11t-6.5 26zM1178 1669q3 15 15.5 25t27.5 10t23.5 -10t5.5 -25t-14.5 -26t-26.5 -11t-24.5 11 t-6.5 26z" />
<glyph unicode="&#xc5;" horiz-adv-x="1316" d="M92 0l799 1499h70l299 -1499h-50l-104 518h-682l-274 -518h-58zM451 567h645l-176 885zM753 1704q13 87 85 149t159 62q86 0 136 -61.5t36 -149.5q-13 -88 -83.5 -148.5t-156.5 -60.5q-87 0 -138 61t-38 148zM784 1704q-12 -73 32.5 -125.5t118.5 -52.5q73 0 133 52 t72 126t-32.5 127.5t-117.5 53.5t-133.5 -53.5t-72.5 -127.5z" />
<glyph unicode="&#xc6;" horiz-adv-x="1835" d="M61 0l961 1208q112 140 149 177q85 87 183 106q52 11 121 8l542 -20l-4 -29h-547q-35 0 -64 -3t-50.5 -7t-38.5 -13t-28.5 -16t-20.5 -22.5t-14.5 -26t-10 -31.5t-6.5 -34.5t-5.5 -40.5t-6.5 -44l-72 -444l674 -10l-6 -29l-674 -10l-76 -467q-5 -31 -5 -57t4 -45.5 t13 -35.5t20 -27t26.5 -19t30.5 -12.5t34 -7.5t36 -4t38 -1h526l-4 -29l-512 -20q-24 -1 -45 0t-45 4t-43.5 9t-40 15.5t-34.5 23.5t-27.5 33t-18.5 43.5t-7.5 56t5.5 69.5l43 268h-531l-407 -516h-62zM571 565h498l123 781z" />
<glyph unicode="&#xc7;" horiz-adv-x="1155" d="M240 770q17 106 35.5 190t45.5 163.5t60.5 138t79.5 108.5t102.5 81t129.5 48t161 17q177 0 434 -50l-4 -28l-14 2q-15 1 -40 3.5t-58 5.5t-73 6t-81 5.5t-85.5 4t-82.5 1.5q-94 0 -165.5 -19.5t-135.5 -67.5t-111 -129.5t-84.5 -205t-64.5 -294.5q-56 -355 26 -534 t312 -179q96 0 205.5 6t171.5 12l61 6l-4 -28q-107 -20 -235 -32.5t-210 -12.5q-500 0 -376 782zM397 -352l2 14l68 10q34 5 53 9.5t43.5 14.5t39 26.5t30 43t25.5 66t18 94.5h35q-13 -81 -29 -130.5t-44.5 -84.5t-70.5 -49t-106 -14h-64z" />
<glyph unicode="&#xc8;" horiz-adv-x="1148" d="M196 161.5q-2 42.5 5 100.5l155 981q12 72 41.5 124.5t71.5 80.5t88 40.5t98 10.5l607 -20l-5 -29h-608q-208 0 -243 -217l-74 -465l733 -10l-4 -29l-737 -10l-74 -467q-4 -35 -5.5 -63t7 -49t17 -36.5t25.5 -26.5t32.5 -17.5t37 -10t40.5 -5t42 -1.5h588l-4 -29 l-592 -20q-36 -1 -67 2.5t-63 14t-53 29.5t-39 49t-20 72.5zM635 1894h53l205 -272h-29z" />
<glyph unicode="&#xc9;" horiz-adv-x="1148" d="M196 161.5q-2 42.5 5 100.5l155 981q12 72 41.5 124.5t71.5 80.5t88 40.5t98 10.5l607 -20l-5 -29h-608q-208 0 -243 -217l-74 -465l733 -10l-4 -29l-737 -10l-74 -467q-4 -35 -5.5 -63t7 -49t17 -36.5t25.5 -26.5t32.5 -17.5t37 -10t40.5 -5t42 -1.5h588l-4 -29 l-592 -20q-36 -1 -67 2.5t-63 14t-53 29.5t-39 49t-20 72.5zM836 1622l290 272h54l-316 -272h-28z" />
<glyph unicode="&#xca;" horiz-adv-x="1148" d="M196 161.5q-2 42.5 5 100.5l155 981q12 72 41.5 124.5t71.5 80.5t88 40.5t98 10.5l607 -20l-5 -29h-608q-208 0 -243 -217l-74 -465l733 -10l-4 -29l-737 -10l-74 -467q-4 -35 -5.5 -63t7 -49t17 -36.5t25.5 -26.5t32.5 -17.5t37 -10t40.5 -5t42 -1.5h588l-4 -29 l-592 -20q-36 -1 -67 2.5t-63 14t-53 29.5t-39 49t-20 72.5zM602 1622l313 266h43l201 -266h-35l-192 236l-293 -236h-37z" />
<glyph unicode="&#xcb;" horiz-adv-x="1148" d="M196 161.5q-2 42.5 5 100.5l155 981q12 72 41.5 124.5t71.5 80.5t88 40.5t98 10.5l607 -20l-5 -29h-608q-208 0 -243 -217l-74 -465l733 -10l-4 -29l-737 -10l-74 -467q-4 -35 -5.5 -63t7 -49t17 -36.5t25.5 -26.5t32.5 -17.5t37 -10t40.5 -5t42 -1.5h588l-4 -29 l-592 -20q-36 -1 -67 2.5t-63 14t-53 29.5t-39 49t-20 72.5zM580 1726q3 15 15.5 25t27.5 10t23 -10t5 -25t-14.5 -25.5t-26.5 -10.5t-24 10.5t-6 25.5zM1102 1726q3 15 15.5 25t27.5 10t23.5 -10t5.5 -25t-14.5 -25.5t-26.5 -10.5t-24.5 10.5t-6.5 25.5z" />
<glyph unicode="&#xcc;" horiz-adv-x="393" d="M184 0l238 1499h49l-238 -1499h-49zM224 1905h53l205 -273h-28z" />
<glyph unicode="&#xcd;" horiz-adv-x="393" d="M184 0l238 1499h49l-238 -1499h-49zM454 1632l290 273h54l-316 -273h-28z" />
<glyph unicode="&#xce;" horiz-adv-x="393" d="M184 0l238 1499h49l-238 -1499h-49zM189 1632l314 266h43l200 -266h-34l-193 236l-293 -236h-37z" />
<glyph unicode="&#xcf;" horiz-adv-x="393" d="M177 1669q3 15 15.5 25t27.5 10t23 -10t5 -25t-14.5 -26t-26.5 -11t-24 11t-6 26zM184 0l238 1499h49l-238 -1499h-49zM699 1669q3 15 15.5 25t27.5 10t23.5 -10t5.5 -25t-14.5 -26t-26.5 -11t-24.5 11t-6.5 26z" />
<glyph unicode="&#xd0;" horiz-adv-x="1404" d="M147 750l5 28h133l114 721h516q96 0 171.5 -27t123.5 -72.5t80 -109t46 -131.5t16.5 -146t-4 -147t-19.5 -139q-23 -123 -58 -227t-89.5 -198t-123 -159.5t-162 -104t-204.5 -38.5h-530l119 750h-134zM219 49h473q107 0 199 44t155 113t112 163.5t77.5 186t44.5 189.5 q60 356 -38.5 530.5t-336.5 174.5h-465l-106 -672h325l-4 -28h-325z" />
<glyph unicode="&#xd1;" horiz-adv-x="1314" d="M164 0l237 1499h52l675 -1411l226 1411h49l-238 -1499h-49l-678 1413l-225 -1413h-49zM587 1696q53 40 81.5 60t73 39.5t81.5 19.5q27 0 61.5 -23.5t62.5 -51.5t60 -51.5t54 -23.5q15 0 31 3.5t29 7.5t31 13.5t28 15t29 18.5t25.5 17.5t25 18t20.5 15.5l10 -15 q-52 -44 -80 -65.5t-72 -41.5t-84 -20q-29 0 -63.5 23.5t-61 51.5t-57.5 51.5t-53 23.5q-19 0 -39 -4.5t-34.5 -9.5t-37.5 -18t-34 -20t-39.5 -26t-38.5 -25z" />
<glyph unicode="&#xd2;" horiz-adv-x="1400" d="M209 383q-1 73 7 165.5t26 205.5q24 149 55 263t65 194t81.5 135t93 87t111.5 49t124 22t143 5q64 0 112 -4t97 -14.5t83.5 -29t66.5 -48.5t51 -72t32 -100.5t14.5 -133.5t-6.5 -170.5t-26 -211.5q-19 -124 -43 -221.5t-54.5 -172t-63 -129t-76 -92t-87 -61t-102.5 -36 t-114 -17t-131 -4.5q-66 0 -115.5 3.5t-99.5 14t-84 28.5t-66 47t-50 70.5t-30.5 98t-13.5 129.5zM260 372.5q3 -71.5 14.5 -122.5t37.5 -88.5t58 -60.5t81.5 -36.5t102.5 -18.5t126 -5q80 0 139.5 7t117.5 25.5t100.5 51.5t82 84.5t69 126t55 174t46.5 229.5 q17 110 24.5 199.5t7 159.5t-12.5 123.5t-28.5 91.5t-46 65t-60 43t-77 24.5t-89.5 11.5t-103 3q-77 0 -125 -3.5t-109.5 -18.5t-101 -44t-85.5 -81.5t-77.5 -128.5t-62 -187.5t-53.5 -257.5q-18 -115 -26 -205t-5 -161.5zM692 1905h53l205 -273h-29z" />
<glyph unicode="&#xd3;" horiz-adv-x="1400" d="M209 383q-1 73 7 165.5t26 205.5q24 149 55 263t65 194t81.5 135t93 87t111.5 49t124 22t143 5q64 0 112 -4t97 -14.5t83.5 -29t66.5 -48.5t51 -72t32 -100.5t14.5 -133.5t-6.5 -170.5t-26 -211.5q-19 -124 -43 -221.5t-54.5 -172t-63 -129t-76 -92t-87 -61t-102.5 -36 t-114 -17t-131 -4.5q-66 0 -115.5 3.5t-99.5 14t-84 28.5t-66 47t-50 70.5t-30.5 98t-13.5 129.5zM260 372.5q3 -71.5 14.5 -122.5t37.5 -88.5t58 -60.5t81.5 -36.5t102.5 -18.5t126 -5q80 0 139.5 7t117.5 25.5t100.5 51.5t82 84.5t69 126t55 174t46.5 229.5 q17 110 24.5 199.5t7 159.5t-12.5 123.5t-28.5 91.5t-46 65t-60 43t-77 24.5t-89.5 11.5t-103 3q-77 0 -125 -3.5t-109.5 -18.5t-101 -44t-85.5 -81.5t-77.5 -128.5t-62 -187.5t-53.5 -257.5q-18 -115 -26 -205t-5 -161.5zM921 1632l291 273h53l-315 -273h-29z" />
<glyph unicode="&#xd4;" horiz-adv-x="1400" d="M209 383q-1 73 7 165.5t26 205.5q24 149 55 263t65 194t81.5 135t93 87t111.5 49t124 22t143 5q64 0 112 -4t97 -14.5t83.5 -29t66.5 -48.5t51 -72t32 -100.5t14.5 -133.5t-6.5 -170.5t-26 -211.5q-19 -124 -43 -221.5t-54.5 -172t-63 -129t-76 -92t-87 -61t-102.5 -36 t-114 -17t-131 -4.5q-66 0 -115.5 3.5t-99.5 14t-84 28.5t-66 47t-50 70.5t-30.5 98t-13.5 129.5zM260 372.5q3 -71.5 14.5 -122.5t37.5 -88.5t58 -60.5t81.5 -36.5t102.5 -18.5t126 -5q80 0 139.5 7t117.5 25.5t100.5 51.5t82 84.5t69 126t55 174t46.5 229.5 q17 110 24.5 199.5t7 159.5t-12.5 123.5t-28.5 91.5t-46 65t-60 43t-77 24.5t-89.5 11.5t-103 3q-77 0 -125 -3.5t-109.5 -18.5t-101 -44t-85.5 -81.5t-77.5 -128.5t-62 -187.5t-53.5 -257.5q-18 -115 -26 -205t-5 -161.5zM657 1632l313 266h43l201 -266h-35l-193 236 l-292 -236h-37z" />
<glyph unicode="&#xd5;" horiz-adv-x="1400" d="M209 383q-1 73 7 165.5t26 205.5q24 149 55 263t65 194t81.5 135t93 87t111.5 49t124 22t143 5q64 0 112 -4t97 -14.5t83.5 -29t66.5 -48.5t51 -72t32 -100.5t14.5 -133.5t-6.5 -170.5t-26 -211.5q-19 -124 -43 -221.5t-54.5 -172t-63 -129t-76 -92t-87 -61t-102.5 -36 t-114 -17t-131 -4.5q-66 0 -115.5 3.5t-99.5 14t-84 28.5t-66 47t-50 70.5t-30.5 98t-13.5 129.5zM260 372.5q3 -71.5 14.5 -122.5t37.5 -88.5t58 -60.5t81.5 -36.5t102.5 -18.5t126 -5q80 0 139.5 7t117.5 25.5t100.5 51.5t82 84.5t69 126t55 174t46.5 229.5 q17 110 24.5 199.5t7 159.5t-12.5 123.5t-28.5 91.5t-46 65t-60 43t-77 24.5t-89.5 11.5t-103 3q-77 0 -125 -3.5t-109.5 -18.5t-101 -44t-85.5 -81.5t-77.5 -128.5t-62 -187.5t-53.5 -257.5q-18 -115 -26 -205t-5 -161.5zM599 1696q53 40 81.5 60t73 39.5t81.5 19.5 q27 0 61.5 -23.5t62.5 -51.5t59.5 -51.5t53.5 -23.5q15 0 31 3.5t29 7.5t31 13.5t28 15t29 18.5t25.5 17.5t25 18t20.5 15.5l11 -15q-52 -44 -80 -65.5t-72 -41.5t-84 -20q-29 0 -63.5 23.5t-61 51.5t-57.5 51.5t-53 23.5q-19 0 -39 -4.5t-34 -9.5t-38.5 -18.5t-34 -19.5 t-40 -26t-38.5 -25z" />
<glyph unicode="&#xd6;" horiz-adv-x="1400" d="M209 383q-1 73 7 165.5t26 205.5q24 149 55 263t65 194t81.5 135t93 87t111.5 49t124 22t143 5q64 0 112 -4t97 -14.5t83.5 -29t66.5 -48.5t51 -72t32 -100.5t14.5 -133.5t-6.5 -170.5t-26 -211.5q-19 -124 -43 -221.5t-54.5 -172t-63 -129t-76 -92t-87 -61t-102.5 -36 t-114 -17t-131 -4.5q-66 0 -115.5 3.5t-99.5 14t-84 28.5t-66 47t-50 70.5t-30.5 98t-13.5 129.5zM260 372.5q3 -71.5 14.5 -122.5t37.5 -88.5t58 -60.5t81.5 -36.5t102.5 -18.5t126 -5q80 0 139.5 7t117.5 25.5t100.5 51.5t82 84.5t69 126t55 174t46.5 229.5 q17 110 24.5 199.5t7 159.5t-12.5 123.5t-28.5 91.5t-46 65t-60 43t-77 24.5t-89.5 11.5t-103 3q-77 0 -125 -3.5t-109.5 -18.5t-101 -44t-85.5 -81.5t-77.5 -128.5t-62 -187.5t-53.5 -257.5q-18 -115 -26 -205t-5 -161.5zM644 1669q3 15 15.5 25t27.5 10t23.5 -10t5.5 -25 t-14.5 -26t-26.5 -11t-24.5 11t-6.5 26zM1166 1669q3 15 15.5 25t27.5 10t23.5 -10t5.5 -25t-14.5 -26t-26.5 -11t-24.5 11t-6.5 26z" />
<glyph unicode="&#xd7;" horiz-adv-x="907" d="M190 467l304 262l-220 262l35 31l221 -262l308 266l28 -35l-307 -266l221 -262l-37 -31l-219 262l-305 -262z" />
<glyph unicode="&#xd8;" horiz-adv-x="1400" d="M174 0l96 121q-101 154 -28 624q18 116 40.5 211t47 168.5t56 130.5t62.5 97.5t72.5 69t80.5 45.5t91.5 26.5t100 12.5t112.5 3q147 0 241 -23t148 -89l82 102h37l-102 -127q104 -167 28 -647q-19 -124 -43 -221.5t-54.5 -172t-63 -129t-76 -92t-87 -61t-102.5 -36 t-114 -17t-131 -4.5q-149 0 -237.5 20.5t-141.5 83.5l-78 -96h-37zM259.5 377q3.5 -138 47.5 -213l953 1192q-48 65 -130.5 84.5t-224.5 19.5q-77 0 -125 -3.5t-109.5 -18.5t-101 -44t-85.5 -81.5t-77.5 -128.5t-62 -187.5t-53.5 -257.5q-35 -224 -31.5 -362zM324 139 q46 -57 132.5 -77.5t229.5 -20.5q80 0 139 7t116.5 25.5t99.5 51.5t81 84.5t68 126t54 174t46 229.5q69 435 -14 590z" />
<glyph unicode="&#xd9;" horiz-adv-x="1394" d="M268 655l133 844h50l-134 -844q-16 -101 -21 -182.5t-3.5 -142t18 -107t31.5 -77.5t49.5 -51.5t59 -31.5t73.5 -16.5t80 -6.5t90 -1q49 0 84 2t79.5 8.5t76.5 19t69.5 35t65.5 54t57.5 78t52 106t43 138.5t35.5 175l134 844h49l-133 -844q-22 -138 -55 -245t-66.5 -176.5 t-84.5 -118t-89.5 -72.5t-103 -36.5t-102.5 -14.5t-108 -2q-162 0 -227 14q-140 31 -191 154q-66 157 -12 497zM698 1905h54l204 -273h-28z" />
<glyph unicode="&#xda;" horiz-adv-x="1394" d="M268 655l133 844h50l-134 -844q-16 -101 -21 -182.5t-3.5 -142t18 -107t31.5 -77.5t49.5 -51.5t59 -31.5t73.5 -16.5t80 -6.5t90 -1q49 0 84 2t79.5 8.5t76.5 19t69.5 35t65.5 54t57.5 78t52 106t43 138.5t35.5 175l134 844h49l-133 -844q-22 -138 -55 -245t-66.5 -176.5 t-84.5 -118t-89.5 -72.5t-103 -36.5t-102.5 -14.5t-108 -2q-162 0 -227 14q-140 31 -191 154q-66 157 -12 497zM928 1632l290 273h54l-316 -273h-28z" />
<glyph unicode="&#xdb;" horiz-adv-x="1394" d="M268 655l133 844h50l-134 -844q-16 -101 -21 -182.5t-3.5 -142t18 -107t31.5 -77.5t49.5 -51.5t59 -31.5t73.5 -16.5t80 -6.5t90 -1q49 0 84 2t79.5 8.5t76.5 19t69.5 35t65.5 54t57.5 78t52 106t43 138.5t35.5 175l134 844h49l-133 -844q-22 -138 -55 -245t-66.5 -176.5 t-84.5 -118t-89.5 -72.5t-103 -36.5t-102.5 -14.5t-108 -2q-162 0 -227 14q-140 31 -191 154q-66 157 -12 497zM663 1632l314 266h43l201 -266h-35l-193 236l-293 -236h-37z" />
<glyph unicode="&#xdc;" horiz-adv-x="1394" d="M268 655l133 844h50l-134 -844q-16 -101 -21 -182.5t-3.5 -142t18 -107t31.5 -77.5t49.5 -51.5t59 -31.5t73.5 -16.5t80 -6.5t90 -1q49 0 84 2t79.5 8.5t76.5 19t69.5 35t65.5 54t57.5 78t52 106t43 138.5t35.5 175l134 844h49l-133 -844q-22 -138 -55 -245t-66.5 -176.5 t-84.5 -118t-89.5 -72.5t-103 -36.5t-102.5 -14.5t-108 -2q-162 0 -227 14q-140 31 -191 154q-66 157 -12 497zM651 1669q3 15 15.5 25t27.5 10t23.5 -10t5.5 -25t-14.5 -26t-26.5 -11t-24.5 11t-6.5 26zM1173 1669q3 15 15.5 25t27.5 10t23.5 -10t5.5 -25t-14.5 -26 t-26.5 -11t-24.5 11t-6.5 26z" />
<glyph unicode="&#xdd;" horiz-adv-x="1286" d="M307 1499h55l320 -901l651 901h60l-693 -967l-84 -532h-49l84 532zM857 1632l291 273h53l-315 -273h-29z" />
<glyph unicode="&#xde;" horiz-adv-x="1132" d="M123 0q39 249 117.5 746.5t117.5 746.5h50l-46 -289h445q37 0 70 -5.5t68.5 -18.5t62.5 -35t51.5 -56t35.5 -80.5t15 -108.5t-10 -140q-19 -120 -57 -207.5t-80 -134t-98.5 -73.5t-100 -33.5t-98.5 -6.5q-357 9 -443 21l-51 -326h-49zM227 354h445q76 0 134.5 20.5 t108 67.5t83.5 129.5t53 200.5q10 61 10 112t-8.5 88.5t-22.5 67t-35 48.5t-43 32.5t-49.5 21t-51.5 10.5t-52 3h-445z" />
<glyph unicode="&#xdf;" horiz-adv-x="1122" d="M123 0l184 1159q30 190 155 311t333 121q125 0 211 -26.5t125.5 -70.5t52 -100t-6 -117t-52.5 -119.5t-83 -109t-102 -83.5q-40 -28 -92 -59.5t-80.5 -49.5t-57.5 -41t-43.5 -47t-19.5 -55q-7 -42 11.5 -69.5t53.5 -40.5t81 -23t94.5 -15t94 -18.5t80 -32t51.5 -57 t9 -92.5l-14 -101q-21 -137 -117.5 -208.5t-245.5 -71.5q-206 0 -356 30l4 29q190 -10 355 -10q67 0 120.5 16.5t86 41t56 58.5t33.5 62.5t15 58.5l14 95q9 52 -15 84.5t-68.5 46.5t-99.5 22t-110 18t-99 27.5t-67.5 56.5t-13.5 99q3 21 10 39t14.5 32.5t25 31.5t30 28 t43.5 31.5t51 33t66.5 41.5t77.5 48q57 36 115.5 107.5t84.5 137.5q57 144 -26.5 218.5t-298.5 74.5q-178 0 -293 -100t-144 -283l-184 -1159h-49z" />
<glyph unicode="&#xe0;" d="M162 361.5q1 92.5 22 209.5q17 97 42.5 175.5t53 132t64 93.5t68.5 63t75 39t74 22.5t74 11.5q114 14 251 -20.5t212 -106.5l-144 -981h-28l2 123q-62 -41 -191 -89t-233 -48q-62 0 -111 10.5t-94 34.5t-74 68t-46.5 107t-16.5 155.5zM223 504q-36 -229 30.5 -350 t233.5 -121q37 0 71 2.5t72 12t59 14t65 21t54.5 20.5t62.5 26.5t57 24.5l119 821q-27 17 -61.5 32.5t-93 33.5t-119 21.5t-140.5 -3.5q-123 -17 -200.5 -72.5t-128 -170.5t-81.5 -312zM478 1507h53l205 -272h-29z" />
<glyph unicode="&#xe1;" d="M162 361.5q1 92.5 22 209.5q17 97 42.5 175.5t53 132t64 93.5t68.5 63t75 39t74 22.5t74 11.5q114 14 251 -20.5t212 -106.5l-144 -981h-28l2 123q-62 -41 -191 -89t-233 -48q-62 0 -111 10.5t-94 34.5t-74 68t-46.5 107t-16.5 155.5zM223 504q-36 -229 30.5 -350 t233.5 -121q37 0 71 2.5t72 12t59 14t65 21t54.5 20.5t62.5 26.5t57 24.5l119 821q-27 17 -61.5 32.5t-93 33.5t-119 21.5t-140.5 -3.5q-123 -17 -200.5 -72.5t-128 -170.5t-81.5 -312zM707 1235l291 272h53l-315 -272h-29z" />
<glyph unicode="&#xe2;" d="M162 361.5q1 92.5 22 209.5q17 97 42.5 175.5t53 132t64 93.5t68.5 63t75 39t74 22.5t74 11.5q114 14 251 -20.5t212 -106.5l-144 -981h-28l2 123q-62 -41 -191 -89t-233 -48q-62 0 -111 10.5t-94 34.5t-74 68t-46.5 107t-16.5 155.5zM223 504q-36 -229 30.5 -350 t233.5 -121q37 0 71 2.5t72 12t59 14t65 21t54.5 20.5t62.5 26.5t57 24.5l119 821q-27 17 -61.5 32.5t-93 33.5t-119 21.5t-140.5 -3.5q-123 -17 -200.5 -72.5t-128 -170.5t-81.5 -312zM443 1235l314 266h43l200 -266h-35l-192 235l-293 -235h-37z" />
<glyph unicode="&#xe3;" d="M162 361.5q1 92.5 22 209.5q17 97 42.5 175.5t53 132t64 93.5t68.5 63t75 39t74 22.5t74 11.5q114 14 251 -20.5t212 -106.5l-144 -981h-28l2 123q-62 -41 -191 -89t-233 -48q-62 0 -111 10.5t-94 34.5t-74 68t-46.5 107t-16.5 155.5zM223 504q-36 -229 30.5 -350 t233.5 -121q37 0 71 2.5t72 12t59 14t65 21t54.5 20.5t62.5 26.5t57 24.5l119 821q-27 17 -61.5 32.5t-93 33.5t-119 21.5t-140.5 -3.5q-123 -17 -200.5 -72.5t-128 -170.5t-81.5 -312zM386 1298q54 41 81.5 60.5t72 39t81.5 19.5q27 0 61.5 -23.5t62.5 -51t60 -51t54 -23.5 q13 0 26.5 2t28 7.5t25.5 9.5t27 13.5t24.5 14t25.5 16.5t22 15.5t21.5 16t18.5 13.5l10 -14q-52 -45 -79.5 -66t-71.5 -41t-84 -20q-29 0 -63.5 23.5t-61 51t-58 51t-53.5 23.5q-19 0 -39 -4.5t-34 -9t-38.5 -18.5t-33.5 -19t-40 -25.5t-38 -25.5z" />
<glyph unicode="&#xe4;" d="M162 361.5q1 92.5 22 209.5q17 97 42.5 175.5t53 132t64 93.5t68.5 63t75 39t74 22.5t74 11.5q114 14 251 -20.5t212 -106.5l-144 -981h-28l2 123q-62 -41 -191 -89t-233 -48q-62 0 -111 10.5t-94 34.5t-74 68t-46.5 107t-16.5 155.5zM223 504q-36 -229 30.5 -350 t233.5 -121q37 0 71 2.5t72 12t59 14t65 21t54.5 20.5t62.5 26.5t57 24.5l119 821q-27 17 -61.5 32.5t-93 33.5t-119 21.5t-140.5 -3.5q-123 -17 -200.5 -72.5t-128 -170.5t-81.5 -312zM431 1272q3 15 15.5 25t27.5 10t23 -10t5 -25t-14.5 -26t-26.5 -11t-24 11t-6 26z M953 1272q3 15 15.5 25t27.5 10t23.5 -10t5.5 -25t-14.5 -26t-26.5 -11t-24.5 11t-6.5 26z" />
<glyph unicode="&#xe5;" d="M162 361.5q1 92.5 22 209.5q17 97 42.5 175.5t53 132t64 93.5t68.5 63t75 39t74 22.5t74 11.5q114 14 251 -20.5t212 -106.5l-144 -981h-28l2 123q-62 -41 -191 -89t-233 -48q-62 0 -111 10.5t-94 34.5t-74 68t-46.5 107t-16.5 155.5zM223 504q-36 -229 30.5 -350 t233.5 -121q37 0 71 2.5t72 12t59 14t65 21t54.5 20.5t62.5 26.5t57 24.5l119 821q-27 17 -61.5 32.5t-93 33.5t-119 21.5t-140.5 -3.5q-123 -17 -200.5 -72.5t-128 -170.5t-81.5 -312zM547 1444q13 87 85 149t159 62q86 0 136 -61.5t36 -149.5q-13 -88 -83.5 -148.5 t-156.5 -60.5q-87 0 -138 61t-38 148zM578 1444q-12 -73 32.5 -125.5t118.5 -52.5q73 0 133 52t72 126t-32 127t-117 53t-134 -53t-73 -127z" />
<glyph unicode="&#xe6;" horiz-adv-x="1972" d="M80 361.5q1 92.5 22 209.5q17 97 42.5 175.5t53.5 132t65 93.5t69.5 63t75.5 39t74.5 22.5t74.5 11.5q103 12 252 -28.5t235 -106.5q116 135 375 135q101 0 174 -16t126 -51t74.5 -97t10.5 -149q-12 -92 -62 -158.5t-120.5 -101t-156.5 -52.5t-169.5 -18t-159.5 6.5 t-125.5 16.5t-68.5 18q-32 -245 15 -356.5t206 -114.5q170 -2 484 43l-7 -33q-216 -59 -477 -59q-208 0 -262 166q-9 -5 -56 -30.5t-71 -38t-74 -34.5t-88 -33t-89.5 -20.5t-100.5 -9.5q-62 0 -111 10.5t-94 34.5t-74 68t-46.5 107t-16.5 155.5zM141 504q-36 -229 31 -350 t234 -121q60 0 136 19t112.5 33t134 57.5t102.5 45.5q-29 137 12 381q44 249 117 375q-262 143 -469 115q-123 -17 -200.5 -72.5t-128 -170.5t-81.5 -312zM946 535q10 -2 26.5 -4.5t69 -8.5t103 -9t120.5 -1.5t131 10t124.5 28.5t110.5 50.5t80.5 80.5t41.5 114 q19 143 -64.5 203.5t-254.5 60.5q-82 0 -146.5 -14t-109.5 -33t-80 -60t-56 -73.5t-40 -97t-28 -106.5t-25 -124q-2 -11 -3 -16z" />
<glyph unicode="&#xe7;" horiz-adv-x="1011" d="M167 351.5q2 90.5 21 207.5q19 116 44.5 204.5t59 146.5t69.5 96t82.5 58t90.5 27t101 7q168 0 397 -54l-6 -28q-217 33 -399 33q-61 0 -106 -10.5t-91 -42.5t-80 -87.5t-63.5 -148.5t-50.5 -223q-17 -103 -19 -183t10 -134t32.5 -90t54.5 -55.5t70 -27.5t83 -8 q84 0 190.5 10.5t170.5 21.5l65 11l-4 -33q-128 -35 -213.5 -46t-216.5 -13q-54 0 -96 9.5t-81 32t-63.5 64.5t-39 103.5t-12.5 152zM233 -350l3 14l69 10q34 5 53 9.5t43.5 14.5t39 26.5t30 43t25.5 66t18 94.5h35q-13 -81 -29.5 -130.5t-45 -84.5t-71 -49t-106.5 -14h-64z " />
<glyph unicode="&#xe8;" horiz-adv-x="1099" d="M178 569q10 59 18.5 101t22 92t28 85t37 74t49 65t62.5 51t79 39.5t98.5 23t121.5 8.5q101 0 174 -16t126 -51t74.5 -97t10.5 -149q-12 -92 -62 -158.5t-120.5 -101t-156.5 -52.5t-169.5 -18t-159.5 6.5t-125.5 16.5t-68.5 18q-32 -246 13.5 -357t203.5 -114 q174 -2 488 43l-7 -33q-216 -59 -477 -59q-193 0 -252.5 140t-7.5 443zM221 535q10 -2 26.5 -4.5t68.5 -8.5t103 -9t121 -1.5t131 10t124.5 28.5t110.5 50.5t80.5 80.5t41.5 114q19 143 -63.5 203.5t-253.5 60.5q-95 0 -166 -14t-120 -52t-79.5 -69.5t-54.5 -102t-34 -111.5 t-28 -135q-5 -26 -8 -40zM470 1503h54l204 -272h-28z" />
<glyph unicode="&#xe9;" horiz-adv-x="1099" d="M178 569q10 59 18.5 101t22 92t28 85t37 74t49 65t62.5 51t79 39.5t98.5 23t121.5 8.5q101 0 174 -16t126 -51t74.5 -97t10.5 -149q-12 -92 -62 -158.5t-120.5 -101t-156.5 -52.5t-169.5 -18t-159.5 6.5t-125.5 16.5t-68.5 18q-32 -246 13.5 -357t203.5 -114 q174 -2 488 43l-7 -33q-216 -59 -477 -59q-193 0 -252.5 140t-7.5 443zM221 535q10 -2 26.5 -4.5t68.5 -8.5t103 -9t121 -1.5t131 10t124.5 28.5t110.5 50.5t80.5 80.5t41.5 114q19 143 -63.5 203.5t-253.5 60.5q-95 0 -166 -14t-120 -52t-79.5 -69.5t-54.5 -102t-34 -111.5 t-28 -135q-5 -26 -8 -40zM700 1231l291 272h53l-316 -272h-28z" />
<glyph unicode="&#xea;" horiz-adv-x="1099" d="M178 569q10 59 18.5 101t22 92t28 85t37 74t49 65t62.5 51t79 39.5t98.5 23t121.5 8.5q101 0 174 -16t126 -51t74.5 -97t10.5 -149q-12 -92 -62 -158.5t-120.5 -101t-156.5 -52.5t-169.5 -18t-159.5 6.5t-125.5 16.5t-68.5 18q-32 -246 13.5 -357t203.5 -114 q174 -2 488 43l-7 -33q-216 -59 -477 -59q-193 0 -252.5 140t-7.5 443zM221 535q10 -2 26.5 -4.5t68.5 -8.5t103 -9t121 -1.5t131 10t124.5 28.5t110.5 50.5t80.5 80.5t41.5 114q19 143 -63.5 203.5t-253.5 60.5q-95 0 -166 -14t-120 -52t-79.5 -69.5t-54.5 -102t-34 -111.5 t-28 -135q-5 -26 -8 -40zM436 1231l313 266h43l201 -266h-35l-193 235l-293 -235h-36z" />
<glyph unicode="&#xeb;" horiz-adv-x="1099" d="M178 569q10 59 18.5 101t22 92t28 85t37 74t49 65t62.5 51t79 39.5t98.5 23t121.5 8.5q101 0 174 -16t126 -51t74.5 -97t10.5 -149q-12 -92 -62 -158.5t-120.5 -101t-156.5 -52.5t-169.5 -18t-159.5 6.5t-125.5 16.5t-68.5 18q-32 -246 13.5 -357t203.5 -114 q174 -2 488 43l-7 -33q-216 -59 -477 -59q-193 0 -252.5 140t-7.5 443zM221 535q10 -2 26.5 -4.5t68.5 -8.5t103 -9t121 -1.5t131 10t124.5 28.5t110.5 50.5t80.5 80.5t41.5 114q19 143 -63.5 203.5t-253.5 60.5q-95 0 -166 -14t-120 -52t-79.5 -69.5t-54.5 -102t-34 -111.5 t-28 -135q-5 -26 -8 -40zM423 1268q3 15 15.5 25t27.5 10t23.5 -10t5.5 -25t-14.5 -26t-26.5 -11t-24.5 11t-6.5 26zM945 1268q3 15 15.5 25t27.5 10t23.5 -10t5.5 -25t-14.5 -26t-26.5 -11t-24.5 11t-6.5 26z" />
<glyph unicode="&#xec;" horiz-adv-x="337" d="M11 1493h53l205 -272h-28zM123 0l172 1087h49l-172 -1087h-49z" />
<glyph unicode="&#xed;" horiz-adv-x="337" d="M123 0l172 1087h49l-172 -1087h-49zM241 1221l290 272h54l-316 -272h-28z" />
<glyph unicode="&#xee;" horiz-adv-x="337" d="M-24 1221l314 266h43l200 -266h-34l-193 235l-293 -235h-37zM123 0l172 1087h49l-172 -1087h-49z" />
<glyph unicode="&#xef;" horiz-adv-x="337" d="M-36 1257q3 15 15.5 25t27.5 10t23 -10t5 -25t-14.5 -25.5t-26.5 -10.5t-24 10.5t-6 25.5zM123 0l172 1087h49l-172 -1087h-49zM486 1257q3 15 15.5 25t27.5 10t23.5 -10t5.5 -25t-14.5 -25.5t-26.5 -10.5t-24.5 10.5t-6.5 25.5z" />
<glyph unicode="&#xf0;" horiz-adv-x="1120" d="M164 553q43 272 146.5 403t303.5 131h144q62 0 114 -15t82 -38t47.5 -44t22.5 -38q-10 298 -137 449l-352 -131l-5 28l334 125q-139 135 -366 138l6 43q262 -3 411 -162l281 104l8 -28l-268 -99q204 -262 104 -891q-24 -149 -67 -254t-103 -163.5t-129 -84.5t-155 -26 h-144q-203 0 -263 133t-15 420zM194 332q0 -87 16.5 -141t52.5 -85t80 -42t108 -11h143q93 0 164 37.5t116 107.5t72.5 152.5t44.5 190.5q9 56 13.5 99t5.5 97.5t-6 94.5t-24.5 80.5t-46 66.5t-74.5 42.5t-107 16.5h-144q-74 0 -130.5 -20t-109.5 -72t-92 -153.5t-63 -251.5 q-19 -122 -19 -209z" />
<glyph unicode="&#xf1;" horiz-adv-x="1105" d="M123 0l172 1087h29v-126q247 145 467 145q155 0 229 -102.5t51 -245.5l-121 -758h-49l121 758q21 126 -43.5 212.5t-196.5 86.5q-128 0 -229 -29t-234 -96l-147 -932h-49zM396 1292q54 41 81.5 60.5t72 39t81.5 19.5q27 0 61.5 -23.5t62.5 -51t60 -51t54 -23.5 q13 0 26.5 2t28 7.5t25.5 9.5t27 13.5t24.5 14t25.5 16.5t22 15.5t21.5 16t18.5 13.5l10 -14q-52 -45 -79.5 -66t-71.5 -41t-84 -20q-29 0 -63.5 23.5t-61 51t-58 51t-53.5 23.5q-19 0 -39 -4.5t-34 -9t-38.5 -18.5t-33.5 -19t-40 -25.5t-38 -25.5z" />
<glyph unicode="&#xf2;" horiz-adv-x="1146" d="M173 227q-19 123 13 316q26 167 67 274t107.5 170t152 87t212.5 24q174 0 264 -66.5t107 -196t-13 -321.5q-47 -298 -161.5 -411t-372.5 -113q-179 0 -268 57t-108 180zM217.5 342q-1.5 -79 14.5 -132.5t41.5 -87.5t71.5 -52t94.5 -24.5t119.5 -6.5q84 0 144.5 11 t116.5 42t94.5 85t69 141t50.5 210q17 109 18 192.5t-15 140t-42.5 94t-71 58t-93.5 28.5t-115 8q-59 0 -100.5 -4t-88 -16.5t-80 -35t-67.5 -61t-58.5 -93.5t-46.5 -132.5t-38 -178.5q-17 -107 -18.5 -186zM501 1493h53l205 -272h-29z" />
<glyph unicode="&#xf3;" horiz-adv-x="1146" d="M173 227q-19 123 13 316q26 167 67 274t107.5 170t152 87t212.5 24q174 0 264 -66.5t107 -196t-13 -321.5q-47 -298 -161.5 -411t-372.5 -113q-179 0 -268 57t-108 180zM217.5 342q-1.5 -79 14.5 -132.5t41.5 -87.5t71.5 -52t94.5 -24.5t119.5 -6.5q84 0 144.5 11 t116.5 42t94.5 85t69 141t50.5 210q17 109 18 192.5t-15 140t-42.5 94t-71 58t-93.5 28.5t-115 8q-59 0 -100.5 -4t-88 -16.5t-80 -35t-67.5 -61t-58.5 -93.5t-46.5 -132.5t-38 -178.5q-17 -107 -18.5 -186zM730 1221l291 272h54l-316 -272h-29z" />
<glyph unicode="&#xf4;" horiz-adv-x="1146" d="M173 227q-19 123 13 316q26 167 67 274t107.5 170t152 87t212.5 24q174 0 264 -66.5t107 -196t-13 -321.5q-47 -298 -161.5 -411t-372.5 -113q-179 0 -268 57t-108 180zM217.5 342q-1.5 -79 14.5 -132.5t41.5 -87.5t71.5 -52t94.5 -24.5t119.5 -6.5q84 0 144.5 11 t116.5 42t94.5 85t69 141t50.5 210q17 109 18 192.5t-15 140t-42.5 94t-71 58t-93.5 28.5t-115 8q-59 0 -100.5 -4t-88 -16.5t-80 -35t-67.5 -61t-58.5 -93.5t-46.5 -132.5t-38 -178.5q-17 -107 -18.5 -186zM466 1221l314 266h43l200 -266h-34l-193 235l-293 -235h-37z" />
<glyph unicode="&#xf5;" horiz-adv-x="1146" d="M173 227q-19 123 13 316q26 167 67 274t107.5 170t152 87t212.5 24q174 0 264 -66.5t107 -196t-13 -321.5q-47 -298 -161.5 -411t-372.5 -113q-179 0 -268 57t-108 180zM217.5 342q-1.5 -79 14.5 -132.5t41.5 -87.5t71.5 -52t94.5 -24.5t119.5 -6.5q84 0 144.5 11 t116.5 42t94.5 85t69 141t50.5 210q17 109 18 192.5t-15 140t-42.5 94t-71 58t-93.5 28.5t-115 8q-59 0 -100.5 -4t-88 -16.5t-80 -35t-67.5 -61t-58.5 -93.5t-46.5 -132.5t-38 -178.5q-17 -107 -18.5 -186zM409 1284q54 41 81.5 60.5t72 39t81.5 19.5q27 0 61.5 -23.5 t62.5 -51.5t60 -51.5t54 -23.5q15 0 31 3.5t29 7.5t31 13.5t28 15t29 18.5t25.5 17.5t25 18t20.5 15.5l10 -14q-52 -45 -79.5 -66t-71.5 -41t-84 -20q-29 0 -63.5 23.5t-61 51t-58 51t-53.5 23.5q-19 0 -39 -4.5t-34 -9t-38.5 -18.5t-33.5 -19t-40 -25.5t-38 -25.5z" />
<glyph unicode="&#xf6;" horiz-adv-x="1146" d="M173 227q-19 123 13 316q26 167 67 274t107.5 170t152 87t212.5 24q174 0 264 -66.5t107 -196t-13 -321.5q-47 -298 -161.5 -411t-372.5 -113q-179 0 -268 57t-108 180zM217.5 342q-1.5 -79 14.5 -132.5t41.5 -87.5t71.5 -52t94.5 -24.5t119.5 -6.5q84 0 144.5 11 t116.5 42t94.5 85t69 141t50.5 210q17 109 18 192.5t-15 140t-42.5 94t-71 58t-93.5 28.5t-115 8q-59 0 -100.5 -4t-88 -16.5t-80 -35t-67.5 -61t-58.5 -93.5t-46.5 -132.5t-38 -178.5q-17 -107 -18.5 -186zM454 1257q3 15 15.5 25t27.5 10t23 -10t5 -25t-14.5 -25.5 t-26.5 -10.5t-24 10.5t-6 25.5zM976 1257q3 15 15.5 25t27.5 10t23.5 -10t5.5 -25t-14.5 -25.5t-26.5 -10.5t-24.5 10.5t-6.5 25.5z" />
<glyph unicode="&#xf7;" horiz-adv-x="1138" d="M205 698l8 50h852l-8 -50h-852zM545 326l12 86q3 24 29 24h24q22 0 19 -24l-13 -86q-3 -25 -28 -25h-23q-10 0 -16 7t-4 18zM653 1012l13 88q3 24 28 24h25q21 0 18 -24l-12 -88q-3 -23 -29 -23h-22q-24 0 -21 23z" />
<glyph unicode="&#xf8;" horiz-adv-x="1105" d="M104 0l93 102q-82 120 -29 449q26 167 67 273t107.5 167t151.5 84t213 23q213 0 301 -94l75 83h37l-96 -106q94 -131 41 -469q-47 -299 -157.5 -410t-366.5 -112q-240 0 -326 92l-74 -82h-37zM217 528q-44 -277 16 -383l742 820q-40 49 -107.5 66.5t-169.5 17.5 q-69 0 -116.5 -6t-99.5 -24t-89 -53.5t-71.5 -92t-60 -143t-44.5 -202.5zM250 121q38 -49 108 -65.5t181 -16.5q85 0 144.5 10.5t116 40.5t95 83.5t70 141.5t51.5 213q47 298 -25 414z" />
<glyph unicode="&#xf9;" horiz-adv-x="1103" d="M154 332l120 758h50l-121 -758q-21 -126 43 -212.5t196 -86.5q128 0 229 29t234 96l148 932h49l-172 -1088h-29v127q-247 -145 -465 -145q-104 0 -174.5 50t-96.5 128t-11 170zM466 1493h53l205 -272h-29z" />
<glyph unicode="&#xfa;" horiz-adv-x="1103" d="M154 332l120 758h50l-121 -758q-21 -126 43 -212.5t196 -86.5q128 0 229 29t234 96l148 932h49l-172 -1088h-29v127q-247 -145 -465 -145q-104 0 -174.5 50t-96.5 128t-11 170zM695 1221l291 272h53l-315 -272h-29z" />
<glyph unicode="&#xfb;" horiz-adv-x="1103" d="M154 332l120 758h50l-121 -758q-21 -126 43 -212.5t196 -86.5q128 0 229 29t234 96l148 932h49l-172 -1088h-29v127q-247 -145 -465 -145q-104 0 -174.5 50t-96.5 128t-11 170zM431 1221l313 266h43l201 -266h-35l-193 235l-292 -235h-37z" />
<glyph unicode="&#xfc;" horiz-adv-x="1103" d="M154 332l120 758h50l-121 -758q-21 -126 43 -212.5t196 -86.5q128 0 229 29t234 96l148 932h49l-172 -1088h-29v127q-247 -145 -465 -145q-104 0 -174.5 50t-96.5 128t-11 170zM418 1257q3 15 15.5 25t27.5 10t23.5 -10t5.5 -25t-14.5 -25.5t-26.5 -10.5t-24.5 10.5 t-6.5 25.5zM940 1257q3 15 15.5 25t27.5 10t23.5 -10t5.5 -25t-14.5 -25.5t-26.5 -10.5t-24.5 10.5t-6.5 25.5z" />
<glyph unicode="&#xfd;" horiz-adv-x="1097" d="M193 1087h49l168 -849q29 -150 137 -181q37 -11 57 -6l420 879q48 108 57 172h31q17 -63 -41 -189l-436 -911q-5 -12 -14 -31.5t-38 -77t-58.5 -110t-72 -116t-82 -109.5t-85.5 -77.5t-86 -31.5v29q41 -1 95 53t102.5 130.5t91 153.5t67.5 131l25 54q-23 1 -48 8.5 t-61 28.5t-65.5 69.5t-43.5 118.5zM645 1210l291 273h53l-315 -273h-29z" />
<glyph unicode="&#xfe;" horiz-adv-x="1087" d="M55 -553l342 2155h49l-102 -637q55 36 212 88.5t251 52.5q81 0 139.5 -33.5t89.5 -88.5t45 -131t12 -155.5t-16 -167.5q-15 -95 -33.5 -167t-53 -147.5t-80.5 -124.5t-118 -80t-163 -31q-83 0 -213.5 21.5t-214.5 57.5l-97 -612h-49zM207 88q118 -35 208 -47t222 -12 q164 0 256 125t135 397q41 256 -23 381t-206 125q-30 0 -62 -3.5t-70.5 -12.5t-64.5 -15.5t-72.5 -22t-63 -21.5t-68 -24.5t-58.5 -21.5z" />
<glyph unicode="&#xff;" horiz-adv-x="1097" d="M193 1087h49l168 -849q29 -150 137 -181q37 -11 57 -6l420 879q48 108 57 172h31q17 -63 -41 -189l-436 -911q-5 -12 -14 -31.5t-38 -77t-58.5 -110t-72 -116t-82 -109.5t-85.5 -77.5t-86 -31.5v29q41 -1 95 53t102.5 130.5t91 153.5t67.5 131l25 54q-23 1 -48 8.5 t-61 28.5t-65.5 69.5t-43.5 118.5zM379 1315q3 15 15.5 25t27.5 10t23.5 -10t5.5 -25t-14.5 -26t-26.5 -11t-24.5 11t-6.5 26zM901 1315q3 15 15.5 25t27.5 10t23.5 -10t5.5 -25t-14.5 -26t-26.5 -11t-24.5 11t-6.5 26z" />
<glyph unicode="&#x152;" horiz-adv-x="2099" d="M207 383q-1 73 7 165.5t26 205.5q24 149 55 263t65 194t81.5 135t93 87t111.5 49t124 22t143 5q81 0 139 -6t114.5 -25t93.5 -52t64 -88.5t38 -133.5q14 155 96.5 227.5t210.5 67.5l543 -20l-4 -29h-547q-209 0 -244 -217l-74 -465l672 -10l-4 -29l-676 -10l-73 -467 q-4 -35 -5.5 -63t7 -49t17 -36.5t25.5 -26.5t32.5 -17.5t37 -10t40.5 -5t42 -1.5h527l-5 -29l-530 -20q-37 -2 -70 2.5t-64.5 16.5t-54 32.5t-38.5 52t-17.5 74.5t8.5 100q-43 -90 -97 -147t-126 -85.5t-145 -38t-180 -9.5q-66 0 -115.5 3.5t-99.5 14t-84 28.5t-66 47 t-50 70.5t-30.5 98t-13.5 129.5zM258 372.5q3 -71.5 14.5 -122.5t37.5 -88.5t58 -60.5t81.5 -36.5t102.5 -18.5t126 -5q80 0 139.5 7t117.5 25.5t100.5 51.5t82 84.5t69 126t55 174t46.5 229.5q17 110 24.5 199.5t7 159.5t-12.5 123.5t-28.5 91.5t-46 65t-60 43t-77 24.5 t-89.5 11.5t-103 3q-77 0 -125 -3.5t-109.5 -18.5t-101 -44t-85.5 -81.5t-77.5 -128.5t-62 -187.5t-53.5 -257.5q-18 -115 -26 -205t-5 -161.5z" />
<glyph unicode="&#x153;" horiz-adv-x="1978" d="M173 227q-19 123 13 316q26 167 67 274t107.5 170t152 87t212.5 24q180 0 268.5 -70t106.5 -213q49 143 154.5 216.5t304.5 76.5q205 3 306 -70t79 -243q-12 -92 -62 -158.5t-120.5 -101t-157 -52.5t-170 -18t-159.5 6.5t-125.5 16.5t-68.5 18q-39 -238 11.5 -353 t205.5 -118q174 -2 488 43l-6 -33q-216 -59 -477 -59q-135 0 -203.5 67t-79.5 207q-58 -147 -167 -208.5t-304 -61.5q-179 0 -268 57t-108 180zM217.5 342q-1.5 -79 14.5 -132.5t41.5 -87.5t71.5 -52t94.5 -24.5t119.5 -6.5q84 0 144.5 11t116.5 42t94.5 85t69 141t50.5 210 q17 109 18 192.5t-15 140t-42.5 94t-71 58t-93.5 28.5t-115 8q-59 0 -100.5 -4t-88 -16.5t-80 -35t-67.5 -61t-58.5 -93.5t-46.5 -132.5t-38 -178.5q-17 -107 -18.5 -186zM1087 535q15 -3 49 -8t110 -11t151 -5.5t162.5 15.5t155 44t117.5 86.5t60 138.5q19 143 -63.5 203.5 t-253.5 60.5q-88 0 -156 -14t-118 -45t-85.5 -72t-60.5 -103t-40.5 -130t-27.5 -160z" />
<glyph unicode="&#x178;" horiz-adv-x="1286" d="M307 1499h55l320 -901l651 901h60l-693 -967l-84 -532h-49l84 532zM580 1669q3 15 15.5 25t27.5 10t23.5 -10t5.5 -25t-14.5 -26t-26.5 -11t-24.5 11t-6.5 26zM1102 1669q3 15 15.5 25t27.5 10t23.5 -10t5.5 -25t-14.5 -26t-26.5 -11t-24.5 11t-6.5 26z" />
<glyph unicode="&#x2c6;" horiz-adv-x="684" d="M135 1087l314 267h43l200 -267h-35l-192 236l-293 -236h-37z" />
<glyph unicode="&#x2dc;" horiz-adv-x="1015" d="M274 1171q53 40 81.5 60t73 39.5t81.5 19.5q27 0 61.5 -23.5t62.5 -51t60 -51t54 -23.5q13 0 26.5 2t28 7.5t25.5 9.5t27 13.5t24.5 14t25.5 16.5t22 15.5t21.5 16t18.5 13.5l10 -14q-52 -44 -80 -65.5t-72 -41.5t-84 -20q-29 0 -63.5 23.5t-61 51t-57.5 51t-53 23.5 q-19 0 -39 -4.5t-34 -9t-38.5 -18.5t-33.5 -19t-40 -25.5t-38 -25.5z" />
<glyph unicode="&#x2000;" horiz-adv-x="957" />
<glyph unicode="&#x2001;" horiz-adv-x="1915" />
<glyph unicode="&#x2002;" horiz-adv-x="957" />
<glyph unicode="&#x2003;" horiz-adv-x="1915" />
<glyph unicode="&#x2004;" horiz-adv-x="638" />
<glyph unicode="&#x2005;" horiz-adv-x="478" />
<glyph unicode="&#x2006;" horiz-adv-x="319" />
<glyph unicode="&#x2007;" horiz-adv-x="319" />
<glyph unicode="&#x2008;" horiz-adv-x="239" />
<glyph unicode="&#x2009;" horiz-adv-x="383" />
<glyph unicode="&#x200a;" horiz-adv-x="106" />
<glyph unicode="&#x2010;" horiz-adv-x="677" d="M123 569l8 49h582l-8 -49h-582z" />
<glyph unicode="&#x2011;" horiz-adv-x="677" d="M123 569l8 49h582l-8 -49h-582z" />
<glyph unicode="&#x2012;" horiz-adv-x="677" d="M123 569l8 49h582l-8 -49h-582z" />
<glyph unicode="&#x2013;" horiz-adv-x="884" d="M123 563l8 51h969l-8 -51h-969z" />
<glyph unicode="&#x2014;" horiz-adv-x="1517" d="M121 567l8 51h1425l-8 -51h-1425z" />
<glyph unicode="&#x2018;" horiz-adv-x="346" d="M324 1206l34 213q7 44 29.5 63.5t41.5 17.5l19 -3l-3 -14q-39 2 -45 -39l-12 -76h15q12 0 19.5 -9t5.5 -24l-20 -129q-6 -32 -36 -32h-25q-28 0 -23 32z" />
<glyph unicode="&#x2019;" horiz-adv-x="346" d="M324 1176l2 14q39 -2 45 37l12 78h-14q-13 0 -20.5 8t-5.5 22l23 131q6 33 36 33h22q32 0 26 -33l-36 -215q-4 -28 -15 -46t-23.5 -23.5t-24.5 -7.5t-19 0z" />
<glyph unicode="&#x201a;" horiz-adv-x="346" d="M118 -131l2 14q39 -2 45 39l13 78h-15q-13 0 -20 8.5t-5 22.5l20 129q6 35 36 35h23q31 0 25 -35l-34 -213q-7 -44 -29.5 -63.5t-41.5 -17.5z" />
<glyph unicode="&#x201c;" horiz-adv-x="522" d="M313 1206l33 213q7 44 29.5 63.5t40.5 17.5l19 -3l-3 -14q-17 1 -27 -7t-12 -14.5t-4 -17.5l-12 -76h13q13 0 21 -9.5t6 -23.5l-20 -129q-6 -32 -38 -32h-23q-28 0 -23 32zM509 1206l34 213q7 44 29.5 63.5t41.5 17.5l19 -3l-2 -14q-39 2 -45 -39l-12 -76h14q12 0 20 -9 t6 -24l-21 -129q-6 -32 -36 -32h-22q-31 0 -26 32z" />
<glyph unicode="&#x201d;" horiz-adv-x="520" d="M314 1176l2 14q17 -1 27 6t12.5 14t3.5 17l12 78h-12q-13 0 -20.5 8t-5.5 22l21 131q6 33 36 33h22q32 0 26 -33l-34 -215q-4 -28 -15 -46t-23.5 -23.5t-24.5 -7.5t-19 0zM511 1176l2 14q39 -2 45 37l12 78h-14q-13 0 -20.5 8t-5.5 22l21 131q6 33 35 33h25q29 0 23 -33 l-34 -215q-4 -28 -15 -46t-23.5 -23.5t-24 -7.5t-19.5 0z" />
<glyph unicode="&#x201e;" horiz-adv-x="520" d="M108 -127l2 14q17 -1 27 7t12 14.5t4 17.5l12 78h-12q-13 0 -20.5 8.5t-5.5 22.5l21 129q6 35 36 35h22q32 0 26 -35l-34 -213q-7 -44 -29.5 -63.5t-41.5 -17.5zM304 -127l3 14q39 -2 45 39l12 78h-14q-13 0 -20.5 8.5t-5.5 22.5l20 129q6 35 36 35h25q29 0 23 -35 l-34 -213q-7 -44 -29.5 -63.5t-41.5 -17.5z" />
<glyph unicode="&#x2022;" horiz-adv-x="690" d="M285 750l8 61q5 33 26 52.5t54 19.5h49q69 0 59 -72l-8 -61q-11 -66 -84 -66h-49q-31 0 -45.5 17.5t-9.5 48.5z" />
<glyph unicode="&#x2026;" horiz-adv-x="1503" d="M301 25l23 127q3 24 28 24h23q23 0 20 -24l-22 -127q-5 -25 -27 -25h-24q-11 0 -17 7.5t-4 17.5zM858 25l23 127q3 24 28 24h25q21 0 18 -24l-22 -127q-5 -25 -27 -25h-22q-11 0 -18 7.5t-5 17.5zM1411 25l23 127q3 24 28 24h25q21 0 18 -24l-22 -127q-5 -25 -27 -25h-22 q-11 0 -18 7.5t-5 17.5z" />
<glyph unicode="&#x202f;" horiz-adv-x="383" />
<glyph unicode="&#x2039;" horiz-adv-x="567" d="M78 725l487 416l31 -33l-455 -387l336 -389l-35 -33z" />
<glyph unicode="&#x203a;" horiz-adv-x="768" d="M217 334l465 395l-326 383l33 29l356 -416l-499 -426z" />
<glyph unicode="&#x205f;" horiz-adv-x="478" />
<glyph unicode="&#x20ac;" horiz-adv-x="1490" d="M143 557l4 29l183 6l45 289l-178 6l4 26l180 9q23 149 50 227q127 367 523 367q87 0 212 -11t223 -30l-5 -29q-29 2 -77.5 6t-163.5 9.5t-191 4.5q-80 0 -147 -16.5t-116 -43t-89 -68t-66.5 -85.5t-47.5 -102t-33 -110.5t-23 -118.5l582 -7l-4 -28l-584 -6l-45 -289 l579 -8l-4 -29q-37 0 -98 -0.5t-189.5 -1t-213 -2t-82.5 -2.5q-40 -231 52.5 -369.5t297.5 -142.5q99 -3 212.5 3t176.5 14l64 7l-7 -30q-121 -27 -210 -35t-232 -8q-26 0 -52 2.5t-58 8.5t-61.5 17.5t-60.5 27.5t-57 40t-49.5 54.5t-39.5 72.5t-26 91t-10 112t11 135z" />
<glyph unicode="&#x2122;" horiz-adv-x="1288" d="M96 1470l4 29h531l-4 -29h-250l-109 -686h-28l108 686h-252zM598 784l168 715h20l193 -670l379 670h24l-49 -715h-24l43 650l-367 -650h-20l-189 652l-151 -652h-27z" />
<glyph unicode="&#x25fc;" horiz-adv-x="1085" d="M0 0v1085h1085v-1085h-1085z" />
<glyph unicode="&#xfb03;" horiz-adv-x="1970" d="M188 1038l5 25l202 24l29 183q6 37 12.5 64.5t20 68.5t35.5 70.5t53.5 57.5t79 43t106.5 15q23 0 53 -4t49 -7t61 -12l56 -12l-4 -28l-217 14q-103 6 -168 -59.5t-88 -210.5l-29 -183h691l16 109q30 189 140 301.5t288 112.5q195 0 360 -39l-4 -29l-350 17 q-148 6 -251.5 -84.5t-133.5 -278.5l-16 -109l758 -14l-170 -1073h-50l164 1038h-710l-164 -1038h-49l163 1038h-690l-164 -1038h-49l164 1038h-199z" />
<glyph unicode="&#xfb04;" horiz-adv-x="2260" d="M188 1038l5 25l202 24l29 183q5 31 9.5 54.5t15.5 58.5t25 61t37.5 55t52.5 47.5t71.5 30.5t93.5 12q23 0 54 -4t48.5 -7t62.5 -12.5t56 -11.5l-4 -28l-217 14q-103 6 -168 -59.5t-88 -210.5l-29 -183h682l17 119q28 179 127 292t264 112h500l-193 -1217 q-10 -65 -10.5 -117t3.5 -85.5t19 -59.5t25 -38t33 -21.5t30.5 -11t29.5 -4.5q3 -1 5 -1q136 -22 150 -22l-6 -27h-138q-130 0 -176 93t-14 294l186 1168h-440q-131 0 -224 -90t-122 -275l-16 -109h301l-9 -49h-301l-163 -1038h-50l164 1038h-682l-164 -1038h-49l164 1038 h-199z" />
</font>
</defs>
</svg>
