<?xml version="1.0" standalone="no"?>
<!DOCTYPE svg PUBLIC "-//W3C//DTD SVG 1.1//EN" "http://www.w3.org/Graphics/SVG/1.1/DTD/svg11.dtd" >
<svg xmlns="http://www.w3.org/2000/svg">
<metadata></metadata>
<defs>
<font id="exomediumitalic" horiz-adv-x="1105" >
<font-face units-per-em="2048" ascent="1638" descent="-410" />
<missing-glyph horiz-adv-x="512" />
<glyph unicode="&#xfb01;" horiz-adv-x="1196" d="M115 918l21 135l201 34l18 111q31 194 156 302.5t321 109.5q79 0 205 -21.5t197 -45.5l-20 -119l-355 19q-48 3 -95 -7t-94.5 -36.5t-82.5 -81t-47 -132.5l-15 -99l726 -20l-168 -1067h-190l145 918h-544l-144 -918h-189l145 918h-191z" />
<glyph unicode="&#xfb02;" horiz-adv-x="1413" d="M183 918l21 131l204 38l13 78q37 237 150.5 339t302.5 102l558 -1l-191 -1206q-9 -57 -10 -96.5t2.5 -62.5t18 -37.5t28 -20t40.5 -12.5q140 -38 144 -38l-21 -132h-151q-140 0 -206.5 91.5t-34.5 295.5l167 1052l-350 1q-108 0 -172 -61.5t-88 -216.5l-12 -75h318 l-28 -169h-319l-151 -918h-189l150 918h-194z" />
<glyph horiz-adv-x="0" />
<glyph unicode="&#xd;" horiz-adv-x="2048" />
<glyph unicode=" "  horiz-adv-x="512" />
<glyph unicode="&#x09;" horiz-adv-x="512" />
<glyph unicode="&#xa0;" horiz-adv-x="512" />
<glyph unicode="!" horiz-adv-x="544" d="M165 47l22 135q7 51 57 51h131q22 0 32 -14t7 -37l-21 -135q-6 -47 -53 -47h-132q-22 0 -34 13t-9 34zM241 408l155 1089h211l-190 -1089h-176z" />
<glyph unicode="&#x22;" horiz-adv-x="815" d="M358 1087l20 275l22 137h187l-22 -137l-64 -275h-143zM659 1087l21 275l22 137h187l-22 -137l-64 -275h-144z" />
<glyph unicode="#" horiz-adv-x="1425" d="M110 463l41 131h321l100 313h-323l45 131h322l148 461h131l-148 -461h316l146 461h131l-146 -461h360l-44 -131h-360l-99 -315h359l-39 -131h-364l-149 -461h-131l149 461l-316 2l-150 -463h-131l150 463h-319zM604 594l316 -2l99 315h-316z" />
<glyph unicode="$" horiz-adv-x="1171" d="M157 38l25 138q17 0 194.5 -7t289.5 -7q37 0 75.5 7.5t81 25t72.5 54t38 86.5l20 123q5 32 7 45t3 38t-3 36t-13 26.5t-25.5 22t-41.5 12t-59 5.5h-245q-72 0 -128.5 17t-90.5 45.5t-58 66.5t-31 79t-9.5 83.5t6.5 80.5l20 134q17 105 58 177.5t102.5 111t130 55 t158.5 18.5l29 177h134l-29 -182q162 -12 376 -46l-23 -148q-46 1 -161.5 5.5t-213 9t-104.5 4.5q-114 4 -182.5 -38.5t-87.5 -157.5l-18 -119q-15 -99 20 -142t150 -43h245q334 0 274 -372l-21 -129q-14 -86 -49.5 -150.5t-83 -102.5t-110 -60.5t-123 -29t-129.5 -3.5 l-27 -168h-134l28 176q-189 17 -337 46z" />
<glyph unicode="%" horiz-adv-x="1970" d="M231 978l42 267q11 68 28.5 112.5t52 78t90 48.5t138.5 15h206q136 0 189.5 -62.5t32.5 -200.5l-42 -266q-23 -144 -87 -199.5t-220 -55.5h-206q-123 0 -183.5 68t-40.5 195zM384 983q-11 -69 10.5 -93t90.5 -24h192q77 0 103 23.5t38 93.5l39 248q12 73 -5.5 95 t-94.5 22h-191q-78 0 -105 -24t-38 -93zM450 0l1140 1499h162l-1138 -1499h-164zM1196 263l42 266q11 69 28.5 113t51.5 78.5t89.5 49.5t138.5 15h207q136 0 189.5 -62.5t32.5 -200.5l-41 -267q-23 -144 -88 -199t-221 -55h-208q-123 0 -182 67.5t-39 194.5zM1349 269 q-11 -69 10 -93t90 -24h191q77 0 104 23.5t39 93.5l39 248q11 73 -7 95t-95 22h-191q-78 0 -104 -23.5t-37 -93.5z" />
<glyph unicode="&#x26;" horiz-adv-x="1306" d="M138 471q43 155 204 278l192 147l-95 166q-64 116 -41.5 208.5t94.5 151.5t161 68q172 15 286.5 6.5t263.5 -42.5l-21 -128h-394q-68 0 -114 -11.5t-73.5 -37.5t-23 -73t42.5 -114l353 -613l274 244l59 -62l-145 -243l-97 -94l189 -322h-199l-127 218l-152 -134 q-78 -68 -188 -89t-221.5 21.5t-177.5 147.5q-93 152 -50 307zM301 370.5q4 -55.5 41 -108.5q58 -84 156.5 -96t181.5 59l159 141l-222 374l-165 -125q-81 -61 -118 -125t-33 -119.5z" />
<glyph unicode="'" horiz-adv-x="401" d="M300 1087l20 275l23 137h190l-22 -137l-64 -275h-147z" />
<glyph unicode="(" horiz-adv-x="708" d="M224 389.5q3 134.5 26 268.5q22 131 61.5 261.5t84.5 235t94.5 199.5t94.5 164.5t81.5 121t57.5 77.5l22 26h206q-16 -19 -43.5 -55t-102.5 -151.5t-138.5 -236.5t-130.5 -299.5t-99 -351.5q-34 -196 -29.5 -364t35.5 -303.5t66.5 -231.5t64.5 -148l29 -51h-194 q-6 9 -15.5 27t-35.5 77.5t-48 124.5t-45 166t-34 205t-8 238.5z" />
<glyph unicode=")" horiz-adv-x="712" d="M-29 -449q16 19 43.5 54.5t102.5 150.5t138.5 235.5t130.5 300t99 354.5q33 194 28.5 361t-35.5 303t-66.5 232t-64.5 148l-29 53h194q6 -10 15.5 -27.5t35.5 -78t47.5 -126t44.5 -166.5t34.5 -205t8.5 -237.5t-25 -265.5q-22 -133 -61.5 -264.5t-84 -236t-93.5 -199.5 t-93.5 -164t-80 -120t-56.5 -77l-22 -25h-211z" />
<glyph unicode="*" horiz-adv-x="892" d="M278 1159l14 91l294 57l-15 -158zM362 849l93 278l149 -37l-162 -268zM569 970l108 132l196 -186l-61 -73zM586 1470l93 35l112 -245l-156 -64zM692 1169l270 158l33 -79l-221 -199z" />
<glyph unicode="+" horiz-adv-x="1038" d="M194 641l28 176h336l53 338h176l-53 -338h340l-28 -176h-340l-54 -338h-176l54 338h-336z" />
<glyph unicode="," horiz-adv-x="542" d="M144 -180l12 75q21 -1 36 4.5t22 17t10 19t5 19.5l7 45h-22q-23 0 -35 13t-8 38l19 129q9 56 61 56h123q47 0 40 -56l-32 -203q-9 -57 -37 -94t-61 -49.5t-65 -16.5t-53 -1z" />
<glyph unicode="-" horiz-adv-x="724" d="M123 506l28 176h644l-29 -176h-643z" />
<glyph unicode="." horiz-adv-x="548" d="M169 47l21 135q7 51 58 51h127q52 0 43 -51l-22 -135q-8 -47 -57 -47h-127q-22 0 -34 13t-9 34z" />
<glyph unicode="/" horiz-adv-x="849" d="M14 -147l848 1724h198l-847 -1724h-199z" />
<glyph unicode="0" horiz-adv-x="1306" d="M186 341l130 814q54 344 406 344h336q74 0 132 -19.5t92.5 -52.5t56.5 -76.5t24 -92.5t-4 -100l-130 -817q-29 -179 -126 -260t-270 -81h-336q-77 0 -138 19t-106 58.5t-63 107t-4 156.5zM373 303q0 -23 2.5 -40t10.5 -30t15 -21.5t21 -14.5t23.5 -9t28 -4.5t28 -1.5 h29.5h6h299q178 0 206 171l126 793q14 89 -18 130t-131 41h-303q-187 0 -213 -171l-126 -792q-4 -28 -4 -51z" />
<glyph unicode="1" horiz-adv-x="743" d="M266 1196l19 130q60 0 125.5 24t114.5 57t78.5 57t39.5 35h184l-234 -1499h-188l204 1277q-43 -32 -135.5 -56.5t-207.5 -24.5z" />
<glyph unicode="2" horiz-adv-x="1212" d="M91 0l27 170q69 42 137.5 86t166.5 112t183 132.5t175 143.5t156 150.5t112.5 148t56.5 140.5q19 123 -33.5 187.5t-188.5 64.5h-596l23 141q325 44 628 44q102 0 177.5 -37.5t115.5 -101t55.5 -142t6.5 -166.5q-7 -76 -47.5 -160t-96.5 -157t-134.5 -152t-147 -138 t-151.5 -121.5t-130 -95.5t-99 -67h657l-30 -182h-1023z" />
<glyph unicode="3" horiz-adv-x="1210" d="M76 43l21 127h586q92 0 162 43t85 134l17 105q5 31 5.5 56.5t-2 44.5t-10.5 33.5t-16 25t-23 17.5t-26.5 11.5t-31.5 7t-34 3.5t-37 2l-471 15l25 149l475 20q211 9 241 187l19 123q9 53 -2.5 89t-41 53.5t-62.5 24.5t-77 7h-612l19 125q89 29 203.5 43.5t224 14.5 t236.5 -1q152 -3 239 -101.5t63 -248.5l-21 -132q-19 -119 -68.5 -189t-117.5 -87q64 -32 89 -110t6 -194l-19 -111q-53 -344 -425 -344h-75h-79t-70.5 0.5t-75.5 2.5t-65.5 4.5t-71 7t-61 10t-65 14t-56.5 18.5z" />
<glyph unicode="4" horiz-adv-x="1243" d="M110 459l787 1040h226l-709 -941h510l64 402l103 154h116l-89 -556h175l-23 -148l-182 -42l-57 -364h-193l57 364h-730z" />
<glyph unicode="5" horiz-adv-x="1230" d="M152 39l23 144h610q49 0 87.5 17t61 45.5t34.5 57t17 58.5l31 194q31 188 -139 188h-276q-65 0 -117 -35.5t-64 -108.5h-178l188 900h879l-30 -182h-697l-95 -453q52 49 177 60q63 4 100.5 4t92.5 -2.5t70 -2.5q145 -2 223.5 -103.5t55.5 -257.5l-35 -227 q-16 -102 -54 -171.5t-94 -106t-116.5 -51.5t-137.5 -16q-202 -2 -313.5 6.5t-303.5 42.5z" />
<glyph unicode="6" horiz-adv-x="1263" d="M215.5 463.5q0.5 142.5 30.5 329.5q25 157 65.5 282t86.5 204.5t101 132t107.5 75t106.5 23.5q330 8 621 -40l-22 -141h-571q-51 0 -96.5 -35t-76.5 -86.5t-57.5 -121t-41.5 -127.5t-25 -116q286 40 511 43q67 1 119.5 -13.5t83.5 -40t52.5 -58.5t27 -69t8 -73t-5.5 -70 l-39 -259q-27 -166 -127 -234.5t-262 -68.5h-298q-65 0 -116 20t-95 74t-66 140.5t-21.5 229zM422 707q-85 -530 137 -530h266q30 0 57 6t57 21.5t52 49t29 81.5l34 224q15 87 -16.5 117.5t-125.5 30.5h-490z" />
<glyph unicode="7" horiz-adv-x="1122" d="M266 1317l29 182h947l43 -107l-751 -1392h-216l718 1317h-770z" />
<glyph unicode="8" horiz-adv-x="1288" d="M188 284q2 22 6 45l28 187q16 102 79 159t145 66q-49 18 -82 51.5t-46.5 72.5t-18 82.5t4.5 80.5l22 133q16 102 51.5 171.5t91 107.5t122.5 53.5t157 15.5h302q158 0 233.5 -94t48.5 -266l-21 -127q-2 -23 -13 -53.5t-32 -69.5t-61.5 -70.5t-92.5 -41.5q41 -12 69.5 -45 t39 -72t14.5 -82t-4 -75l-30 -194q-10 -62 -28.5 -111t-41 -82t-54 -57t-60.5 -37t-68 -20.5t-69.5 -9.5t-71.5 -2h-300q-72 0 -128.5 14t-90 36t-56.5 53.5t-32 60.5t-12 63.5t-1 56.5zM382 327q-13 -83 25.5 -115.5t143.5 -32.5h268q71 0 126 35t67 113l31 195 q12 77 -27.5 116.5t-110.5 39.5h-294q-77 0 -131 -37t-67 -119zM490 1012q-7 -46 4 -79t36 -49.5t52 -24t56 -7.5h293q162 0 189 160l20 127q18 112 -13 151.5t-124 39.5h-270q-112 0 -159.5 -43t-63.5 -148z" />
<glyph unicode="9" horiz-adv-x="1261" d="M168 39l23 141h571q51 0 96.5 35t76.5 87t57.5 121.5t41.5 127.5t25 116q-286 -40 -511 -43q-67 -1 -119.5 14t-83.5 40t-52.5 58.5t-27 70t-8 73.5t5.5 70l39 253q14 86 48 147t86 95t114 49.5t140 15.5h299q46 0 85 -10t75.5 -35.5t63.5 -65.5t46 -103t25.5 -144.5 t0 -193.5t-27.5 -247q-25 -157 -65.5 -281.5t-86.5 -203t-101 -130.5t-107.5 -73.5t-106.5 -22.5q-373 -9 -622 39zM449 950q-15 -87 16.5 -117t125.5 -30h490q85 530 -137 530h-266q-30 0 -57 -6.5t-57 -22t-52 -49t-29 -81.5z" />
<glyph unicode=":" horiz-adv-x="550" d="M169 47l21 135q7 51 58 51h127q52 0 43 -51l-22 -135q-8 -47 -57 -47h-127q-22 0 -34 13t-9 34zM305 903l22 135q7 51 57 51h127q52 0 43 -51l-22 -135q-8 -47 -59 -47h-127q-22 0 -33 12.5t-8 34.5z" />
<glyph unicode=";" horiz-adv-x="550" d="M144 -180l12 75q21 -1 36 4.5t22 17t10 19t5 19.5l7 45h-22q-21 0 -33.5 15.5t-9.5 35.5l19 129q3 23 20.5 39.5t40.5 16.5h123q23 0 33 -15.5t7 -40.5l-32 -203q-9 -57 -37 -94t-61 -49.5t-65 -16.5t-53 -1zM309 905l21 135q7 51 57 51h127q52 0 43 -51l-21 -135 q-8 -48 -57 -48h-127q-22 0 -34 13t-9 35z" />
<glyph unicode="&#x3c;" horiz-adv-x="956" d="M194 628l31 192l818 322l-29 -192l-599 -234l522 -250l-31 -182z" />
<glyph unicode="=" horiz-adv-x="956" d="M106 419l30 176h875l-30 -176h-875zM173 850l30 176h874l-30 -176h-874z" />
<glyph unicode="&#x3e;" horiz-adv-x="958" d="M140 284l31 195l609 248l-535 241l31 174l716 -322l-28 -192z" />
<glyph unicode="?" d="M248 1336l23 133q8 1 59.5 8.5t60.5 8.5t53 7t57 7.5t52 5.5t57.5 4.5t54 2.5t61.5 2t60.5 -0.5t68.5 -1.5q102 0 178 -32t118 -86.5t58 -123.5t3 -146l-31 -197q-17 -112 -65 -186t-118.5 -107t-162 -42.5t-196.5 7.5l-16 -98q-16 -97 -15 -103h-176l55 351 q165 -3 275 0q85 3 151.5 49.5t81.5 138.5l29 181q19 120 -33.5 168.5t-199.5 48.5h-543zM353 47l21 135q7 51 58 51h127q52 0 43 -51l-22 -135q-8 -47 -57 -47h-127q-22 0 -34 13t-9 34z" />
<glyph unicode="@" horiz-adv-x="1792" d="M124 34l163 1033q61 377 448 377h762q179 0 252.5 -103.5t45.5 -291.5l-106 -710q-7 -45 -15.5 -80t-33.5 -86t-61 -84.5t-100.5 -58t-148.5 -24.5h-132l-47 120q-119 -133 -307 -134q-60 -1 -108.5 10.5t-90.5 38t-69 70t-44.5 107.5t-16 151t16.5 199q20 130 58.5 230 t83.5 158.5t100.5 95.5t105 50t102.5 13q140 0 266.5 -30t198.5 -99l-118 -807q41 0 68 6t53 24t43 56t26 99l103 691q5 32 6.5 58.5t-1 46.5t-5.5 36t-12 27.5t-15.5 19.5t-20.5 13t-21.5 7.5t-25 4t-26 1.5h-27.5h-770q-211 0 -244 -214l-163 -1027q-4 -36 -5.5 -69 t8.5 -62t29 -50.5t55.5 -34t87.5 -12.5h791l-20 -117q-286 -56 -598 -56h-198q-179 0 -264.5 116t-58.5 291zM700 526q-26 -203 7 -281.5t149 -79.5q88 -1 158 26t153 100l98 623q-117 30 -284 30q-228 0 -281 -418z" />
<glyph unicode="A" horiz-adv-x="1366" d="M86 0l776 1499h199l278 -1499h-191l-75 394h-574l-206 -394h-207zM588 574h457l-117 669z" />
<glyph unicode="B" horiz-adv-x="1222" d="M153 0l238 1499h587q73 0 131.5 -17t95.5 -46.5t64 -69t37 -84.5q10 -44 14 -92q1 -16 1 -32q0 -31 -5 -62q-17 -137 -83 -215.5t-164 -102.5q65 -12 117 -112q38 -73 38 -176q0 -38 -5 -80q-26 -202 -138 -306t-339 -104h-589zM372 179h396q222 0 262 251q6 35 6 67 q0 34 -7 65q-13 59 -58.5 97.5t-121.5 38.5h-395zM482 874h393q215 0 251 226q5 36 5 65q0 74 -34 108q-48 47 -149 47h-394z" />
<glyph unicode="C" horiz-adv-x="1179" d="M208 576q3 90 19 187q21 126 45.5 222.5t59.5 185t81.5 149.5t108.5 106.5t143 67.5t182 22q96 0 238.5 -19.5t258.5 -45.5l-23 -149q-245 31 -444 31h-35q-91 -1 -136 -18q-184 -65 -266 -435q-13 -61 -24 -130q-20 -126 -21 -228q0 -34 3 -66q9 -126 71.5 -202 t176.5 -84q35 -2 80 -2q153 0 424 19l-22 -149q-175 -50 -491 -50h-25q-94 0 -166.5 31.5t-118.5 87.5t-75 129q-28 74 -38 162q-7 67 -7 135q0 21 1 43z" />
<glyph unicode="D" horiz-adv-x="1359" d="M153 0l238 1497q0 2 572 2q94 0 168 -28t120.5 -74t78.5 -111t46 -133t18 -145q1 -30 0 -58q0 -44 -2 -85q-6 -66 -17 -131q-30 -176 -80.5 -308.5t-127.5 -229.5t-186.5 -146.5t-249.5 -49.5h-578zM370 184h379q89 0 164.5 44.5t129 123t89.5 177.5t55 216 q20 128 20 226q0 133 -37 212q-65 137 -245 137h-375z" />
<glyph unicode="E" horiz-adv-x="1157" d="M190 267l152 957q45 275 299 275h22q605 -28 640 -33l-23 -151h-628q-36 0 -60.5 -9.5t-37 -27.5t-18 -35t-9.5 -42l-57 -361l646 -21l-25 -152l-651 -20l-58 -363q-5 -38 1.5 -61t26.5 -32t35 -11t44 -2h5h607l-25 -149l-632 -35q-10 -1 -20 -1q-44 0 -83 11 q-48 13 -87.5 43.5t-57.5 86.5q-11 34 -11 75q0 28 5 58z" />
<glyph unicode="F" horiz-adv-x="1159" d="M152 0l192 1218q46 281 301 281h21q605 -28 640 -33l-24 -151h-627q-36 0 -60.5 -9.5t-37 -27.5t-18 -35t-9.5 -42l-57 -362l646 -21l-24 -152l-653 -20l-102 -646h-188z" />
<glyph unicode="G" horiz-adv-x="1249" d="M210 546q3 106 22 219q26 153 56.5 263t79 206.5t113 155t157 91.5t213.5 33h16q184 0 477 -63l-21 -148q-74 11 -225.5 20.5t-251.5 11.5q-37 1 -61 -1t-64 -13.5t-69 -32.5t-65.5 -64.5t-63.5 -104.5t-53 -156t-44 -215q-20 -112 -20 -210v-22q3 -106 26.5 -183 t79.5 -121q55 -42 136 -42h4q69 0 159.5 27.5t146.5 54.5l56 28l63 357h-309l20 124q166 51 366 51q64 0 138 -6l-128 -806h-141l-32 114q-53 -50 -158.5 -88.5t-217.5 -39.5h-5q-109 0 -189 46q-82 47 -126.5 123.5t-65.5 180.5q-19 92 -19 187v23z" />
<glyph unicode="H" horiz-adv-x="1306" d="M162 0l237 1499h189l-110 -683h661l110 683h189l-238 -1499h-188l101 634h-661l-102 -634h-188z" />
<glyph unicode="I" horiz-adv-x="477" d="M170 0l238 1499h188l-237 -1499h-189z" />
<glyph unicode="J" horiz-adv-x="735" d="M73 44l30 142q112 -22 175 -22q14 0 25 1q144 14 180 176q3 15 6 31l179 1127h189l-185 -1161q-7 -46 -15 -80.5t-24.5 -79.5t-45.5 -81.5t-69 -59.5q-85 -49 -216 -49h-15q-141 3 -214 56z" />
<glyph unicode="K" horiz-adv-x="1198" d="M153 0l238 1499h185l-105 -659h161l539 659h231l-608 -762l371 -737h-222l-325 660h-173l-105 -660h-187z" />
<glyph unicode="L" horiz-adv-x="1091" d="M194 267l198 1232h187l-194 -1210q-2 -16 -2.5 -29t2.5 -23t6 -18t9.5 -14t11.5 -10t14.5 -6.5t15.5 -4t17.5 -2t17.5 -0.5h18h3h596l-28 -182h-627q-57 0 -104.5 14.5t-84.5 44.5q-36 29 -52 83q-9 31 -9 67q0 28 5 58z" />
<glyph unicode="M" horiz-adv-x="1656" d="M133 0l345 1499h250l177 -1186l540 1186h260l-116 -1499h-187l97 1165l-535 -1165h-202l-173 1164l-267 -1164h-189z" />
<glyph unicode="N" horiz-adv-x="1355" d="M153 0l238 1499h185l532 -1150l182 1150h188l-237 -1499h-182l-534 1147l-181 -1147h-191z" />
<glyph unicode="O" horiz-adv-x="1363" d="M204 491q2 113 25 256q27 173 63.5 300t87 210t102 134t127 76.5t143 33.5t168.5 8q64 0 114 -4t102 -15.5t90.5 -30.5t74.5 -49.5t59.5 -72.5t40.5 -100.5t23 -131.5q3 -36 3 -78q1 -42 -3 -89q-6 -94 -23 -206q-19 -123 -43.5 -222t-57 -173t-67.5 -130t-81 -93.5 t-91 -62t-104.5 -37.5t-115 -17.5t-128.5 -4.5q-80 0 -139 6t-122.5 24.5t-105.5 51.5t-78 89.5t-50 135.5q-13 72 -14 171v21zM392 526q-2 -29 -3 -56q1 -55 9 -97q12 -63 34 -101.5t66.5 -60.5t96.5 -29.5t130 -7.5q73 0 126.5 8.5t104.5 31t87.5 62.5t69 102.5 t56.5 151.5t43 209q20 121 24 213q2 44 2 81q0 41 -3 73q-5 62 -29 104.5t-47 65.5t-69.5 34.5t-82 14t-99.5 2.5q-68 0 -105 -2.5t-88.5 -13.5t-81 -34t-66 -65t-60 -105t-47.5 -154.5t-43 -213.5q-19 -123 -25 -213z" />
<glyph unicode="P" horiz-adv-x="1218" d="M144 0l238 1499h626q54 0 101.5 -13t93 -44.5t73.5 -83.5q26 -51 40 -128q6 -34 7 -74q0 -50 -10 -108q-12 -85 -31.5 -153t-43.5 -114t-53.5 -81t-60.5 -53.5t-64.5 -31.5t-66.5 -15t-65.5 -5t-61.5 0q-60 1 -242 16t-190 20l-102 -631h-188zM455 774h431q43 0 75.5 10 t66 38t57.5 86.5t38 147.5q7 44 7 81q0 3 1 6q1 33 -5 57q-6 26 -14 46t-21 32.5t-26 20.5t-30.5 12t-31 5.5t-30.5 1.5h-432z" />
<glyph unicode="Q" horiz-adv-x="1372" d="M213 544q5 93 23 205q27 173 63.5 300t87 209.5t102 133.5t127 76t143 33t168.5 8q83 0 145 -7t123.5 -28t103 -56.5t75 -94.5t46.5 -140q12 -68 12 -160v-35q-3 -114 -25 -258q-17 -109 -39 -199.5t-47 -160.5t-58 -125t-66.5 -94.5t-77 -68t-85.5 -46t-96 -27.5 t-104 -13.5t-114 -3.5q-61 0 -109 3.5t-100 13.5t-90.5 27.5t-76.5 46.5t-62.5 69.5t-43 97.5t-24.5 128q-3 40 -3 85q0 38 2 81zM398 526q-1 -29 -1 -56q0 -54 7 -97q12 -63 34.5 -101.5t67 -60.5t96.5 -29.5t130 -7.5q73 0 126.5 8.5t104.5 31t87.5 62.5t69 102.5 t56.5 151.5t43 209q19 121 23 213q3 44 3 81q0 41 -3 73q-5 63 -29 105t-47 65t-69.5 34.5t-82 14t-99.5 2.5q-68 0 -105 -2.5t-88.5 -13.5t-81 -34t-66 -65t-60 -105t-47.5 -154.5t-43 -213.5q-20 -124 -26 -213zM624 -68h122q45 -45 102 -62q42 -13 82 -13q14 0 28 2 q53 6 122 28l-29 -182q-52 -16 -111 -18h-14q-51 0 -101 12q-57 14 -103 42.5t-73 78.5q-25 46 -25 103v9z" />
<glyph unicode="R" horiz-adv-x="1245" d="M144 0l238 1499h637q74 0 131 -24t99.5 -76.5t58.5 -144.5q9 -49 9 -108q0 -51 -7 -110q-9 -80 -28.5 -145t-42 -107.5t-54.5 -75t-56 -49t-57 -28t-47 -14.5t-36 -6l216 -611h-209l-195 594l-370 26l-99 -620h-188zM458 776h430q93 0 155.5 62.5t75.5 205.5q4 52 4 92 t-3.5 69t-12.5 49t-20 32.5t-28 19.5t-34.5 9.5t-41.5 2.5h-440z" />
<glyph unicode="S" horiz-adv-x="1173" d="M157 36l23 151q152 -21 506 -21q243 0 269 169l20 123q6 45 6 81q-1 8 -1 15q-2 41 -34.5 65t-102.5 24h-264q-323 0 -323 274q0 43 8 92l20 140q15 92 47 159.5t73.5 106.5t100 62t115.5 29q44 5 96 6q16 0 33 -1q101 -1 264.5 -17.5t252.5 -33.5l-23 -150 q-46 1 -167.5 5.5t-224.5 9t-110 4.5q-22 1 -41 1q-24 0 -42 -2q-34 -2 -67.5 -12.5t-55 -32t-38.5 -58.5t-25 -90l-18 -119q-4 -28 -6 -50.5t0.5 -40t6.5 -31.5t11 -23.5t15.5 -17t19.5 -11.5t23 -6.5t25.5 -3.5t28 -1.5t29.5 0.5h17h264q63 0 113 -15.5t80.5 -42t52 -62.5 t28.5 -76.5t9 -83.5q0 -8 1 -16q0 -35 -8 -69l-20 -137q-9 -67 -31.5 -120.5t-51 -89t-69 -61.5t-77.5 -40t-84.5 -22t-82.5 -10t-79 -2q-126 0 -283 17t-229 35z" />
<glyph unicode="T" horiz-adv-x="1189" d="M275 1317l30 182h1058l-29 -182h-441l-208 -1317h-189l208 1317h-429z" />
<glyph unicode="U" horiz-adv-x="1341" d="M234 416q0 95 17 217l137 866h190l-138 -875q-14 -90 -16 -158q0 -13 -1 -26q1 -54 9 -94q10 -50 31.5 -83.5t57.5 -53.5t81 -28.5t107 -8.5q193 0 290.5 101t136.5 351l139 875h190l-137 -884q-15 -94 -35 -168t-52.5 -148t-80 -127.5t-112.5 -96t-155.5 -64 t-202.5 -21.5q-84 0 -151.5 14t-125 44.5t-94.5 80t-61 121t-24 166.5z" />
<glyph unicode="V" horiz-adv-x="1380" d="M301 1499h199l213 -1219l622 1219h213l-773 -1499h-201z" />
<glyph unicode="W" horiz-adv-x="2056" d="M301 1499h193l217 -1212l614 1212h209l-246 -488l117 -735l616 1223h204l-761 -1499h-199l-116 725l-372 -725h-203z" />
<glyph unicode="X" horiz-adv-x="1253" d="M75 0l562 751l-331 748h202l256 -590l440 590h221l-579 -776l319 -723h-201l-245 565l-423 -565h-221z" />
<glyph unicode="Y" horiz-adv-x="1304" d="M301 1499h201l237 -763l513 763h221l-668 -985l-81 -514h-189l81 514z" />
<glyph unicode="Z" horiz-adv-x="1150" d="M67 0l30 182l954 1135h-776l30 182h1015l-29 -182l-948 -1135h769l-29 -182h-1016z" />
<glyph unicode="[" horiz-adv-x="663" d="M143.5 -146.5q1.5 36.5 7.5 74.5l232 1456q10 63 24 108t39.5 87.5t62.5 69t94 42t132 15.5h164l-28 -176h-148q-64 0 -101 -34.5t-53 -128.5l-229 -1445q-16 -81 -8.5 -124t30 -56.5t74.5 -13.5h150l-28 -177h-169q-63 0 -110 18.5t-73 50.5t-42 69.5t-19 82.5 t-1.5 81.5z" />
<glyph unicode="\" horiz-adv-x="831" d="M286 1577h184l303 -1724h-184z" />
<glyph unicode="]" horiz-adv-x="663" d="M-29 -449l28 177h148q64 0 101 34.5t53 128.5l229 1444q16 81 8.5 124t-30.5 57t-75 14h-149l29 176h165q74 0 125.5 -26t76.5 -64t36 -90.5t10 -97.5t-8 -93l-227 -1461q-9 -60 -21.5 -103.5t-38 -87.5t-61.5 -71t-94 -44t-135 -17h-170z" />
<glyph unicode="^" horiz-adv-x="796" d="M268 1087l277 272h164l166 -272h-154l-100 155l-167 -155h-186z" />
<glyph unicode="_" horiz-adv-x="1378" d="M42 -2l28 176h1299l-29 -176h-1298z" />
<glyph unicode="`" horiz-adv-x="516" d="M254 1363h196l201 -276h-154z" />
<glyph unicode="a" d="M153 369q2 93 22 211q19 108 48.5 192.5t67.5 139.5t77.5 92.5t88.5 58.5t89.5 30.5t90.5 14.5q33 4 69 3q97 0 216 -25q163 -35 236 -105l-143 -980h-139l-29 119q-56 -46 -161.5 -90t-205.5 -44q-60 0 -108 11t-91 36t-70.5 70t-43.5 109q-14 57 -14 137v20zM357 525 q-15 -92 -14 -159q0 -76 18 -120q35 -83 148 -83q101 0 175 23t177 76l99 645q-82 23 -168 31q-38 4 -71 4q-42 0 -76 -6q-32 -6 -51.5 -11t-48 -17.5t-47 -29.5t-41.5 -47.5t-39.5 -71t-32.5 -100t-28 -134.5z" />
<glyph unicode="b" horiz-adv-x="1134" d="M115 0l254 1608h185l-92 -583q93 36 202 57.5t183 21.5q300 0 299 -367q0 -94 -19 -211q-11 -65 -22.5 -116t-30.5 -111t-41.5 -104t-56.5 -87t-75 -69q-41 -27 -97 -41q-44 -11 -95 -11q-14 0 -28 1q-94 5 -205.5 48.5t-155.5 81.5l-62 -118h-143zM342 252 q180 -87 348 -87q102 0 161 91.5t88 285.5q19 132 19 216q0 83 -34 128q-36 46 -115 46q-183 0 -367 -50z" />
<glyph unicode="c" horiz-adv-x="1011" d="M158 336q-1 18 -1 37q0 81 19 181q18 106 42 189t50 140.5t59.5 98t64.5 64t72.5 36.5t76.5 17t82 4q80 0 220 -18t246 -42l-20 -129q-259 16 -441 16q-31 0 -50.5 -2t-44 -10t-40.5 -23.5t-35.5 -44t-34 -70.5t-30 -102.5t-30.5 -140.5q-20 -102 -21 -174q0 -31 4 -56 q12 -84 50.5 -116t109.5 -32q84 0 199 5.5t189 11.5l73 5l-21 -133q-123 -36 -231 -49q-94 -11 -215 -11h-38q-64 1 -116.5 20t-94.5 61t-64.5 107.5t-28.5 159.5z" />
<glyph unicode="d" horiz-adv-x="1128" d="M162 416q2 66 14 135q11 68 24 123.5t32.5 114t43.5 104t58 86t75.5 67.5t96 42.5t118.5 15.5q75 0 181.5 -21.5t187.5 -57.5l94 583h185l-256 -1608h-143l-24 118q-63 -42 -177 -86t-205 -44q-68 0 -121.5 23t-88.5 64t-57 95q-23 52 -31 116q-7 53 -7 109v21zM365 542 q-15 -88 -15 -155q0 -75 18 -126q34 -96 130 -96q169 0 373 87l99 630q-167 50 -354 50q-45 0 -80 -16.5t-67.5 -58.5t-58.5 -120.5t-45 -194.5z" />
<glyph unicode="e" horiz-adv-x="1075" d="M177 582q15 79 29 135t36 114.5t49.5 98t67 75.5t90.5 57t118.5 33.5t152.5 12.5q99 0 173.5 -15.5t131 -50.5t81.5 -97q18 -44 18 -102q0 -23 -3 -48q-10 -94 -54.5 -165t-107.5 -110t-139 -62q-78 -23 -152 -28q-47 -3 -90 -3q-26 0 -52 1q-68 3 -113.5 10.5 t-64.5 15.5q-15 -76 -15 -132q-1 -26 3 -48q10 -66 47 -92.5t111 -27.5q45 -3 96 -4q168 0 397 34l-22 -139q-211 -60 -477 -60q-25 0 -50 1q-194 2 -256 148q-32 76 -32 196q0 108 27 252zM367 586q11 -1 29.5 -3t73.5 -3h27q40 0 79 2q51 3 114 15.5t110.5 33.5t84.5 60.5 t46 92.5q4 22 4 41q1 59 -39 81q-52 28 -187 29q-79 0 -137 -20t-90 -44.5t-56 -75t-32 -82.5t-21 -97z" />
<glyph unicode="f" horiz-adv-x="825" d="M183 918l21 131l204 38l15 94q19 121 44 198t67.5 130.5t103.5 76t151 22.5q57 0 131 -17t114 -32l-18 -120l-217 1q-41 0 -68.5 -9t-47 -25.5t-32.5 -53t-22 -77.5t-20 -113l-13 -75h318l-28 -169h-319l-151 -918h-189l150 918h-194z" />
<glyph unicode="g" horiz-adv-x="1134" d="M66 -508l20 125h510q77 0 134 50.5t71 144.5l40 252q-182 -78 -347 -78q-80 0 -140 20t-98 59t-60.5 90t-29.5 119q-4 44 -4 89q0 26 1 52q4 72 18 160q41 259 160 393t297 134q199 0 549 -51l-198 -1249q-30 -189 -143 -282q-97 -79 -224 -79q-22 0 -45 2zM349 340 q14 -180 165 -184q100 0 166 9.5t182 40.5l117 726h-332q-49 0 -90 -20.5t-69.5 -56t-50 -74.5t-35.5 -85.5t-21 -77.5t-12 -62q-20 -137 -20 -201v-15z" />
<glyph unicode="h" horiz-adv-x="1116" d="M115 0l254 1605h188l-102 -641q4 2 37 20.5t39 21.5t36 19t40 19.5t37.5 16t42 16t40 11.5t45 10.5t44.5 5t49 2.5q109 0 178 -51t91 -130q13 -46 14 -98q0 -37 -7 -78l-119 -749h-188l119 750q4 25 4 47q1 59 -27 91q-38 46 -115 45q-104 0 -178 -24t-203 -87l-131 -822 h-188z" />
<glyph unicode="i" horiz-adv-x="415" d="M113 0l172 1087h189l-172 -1087h-189zM292 1258l20 130q7 51 57 51h133q22 0 32 -14q8 -11 7 -27v-10l-20 -130q-6 -47 -55 -47h-133q-22 1 -33 13q-9 10 -9 25q0 4 1 9z" />
<glyph unicode="j" horiz-adv-x="458" d="M47 -553l260 1640h188l-174 -1095q-51 -335 -145 -545h-129zM313 1258l22 130q7 51 57 51h133q22 0 32 -14q8 -11 8 -27q0 -5 -1 -10l-21 -130q-6 -47 -55 -47h-133q-22 0 -33 13q-10 9 -10 25q0 4 1 9z" />
<glyph unicode="k" horiz-adv-x="1026" d="M115 0l254 1602h188l-149 -943q88 27 194.5 97.5t192.5 162.5t104 168h207q-24 -83 -79.5 -166t-123 -147t-133.5 -111.5t-120 -72.5l391 -590h-222l-352 535l-78 -2l-86 -533h-188z" />
<glyph unicode="l" horiz-adv-x="602" d="M174 387l192 1217h189l-191 -1205q-9 -58 -10.5 -97t2.5 -62t18 -37.5t28 -20t40 -12.5q141 -38 145 -38l-21 -132h-152q-250 0 -250 268q0 54 10 119z" />
<glyph unicode="m" horiz-adv-x="1824" d="M115 0l172 1087h140l28 -127q15 8 61.5 34t63.5 35t57.5 27t67 25t66.5 13.5t81 6.5q93 0 165 -47.5t96 -121.5q108 76 218.5 122.5t241.5 46.5q145 -1 223 -101q60 -76 59 -185q0 -35 -6 -73l-118 -742h-188l118 743q3 20 3 39q0 58 -31 96q-41 50 -111 50 q-117 0 -200 -23t-181 -84q0 -1 -6 -41t-6 -42l-117 -738h-189l118 743q3 20 3 38q0 59 -32 97q-42 50 -111 50q-73 0 -135 -14.5t-101 -31.5t-133 -63l-129 -819h-188z" />
<glyph unicode="n" horiz-adv-x="1116" d="M115 0l172 1087h140l28 -123q8 5 37.5 21t39 21t36.5 19t39.5 19.5l37.5 16.5t41 15.5t40.5 11.5t45 10t45 5.5t48.5 2.5q109 0 178 -51t91 -130q13 -46 14 -98q0 -37 -7 -78l-119 -749h-188l119 750q4 25 4 46q0 58 -28 92q-38 46 -114 45q-104 0 -178 -24t-203 -87 l-131 -822h-188z" />
<glyph unicode="o" horiz-adv-x="1150" d="M176 536q27 169 67.5 276t109.5 172t161 90t231 25q259 0 353 -141q62 -93 63 -253q0 -83 -17 -184q-26 -156 -63 -254t-101.5 -162t-156 -89.5t-230.5 -25.5q-267 0 -365 127q-66 86 -67 249q0 76 15 170zM348 386q0 -9 -1 -17q0 -49 11 -83q12 -40 30.5 -65t53.5 -37.5 t70.5 -16.5t89.5 -4q42 0 70.5 2t60.5 7.5t53.5 16.5t45 29.5t39.5 45t32 64t28.5 87.5t23.5 113q17 102 19 170v13q0 59 -12 101q-13 46 -46 70.5t-77.5 34t-114.5 9.5q-58 0 -97 -5t-77.5 -19.5t-64 -41.5t-49 -71.5t-40.5 -108t-32 -152.5q-14 -82 -16 -142z" />
<glyph unicode="p" horiz-adv-x="1142" d="M27 -553l269 1614q234 34 532 34q79 0 138.5 -24t95 -68t57 -98.5t27.5 -122.5q4 -52 4 -100v-32q-2 -64 -12 -136q-13 -92 -35.5 -169.5t-60 -145t-87 -115t-118 -74.5t-151.5 -27q-81 0 -189 19.5t-183 56.5l-100 -612h-187zM339 202q135 -51 257 -51q47 0 91 7 q37 6 63 14.5t59 33t56.5 63.5t46.5 108.5t38 164.5q14 86 14 153q0 230 -165 230h-340z" />
<glyph unicode="q" horiz-adv-x="1132" d="M161 369q2 84 19 189q87 543 470 543q45 0 91.5 -2t94.5 -6t84.5 -7.5t84 -10t69.5 -9.5t65 -9t47 -7l-254 -1603h-188l96 612q-186 -79 -352 -79q-92 0 -157 28.5t-102 78t-53 123.5q-15 67 -15 141v18zM348 303q9 -116 96 -143q30 -9 71 -9q100 0 166 9.5t182 40.5 l115 730h-340q-55 0 -100 -28t-72.5 -68t-49 -96t-31 -98.5t-16.5 -89.5q-22 -153 -22 -224q0 -14 1 -24z" />
<glyph unicode="r" horiz-adv-x="868" d="M115 0l172 1087h143l23 -137q8 5 24 14q58 34 90 51t84.5 40.5t102.5 33.5t103 10q112 0 142 -15l-30 -184q-52 10 -152 10q-108 0 -188.5 -26t-199.5 -93l-126 -791h-188z" />
<glyph unicode="s" horiz-adv-x="1040" d="M126 25l22 131h548q102 0 118 99l16 96q3 17 3 31q-1 30 -13 46q-18 24 -77 24h-287q-152 0 -220 66q-51 49 -50 143q0 33 6 72l16 103q22 136 98 203t229 67q112 0 292.5 -11.5t248.5 -26.5l-21 -135h-523q-41 0 -68.5 -10.5t-41 -29.5t-18.5 -33.5t-8 -34.5l-14 -91 q-3 -20 -3.5 -35.5t2.5 -26.5t6.5 -19t11.5 -12.5t14 -7t16.5 -3.5t17.5 -1t18.5 0.5t17.5 0.5h292q136 0 200 -78q49 -60 49 -144q0 -25 -4 -53l-19 -127q-10 -64 -35 -111t-54.5 -72.5t-70.5 -40.5t-74 -19t-74 -4q-106 0 -310.5 15t-256.5 29z" />
<glyph unicode="t" horiz-adv-x="772" d="M180 920l20 127l203 43l87 303h148l-47 -303h297l-27 -170h-297l-82 -520q-9 -58 -10 -97t3 -62t18 -37.5t27.5 -20.5t39.5 -13q141 -38 145 -38l-20 -132h-155q-148 0 -208 94q-40 62 -41 170q0 55 11 123l83 533h-195z" />
<glyph unicode="u" horiz-adv-x="1114" d="M150 339l118 748h188l-118 -749q-5 -31 -5 -56q0 -58 26 -86q37 -40 117 -41q105 0 179.5 23.5t202.5 86.5l129 822h188l-172 -1087h-141l-28 124q-139 -78 -197 -101q-104 -41 -211 -41q-163 0 -232 100q-51 73 -51 177q0 38 7 80z" />
<glyph unicode="v" horiz-adv-x="1064" d="M187 1087h197l187 -864l348 683q44 90 57 182h159q12 -41 12 -82q0 -71 -35 -142l-449 -864h-234z" />
<glyph unicode="w" horiz-adv-x="1650" d="M187 1087h192l182 -856l349 670q44 90 57 182h151q12 -42 12 -84q0 -62 -27 -121l-52 -118l102 -518l362 664q44 90 57 182h153q13 -44 13 -86q0 -72 -37 -138l-480 -864h-195l-108 531l-274 -531h-215z" />
<glyph unicode="x" horiz-adv-x="1099" d="M46 0l476 553l-304 534h219l216 -392l337 392h236l-477 -561l298 -526h-217l-213 383l-326 -383h-245z" />
<glyph unicode="y" horiz-adv-x="1130" d="M187 1087h196l114 -825q5 -31 23.5 -50.5t39 -23.5t39.5 -6.5t25 0.5h2l363 728q36 75 51 181h164q11 -39 11 -80q0 -74 -38 -151l-425 -858q-132 -268 -264 -400.5t-291 -163.5v134q61 38 113.5 88.5t96 113t72 110.5t63.5 116q-34 0 -67.5 9.5t-70 33.5t-63.5 74.5 t-37 121.5z" />
<glyph unicode="z" horiz-adv-x="942" d="M88 2l23 176l672 733h-578l24 176h830l-25 -176l-657 -733h536l-26 -176h-799z" />
<glyph unicode="{" horiz-adv-x="655" d="M133 603l26 158q8 0 31 0.5t35 1.5t32.5 3.5t33 8.5t26.5 15.5t22 25t11 36.5l76 482q60 372 464 372l-28 -176q-105 2 -168.5 -50t-84.5 -180l-71 -452q-13 -76 -69.5 -120.5t-140.5 -58.5q77 -12 119.5 -62t31.5 -118l-80 -492q-24 -153 21.5 -215.5t155.5 -56.5 l-28 -174q-74 0 -133 17t-97.5 47t-66 71.5t-38 89.5t-13 101t8.5 107l80 493q10 60 -40 95.5t-116 30.5z" />
<glyph unicode="|" horiz-adv-x="501" d="M140 -147l272 1724h176l-272 -1724h-176z" />
<glyph unicode="}" horiz-adv-x="647" d="M-29 -449l28 174q105 -2 168 50t82 175l76 472q12 72 68 116.5t140 60.5q-77 11 -119 60.5t-30 120.5l76 473q26 158 -20 220.5t-156 56.5l29 176q73 0 131 -17.5t96.5 -48t65.5 -72.5t37 -90.5t13 -102t-8 -106.5l-75 -477q-9 -60 41 -94.5t116 -31.5l-26 -159h-24 t-27.5 -0.5t-25.5 -1.5t-27 -3.5t-24 -7t-23 -11.5t-17.5 -16t-14.5 -22t-8 -29l-80 -491q-31 -186 -143 -280t-319 -94z" />
<glyph unicode="~" horiz-adv-x="884" d="M281 1179q13 10 49 40t52.5 41.5t46 29t57.5 24.5t59 7q46 0 105.5 -36t99.5 -36q17 0 33 2t33 8t29.5 10.5t30.5 14.5t26.5 15t27.5 17t25 15l30 -96q-7 -6 -32.5 -29t-38.5 -34t-39.5 -30.5t-46.5 -29t-47 -17.5t-53 -8q-48 0 -112 36t-103 36q-36 0 -66 -9.5 t-71.5 -31.5t-63.5 -31z" />
<glyph unicode="&#xa1;" horiz-adv-x="557" d="M80 -551l197 1088h176l-147 -1088h-226zM290 769l19 130q6 43 57 47h121q19 -2 31.5 -17t9.5 -36l-20 -124q-10 -42 -49 -51h-134q-40 3 -35 51z" />
<glyph unicode="&#xa2;" horiz-adv-x="999" d="M141 334.5q-5 94.5 18 219.5q19 109 43 193t50 142.5t60.5 99t67 63.5t77 34.5t83 14t91.5 0.5l33 197h138l-35 -206q168 -20 306 -51l-21 -129q-259 16 -441 16q-32 0 -50.5 -2t-43.5 -9.5t-41 -23t-36 -43.5t-34.5 -70t-30 -102.5t-30.5 -140.5q-17 -111 -18.5 -184 t20 -116t55.5 -60.5t87 -17.5q84 0 199 5.5t188 11.5l74 5l-21 -133q-160 -51 -338 -59l-26 -185h-138l27 184q-68 1 -121.5 19.5t-97.5 59.5t-66.5 107t-27.5 160.5z" />
<glyph unicode="&#xa3;" horiz-adv-x="1212" d="M96 0l23 148l151 34l75 485h-144l17 107l151 38l35 219q15 95 40.5 168.5t53.5 123t72 83.5t81 52t95.5 27.5t101 11.5t112.5 2q52 0 149 -8.5t169 -16.5l71 -8l-23 -147h-382q-65 0 -109 -4t-82.5 -16t-62.5 -31.5t-44 -53t-32.5 -77.5t-22.5 -108l-34 -217l521 -35 l-17 -110h-527l-76 -485h687l-29 -182h-1020z" />
<glyph unicode="&#xa4;" horiz-adv-x="942" d="M156 364l109 92q-49 95 -34 187q17 113 73 181l-78 91l100 81l74 -88q95 61 195 61q127 0 202 -63l113 96l76 -98l-114 -98q40 -82 25 -177q-18 -115 -82 -194l89 -105l-103 -83l-84 101q-77 -51 -198 -51q-103 0 -178 60l-107 -94zM366 640q-14 -84 34.5 -145.5 t129.5 -62.5q99 -1 157.5 55t77.5 146q18 81 -31 143t-140 61q-93 -1 -153.5 -56.5t-74.5 -140.5z" />
<glyph unicode="&#xa5;" horiz-adv-x="1249" d="M224 306l21 133h323l13 95h-321l23 133h293l-301 832h201l237 -679l508 679h226l-634 -832h344l-22 -133h-366l-13 -95h364l-21 -133h-360l-41 -306h-188l41 306h-327z" />
<glyph unicode="&#xa6;" horiz-adv-x="503" d="M140 -147l106 671h177l-107 -671h-176zM302 879l110 698h176l-110 -698h-176z" />
<glyph unicode="&#xa7;" horiz-adv-x="1122" d="M183 23l22 137h529q59 0 91.5 16t41.5 67l20 131q9 55 -12.5 71.5t-82.5 16.5h-326q-128 0 -198.5 65t-49.5 193l18 111q13 82 41 130t91 67q-54 35 -68 80.5t-4 105.5l20 132q40 260 314 260q82 0 286.5 -14.5t271.5 -24.5l-21 -137h-542q-53 0 -82.5 -21t-38.5 -74 l-20 -124q-8 -48 18.5 -68.5t72.5 -20.5h336q134 0 197 -72.5t45 -190.5l-18 -111q-25 -172 -124 -190q88 -30 65 -183l-21 -141q-13 -80 -36 -129.5t-65 -76t-92.5 -35.5t-130.5 -9q-84 0 -283 14.5t-265 24.5zM408 730q-10 -61 11.5 -78t81.5 -17h314q41 0 66 6.5 t37.5 21.5t16.5 28.5t8 40.5l19 114q10 58 -5.5 81t-90.5 23h-314q-66 0 -90.5 -20.5t-35.5 -87.5z" />
<glyph unicode="&#xa8;" horiz-adv-x="927" d="M284 1192q7 45 44 76t82 31t71 -31t19 -76t-43 -77t-81 -32t-72 32t-20 77zM806 1192q7 45 44 76t82 31t71 -31t19 -76t-43 -77t-81 -32t-72 32t-20 77z" />
<glyph unicode="&#xa9;" horiz-adv-x="1642" d="M206.5 638q3.5 64 12.5 122q15 100 36 184t54 171t79 154t106 120t142.5 81.5t180.5 28.5h514q82 0 145.5 -27.5t102 -72.5t63.5 -109t34.5 -130t9.5 -143.5t-6 -141t-17 -131.5q-26 -161 -71.5 -292.5t-112.5 -234.5t-160.5 -160t-206.5 -57h-514q-81 0 -146.5 29 t-108 77t-72 113.5t-44 134.5t-19.5 144.5t-1.5 139.5zM349 576q-1 -87 13.5 -166t44 -138t80.5 -94t119 -35h521q129 0 236 155.5t154 455.5q10 62 16 111.5t10 115t0 114.5t-17.5 100.5t-37.5 85t-65 54.5t-97 21h-531q-58 0 -107 -15.5t-100 -56.5t-91 -107t-75 -173.5 t-57 -249.5q-15 -91 -16 -178zM582 753q21 130 57 219t85 136.5t102 66.5t121 19q132 0 359 -49l-18 -119q-176 25 -351 25q-83 0 -134 -75.5t-77 -234.5q-12 -87 -11 -153t32.5 -105t94.5 -39q147 0 372 33l-19 -119q-191 -57 -387 -57q-131 0 -197 112t-29 340z" />
<glyph unicode="&#xaa;" horiz-adv-x="753" d="M143 546l19 125h632l-19 -125h-632zM214 999q-9 66 7 155q14 85 42.5 148.5t60.5 98.5t75 57.5t74.5 30t69.5 11.5q76 8 194 -18.5t165 -72.5l-92 -632h-91l-23 110q-37 -45 -111.5 -82t-143.5 -37q-39 0 -74 11.5t-69.5 38.5t-54.5 71t-29 110zM365 1125 q-34 -211 105 -211q61 0 114 24.5t122 75.5l46 327q-57 15 -116 21.5t-100 -2.5q-24 -7 -39.5 -13t-39 -22.5t-38.5 -39.5t-30.5 -64t-23.5 -96z" />
<glyph unicode="&#xab;" horiz-adv-x="1150" d="M210 725l488 416l105 -123l-361 -308l260 -305l-127 -106zM614 725l487 416l105 -123l-360 -308l260 -305l-128 -106z" />
<glyph unicode="&#xac;" horiz-adv-x="1058" d="M174 515l28 173h874q-9 -59 -28.5 -181.5t-28.5 -180.5h-173l29 189h-701z" />
<glyph unicode="&#xad;" horiz-adv-x="724" d="M121 506l28 176h643l-28 -176h-643z" />
<glyph unicode="&#xae;" horiz-adv-x="1642" d="M206.5 638q3.5 64 12.5 122q15 100 36 184t54 171t79 154t106 120t142.5 81.5t180.5 28.5h514q82 0 145.5 -27.5t102 -72.5t63.5 -109t34.5 -130t9.5 -143.5t-6 -141t-17 -131.5q-26 -161 -71.5 -292.5t-112.5 -234.5t-160.5 -160t-206.5 -57h-514q-81 0 -146.5 29 t-108 77t-72 113.5t-44 134.5t-19.5 144.5t-1.5 139.5zM349 576q-1 -87 13.5 -166t44 -138t80.5 -94t119 -35h521q129 0 236 155.5t154 455.5q10 62 16 111.5t10 115t0 114.5t-17.5 100.5t-37.5 85t-65 54.5t-97 21h-531q-58 0 -107 -15.5t-100 -56.5t-91 -107t-75 -173.5 t-57 -249.5q-15 -91 -16 -178zM570 313l140 875h365q47 0 87.5 -12t79 -40.5t56.5 -86t8 -137.5q-5 -44 -15.5 -79.5t-20.5 -60t-29 -44t-30.5 -29.5t-35 -19.5t-33 -12t-35 -7.5t-29.5 -6l130 -341h-163l-127 342l-143 25l-58 -367h-147zM792 782h219q79 0 107 26.5 t42 112.5q3 20 3 36t-2 28t-7.5 21.5t-11 15.5t-14.5 10.5t-16.5 6.5t-19 3.5t-19.5 1.5h-20h-219z" />
<glyph unicode="&#xaf;" horiz-adv-x="788" d="M268 1087l22 139h598l-22 -139h-598z" />
<glyph unicode="&#xb0;" horiz-adv-x="600" d="M296 1294q1 88 63.5 149t148.5 61t145.5 -61t58.5 -149t-62 -147.5t-147 -59.5q-87 0 -147.5 60t-59.5 147zM398 1294q-1 -43 30.5 -73.5t75.5 -30.5t74.5 30.5t31.5 73.5q1 44 -30 75.5t-74 31.5t-75 -31.5t-33 -75.5z" />
<glyph unicode="&#xb1;" horiz-adv-x="1062" d="M133 169l28 176h852l-28 -176h-852zM232 790l27 176h336l53 338h176l-53 -338h340l-27 -176h-340l-55 -338h-176l55 338h-336z" />
<glyph unicode="&#xb2;" horiz-adv-x="794" d="M149 729l22 139q16 11 76.5 51.5t100 68.5t103.5 75.5t108 88t89 88t71.5 95t33.5 90.5q12 79 -16 112.5t-115 33.5h-345q-1 0 3 29.5t9 58.5t6 28q8 1 47.5 6.5t49 6.5t43 5t47 5.5t43 4t50.5 3t49 1.5t57 1q55 0 99.5 -20.5t70.5 -52.5t44 -71t20 -76.5t-1 -68.5 q-10 -68 -44.5 -136.5t-78.5 -121t-98.5 -104t-99 -85t-86 -64.5t-53.5 -43h370l-24 -148h-651z" />
<glyph unicode="&#xb3;" horiz-adv-x="829" d="M152 758l19 109l353 1q144 0 162 114l8 42q19 123 -117 127l-279 10l19 120l283 12q142 6 158 119l5 39q11 61 -16 86.5t-104 25.5h-372l18 108q58 20 127.5 29t137 9.5t149.5 -0.5q114 -1 172 -72.5t42 -172.5l-12 -69q-12 -73 -46.5 -124t-81.5 -65q42 -24 60 -76 t8 -113l-8 -55q-19 -119 -87.5 -181t-212.5 -61h-48.5h-50t-43.5 0.5t-46 1.5t-39.5 3t-43 4.5t-37 6.5t-41 9.5t-36.5 12.5z" />
<glyph unicode="&#xb4;" horiz-adv-x="495" d="M210 1087l254 276h210l-310 -276h-154z" />
<glyph unicode="&#xb5;" horiz-adv-x="1212" d="M84 -553l141 892l119 748h189l-120 -749q-14 -92 24 -137.5t114 -45.5q105 0 179.5 23.5t202.5 86.5l130 822h189l-172 -1087h-141l-28 124q-8 -4 -51.5 -27t-55.5 -29t-49 -24t-57 -24t-52 -16t-61 -13.5t-60 -4.5q-93 -3 -161 40l-91 -579h-189z" />
<glyph unicode="&#xb6;" horiz-adv-x="1185" d="M233 961q-4 35 3 68l29 190q44 280 368 280h754l-27 -171h-132l-211 -1328h-167l211 1332h-177l-299 -1885h-167l209 1315q-2 -1 -16.5 -7l-29 -12t-36.5 -11t-41 -5q-54 0 -99 13t-75 36t-52.5 52.5t-31.5 63.5t-13 69zM406 1032q-6 -38 1 -65.5t19.5 -41t34.5 -21 t37 -9t35 -1.5h113l71 443h-108q-88 0 -127 -35t-50 -104z" />
<glyph unicode="&#xb7;" horiz-adv-x="548" d="M274 717l22 135q7 51 57 51h127q52 0 43 -51l-22 -135q-8 -47 -57 -47h-127q-22 0 -34 13t-9 34z" />
<glyph unicode="&#xb8;" horiz-adv-x="509" d="M38 -357l15 88l107 31q42 17 62 56.5t30 105.5h152q-25 -159 -79.5 -220t-178.5 -61h-108z" />
<glyph unicode="&#xb9;" horiz-adv-x="567" d="M232 1473l17 104q48 0 100 18.5t91 44.5t62 44t30 26h149l-156 -981h-153l130 807q-33 -25 -105 -44t-165 -19z" />
<glyph unicode="&#xba;" horiz-adv-x="792" d="M167 551l19 125h637l-19 -125h-637zM236 1131q34 216 114.5 297t274.5 82q179 2 252 -86t39 -303q-16 -103 -40 -167t-69 -109.5t-113.5 -64t-173.5 -18.5q-176 0 -245.5 88.5t-38.5 280.5zM377 1019q2 -21 4 -37.5t10 -28t14 -20t20 -14t23 -8.5t27.5 -5t30 -2.5 t34.5 -0.5h44.5t41.5 4t37 12t32.5 24t28.5 40t23.5 60t18.5 83q7 44 10 77.5t0.5 59t-6 43t-15.5 29t-22.5 18.5t-32 10.5t-39 4.5t-48.5 1q-38 1 -61 -1t-48.5 -9.5t-41 -23t-31.5 -42.5t-26.5 -68t-19.5 -99q-5 -33 -7.5 -59.5t-0.5 -47.5z" />
<glyph unicode="&#xbb;" horiz-adv-x="1144" d="M161 423l362 310l-257 300l125 108l363 -425l-486 -417zM571 423l362 310l-257 300l125 108l363 -425l-486 -417z" />
<glyph unicode="&#xbc;" horiz-adv-x="1884" d="M232 1268l17 104q48 0 100 18.5t91 45t62 44.5t30 26h149l-156 -982h-153l130 808q-33 -25 -105.5 -44.5t-164.5 -19.5zM363 0l1174 1577h149l-1173 -1577h-150zM1085 295l514 681h176l-436 -589h301l38 238l71 99h96l-54 -337h115l-19 -124l-120 -30l-36 -233h-151 l36 233h-491z" />
<glyph unicode="&#xbd;" horiz-adv-x="2031" d="M232 1268l17 104q48 0 100 18.5t91 45t62 44.5t30 26h149l-156 -982h-153l130 808q-33 -25 -105.5 -44.5t-164.5 -19.5zM344 0l1173 1577h150l-1174 -1577h-149zM1304 0l22 139q16 11 76.5 51.5t100 68.5t103.5 75.5t108 88t89 88t71.5 95t33.5 90.5q12 79 -16 112.5 t-115 33.5h-345q-1 0 2.5 29.5t8.5 58.5t6 28q8 1 47.5 6.5t49 6.5t43 5t47 5.5t43 4t50.5 3t49 1.5t57 1q55 0 99.5 -20.5t70.5 -52.5t44 -71t20 -76.5t-1 -68.5q-10 -68 -44.5 -136.5t-78.5 -121t-98.5 -104t-99 -85t-86 -64.5t-53.5 -43h370l-23 -148h-651z" />
<glyph unicode="&#xbe;" horiz-adv-x="2117" d="M152 553l19 109l353 2q145 0 162 113l8 42q19 124 -117 128l-279 10l19 120l283 11q142 6 158 119l5 39q11 61 -16 86.5t-104 25.5h-372l18 108q58 20 127.5 29.5t137 10t149.5 -0.5q114 -1 172 -73t42 -173l-12 -69q-12 -73 -46.5 -124t-81.5 -65q42 -24 60 -76t8 -113 l-8 -55q-19 -119 -87.5 -181t-212.5 -61h-48.5h-50t-43.5 0.5t-46 1.5t-39.5 3t-43 4.5t-37 6.5t-41 9.5t-36.5 12.5zM565 0l1174 1577h149l-1173 -1577h-150zM1261 295l515 681h174l-436 -589h303l37 238l72 99h95l-53 -337h113l-19 -124l-119 -30l-36 -233h-153l39 233 h-493z" />
<glyph unicode="&#xbf;" horiz-adv-x="1101" d="M46 -278q-5 57 3 118l30 191q18 112 66 186t118 108t161.5 43.5t196.5 -7.5l17 97q16 98 15 104h175l-56 -350q-165 3 -275 0q-54 -2 -100 -20.5t-84 -62t-48 -106.5l-28 -180q-19 -120 33 -169t198 -49h542l-21 -133q-260 -37 -368 -43q-104 -6 -218 -1 q-82 0 -147.5 21.5t-107.5 58.5t-69.5 87t-32.5 107zM669 779l21 135q6 47 54 47h131q22 0 33.5 -12.5t8.5 -34.5l-21 -135q-7 -51 -57 -51h-131q-46 0 -39 51z" />
<glyph unicode="&#xc0;" horiz-adv-x="1366" d="M86 0l776 1499h199l278 -1499h-191l-75 394h-574l-206 -394h-207zM588 574h457l-117 669zM663 1908h196l201 -276h-154z" />
<glyph unicode="&#xc1;" horiz-adv-x="1366" d="M86 0l776 1499h199l278 -1499h-191l-75 394h-574l-206 -394h-207zM588 574h457l-117 669zM906 1632l254 276h210l-310 -276h-154z" />
<glyph unicode="&#xc2;" horiz-adv-x="1366" d="M86 0l776 1499h199l278 -1499h-191l-75 394h-574l-206 -394h-207zM588 574h457l-117 669zM680 1632l277 270h164l166 -270h-147l-109 160l-175 -160h-176z" />
<glyph unicode="&#xc3;" horiz-adv-x="1366" d="M86 0l776 1499h199l278 -1499h-191l-75 394h-574l-206 -394h-207zM588 574h457l-117 669zM649 1724q55 43 90 67t83.5 45.5t90.5 21.5q55 -3 117 -36t88 -34q36 -1 111 28t94 44l30 -96q-15 -10 -48.5 -34.5t-53 -37.5t-48 -29t-55 -23t-52.5 -6q-47 1 -84.5 19t-67.5 35 t-60 16q-31 -1 -61.5 -8.5t-47 -15t-50 -25t-45.5 -23.5z" />
<glyph unicode="&#xc4;" horiz-adv-x="1366" d="M86 0l776 1499h199l278 -1499h-191l-75 394h-574l-206 -394h-207zM588 574h457l-117 669zM632 1741q7 45 44 76t82 31t71 -31t19 -76t-43.5 -77t-81.5 -32t-71.5 32t-19.5 77zM1154 1741q7 45 44 76t82 31t71 -31t19 -76t-43 -77t-81 -32t-72 32t-20 77z" />
<glyph unicode="&#xc5;" horiz-adv-x="1366" d="M86 0l776 1499h199l278 -1499h-191l-75 394h-574l-206 -394h-207zM588 574h457l-117 669zM787 1704q7 88 73.5 149t152.5 61t141 -61t48 -149t-72.5 -148.5t-151.5 -60.5q-87 0 -142.5 61t-48.5 148zM889 1704q-4 -43 24.5 -74t72.5 -31q43 0 76.5 30.5t37.5 74.5t-24 75 t-71 31q-44 0 -78 -31.5t-38 -74.5z" />
<glyph unicode="&#xc6;" horiz-adv-x="1937" d="M57 0l796 1221q57 87 115.5 144.5t110.5 84t108 39.5t108 11t110 -1q610 -28 645 -33l-23 -152h-633q-21 0 -37.5 -4t-27.5 -7.5t-20.5 -15t-13.5 -16.5t-9.5 -22t-6.5 -21t-5 -24l-60 -374l647 -21l-23 -152l-655 -20l-56 -356q-2 -16 -2.5 -29t2 -23t5.5 -18t9.5 -14 t12 -10t14.5 -6.5t15.5 -4t17.5 -2t17 -0.5h18h3h607l-25 -149l-631 -35q-54 -3 -102.5 10t-88 42t-58.5 82.5t-8 124.5l30 203h-395l-297 -452h-214zM682 631h312l105 631z" />
<glyph unicode="&#xc7;" horiz-adv-x="1179" d="M208 576q3 90 19 187q21 126 45.5 222.5t59.5 185t81.5 149.5t108.5 106.5t143 67.5t182 22q96 0 238.5 -19.5t258.5 -45.5l-23 -149q-267 34 -479 31q-90 -1 -135 -17q-177 -63 -259 -414q-16 -70 -29 -152q-96 -558 227 -580q154 -7 504 17l-22 -149q-182 -52 -516 -50 q-94 0 -166.5 31.5t-118.5 87.5t-74.5 129t-38 161.5t-6.5 178.5zM380 -357l14 89l108 30q30 9 49 34.5t27 54t15 74.5h153q-25 -159 -80 -220.5t-179 -61.5h-107z" />
<glyph unicode="&#xc8;" horiz-adv-x="1157" d="M190 267l152 957q47 287 321 275q605 -28 640 -33l-23 -151h-628q-36 0 -60.5 -9.5t-37 -27.5t-18 -35t-9.5 -42l-57 -361l646 -21l-25 -152l-651 -20l-58 -363q-5 -38 1.5 -61t26.5 -32t35 -11t44 -2h5h607l-25 -149l-632 -35q-55 -3 -103 10t-87.5 43.5t-57.5 87 t-6 132.5zM569 1897h196l201 -275h-154z" />
<glyph unicode="&#xc9;" horiz-adv-x="1157" d="M190 267l152 957q47 287 321 275q605 -28 640 -33l-23 -151h-628q-36 0 -60.5 -9.5t-37 -27.5t-18 -35t-9.5 -42l-57 -361l646 -21l-25 -152l-651 -20l-58 -363q-5 -38 1.5 -61t26.5 -32t35 -11t44 -2h5h607l-25 -149l-632 -35q-55 -3 -103 10t-87.5 43.5t-57.5 87 t-6 132.5zM806 1622l253 275h210l-310 -275h-153z" />
<glyph unicode="&#xca;" horiz-adv-x="1157" d="M190 267l152 957q47 287 321 275q605 -28 640 -33l-23 -151h-628q-36 0 -60.5 -9.5t-37 -27.5t-18 -35t-9.5 -42l-57 -361l646 -21l-25 -152l-651 -20l-58 -363q-5 -38 1.5 -61t26.5 -32t35 -11t44 -2h5h607l-25 -149l-632 -35q-55 -3 -103 10t-87.5 43.5t-57.5 87 t-6 132.5zM578 1622l278 271h164l165 -271h-154l-100 155l-166 -155h-187z" />
<glyph unicode="&#xcb;" horiz-adv-x="1157" d="M190 267l152 957q47 287 321 275q605 -28 640 -33l-23 -151h-628q-36 0 -60.5 -9.5t-37 -27.5t-18 -35t-9.5 -42l-57 -361l646 -21l-25 -152l-651 -20l-58 -363q-5 -38 1.5 -61t26.5 -32t35 -11t44 -2h5h607l-25 -149l-632 -35q-55 -3 -103 10t-87.5 43.5t-57.5 87 t-6 132.5zM513 1726q7 45 44 76t82 31t71 -31t19 -76t-43 -77t-81 -32t-72 32t-20 77zM1035 1726q7 45 44 76t82 31t71 -31t19 -76t-43 -77t-81 -32t-72 32t-20 77z" />
<glyph unicode="&#xcc;" horiz-adv-x="477" d="M170 0l238 1499h188l-237 -1499h-189zM203 1908h196l202 -276h-154z" />
<glyph unicode="&#xcd;" horiz-adv-x="477" d="M170 0l238 1499h188l-237 -1499h-189zM447 1632l253 276h210l-309 -276h-154z" />
<glyph unicode="&#xce;" horiz-adv-x="477" d="M170 0l238 1499h188l-237 -1499h-189zM220 1632l278 270h163l166 -270h-147l-109 160l-174 -160h-177z" />
<glyph unicode="&#xcf;" horiz-adv-x="477" d="M170 0l238 1499h188l-237 -1499h-189zM172 1741q7 45 44 76t82 31t71 -31t19 -76t-43 -77t-81 -32t-72 32t-20 77zM694 1741q7 45 44 76t82 31t71 -31t19 -76t-43 -77t-81 -32t-72 32t-20 77z" />
<glyph unicode="&#xd0;" horiz-adv-x="1357" d="M130 706l20 116h133l106 675q0 2 574 2q94 0 168 -28t120.5 -75t78.5 -111.5t46 -133t17.5 -145.5t-2 -142.5t-16.5 -129.5q-24 -138 -60 -249t-90 -203t-124.5 -153.5t-163.5 -95t-205 -33.5h-581l112 706h-133zM369 184h380q89 0 164 44.5t128 123t89 177.5t55 216 q48 301 -15.5 438t-241.5 137h-380l-77 -498h269l-19 -116h-269z" />
<glyph unicode="&#xd1;" horiz-adv-x="1355" d="M153 0l238 1499h185l532 -1150l182 1150h188l-237 -1499h-182l-534 1147l-181 -1147h-191zM608 1716q55 43 90 67t83.5 45.5t90.5 21.5q55 -3 117 -36t88 -34q36 -1 111.5 28t93.5 43l30 -96q-15 -10 -48.5 -34.5t-53 -37.5t-48 -29t-55 -23t-52.5 -6q-47 1 -84 19 t-67 35t-60 16q-31 -1 -62 -9t-46.5 -14.5t-51 -24.5t-45.5 -23z" />
<glyph unicode="&#xd2;" horiz-adv-x="1363" d="M204.5 491q1.5 113 24.5 256q27 173 63.5 300t87 210t102 134t127 76.5t143 33.5t168.5 8q64 0 114 -4t102 -15.5t90.5 -30.5t74.5 -49.5t59.5 -72.5t40.5 -100.5t22.5 -131.5t0 -167t-22.5 -206q-19 -123 -43.5 -222t-57 -173t-67.5 -130t-81 -93.5t-91 -62 t-104.5 -37.5t-115 -17.5t-128.5 -4.5q-80 0 -139 6t-122.5 24.5t-105.5 51.5t-78 89.5t-50.5 135.5t-13 192zM391.5 525.5q-5.5 -89.5 6 -152.5t34 -101.5t67 -60.5t96.5 -29.5t130 -7.5q73 0 126.5 8.5t104.5 31t87.5 62.5t69 102.5t56.5 151.5t43 209q19 121 23.5 213 t-0.5 154.5t-29 104.5t-47 65t-69.5 34.5t-82 14t-99.5 2.5q-68 0 -105 -2.5t-88.5 -13.5t-81 -34t-66 -65t-60 -105t-47.5 -154.5t-43 -213.5q-20 -124 -25.5 -213.5zM619 1908h196l202 -276h-154z" />
<glyph unicode="&#xd3;" horiz-adv-x="1363" d="M204.5 491q1.5 113 24.5 256q27 173 63.5 300t87 210t102 134t127 76.5t143 33.5t168.5 8q64 0 114 -4t102 -15.5t90.5 -30.5t74.5 -49.5t59.5 -72.5t40.5 -100.5t22.5 -131.5t0 -167t-22.5 -206q-19 -123 -43.5 -222t-57 -173t-67.5 -130t-81 -93.5t-91 -62 t-104.5 -37.5t-115 -17.5t-128.5 -4.5q-80 0 -139 6t-122.5 24.5t-105.5 51.5t-78 89.5t-50.5 135.5t-13 192zM391.5 525.5q-5.5 -89.5 6 -152.5t34 -101.5t67 -60.5t96.5 -29.5t130 -7.5q73 0 126.5 8.5t104.5 31t87.5 62.5t69 102.5t56.5 151.5t43 209q19 121 23.5 213 t-0.5 154.5t-29 104.5t-47 65t-69.5 34.5t-82 14t-99.5 2.5q-68 0 -105 -2.5t-88.5 -13.5t-81 -34t-66 -65t-60 -105t-47.5 -154.5t-43 -213.5q-20 -124 -25.5 -213.5zM863 1632l253 276h210l-309 -276h-154z" />
<glyph unicode="&#xd4;" horiz-adv-x="1363" d="M204.5 491q1.5 113 24.5 256q27 173 63.5 300t87 210t102 134t127 76.5t143 33.5t168.5 8q64 0 114 -4t102 -15.5t90.5 -30.5t74.5 -49.5t59.5 -72.5t40.5 -100.5t22.5 -131.5t0 -167t-22.5 -206q-19 -123 -43.5 -222t-57 -173t-67.5 -130t-81 -93.5t-91 -62 t-104.5 -37.5t-115 -17.5t-128.5 -4.5q-80 0 -139 6t-122.5 24.5t-105.5 51.5t-78 89.5t-50.5 135.5t-13 192zM391.5 525.5q-5.5 -89.5 6 -152.5t34 -101.5t67 -60.5t96.5 -29.5t130 -7.5q73 0 126.5 8.5t104.5 31t87.5 62.5t69 102.5t56.5 151.5t43 209q19 121 23.5 213 t-0.5 154.5t-29 104.5t-47 65t-69.5 34.5t-82 14t-99.5 2.5q-68 0 -105 -2.5t-88.5 -13.5t-81 -34t-66 -65t-60 -105t-47.5 -154.5t-43 -213.5q-20 -124 -25.5 -213.5zM636 1632l278 270h164l165 -270h-147l-109 160l-174 -160h-177z" />
<glyph unicode="&#xd5;" horiz-adv-x="1363" d="M204.5 491q1.5 113 24.5 256q27 173 63.5 300t87 210t102 134t127 76.5t143 33.5t168.5 8q64 0 114 -4t102 -15.5t90.5 -30.5t74.5 -49.5t59.5 -72.5t40.5 -100.5t22.5 -131.5t0 -167t-22.5 -206q-19 -123 -43.5 -222t-57 -173t-67.5 -130t-81 -93.5t-91 -62 t-104.5 -37.5t-115 -17.5t-128.5 -4.5q-80 0 -139 6t-122.5 24.5t-105.5 51.5t-78 89.5t-50.5 135.5t-13 192zM391.5 525.5q-5.5 -89.5 6 -152.5t34 -101.5t67 -60.5t96.5 -29.5t130 -7.5q73 0 126.5 8.5t104.5 31t87.5 62.5t69 102.5t56.5 151.5t43 209q19 121 23.5 213 t-0.5 154.5t-29 104.5t-47 65t-69.5 34.5t-82 14t-99.5 2.5q-68 0 -105 -2.5t-88.5 -13.5t-81 -34t-66 -65t-60 -105t-47.5 -154.5t-43 -213.5q-20 -124 -25.5 -213.5zM605 1724q83 65 144 99.5t121 34.5q55 -3 116.5 -36t87.5 -34q36 -1 111 28t94 44l31 -96 q-14 -10 -48.5 -35t-53.5 -37t-48 -28.5t-55.5 -23.5t-52.5 -6q-47 1 -84 19t-67 35t-60 16q-31 -1 -62 -9t-47.5 -15t-50 -24.5t-45.5 -23.5z" />
<glyph unicode="&#xd6;" horiz-adv-x="1363" d="M204.5 491q1.5 113 24.5 256q27 173 63.5 300t87 210t102 134t127 76.5t143 33.5t168.5 8q64 0 114 -4t102 -15.5t90.5 -30.5t74.5 -49.5t59.5 -72.5t40.5 -100.5t22.5 -131.5t0 -167t-22.5 -206q-19 -123 -43.5 -222t-57 -173t-67.5 -130t-81 -93.5t-91 -62 t-104.5 -37.5t-115 -17.5t-128.5 -4.5q-80 0 -139 6t-122.5 24.5t-105.5 51.5t-78 89.5t-50.5 135.5t-13 192zM391.5 525.5q-5.5 -89.5 6 -152.5t34 -101.5t67 -60.5t96.5 -29.5t130 -7.5q73 0 126.5 8.5t104.5 31t87.5 62.5t69 102.5t56.5 151.5t43 209q19 121 23.5 213 t-0.5 154.5t-29 104.5t-47 65t-69.5 34.5t-82 14t-99.5 2.5q-68 0 -105 -2.5t-88.5 -13.5t-81 -34t-66 -65t-60 -105t-47.5 -154.5t-43 -213.5q-20 -124 -25.5 -213.5zM588 1741q7 45 44 76t82 31t71 -31t19 -76t-43 -77t-81 -32t-72 32t-20 77zM1110 1741q7 45 44 76t82 31 t71 -31t19 -76t-43 -77t-81 -32t-72 32t-20 77z" />
<glyph unicode="&#xd7;" horiz-adv-x="940" d="M184 493l275 238l-198 235l134 116l198 -235l290 249l106 -128l-288 -250l201 -239l-135 -113l-199 237l-276 -239z" />
<glyph unicode="&#xd8;" horiz-adv-x="1363" d="M127 0l133 164q-102 176 -36 585q27 173 63.5 300t87 209.5t102 133.5t127 76t143 33t168.5 8q126 0 216 -18.5t152 -67.5l61 76h132l-123 -153q109 -178 42 -616q-17 -109 -39 -199.5t-47 -160.5t-58 -125.5t-66.5 -95t-77 -67.5t-85.5 -45.5t-96 -27.5t-104 -13.5 t-114 -3.5q-131 0 -224 19t-157 73l-68 -84h-132zM405 341l752 932q-39 35 -98 44.5t-156 9.5q-68 0 -105 -2.5t-88.5 -13.5t-81 -34t-66 -65t-60 -105t-47.5 -154.5t-43 -213.5q-44 -277 -7 -398zM455 240q38 -38 101.5 -52t163.5 -14q73 0 126.5 8.5t104.5 31t87.5 62.5 t69 102.5t56.5 151.5t43 209q47 309 5 437z" />
<glyph unicode="&#xd9;" horiz-adv-x="1341" d="M234 416q0 95 17 217l137 866h190l-138 -875q-14 -90 -16.5 -158.5t8 -119t32 -84t57.5 -53.5t81 -28.5t107 -8.5q193 0 290.5 101t136.5 351l139 875h190l-137 -884q-15 -94 -35 -168t-52.5 -148t-80 -127.5t-112.5 -96t-155.5 -64t-202.5 -21.5q-84 0 -151.5 14 t-125 44.5t-94.5 80t-61 121t-24 166.5zM628 1908h196l201 -276h-154z" />
<glyph unicode="&#xda;" horiz-adv-x="1341" d="M234 416q0 95 17 217l137 866h190l-138 -875q-14 -90 -16.5 -158.5t8 -119t32 -84t57.5 -53.5t81 -28.5t107 -8.5q193 0 290.5 101t136.5 351l139 875h190l-137 -884q-15 -94 -35 -168t-52.5 -148t-80 -127.5t-112.5 -96t-155.5 -64t-202.5 -21.5q-84 0 -151.5 14 t-125 44.5t-94.5 80t-61 121t-24 166.5zM871 1632l254 276h210l-310 -276h-154z" />
<glyph unicode="&#xdb;" horiz-adv-x="1341" d="M234 416q0 95 17 217l137 866h190l-138 -875q-14 -90 -16.5 -158.5t8 -119t32 -84t57.5 -53.5t81 -28.5t107 -8.5q193 0 290.5 101t136.5 351l139 875h190l-137 -884q-15 -94 -35 -168t-52.5 -148t-80 -127.5t-112.5 -96t-155.5 -64t-202.5 -21.5q-84 0 -151.5 14 t-125 44.5t-94.5 80t-61 121t-24 166.5zM644 1632l278 270h164l166 -270h-148l-108 160l-175 -160h-177z" />
<glyph unicode="&#xdc;" horiz-adv-x="1341" d="M234 416q0 95 17 217l137 866h190l-138 -875q-14 -90 -16.5 -158.5t8 -119t32 -84t57.5 -53.5t81 -28.5t107 -8.5q193 0 290.5 101t136.5 351l139 875h190l-137 -884q-15 -94 -35 -168t-52.5 -148t-80 -127.5t-112.5 -96t-155.5 -64t-202.5 -21.5q-84 0 -151.5 14 t-125 44.5t-94.5 80t-61 121t-24 166.5zM596 1741q7 45 44 76t82 31t71 -31t19 -76t-43 -77t-81 -32t-72 32t-20 77zM1119 1741q7 45 44 76t82 31t71 -31t19 -76t-43.5 -77t-81.5 -32t-71.5 32t-19.5 77z" />
<glyph unicode="&#xdd;" horiz-adv-x="1304" d="M301 1499h201l237 -763l513 763h221l-668 -985l-81 -514h-189l81 514zM831 1632l254 276h210l-310 -276h-154z" />
<glyph unicode="&#xde;" horiz-adv-x="1130" d="M115 0q39 249 117.5 746.5t117.5 746.5h189l-45 -289h376q30 0 59.5 -5t63 -18t61 -34.5t53 -55t39 -79.5t20 -107.5t-5.5 -140.5q-11 -89 -31.5 -159.5t-44.5 -117t-59 -80t-65.5 -51t-74 -27.5t-74.5 -12.5t-76 -2.5q-252 -3 -375 41l-57 -355h-188zM381 493h352 q40 0 67.5 5t55.5 21.5t47.5 46.5t36.5 81t28 124q6 40 6.5 73t-3.5 57t-12.5 43.5t-17.5 32t-23 21.5t-25.5 14t-27 7.5t-25.5 3t-24 0.5h-351z" />
<glyph unicode="&#xdf;" horiz-adv-x="1167" d="M115 0l184 1159q14 93 50.5 169t99 137t160.5 94.5t224 33.5q109 0 191.5 -22.5t130.5 -61t75.5 -89.5t30.5 -107t-9.5 -114t-40 -111t-65 -97t-80.5 -73q-18 -11 -52 -29t-56 -31.5t-47 -33.5t-40.5 -46t-20.5 -58q-6 -33 7 -57t38.5 -37.5t58.5 -26.5t68.5 -23 t68 -28.5t56.5 -41.5t34.5 -63t2.5 -93l-13 -87q-10 -66 -39 -117t-66.5 -81t-86 -49t-91.5 -25.5t-89 -6.5q-62 0 -124 7t-129 18.5t-81 13.5l21 144q27 0 141 -5t185 -5q62 0 108.5 34.5t58.5 94.5l13 67q5 32 -13 54.5t-50 35.5t-72 25t-78.5 29.5t-69.5 42.5t-45.5 69 t-5.5 105t21.5 97.5t43.5 73.5t78 69t133 80q116 69 133 199q7 57 -6.5 93.5t-49.5 54.5t-78.5 24.5t-108.5 6.5q-69 0 -121.5 -12t-99 -41.5t-77 -86.5t-43.5 -140l-180 -1132h-188z" />
<glyph unicode="&#xe0;" d="M153 369q2 93 22 211q19 108 48.5 192.5t67.5 139.5t77.5 92.5t88.5 58.5t89.5 30.5t90.5 14.5q122 13 285 -22t236 -105l-143 -980h-139l-29 119q-56 -46 -161.5 -90t-205.5 -44q-60 0 -108 11t-91 36t-70.5 70t-43.5 109t-14 157zM357 525q-31 -196 4 -279t148 -83 q101 0 175 23t177 76l99 645q-82 23 -168.5 31.5t-146.5 -2.5q-32 -6 -51.5 -11t-48 -17.5t-47 -29.5t-41.5 -47.5t-39.5 -71t-32.5 -100t-28 -134.5zM413 1510h196l201 -276h-153z" />
<glyph unicode="&#xe1;" d="M153 369q2 93 22 211q19 108 48.5 192.5t67.5 139.5t77.5 92.5t88.5 58.5t89.5 30.5t90.5 14.5q122 13 285 -22t236 -105l-143 -980h-139l-29 119q-56 -46 -161.5 -90t-205.5 -44q-60 0 -108 11t-91 36t-70.5 70t-43.5 109t-14 157zM357 525q-31 -196 4 -279t148 -83 q101 0 175 23t177 76l99 645q-82 23 -168.5 31.5t-146.5 -2.5q-32 -6 -51.5 -11t-48 -17.5t-47 -29.5t-41.5 -47.5t-39.5 -71t-32.5 -100t-28 -134.5zM674 1234l254 276h210l-310 -276h-154z" />
<glyph unicode="&#xe2;" d="M153 369q2 93 22 211q19 108 48.5 192.5t67.5 139.5t77.5 92.5t88.5 58.5t89.5 30.5t90.5 14.5q122 13 285 -22t236 -105l-143 -980h-139l-29 119q-56 -46 -161.5 -90t-205.5 -44q-60 0 -108 11t-91 36t-70.5 70t-43.5 109t-14 157zM357 525q-31 -196 4 -279t148 -83 q101 0 175 23t177 76l99 645q-82 23 -168.5 31.5t-146.5 -2.5q-32 -6 -51.5 -11t-48 -17.5t-47 -29.5t-41.5 -47.5t-39.5 -71t-32.5 -100t-28 -134.5zM430 1234l278 270h164l165 -270h-147l-109 160l-174 -160h-177z" />
<glyph unicode="&#xe3;" d="M153 369q2 93 22 211q19 108 48.5 192.5t67.5 139.5t77.5 92.5t88.5 58.5t89.5 30.5t90.5 14.5q122 13 285 -22t236 -105l-143 -980h-139l-29 119q-56 -46 -161.5 -90t-205.5 -44q-60 0 -108 11t-91 36t-70.5 70t-43.5 109t-14 157zM357 525q-31 -196 4 -279t148 -83 q101 0 175 23t177 76l99 645q-82 23 -168.5 31.5t-146.5 -2.5q-32 -6 -51.5 -11t-48 -17.5t-47 -29.5t-41.5 -47.5t-39.5 -71t-32.5 -100t-28 -134.5zM413 1326q55 43 90 67t83.5 45.5t90.5 21.5q55 -3 117 -36t88 -34q36 -1 111 28t94 44l30 -96q-15 -10 -48.5 -34.5 t-53 -37.5t-48 -29t-55 -23t-52.5 -6q-47 1 -84 19t-67 35t-60 16q-31 -1 -62 -9t-47.5 -15t-50 -24.5t-45.5 -23.5z" />
<glyph unicode="&#xe4;" d="M153 369q2 93 22 211q19 108 48.5 192.5t67.5 139.5t77.5 92.5t88.5 58.5t89.5 30.5t90.5 14.5q122 13 285 -22t236 -105l-143 -980h-139l-29 119q-56 -46 -161.5 -90t-205.5 -44q-60 0 -108 11t-91 36t-70.5 70t-43.5 109t-14 157zM357 525q-31 -196 4 -279t148 -83 q101 0 175 23t177 76l99 645q-82 23 -168.5 31.5t-146.5 -2.5q-32 -6 -51.5 -11t-48 -17.5t-47 -29.5t-41.5 -47.5t-39.5 -71t-32.5 -100t-28 -134.5zM382 1343q7 45 44 76t82 31t71 -31t19 -76t-43.5 -77t-81.5 -32t-71.5 32t-19.5 77zM904 1343q7 45 44 76t82 31t71 -31 t19 -76t-43 -77t-81 -32t-72 32t-20 77z" />
<glyph unicode="&#xe5;" d="M153 369q2 93 22 211q19 108 48.5 192.5t67.5 139.5t77.5 92.5t88.5 58.5t89.5 30.5t90.5 14.5q122 13 285 -22t236 -105l-143 -980h-139l-29 119q-56 -46 -161.5 -90t-205.5 -44q-60 0 -108 11t-91 36t-70.5 70t-43.5 109t-14 157zM357 525q-31 -196 4 -279t148 -83 q101 0 175 23t177 76l99 645q-82 23 -168.5 31.5t-146.5 -2.5q-32 -6 -51.5 -11t-48 -17.5t-47 -29.5t-41.5 -47.5t-39.5 -71t-32.5 -100t-28 -134.5zM577 1443q7 88 73.5 149t152.5 61t141 -61t48 -149t-72.5 -148.5t-151.5 -60.5q-87 0 -142.5 61t-48.5 148zM679 1443 q-4 -43 24.5 -74t72.5 -31q43 0 76.5 30.5t37.5 74.5t-24 75t-71 31q-44 0 -78 -31.5t-38 -74.5z" />
<glyph unicode="&#xe6;" horiz-adv-x="1816" d="M84 373.5q2 90.5 23 202.5q18 97 43.5 175t53.5 131t64 93t68.5 63t75 38.5t75 21.5t76.5 10q98 11 234.5 -13t222.5 -73q115 86 333 86q79 0 142 -9.5t117 -31.5t88 -57.5t50 -89.5t8 -125q-10 -94 -54.5 -165t-107 -110t-139.5 -62t-151 -28t-142.5 -2t-113.5 10.5 t-64 15.5q-22 -113 -11.5 -179.5t47 -93t110.5 -27.5q193 -13 490 30l-23 -139q-231 -65 -522 -59q-190 3 -253 143q-60 -56 -185.5 -99.5t-227.5 -43.5q-60 0 -108.5 12t-91 38.5t-70.5 72.5t-43.5 110t-13.5 154.5zM285 246q32 -83 154 -84q99 -2 204 25t147 69 q-13 127 24 326q41 215 98 315q-88 24 -186 37t-151 2q-32 -6 -51 -11t-47.5 -17.5t-47 -29.5t-42 -47.5t-39.5 -71t-32.5 -100t-28.5 -134.5q-34 -196 -2 -279zM1004 586q11 -1 29.5 -3t73.5 -3t106 2t114 15.5t110.5 33.5t84.5 60.5t46 92.5q16 94 -35.5 122.5 t-186.5 28.5q-79 0 -137 -20t-90 -44.5t-56 -75t-32 -82.5t-21 -97z" />
<glyph unicode="&#xe7;" horiz-adv-x="1015" d="M162.5 336q-5.5 94 17.5 218q14 83 32 151.5t37 121t42.5 93.5t46 69.5t51 49t54 32.5t58.5 19t61 9t64 2q83 0 221 -17.5t245 -42.5l-19 -129q-259 16 -441 16q-32 0 -50.5 -2t-43.5 -9.5t-41 -23t-36 -43.5t-34.5 -70t-30 -102.5t-30.5 -140.5q-17 -111 -18.5 -184 t20 -116t55.5 -60.5t87 -17.5q84 0 199 5.5t189 11.5l73 5l-21 -133q-119 -38 -227 -49.5t-257 -10.5q-64 1 -116.5 20t-94.5 61t-64.5 107.5t-28 159.5zM289 -358l14 89l108 31q42 17 61.5 56t29.5 106h153q-25 -159 -79.5 -220.5t-178.5 -61.5h-108z" />
<glyph unicode="&#xe8;" horiz-adv-x="1075" d="M177 582q15 79 29 135t36 114.5t49.5 98t67 75.5t90.5 57t118.5 33.5t152.5 12.5q99 0 173.5 -15.5t131 -50.5t81.5 -97t15 -150q-10 -94 -54.5 -165t-107.5 -110t-139.5 -62t-151 -28t-142.5 -2t-113.5 10.5t-64.5 15.5q-22 -113 -11.5 -179.5t47 -93t110.5 -27.5 q195 -13 493 30l-22 -139q-231 -65 -527 -59q-194 2 -255.5 148t-5.5 448zM367 586q11 -1 29.5 -3t73.5 -3t106 2t114 15.5t110.5 33.5t84.5 60.5t46 92.5q16 94 -35.5 122.5t-186.5 28.5q-79 0 -137 -20t-90 -44.5t-56 -75t-32 -82.5t-21 -97zM421 1506h196l201 -275h-154z " />
<glyph unicode="&#xe9;" horiz-adv-x="1075" d="M177 582q15 79 29 135t36 114.5t49.5 98t67 75.5t90.5 57t118.5 33.5t152.5 12.5q99 0 173.5 -15.5t131 -50.5t81.5 -97t15 -150q-10 -94 -54.5 -165t-107.5 -110t-139.5 -62t-151 -28t-142.5 -2t-113.5 10.5t-64.5 15.5q-22 -113 -11.5 -179.5t47 -93t110.5 -27.5 q195 -13 493 30l-22 -139q-231 -65 -527 -59q-194 2 -255.5 148t-5.5 448zM367 586q11 -1 29.5 -3t73.5 -3t106 2t114 15.5t110.5 33.5t84.5 60.5t46 92.5q16 94 -35.5 122.5t-186.5 28.5q-79 0 -137 -20t-90 -44.5t-56 -75t-32 -82.5t-21 -97zM664 1231l254 275h210 l-310 -275h-154z" />
<glyph unicode="&#xea;" horiz-adv-x="1075" d="M177 582q15 79 29 135t36 114.5t49.5 98t67 75.5t90.5 57t118.5 33.5t152.5 12.5q99 0 173.5 -15.5t131 -50.5t81.5 -97t15 -150q-10 -94 -54.5 -165t-107.5 -110t-139.5 -62t-151 -28t-142.5 -2t-113.5 10.5t-64.5 15.5q-22 -113 -11.5 -179.5t47 -93t110.5 -27.5 q195 -13 493 30l-22 -139q-231 -65 -527 -59q-194 2 -255.5 148t-5.5 448zM367 586q11 -1 29.5 -3t73.5 -3t106 2t114 15.5t110.5 33.5t84.5 60.5t46 92.5q16 94 -35.5 122.5t-186.5 28.5q-79 0 -137 -20t-90 -44.5t-56 -75t-32 -82.5t-21 -97zM438 1231l277 269h164 l166 -269h-147l-109 160l-175 -160h-176z" />
<glyph unicode="&#xeb;" horiz-adv-x="1075" d="M177 582q15 79 29 135t36 114.5t49.5 98t67 75.5t90.5 57t118.5 33.5t152.5 12.5q99 0 173.5 -15.5t131 -50.5t81.5 -97t15 -150q-10 -94 -54.5 -165t-107.5 -110t-139.5 -62t-151 -28t-142.5 -2t-113.5 10.5t-64.5 15.5q-22 -113 -11.5 -179.5t47 -93t110.5 -27.5 q195 -13 493 30l-22 -139q-231 -65 -527 -59q-194 2 -255.5 148t-5.5 448zM367 586q11 -1 29.5 -3t73.5 -3t106 2t114 15.5t110.5 33.5t84.5 60.5t46 92.5q16 94 -35.5 122.5t-186.5 28.5q-79 0 -137 -20t-90 -44.5t-56 -75t-32 -82.5t-21 -97zM389 1340q7 45 44 76t82 31 t71 -31t19 -76t-43 -77t-81 -32t-72 32t-20 77zM912 1340q7 45 44 76t82 31t71 -31t19 -76t-43.5 -77t-81.5 -32t-71.5 32t-19.5 77z" />
<glyph unicode="&#xec;" horiz-adv-x="415" d="M77 1497h196l201 -275h-153zM111 0l172 1087h188l-172 -1087h-188z" />
<glyph unicode="&#xed;" horiz-adv-x="415" d="M111 0l172 1087h188l-172 -1087h-188zM317 1222l254 275h210l-310 -275h-154z" />
<glyph unicode="&#xee;" horiz-adv-x="415" d="M87 1222l278 269h164l165 -269h-147l-109 160l-174 -160h-177zM111 0l172 1087h188l-172 -1087h-188z" />
<glyph unicode="&#xef;" horiz-adv-x="415" d="M32 1331q7 45 44 76t82 31t71 -31t19 -76t-43 -77t-81 -32t-72 32t-20 77zM111 0l172 1087h188l-172 -1087h-188zM554 1331q7 45 44 76t82 31t71 -31t19 -76t-43 -77t-81 -32t-72 32t-20 77z" />
<glyph unicode="&#xf0;" horiz-adv-x="1099" d="M140 370.5q2 76.5 17 166.5q49 293 149.5 421.5t302.5 128.5h185q117 0 143 -27q-23 158 -102 251l-298 -117l-33 122l216 84q-95 51 -257 43l25 161q289 0 436 -122l241 94l35 -121l-185 -71q57 -85 87.5 -200.5t32.5 -240t-5 -222.5t-23 -200q-45 -279 -146.5 -400 t-301.5 -121h-222q-82 0 -141.5 28.5t-93 77.5t-49 118.5t-13.5 146zM329 377q-1 -64 8.5 -101.5t31 -59t46.5 -28t61 -5.5h196q35 -1 62 5.5t56.5 27.5t51.5 58.5t42.5 101.5t34.5 154q25 142 20 225.5t-40.5 116.5t-116.5 33h-182q-50 0 -86 -15t-68.5 -55t-57 -115 t-43.5 -190q-15 -89 -16 -153z" />
<glyph unicode="&#xf1;" horiz-adv-x="1116" d="M115 0l172 1087h140l28 -123q8 5 37.5 21t39 21t36.5 19t39.5 19.5l37.5 16.5t41 15.5t40.5 11.5t45 10t45 5.5t48.5 2.5q109 0 178 -51t91.5 -130t6.5 -176l-119 -749h-188l119 750q14 92 -24 137.5t-114 45.5q-104 0 -178 -24t-203 -87l-131 -822h-188zM428 1321 q83 65 144 99.5t121 34.5q55 -3 117 -36t88 -34q36 -1 110.5 28t93.5 43l31 -95q-14 -10 -48.5 -35t-53.5 -37t-48 -28.5t-55.5 -23.5t-52.5 -6q-47 1 -84 18.5t-67 34.5t-60 16q-31 -1 -62 -8.5t-46.5 -14.5t-50 -25t-45.5 -23z" />
<glyph unicode="&#xf2;" horiz-adv-x="1150" d="M176 536q27 169 67.5 276t109.5 172t161 90t231 25q259 0 353.5 -141t45.5 -437q-26 -156 -63 -254t-101.5 -162t-156 -89.5t-230.5 -25.5q-268 0 -365.5 127t-51.5 419zM348 386q-2 -60 10 -100t30.5 -65t53.5 -37.5t70.5 -16.5t89.5 -4q42 0 70.5 2t60.5 7.5t53.5 16.5 t45 29.5t39.5 45t32 64t28.5 87.5t23.5 113q17 101 18.5 169.5t-11.5 114t-46 70.5t-77.5 34.5t-114.5 9.5q-58 0 -97 -5t-77.5 -19.5t-64 -41.5t-49 -71.5t-40.5 -108t-32 -152.5q-14 -82 -16 -142zM441 1497h196l201 -275h-154z" />
<glyph unicode="&#xf3;" horiz-adv-x="1150" d="M176 536q27 169 67.5 276t109.5 172t161 90t231 25q259 0 353.5 -141t45.5 -437q-26 -156 -63 -254t-101.5 -162t-156 -89.5t-230.5 -25.5q-268 0 -365.5 127t-51.5 419zM348 386q-2 -60 10 -100t30.5 -65t53.5 -37.5t70.5 -16.5t89.5 -4q42 0 70.5 2t60.5 7.5t53.5 16.5 t45 29.5t39.5 45t32 64t28.5 87.5t23.5 113q17 101 18.5 169.5t-11.5 114t-46 70.5t-77.5 34.5t-114.5 9.5q-58 0 -97 -5t-77.5 -19.5t-64 -41.5t-49 -71.5t-40.5 -108t-32 -152.5q-14 -82 -16 -142zM686 1222l254 275h209l-309 -275h-154z" />
<glyph unicode="&#xf4;" horiz-adv-x="1150" d="M176 536q27 169 67.5 276t109.5 172t161 90t231 25q259 0 353.5 -141t45.5 -437q-26 -156 -63 -254t-101.5 -162t-156 -89.5t-230.5 -25.5q-268 0 -365.5 127t-51.5 419zM348 386q-2 -60 10 -100t30.5 -65t53.5 -37.5t70.5 -16.5t89.5 -4q42 0 70.5 2t60.5 7.5t53.5 16.5 t45 29.5t39.5 45t32 64t28.5 87.5t23.5 113q17 101 18.5 169.5t-11.5 114t-46 70.5t-77.5 34.5t-114.5 9.5q-58 0 -97 -5t-77.5 -19.5t-64 -41.5t-49 -71.5t-40.5 -108t-32 -152.5q-14 -82 -16 -142zM456 1222l278 269h164l165 -269h-147l-109 160l-174 -160h-177z" />
<glyph unicode="&#xf5;" horiz-adv-x="1150" d="M176 536q27 169 67.5 276t109.5 172t161 90t231 25q259 0 353.5 -141t45.5 -437q-26 -156 -63 -254t-101.5 -162t-156 -89.5t-230.5 -25.5q-268 0 -365.5 127t-51.5 419zM348 386q-2 -60 10 -100t30.5 -65t53.5 -37.5t70.5 -16.5t89.5 -4q42 0 70.5 2t60.5 7.5t53.5 16.5 t45 29.5t39.5 45t32 64t28.5 87.5t23.5 113q17 101 18.5 169.5t-11.5 114t-46 70.5t-77.5 34.5t-114.5 9.5q-58 0 -97 -5t-77.5 -19.5t-64 -41.5t-49 -71.5t-40.5 -108t-32 -152.5q-14 -82 -16 -142zM427 1313q56 44 90 68t83 45.5t91 21.5q55 -3 117 -36t88 -34 q36 -1 111.5 28t93.5 43l30 -96q-15 -10 -48.5 -34.5t-53 -37.5t-48 -29t-55 -23t-52.5 -6q-47 1 -84.5 19t-67.5 35t-60 16q-31 -1 -62 -8.5t-46.5 -14.5t-50 -25t-45.5 -23z" />
<glyph unicode="&#xf6;" horiz-adv-x="1150" d="M176 536q27 169 67.5 276t109.5 172t161 90t231 25q259 0 353.5 -141t45.5 -437q-26 -156 -63 -254t-101.5 -162t-156 -89.5t-230.5 -25.5q-268 0 -365.5 127t-51.5 419zM348 386q-2 -60 10 -100t30.5 -65t53.5 -37.5t70.5 -16.5t89.5 -4q42 0 70.5 2t60.5 7.5t53.5 16.5 t45 29.5t39.5 45t32 64t28.5 87.5t23.5 113q17 101 18.5 169.5t-11.5 114t-46 70.5t-77.5 34.5t-114.5 9.5q-58 0 -97 -5t-77.5 -19.5t-64 -41.5t-49 -71.5t-40.5 -108t-32 -152.5q-14 -82 -16 -142zM410 1331q7 45 44 76t82 31t71 -31t19 -76t-43 -77t-81 -32t-72 32 t-20 77zM933 1331q7 45 44 76t82 31t71 -31t19 -76t-43.5 -77t-81.5 -32t-71.5 32t-19.5 77z" />
<glyph unicode="&#xf7;" horiz-adv-x="1046" d="M196 635l28 176h856l-29 -176h-855zM473 344l20 118q7 51 57 51h116q46 0 39 -51l-19 -118q-6 -47 -54 -47h-116q-22 0 -34 13t-9 34zM574 970l17 118q7 51 58 51h115q23 0 33 -14t7 -37l-18 -118q-6 -47 -56 -47h-115q-22 0 -33 12.5t-8 34.5z" />
<glyph unicode="&#xf8;" horiz-adv-x="1157" d="M91 0l123 135q-77 123 -34 400q27 169 67.5 275.5t109 172t160.5 90.5t231 25q181 0 281 -65l50 54h141l-118 -128q95 -137 45 -438q-34 -207 -93.5 -319t-167 -162t-291.5 -50q-208 0 -312 74l-59 -64h-133zM366 298l533 594q-55 33 -173 33q-58 0 -97 -4.5t-77 -19.5 t-63 -41.5t-48.5 -71t-40.5 -108t-32 -152.5q-25 -159 -2 -230zM413 204q50 -41 192 -41q48 0 80 2.5t67 10.5t58.5 24t47.5 42t41 65.5t32.5 94t27.5 126.5q33 193 -2 276z" />
<glyph unicode="&#xf9;" horiz-adv-x="1114" d="M150 339l118 748h188l-118 -749q-16 -102 21 -142.5t117 -40.5q105 0 179.5 23.5t202.5 86.5l129 822h188l-172 -1087h-141l-28 124q-139 -78 -197 -101q-104 -41 -211 -41q-163 0 -232 99.5t-44 257.5zM422 1497h196l202 -275h-154z" />
<glyph unicode="&#xfa;" horiz-adv-x="1114" d="M150 339l118 748h188l-118 -749q-16 -102 21 -142.5t117 -40.5q105 0 179.5 23.5t202.5 86.5l129 822h188l-172 -1087h-141l-28 124q-139 -78 -197 -101q-104 -41 -211 -41q-163 0 -232 99.5t-44 257.5zM666 1222l253 275h210l-309 -275h-154z" />
<glyph unicode="&#xfb;" horiz-adv-x="1114" d="M150 339l118 748h188l-118 -749q-16 -102 21 -142.5t117 -40.5q105 0 179.5 23.5t202.5 86.5l129 822h188l-172 -1087h-141l-28 124q-139 -78 -197 -101q-104 -41 -211 -41q-163 0 -232 99.5t-44 257.5zM439 1222l278 269h164l166 -269h-148l-108 160l-175 -160h-177z " />
<glyph unicode="&#xfc;" horiz-adv-x="1114" d="M150 339l118 748h188l-118 -749q-16 -102 21 -142.5t117 -40.5q105 0 179.5 23.5t202.5 86.5l129 822h188l-172 -1087h-141l-28 124q-139 -78 -197 -101q-104 -41 -211 -41q-163 0 -232 99.5t-44 257.5zM391 1331q7 45 44 76t82 31t71 -31t19 -76t-43 -77t-81 -32t-72 32 t-20 77zM913 1331q7 45 44 76t82 31t71 -31t19 -76t-43 -77t-81 -32t-72 32t-20 77z" />
<glyph unicode="&#xfd;" horiz-adv-x="1130" d="M187 1087h196l114 -825q5 -31 23.5 -50.5t39 -23.5t39.5 -6.5t25 0.5h2l363 728q36 75 51 181h164q32 -112 -27 -231l-425 -858q-132 -268 -264 -400.5t-291 -163.5v134q61 38 113.5 88.5t96 113t72 110.5t63.5 116q-34 0 -67.5 9.5t-70 33.5t-63.5 74.5t-37 121.5z M643 1212l254 275h210l-310 -275h-154z" />
<glyph unicode="&#xfe;" horiz-adv-x="1128" d="M46 -553l342 2155h189l-103 -636q62 42 186.5 89.5t215.5 47.5q70 0 124.5 -33t86.5 -88.5t51 -129t18 -153.5t-11 -162q-7 -47 -12.5 -79t-16.5 -82t-23 -85t-31.5 -79.5t-42.5 -75.5t-55.5 -63t-70.5 -51t-87.5 -31.5t-107.5 -12.5q-76 0 -182 21t-186 57l-96 -609 h-188zM354 198q29 -9 56 -16t55.5 -11.5t48 -7.5t50 -5.5t43 -3.5t46.5 -2.5t42 -1.5q35 0 64.5 9.5t60.5 36.5t55.5 70t45.5 114t34 165q25 187 -10.5 288.5t-120.5 94.5q-148 -8 -370 -96z" />
<glyph unicode="&#xff;" horiz-adv-x="1130" d="M187 1087h196l114 -825q5 -31 23.5 -50.5t39 -23.5t39.5 -6.5t25 0.5h2l363 728q36 75 51 181h164q32 -112 -27 -231l-425 -858q-132 -268 -264 -400.5t-291 -163.5v134q61 38 113.5 88.5t96 113t72 110.5t63.5 116q-34 0 -67.5 9.5t-70 33.5t-63.5 74.5t-37 121.5z M370 1315q7 45 44 76t82 31t71 -31t19 -76t-43.5 -77t-81.5 -32t-71.5 32t-19.5 77zM892 1315q7 45 44 76t82 31t71 -31t19 -76t-43 -77t-81 -32t-72 32t-20 77z" />
<glyph unicode="&#x152;" horiz-adv-x="2181" d="M180 541.5q5 93.5 23 205.5q27 173 63.5 300t87 210t102 134t127 76.5t143 33.5t168.5 8q157 0 260 -32t162 -121q38 86 106.5 117t166.5 26q605 -28 640 -33l-24 -151h-627q-36 0 -60.5 -9.5t-37 -27.5t-18 -35t-9.5 -42l-56 -361l645 -21l-24 -152l-652 -20l-59 -363 q-5 -38 1.5 -61t26.5 -32t35 -11t44 -2h5h608l-25 -149l-630 -35q-80 -5 -145.5 28t-91.5 103q-80 -78 -187 -105.5t-260 -27.5q-61 0 -109 3.5t-100.5 13.5t-91 27t-76 46t-62 69t-43.5 97t-25 128.5t-1 165zM366.5 525.5q-5.5 -89.5 6 -152.5t34 -101.5t67 -60.5 t96.5 -29.5t130 -7.5q73 0 126.5 8.5t104.5 31t87.5 62.5t69 102.5t56.5 151.5t43 209q19 121 23.5 213t-0.5 154.5t-29 104.5t-47 65t-69.5 34.5t-82 14t-99.5 2.5q-68 0 -105 -2.5t-88.5 -13.5t-81 -34t-66 -65t-60 -105t-47.5 -154.5t-43 -213.5q-20 -124 -25.5 -213.5z " />
<glyph unicode="&#x153;" horiz-adv-x="1869" d="M160 541q27 169 67.5 275t109.5 170t160.5 88.5t231.5 24.5q269 0 357 -157q59 83 158 124.5t256 41.5q99 0 173.5 -15.5t131 -50.5t81.5 -97t15 -150q-10 -94 -54.5 -165t-107.5 -110t-139.5 -62t-151 -28t-142.5 -2t-113.5 10.5t-64.5 15.5q-29 -171 3.5 -235.5 t142.5 -64.5q287 0 493 30l-22 -139q-231 -65 -527 -59q-182 1 -243 135q-62 -70 -157.5 -100.5t-240.5 -30.5q-267 0 -365 129.5t-52 421.5zM334.5 403q-2.5 -54 2.5 -92.5t21 -65.5t35 -43t51.5 -24.5t64 -11.5t77.5 -3q48 0 80 2.5t67 10.5t58.5 24t47.5 42t41 65.5 t32.5 94t27.5 126.5q17 101 18 169.5t-11.5 114t-45.5 70.5t-78 34.5t-115 9.5q-58 0 -97 -5t-77 -19.5t-63.5 -41.5t-49 -71.5t-40.5 -108t-32 -152.5q-12 -71 -14.5 -125zM1147 586q11 -1 29.5 -3t73.5 -3t106 2t114 15.5t110.5 33.5t84.5 60.5t46 92.5q16 94 -35.5 122.5 t-186.5 28.5q-79 0 -137 -20t-90 -44.5t-56 -75t-32 -82.5t-21 -97z" />
<glyph unicode="&#x178;" horiz-adv-x="1304" d="M226 1499h201l237 -763l513 763h221l-668 -985l-81 -514h-189l81 514zM481 1733q7 45 44 76t82 31t71 -31t19 -76t-43.5 -77t-81.5 -32t-71.5 32t-19.5 77zM1003 1733q7 45 44 76t82 31t71 -31t19 -76t-43 -77t-81 -32t-72 32t-20 77z" />
<glyph unicode="&#x2c6;" horiz-adv-x="669" d="M126 1087l278 270h164l165 -270h-147l-109 161l-174 -161h-177z" />
<glyph unicode="&#x2dc;" horiz-adv-x="894" d="M268 1179q56 44 90 68t83 45.5t91 21.5q55 -3 117 -36t88 -34q36 -1 111.5 28t93.5 43l30 -96q-15 -10 -48.5 -34.5t-53 -37.5t-48 -29t-55 -23t-52.5 -6q-47 1 -84.5 19t-67.5 35t-60 16q-31 -1 -61.5 -8.5t-47 -15t-50 -25t-45.5 -23.5z" />
<glyph unicode="&#x2000;" horiz-adv-x="957" />
<glyph unicode="&#x2001;" horiz-adv-x="1914" />
<glyph unicode="&#x2002;" horiz-adv-x="957" />
<glyph unicode="&#x2003;" horiz-adv-x="1914" />
<glyph unicode="&#x2004;" horiz-adv-x="638" />
<glyph unicode="&#x2005;" horiz-adv-x="478" />
<glyph unicode="&#x2006;" horiz-adv-x="319" />
<glyph unicode="&#x2007;" horiz-adv-x="319" />
<glyph unicode="&#x2008;" horiz-adv-x="239" />
<glyph unicode="&#x2009;" horiz-adv-x="382" />
<glyph unicode="&#x200a;" horiz-adv-x="106" />
<glyph unicode="&#x2010;" horiz-adv-x="724" d="M123 506l28 176h644l-29 -176h-643z" />
<glyph unicode="&#x2011;" horiz-adv-x="724" d="M123 506l28 176h644l-29 -176h-643z" />
<glyph unicode="&#x2012;" horiz-adv-x="724" d="M123 506l28 176h644l-29 -176h-643z" />
<glyph unicode="&#x2013;" horiz-adv-x="933" d="M123 500l28 178h969l-29 -178h-968z" />
<glyph unicode="&#x2014;" horiz-adv-x="1507" d="M122 504l29 178h1425l-29 -178h-1425z" />
<glyph unicode="&#x2018;" horiz-adv-x="544" d="M330 1101l33 221q10 62 40.5 103t67 55t71 19.5t58.5 2.5l23 -4l-14 -83q-31 1 -50 -12.5t-23.5 -26t-7.5 -30.5l-7 -53h24q24 0 37 -14t9 -41l-21 -137q-9 -61 -66 -61h-132q-53 0 -42 61z" />
<glyph unicode="&#x2019;" horiz-adv-x="544" d="M332 1043l13 85q24 -1 40 5.5t23.5 20t10.5 22t5 21.5l8 51h-24q-24 0 -37 15t-9 42l23 137q9 61 64 61h132q28 0 38.5 -17.5t5.5 -43.5l-36 -221q-7 -45 -25.5 -79.5t-41.5 -53t-49 -30.5t-51 -15t-45 -3.5t-33 1.5z" />
<glyph unicode="&#x201a;" horiz-adv-x="544" d="M131 -207l14 83q24 -1 40 6t23.5 20.5t10.5 22t5 22.5l8 51h-24q-24 0 -37.5 15t-9.5 42l23 137q9 61 65 61h131q28 0 39 -17.5t6 -43.5l-36 -221q-10 -62 -40.5 -103.5t-66.5 -55.5t-70.5 -19.5t-57.5 -2.5z" />
<glyph unicode="&#x201c;" horiz-adv-x="851" d="M316 1100l34 221q10 62 40.5 103t66.5 55t70.5 19.5t57.5 1.5l23 -3l-12 -83q-24 1 -40 -5.5t-24.5 -19t-11.5 -22t-5 -21.5l-8 -54h25q24 0 37 -13.5t9 -40.5l-21 -138q-9 -61 -67 -61h-131q-54 0 -43 61zM653 1100l34 221q10 62 40.5 103t66.5 55t70.5 19.5t57.5 1.5 l23 -3l-12 -83q-24 1 -40 -5.5t-24.5 -19t-11.5 -22t-5 -21.5l-8 -54h25q24 0 37 -13.5t9 -40.5l-21 -138q-9 -61 -67 -61h-131q-54 0 -43 61z" />
<glyph unicode="&#x201d;" horiz-adv-x="854" d="M317 1042l13 85q24 -1 40 5.5t23.5 20t10.5 22t5 21.5l8 52h-24q-24 0 -37.5 14.5t-9.5 41.5l23 138q9 60 65 60h132q55 0 44 -60l-36 -222q-7 -45 -25.5 -79.5t-41.5 -53t-49 -30.5t-51 -15t-45 -3.5t-32 1.5zM654 1042l14 85q24 -1 39.5 5.5t23.5 20t10.5 21.5t4.5 22 l8 52h-24q-24 0 -37 14.5t-9 41.5l23 138q9 60 64 60h132q55 0 44 -60l-36 -222q-7 -45 -25.5 -79.5t-41.5 -53t-49 -30.5t-51 -15t-45 -3.5t-33 1.5z" />
<glyph unicode="&#x201e;" horiz-adv-x="851" d="M116 -205l14 83q31 -1 49.5 13t22.5 26t7 31l8 52h-24q-24 0 -37.5 14.5t-9.5 41.5l23 138q9 61 65 61h131q28 0 39 -17.5t6 -43.5l-36 -221q-10 -62 -40.5 -103.5t-66.5 -55.5t-70.5 -19.5t-57.5 -2.5zM453 -205l14 83q31 -1 49.5 13t22.5 26t7 31l8 52h-24 q-24 0 -37.5 14.5t-9.5 41.5l23 138q9 61 65 61h131q28 0 39 -17.5t6 -43.5l-36 -221q-10 -62 -40.5 -103.5t-66.5 -55.5t-70.5 -19.5t-57.5 -2.5z" />
<glyph unicode="&#x2022;" horiz-adv-x="632" d="M271 688l28 185q5 33 26 52.5t54 19.5h173q70 0 60 -72l-28 -185q-11 -66 -84 -66h-173q-31 0 -46 17.5t-10 48.5z" />
<glyph unicode="&#x2026;" horiz-adv-x="1574" d="M291 47l21 135q8 51 58 51h127q51 0 43 -51l-22 -135q-8 -47 -58 -47h-127q-22 0 -33.5 12.5t-8.5 34.5zM848 47l21 135q8 51 58 51h127q51 0 43 -51l-22 -135q-8 -47 -58 -47h-127q-22 0 -33.5 12.5t-8.5 34.5zM1405 47l21 135q8 51 58 51h127q51 0 43 -51l-22 -135 q-8 -47 -58 -47h-127q-22 0 -33.5 12.5t-8.5 34.5z" />
<glyph unicode="&#x202f;" horiz-adv-x="382" />
<glyph unicode="&#x2039;" horiz-adv-x="608" d="M68 725l487 416l105 -123l-357 -305l257 -302l-128 -112z" />
<glyph unicode="&#x203a;" horiz-adv-x="735" d="M210 423l358 305l-256 302l128 111l363 -425l-489 -417z" />
<glyph unicode="&#x205f;" horiz-adv-x="478" />
<glyph unicode="&#x20ac;" horiz-adv-x="1462" d="M136 519l16 109l178 14l30 188l-172 17l16 100l176 19q23 149 57 232q129 318 516 318q79 0 236 -20.5t265 -44.5l-23 -145q-320 30 -488 30q-62 0 -112.5 -11t-85.5 -27.5t-63 -46.5t-44.5 -57t-31 -70t-21.5 -75t-16 -83l477 -15l-17 -106l-481 -15l-30 -188l476 -14 l-17 -109q-31 -1 -81 -2t-156.5 -3.5t-176 -5t-67.5 -3.5q-10 -59 -10 -107t9 -83t27 -61.5t41 -43.5t55 -27.5t65 -14.5t74 -4q87 0 213.5 9.5t209.5 18.5l84 10l-23 -140q-243 -74 -530 -74q-26 0 -51.5 2t-58 7t-61.5 15t-60.5 24.5t-57.5 36.5t-49.5 50t-40 66.5t-26 84 t-9.5 104.5t11 127z" />
<glyph unicode="&#x2122;" horiz-adv-x="1298" d="M91 1359l22 140h543l-22 -140h-197l-91 -575h-146l90 575h-199zM611 784l174 715h138l99 -471l221 471h158l-43 -715h-146l28 404l-185 -404h-123l-80 405l-95 -405h-146z" />
<glyph unicode="&#x25fc;" horiz-adv-x="1085" d="M0 0v1085h1085v-1085h-1085z" />
<glyph unicode="&#xfb03;" horiz-adv-x="2009" d="M183 918l21 135l209 34l28 183q7 44 16.5 79t32.5 82.5t55 79.5t87 55t125 23q138 0 275 -47l-20 -120h-229q-36 0 -62 -9t-40.5 -21t-26 -38t-16 -44.5t-11.5 -56.5l-30 -166h554l15 102q31 194 160.5 307t319.5 114q260 0 400 -48l-19 -119h-353q-280 0 -320 -257 l-14 -99l724 -20l-168 -1067h-190l144 918h-541l-145 -918h-188l144 918h-550l-145 -918h-188l144 918h-198z" />
<glyph unicode="&#xfb04;" horiz-adv-x="2215" d="M183 918l21 135l209 34l28 183q7 44 16.5 79t32.5 82.5t55 79.5t87 55t125 23q138 0 275 -47l-20 -120h-229q-36 0 -62 -9t-41 -21.5t-26 -38t-15.5 -44.5t-11.5 -56l-30 -166h556l15 105q65 408 419 418l567 -1l-190 -1210q-11 -65 -12 -105t9 -65t27 -37t49 -22 q149 -43 163 -43l-19 -127h-187q-148 0 -201 87.5t-20 299.5l164 1056h-335q-51 0 -88 -10.5t-69.5 -37t-54 -77t-33.5 -126.5l-16 -105h284l-27 -169h-288l-145 -918h-188l145 918h-552l-145 -918h-188l144 918h-198z" />
</font>
</defs>
</svg>
