<?xml version="1.0" standalone="no"?>
<!DOCTYPE svg PUBLIC "-//W3C//DTD SVG 1.1//EN" "http://www.w3.org/Graphics/SVG/1.1/DTD/svg11.dtd" >
<svg xmlns="http://www.w3.org/2000/svg">
<metadata></metadata>
<defs>
<font id="exolightitalic" horiz-adv-x="1110" >
<font-face units-per-em="2048" ascent="1638" descent="-410" />
<missing-glyph horiz-adv-x="499" />
<glyph unicode="&#xfb01;" horiz-adv-x="1165" d="M123 966l14 88l207 30l17 112q30 193 148 303.5t305 110.5q71 0 180 -18t193 -42l-13 -76l-347 21q-56 3 -109.5 -11t-103 -47t-86 -95t-49.5 -146l-17 -112l741 -18l-168 -1066h-120l153 966h-628l-153 -966h-118l153 966h-199z" />
<glyph unicode="&#xfb02;" horiz-adv-x="1417" d="M188 970l14 85l210 32l14 86q69 434 425 434h526l-192 -1218q-8 -51 -10 -90.5t-0.5 -66t11 -46.5t17 -30t25 -18t27.5 -11t31 -7q145 -32 151 -32l-13 -86h-137q-281 0 -220 387l175 1103h-395q-121 0 -199 -73.5t-104 -245.5l-14 -86h326l-19 -117h-327l-159 -970h-117 l156 970h-202z" />
<glyph horiz-adv-x="0" />
<glyph unicode="&#xd;" horiz-adv-x="2048" />
<glyph unicode=" "  horiz-adv-x="499" />
<glyph unicode="&#x09;" horiz-adv-x="499" />
<glyph unicode="&#xa0;" horiz-adv-x="499" />
<glyph unicode="!" horiz-adv-x="522" d="M173 40l19 120q6 42 48 42h83q38 0 33 -42l-19 -120q-6 -40 -45 -40h-83q-18 0 -28 11t-8 29zM251 407l160 1090h137l-186 -1090h-111z" />
<glyph unicode="&#x22;" horiz-adv-x="714" d="M320 1087l23 275l23 137h119l-22 -137l-61 -275h-82zM573 1087l23 275l23 137h119l-22 -137l-61 -275h-82z" />
<glyph unicode="#" horiz-adv-x="1368" d="M115 487l24 80h339l115 365h-339l28 79h337l155 488h80l-155 -488h353l153 488h79l-152 -488h362l-27 -79h-364l-114 -367h362l-24 -80h-363l-155 -485h-79l155 485l-354 2l-155 -487h-79l155 487h-337zM558 567l351 -2l115 367h-351z" />
<glyph unicode="$" horiz-adv-x="1175" d="M164 28l15 83q336 -12 478 -12q41 0 78.5 5t80 19.5t75 38t58 64t33.5 93.5l22 140q11 70 6.5 118.5t-47 73.5t-132.5 25h-247q-71 0 -126.5 14.5t-89.5 39.5t-57.5 58t-31 70.5t-10 76.5t6.5 77l22 135q18 107 57.5 179.5t101 111.5t132.5 55.5t167 17.5l28 177h91 l-28 -181q112 -8 375 -41l-14 -89l-456 19q-69 3 -121.5 -7t-98.5 -36.5t-75.5 -78t-41.5 -127.5l-21 -135q-19 -119 29 -168.5t178 -49.5h249q68 0 119 -13t82 -37t50 -54t25 -70t4.5 -77.5t-8.5 -83.5l-22 -140q-57 -355 -494 -335l-27 -167h-92l28 174q-256 23 -351 37z " />
<glyph unicode="%" horiz-adv-x="1984" d="M236 971l43 272q11 69 28 113t51 78.5t88.5 49.5t136.5 15h207q138 0 189.5 -60t30.5 -196l-43 -272q-22 -143 -85 -199.5t-217 -56.5h-207q-262 0 -222 256zM335 971q-15 -91 16 -124t121 -33h207q97 0 135 31.5t53 125.5l43 272q15 93 -10.5 125t-124.5 32h-206 q-99 0 -138 -32.5t-53 -124.5zM461 0l1134 1499h112l-1135 -1499h-111zM1168 258l43 272q11 69 28 113t50.5 78.5t88 49.5t136.5 15h207q138 0 190 -60t31 -196l-43 -272q-22 -143 -85.5 -199.5t-217.5 -56.5h-207q-261 0 -221 256zM1268 258q-15 -92 15 -124.5t120 -32.5 h206q97 0 136.5 32t54.5 125l43 272q15 92 -11.5 124.5t-125.5 32.5h-207q-99 0 -136.5 -32t-51.5 -125z" />
<glyph unicode="&#x26;" horiz-adv-x="1323" d="M144 473q46 155 206 277l195 149l-100 174q-67 118 -47 207t87 142.5t156 65.5q267 30 556 -24l-13 -76h-422q-80 0 -137 -16t-91 -48.5t-31.5 -88t45.5 -130.5l410 -711l305 266l38 -32l-153 -219l-129 -116l173 -293h-120l-135 227l-157 -137q-83 -72 -194 -93 t-220.5 21t-175.5 146q-92 154 -46 309zM239 366.5q2 -72.5 47 -141.5q68 -104 191.5 -121t227.5 70l173 150l-276 472l-179 -135q-94 -70 -140 -146t-44 -148.5z" />
<glyph unicode="'" horiz-adv-x="344" d="M267 1087l23 275l22 137h120l-22 -137l-61 -275h-82z" />
<glyph unicode="(" horiz-adv-x="645" d="M234 453q3 132 25 262q20 123 58.5 249.5t83 230t93.5 200.5t94 169.5t81.5 127t58.5 82.5l21 28h137q-16 -20 -44 -57t-103 -154.5t-138 -239t-128.5 -298.5t-96.5 -345q-32 -193 -27.5 -359.5t35 -303t65.5 -233t63 -149.5l28 -53h-129q-5 10 -14.5 28t-34 79.5 t-45.5 127.5t-42.5 168t-32.5 205t-8 235z" />
<glyph unicode=")" horiz-adv-x="647" d="M-27 -390q16 19 44 55t103 151.5t138 236.5t129.5 300t97.5 352q31 187 26 352t-35 302t-64.5 235.5t-62.5 153.5l-28 54h128q5 -10 14 -29t33.5 -82t45 -130.5t42 -169.5t32.5 -204.5t8.5 -231t-23.5 -252.5q-21 -129 -59.5 -259t-83 -234.5t-93.5 -201t-93.5 -167.5 t-80 -124t-57.5 -80l-21 -27h-140z" />
<glyph unicode="*" horiz-adv-x="929" d="M285 1177l9 64l294 43l-11 -118zM380 844l98 276l113 -26l-155 -269zM588 988l80 100l202 -181l-43 -51zM598 1472l66 25l110 -245l-117 -50zM703 1157l266 160l22 -56l-224 -194z" />
<glyph unicode="+" horiz-adv-x="1060" d="M205 670l19 118h356l56 357h117l-56 -357h359l-20 -118h-358l-56 -357h-118l56 357h-355z" />
<glyph unicode="," horiz-adv-x="481" d="M145 -167l7 48q53 -1 62 53l11 66h-19q-19 0 -29.5 11t-6.5 32l18 116q7 46 50 46h77q40 0 33 -46l-31 -199q-7 -44 -27.5 -73t-44 -39.5t-46.5 -14.5t-39 -2z" />
<glyph unicode="-" horiz-adv-x="710" d="M123 535l19 118h623l-19 -118h-623z" />
<glyph unicode="." horiz-adv-x="487" d="M169 40l19 120q6 42 47 42h81q43 0 35 -42l-19 -120q-7 -40 -48 -40h-80q-18 0 -27.5 11t-7.5 29z" />
<glyph unicode="/" horiz-adv-x="745" d="M16 -147l848 1724h124l-848 -1724h-124z" />
<glyph unicode="0" horiz-adv-x="1318" d="M195 332l133 835q26 168 131.5 250t271.5 82h316q72 0 128 -18t89.5 -49.5t54.5 -74t23 -90.5t-4 -100l-134 -835q-28 -177 -127.5 -254.5t-267.5 -77.5h-315q-73 0 -131 18t-102.5 55.5t-62 103.5t-3.5 155zM312 332q-10 -67 0.5 -111.5t42.5 -66t68 -29t90 -7.5h315 q225 0 259 214l133 835q17 108 -26.5 161t-164.5 53h-316q-121 0 -187 -58t-81 -156z" />
<glyph unicode="1" horiz-adv-x="768" d="M274 1237l14 83q57 0 120 18.5t111.5 45t89 52.5t62.5 44l22 19h113l-233 -1499h-118l216 1349q-55 -39 -161 -75.5t-236 -36.5z" />
<glyph unicode="2" horiz-adv-x="1204" d="M96 0l18 109q56 36 104 67.5t126.5 85.5t145 102.5t148 112.5t147.5 121.5t132.5 125t113.5 127.5t80 123t42 118q25 155 -37.5 231.5t-215.5 76.5h-597l14 85q277 35 609 35q83 0 148 -23t105 -63t65.5 -94.5t29.5 -118t-2 -133.5q-9 -78 -57.5 -169t-114.5 -171.5 t-158 -169t-171.5 -154.5t-172 -135t-142.5 -103.5t-100 -67.5h756l-19 -118h-997z" />
<glyph unicode="3" horiz-adv-x="1206" d="M80 32l13 73h593q47 0 91.5 12t86 37.5t71 71.5t39.5 107l20 121q5 30 5.5 56t-3.5 46.5t-10.5 37t-17.5 29t-22.5 22.5t-27.5 16.5t-30.5 11t-32.5 7t-33.5 3.5t-34.5 2l-475 15l15 89l479 17q114 4 190 61t93 160l22 141q34 217 -209 217h-620l11 73q115 34 264 41.5 t376 3.5q157 -3 238 -97.5t57 -240.5l-22 -141q-20 -124 -84 -193.5t-132 -84.5q65 -29 104.5 -102.5t21.5 -192.5l-20 -121q-54 -344 -418 -344q-165 0 -238 1t-184 12t-176 33z" />
<glyph unicode="4" horiz-adv-x="1212" d="M113 468l810 1031h146l-764 -976h634l71 444l86 153h60l-95 -597h185l-14 -90l-190 -33l-62 -396h-122l62 396h-764z" />
<glyph unicode="5" horiz-adv-x="1249" d="M162 30l13 85h618q102 0 172 66.5t85 161.5l33 209q38 234 -176 234h-310q-80 0 -149 -51.5t-83 -136.5h-111l188 901h866l-19 -118h-754l-117 -563q28 32 84.5 58t127.5 29q73 3 115.5 2.5t100.5 -2.5t76 -2q152 0 227.5 -96.5t51.5 -250.5l-34 -217q-56 -347 -389 -349 q-212 -1 -334.5 6t-281.5 34z" />
<glyph unicode="6" horiz-adv-x="1280" d="M224.5 460q0.5 141 29.5 326q31 194 83.5 339t116.5 226.5t131 120.5t136 39q375 0 593 -32l-14 -85h-576q-58 0 -111 -41.5t-90 -103t-67.5 -142t-48.5 -149t-29 -133.5q306 34 551 36q57 1 103.5 -9t78 -26.5t54 -41t35 -51t18 -57.5t5 -59.5t-5.5 -58.5l-40 -255 q-26 -164 -120.5 -234t-248.5 -70h-285q-65 0 -116.5 20t-95 74t-65.5 140t-21.5 227zM364 743q-101 -630 169 -630h285q29 0 56 4t59 17t56.5 34t44 57.5t27.5 84.5l38 243q18 111 -25.5 150.5t-157.5 39.5h-552z" />
<glyph unicode="7" horiz-adv-x="1114" d="M274 1381l20 118h925l35 -81l-749 -1418h-139l733 1381h-825z" />
<glyph unicode="8" horiz-adv-x="1300" d="M198.5 272.5q1.5 20.5 4.5 42.5l30 202q12 72 51.5 125t86.5 77t96 28q-52 14 -88 46t-50 70.5t-19.5 82t3.5 81.5l22 133q16 102 50 171t88.5 107.5t119.5 54.5t154 16h279q160 0 233.5 -92.5t46.5 -266.5l-22 -133q-4 -28 -17.5 -62.5t-37.5 -72t-64.5 -66t-89.5 -36.5 q56 -18 90 -62.5t40 -96t-1 -105.5l-30 -201q-13 -81 -43.5 -141t-67 -92.5t-86 -51.5t-91 -24.5t-93.5 -5.5h-276q-71 0 -127 14t-89.5 34.5t-56 51t-32.5 58t-12.5 61t-1 54zM319 309q-16 -103 38.5 -147t178.5 -44h272q53 0 101.5 16t91 61t52.5 114l34 215q9 54 -3 91.5 t-40.5 56.5t-60.5 27t-71 8h-308q-38 0 -76 -9.5t-75 -29t-64 -57t-35 -87.5zM429 1012q-9 -57 5.5 -96.5t47 -58.5t66 -26.5t72.5 -7.5h305q59 0 105 18t72.5 47.5t41.5 60t20 63.5l23 139q21 135 -21.5 188t-159.5 53h-277q-137 0 -198 -56t-80 -185z" />
<glyph unicode="9" horiz-adv-x="1280" d="M176 28l14 86h576q59 0 112 41.5t89.5 103t67.5 142.5t48.5 149t28.5 133q-315 -35 -556 -37q-67 -1 -118.5 12.5t-82 36.5t-52 54t-27.5 65t-8.5 70t5.5 69l40 255q26 162 123.5 231t254.5 69h280q391 0 265 -793q-25 -156 -64.5 -280.5t-85.5 -205.5t-100.5 -134.5 t-107.5 -76t-108 -22.5q-410 0 -594 32zM385 881.5q0 -28.5 11.5 -49t26 -33.5t39.5 -20.5t52 -10.5t64 -3h548q101 629 -166 629h-286q-38 0 -72.5 -7.5t-72.5 -27t-65.5 -61t-36.5 -101.5l-38 -248q-4 -39 -4 -67.5z" />
<glyph unicode=":" horiz-adv-x="491" d="M172 40l19 120q6 42 48 42h80q44 0 36 -42l-19 -120q-7 -40 -48 -40h-80q-18 0 -28 11t-8 29zM309 925l19 121q6 42 48 42h80q44 0 36 -42l-19 -121q-7 -39 -49 -39h-80q-18 0 -27.5 10.5t-7.5 28.5z" />
<glyph unicode=";" horiz-adv-x="489" d="M145 -167l7 48q53 -1 62 53l11 66h-19q-18 0 -28.5 13t-7.5 30l18 116q3 19 17 32.5t33 13.5h77q19 0 27.5 -13t5.5 -33l-31 -199q-7 -44 -27.5 -73t-44 -39.5t-46.5 -14.5t-39 -2zM312 926l19 121q7 43 48 43h80q44 0 36 -43l-19 -121q-6 -39 -48 -39h-80 q-18 0 -28 10.5t-8 28.5z" />
<glyph unicode="&#x3c;" horiz-adv-x="968" d="M203 664l20 123l803 352l-20 -127l-658 -292l562 -313l-20 -120z" />
<glyph unicode="=" horiz-adv-x="952" d="M109 434l20 118h875l-21 -118h-874zM180 896l21 118h874l-20 -118h-875z" />
<glyph unicode="&#x3e;" horiz-adv-x="970" d="M147 287l21 131l669 309l-575 301l21 111l691 -352l-19 -123z" />
<glyph unicode="?" horiz-adv-x="1105" d="M256 1400l14 79q178 22 295.5 30.5t262.5 3.5q106 0 182 -28.5t115.5 -79.5t55 -120.5t-0.5 -149.5l-32 -207q-17 -110 -64.5 -182.5t-120 -106t-169 -42t-211.5 9.5q0 -1 -17 -102t-16 -106h-121l48 305q197 -2 263 0q73 2 131.5 23.5t103 72.5t56.5 128l33 207 q22 145 -39 205t-229 60h-540zM356 40l19 120q6 42 47 42h81q43 0 35 -42l-19 -120q-7 -40 -48 -40h-80q-18 0 -27.5 11t-7.5 29z" />
<glyph unicode="@" horiz-adv-x="1798" d="M131 18l166 1049q12 76 39.5 137.5t75 114.5t125.5 83t180 30h768q168 0 241 -95t46 -270l-109 -725q-4 -28 -7.5 -47t-15 -57.5t-26 -65.5t-41.5 -60.5t-60.5 -55t-84 -36t-111.5 -14.5h-94l-30 123q-50 -56 -147.5 -96t-205.5 -41q-60 -1 -107 8.5t-90.5 34.5t-70 67 t-45 105.5t-16.5 151.5t17 204q20 130 58.5 230t83 158.5t99.5 96t102 51t98 15.5q130 4 261.5 -27t203.5 -100l-127 -864q34 0 59.5 3.5t57 16t53 35.5t40.5 64.5t28 99.5l109 725q6 42 7 76.5t-5 59t-14 43t-22.5 30.5t-29 19.5t-35 11t-37.5 4.5t-41 1h-777 q-75 0 -130.5 -23.5t-86 -63t-46 -77.5t-22.5 -81l-166 -1049q-19 -120 30 -193.5t174 -73.5h789l-13 -74q-87 -17 -252 -30.5t-344 -13.5h-201q-159 0 -243 109.5t-58 275.5zM629.5 349.5q3.5 -71.5 15 -117.5t40.5 -73t63.5 -37.5t85.5 -11.5q201 -4 368 122l110 716 q-87 32 -163.5 41t-171.5 8q-38 0 -72.5 -9t-78 -39.5t-77 -80t-63.5 -139.5t-45 -209q-15 -99 -11.5 -170.5z" />
<glyph unicode="A" horiz-adv-x="1339" d="M92 0l792 1499h125l292 -1499h-119l-88 451h-633l-239 -451h-130zM523 569h548l-145 772z" />
<glyph unicode="B" horiz-adv-x="1216" d="M164 0l237 1499h560q87 0 152 -21.5t101 -58.5t58 -86t23 -104v-18q0 -46 -4 -94q-19 -143 -94.5 -228.5t-174.5 -107.5q28 -6 59 -32t60 -70q29 -43 43 -115q8 -40 7 -84q0 -34 -4 -71q-55 -409 -464 -409h-559zM302 118h440q278 0 326 303q5 33 5 63q1 88 -45 154 q-61 89 -187 89h-3h-440zM417 845h441q126 0 208 70.5t105 203.5q7 54 7 94t-13.5 69t-32 48t-49 30.5t-63.5 16t-76 4.5h-441z" />
<glyph unicode="C" horiz-adv-x="1173" d="M218 570q4 91 19 189q25 153 55 263.5t77.5 208t112 157.5t157.5 94t214 34q75 0 217.5 -18t254.5 -40l-13 -90q-236 30 -437 30h-36q-44 0 -77.5 -4t-78 -19t-79 -41.5t-73.5 -75t-69 -115t-58.5 -167t-48.5 -226.5q-22 -120 -22 -223q1 -18 1 -35q4 -117 34.5 -201 t96 -133t162.5 -53q25 -1 55 -1q151 0 436 21l-12 -91q-190 -46 -488 -46q-93 0 -165.5 30.5t-118 85.5t-74 127t-37.5 160q-6 63 -6 128q0 26 1 51z" />
<glyph unicode="D" horiz-adv-x="1359" d="M164 0l237 1498q0 1 545 1q95 0 170 -28.5t122.5 -75t79 -112t45 -133.5t16.5 -144q1 -26 1 -50q0 -48 -4 -91q-6 -64 -17 -127q-29 -165 -79.5 -294.5t-127 -231.5t-188 -157t-251.5 -55h-549zM301 122h429q87 0 163.5 36t132.5 95.5t100.5 141t72 168.5t43.5 182 q21 129 21 232q0 155 -48 248q-80 156 -289 156h-426z" />
<glyph unicode="E" horiz-adv-x="1157" d="M200 148q-5 22 -5 47q0 28 6 60l155 981q24 143 103 206q72 58 178 58q10 0 20 -1l631 -29l-14 -89h-636q-77 0 -115 -38.5t-49 -109.5l-68 -428l692 -17l-15 -90l-696 -18l-69 -428q-6 -22 -3 -40t4 -32t9.5 -24.5t14.5 -17.5t19 -12t22 -7.5t24 -4t25.5 -2t25.5 -0.5 h615l-15 -88l-621 -30h-18q-32 0 -62 5q-38 7 -71.5 25t-55 48t-31.5 76z" />
<glyph unicode="F" horiz-adv-x="1153" d="M164 0l194 1230q43 269 280 269h21l631 -29l-14 -89h-637q-78 0 -115 -38t-48 -110l-67 -428l692 -17l-15 -90l-697 -18l-107 -680h-118z" />
<glyph unicode="G" horiz-adv-x="1267" d="M224 570q5 89 21 188q17 104 35.5 186t45.5 163t59 140.5t77 112t100 85t127 51t158 18.5h8q73 0 214 -18q149 -18 260 -40l-13 -94q-69 10 -231.5 21.5t-252.5 12.5q-64 0 -115 -12t-107 -52.5t-98.5 -109.5t-81 -188.5t-63.5 -283.5q-22 -149 -22 -267q0 -39 3 -75 q9 -143 79.5 -223t200.5 -80q71 0 179 27.5t180 54.5l72 27l78 463h-376l13 78q157 42 361 42q65 0 138 -6l-125 -791h-88l-14 115q-56 -43 -186.5 -85.5t-245.5 -42.5q-96 0 -168.5 30.5t-116.5 87t-70.5 128t-32.5 160.5q-4 50 -4 100q0 39 2 77z" />
<glyph unicode="H" horiz-adv-x="1308" d="M174 0l238 1499h117l-114 -715h777l115 715h118l-238 -1499h-118l107 666h-778l-106 -666h-118z" />
<glyph unicode="I" horiz-adv-x="438" d="M184 0l238 1499h118l-238 -1499h-118z" />
<glyph unicode="J" horiz-adv-x="708" d="M78 43l22 84q39 -11 70 -18t74 -11q21 -2 39.5 -2t34.5 2q33 4 69.5 18.5t62.5 41.5t47 72.5t31 107.5l184 1161h118l-185 -1161q-33 -229 -153 -301q-81 -49 -203 -49h-10q-129 2 -201 55z" />
<glyph unicode="K" horiz-adv-x="1140" d="M164 0l237 1499h118l-109 -689h223l576 689h146l-621 -754l384 -745h-141l-354 693h-230l-109 -693h-120z" />
<glyph unicode="L" horiz-adv-x="1101" d="M203 258l199 1241h116l-197 -1241q-3 -22 -3 -40q0 -22 4 -38q8 -30 33.5 -42.5t47.5 -16t58 -3.5h606l-18 -118h-605q-56 0 -101 12t-83 40q-37 28 -53 80q-9 30 -9 67q0 27 5 59z" />
<glyph unicode="M" horiz-adv-x="1619" d="M145 0l359 1499h154l211 -1303l610 1303h165l-104 -1499h-118l93 1296l-610 -1296h-123l-206 1291l-312 -1291h-119z" />
<glyph unicode="N" horiz-adv-x="1339" d="M164 0l237 1499h116l606 -1281l203 1281h118l-238 -1499h-112l-608 1281l-203 -1281h-119z" />
<glyph unicode="O" horiz-adv-x="1376" d="M212 374q-2 31 -1 66q0 46 3 99q6 93 24 205q27 173 63 300t84.5 210.5t99 135t124 77.5t141 34t167.5 8q83 0 143.5 -7t121 -27t99.5 -55t70 -92.5t43 -139.5q9 -62 8 -143v-51q-4 -114 -26 -259q-17 -110 -38.5 -200t-46 -161t-56 -126t-64.5 -95t-75 -69t-83 -46.5 t-94 -28t-103.5 -14t-114.5 -3.5q-63 0 -110.5 3.5t-99 13t-88 26.5t-72.5 46t-58.5 69t-39.5 96t-21 128zM327 500q-2 -30 -1 -57q0 -63 9 -113q14 -70 40 -113t77 -67t109 -32t146 -8q71 0 124 6.5t105.5 23.5t91.5 47t75.5 77t63.5 113.5t50.5 156t41.5 205.5 q21 133 25 234q2 43 2 81q0 50 -3 90q-6 70 -32.5 116.5t-53.5 72.5t-79 39.5t-94 16.5t-113 3q-65 0 -102 -2t-89.5 -10t-83.5 -26t-71 -49t-66 -79t-54 -115.5t-49.5 -160.5t-40.5 -211q-22 -139 -28 -239z" />
<glyph unicode="P" horiz-adv-x="1210" d="M154 0l237 1499h607q43 0 81 -7.5t77.5 -26t66.5 -49.5t49 -78.5t25 -112.5q1 -15 1 -31q0 -54 -8 -121q-10 -73 -27 -133t-35 -103.5t-44.5 -77.5t-48.5 -56t-55 -37t-54.5 -22.5t-57.5 -11.5t-54.5 -4.5t-53.5 -0.5q-62 0 -269 13t-214 17l-106 -657h-117zM389 745h488 q42 0 74.5 6t69.5 26.5t63.5 55t49.5 96t36 145.5q8 52 8 94q0 3 1 7q-1 39 -7 67q-6 30 -16 53t-27 38t-33 24.5t-38 14t-39.5 6t-40.5 1.5h-488z" />
<glyph unicode="Q" horiz-adv-x="1386" d="M220 374q-1 31 -1 66q0 46 3 99q6 93 24 205q27 173 63 300t84.5 210.5t99 135t124 77.5t141 34t167.5 8q64 0 113.5 -4t100 -15t87.5 -29.5t71.5 -48.5t56.5 -72t37.5 -99.5t18.5 -130.5q2 -28 2 -57q0 -52 -4 -111q-6 -94 -23 -207q-19 -123 -43 -222t-55.5 -173.5 t-65.5 -130.5t-78.5 -94t-88.5 -62.5t-102.5 -37.5t-114 -18t-128.5 -5q-63 0 -110.5 3.5t-99 13t-88 26.5t-72.5 46t-58.5 69t-39 96t-21.5 128zM336 500q-2 -30 -2 -57q0 -64 10 -113q14 -71 40 -113.5t77 -66.5t109 -32t146 -8q100 0 169 13.5t133.5 52t108 108.5 t79.5 181.5t61 273.5q21 133 25 234q2 43 2 81q0 50 -3 90q-6 69 -32.5 116t-53.5 73t-79 39.5t-94 16.5t-113 3q-64 0 -101.5 -2t-89.5 -10t-83.5 -26t-71 -49t-65.5 -79t-54 -115.5t-49.5 -160.5t-40.5 -211q-22 -139 -28 -239zM640 -68h80q72 -96 196 -96q65 0 143 26 l-21 -126q-47 -17 -101 -20q-13 -1 -25 -1q-41 0 -81 9q-52 11 -94.5 36t-69 69.5t-27.5 102.5z" />
<glyph unicode="R" horiz-adv-x="1249" d="M154 0l237 1499h615q45 0 83 -8.5t75 -28t62 -52t44.5 -81.5t21.5 -116q1 -16 2 -33q0 -55 -7 -121q-13 -111 -46 -193t-69 -124t-85.5 -68t-79 -32t-67.5 -9l219 -633h-129l-209 622q-30 1 -237.5 13t-209.5 13l-103 -648h-117zM391 745h489q53 0 96 14t84 47t69 98 t38 158q7 54 7 96v7q0 39 -5 67q-5 32 -13 55.5t-21.5 39.5t-28 26.5t-35 16t-40 7.5t-44.5 2h-496z" />
<glyph unicode="S" horiz-adv-x="1165" d="M162 27l13 92q144 -18 500 -18q291 0 324 218l22 140q6 40 6 73q0 24 -3 44q-7 48 -50 74t-126 26h-266q-77 0 -135.5 13.5t-92.5 39.5t-55 57q-21 32 -27 72q-6 35 -6 66v10q1 36 8 80l22 136q18 113 60 188t106 112t132 50q59 11 137 11h24q79 -2 240 -17.5t244 -27.5 l-13 -90l-490 18q-18 1 -35 1q-47 -1 -85 -7q-50 -8 -93.5 -34t-70.5 -77.5t-39 -129.5l-21 -135q-6 -36 -6 -65t2.5 -50.5t12.5 -37.5t18.5 -27t27 -18.5t31 -11.5t37.5 -5.5t40 -2t44 -0.5h268q75 0 130.5 -19t85 -52t47.5 -77q17 -41 16 -86v-6q-1 -48 -7 -99l-22 -139 q-10 -63 -32 -114t-49 -85t-65 -59.5t-74 -39t-81.5 -21.5t-81.5 -10.5t-80 -2.5q-96 0 -261.5 15.5t-230.5 27.5z" />
<glyph unicode="T" horiz-adv-x="1220" d="M285 1381l19 118h1061l-20 -118h-477l-219 -1381h-117l218 1381h-465z" />
<glyph unicode="U" horiz-adv-x="1359" d="M244 430q1 90 19 201l137 868h119l-137 -868q-15 -99 -18 -175q-1 -23 -1 -43q0 -49 5 -88q7 -55 28 -94t48 -63t69 -37.5t85 -18t103 -4.5q84 0 146.5 12.5t121 46t100 91.5t74.5 151t53 222l137 868h119l-137 -868q-21 -130 -50 -226.5t-77 -177.5t-114.5 -131.5 t-161.5 -78t-218 -27.5q-71 0 -128 8t-110 27.5t-91 51t-66.5 81.5t-42.5 116q-13 61 -12 144v12z" />
<glyph unicode="V" horiz-adv-x="1370" d="M307 1499h124l255 -1318l695 1318h135l-792 -1499h-125z" />
<glyph unicode="W" horiz-adv-x="2035" d="M307 1499h119l257 -1316l685 1316h133l-280 -549l147 -776l685 1325h129l-778 -1499h-125l-148 781l-407 -781h-125z" />
<glyph unicode="X" horiz-adv-x="1189" d="M78 0l564 746l-333 753h126l287 -648l493 648h143l-583 -767l326 -732h-126l-279 627l-475 -627h-143z" />
<glyph unicode="Y" horiz-adv-x="1288" d="M307 1499h125l282 -820l579 820h141l-679 -967l-84 -532h-117l84 532z" />
<glyph unicode="Z" horiz-adv-x="1116" d="M72 0l19 118l1034 1263h-835l19 118h990l-20 -118l-1033 -1263h834l-19 -118h-989z" />
<glyph unicode="[" horiz-adv-x="618" d="M150 -120q1 41 8 83l234 1474q6 39 13.5 70t20.5 66t29.5 62t42 52t57 41.5t74.5 26.5t95 10h143l-19 -118h-144q-78 0 -126.5 -47.5t-67.5 -162.5l-234 -1474q-21 -129 6 -182t119 -53h143l-19 -118h-143q-70 0 -119 26t-72 63.5t-32.5 88.5t-8.5 92z" />
<glyph unicode="\" horiz-adv-x="827" d="M289 1577h110l303 -1724h-110z" />
<glyph unicode="]" horiz-adv-x="622" d="M-27 -390l20 118h143q81 0 128.5 51t65.5 159l234 1475q21 135 -7.5 184.5t-116.5 49.5h-144l19 118h144q71 0 120 -26t72 -63t32 -88.5t7.5 -91.5t-8.5 -83l-234 -1475q-9 -57 -21 -99t-36 -87.5t-58 -74.5t-89 -48t-127 -19h-144z" />
<glyph unicode="^" horiz-adv-x="825" d="M274 1087l293 268h112l180 -268h-106l-135 188l-216 -188h-128z" />
<glyph unicode="_" horiz-adv-x="1359" d="M39 -2l19 118h1278l-19 -118h-1278z" />
<glyph unicode="`" horiz-adv-x="495" d="M256 1360h137l213 -273h-104z" />
<glyph unicode="a" d="M164 384q4 84 20 186q16 94 40 171t51.5 130t63 94t68.5 65.5t74 41t74 24t74 12.5q35 4 73 5q92 1 202 -25q158 -36 231 -107l-144 -981h-82l-14 123q-69 -46 -180.5 -91.5t-214.5 -45.5q-53 0 -95.5 6.5t-83.5 24t-70 45.5t-51 73t-31 105q-6 43 -6 99q0 22 1 45z M295 511q-14 -89 -14 -158q0 -97 28 -153q48 -96 185 -97q59 0 110 7t107 25t88.5 30.5t102.5 42.5l110 734q-168 56 -295 56q-41 0 -77 -6q-56 -9 -95 -22.5t-80.5 -45.5t-70 -82t-54.5 -133t-45 -198z" />
<glyph unicode="b" horiz-adv-x="1128" d="M123 0l254 1608h113l-92 -586q98 37 216.5 59.5t193.5 22.5q66 0 118 -18.5t85 -49.5t55 -76.5t32 -94t11 -107.5v-21q1 -47 -3 -91q-4 -53 -15 -112q-10 -60 -21 -109.5t-30.5 -109t-42.5 -105.5t-57.5 -90.5t-76.5 -73t-99 -44.5q-48 -14 -104 -14h-20q-96 3 -219.5 50 t-163.5 83l-53 -121h-81zM271 206q66 -31 112 -49t122.5 -35t151.5 -17q121 0 202 109t114 325q16 109 16 191q0 94 -21 150q-40 106 -172 106q-112 0 -201 -13t-208 -43z" />
<glyph unicode="c" horiz-adv-x="1011" d="M183 549q16 93 35.5 168.5t42.5 130.5t47.5 96.5t55 69t59 45t65.5 26.5t68.5 12t72.5 3q160 0 438 -56l-13 -83q-262 22 -444 22q-49 0 -81 -6.5t-68.5 -32t-62.5 -72.5t-52 -130.5t-47 -204.5q-17 -101 -19 -177v-16q0 -65 12 -108q12 -48 38.5 -78t60.5 -41.5 t80 -11.5q84 0 200.5 7.5t190.5 14.5l75 7l-14 -88q-127 -34 -227 -46q-92 -12 -211 -12h-19q-302 2 -302 360q0 89 19 201z" />
<glyph unicode="d" horiz-adv-x="1107" d="M170 416q2 63 12 128q15 94 35 169t56 151t83.5 126.5t119 82t161.5 31.5q76 0 189.5 -22.5t200.5 -59.5l93 586h114l-255 -1608h-82l-14 121q-56 -39 -184.5 -86t-222.5 -47q-70 0 -125 23.5t-89 65.5t-56 95t-30 117q-6 51 -6 100v27zM300 539q-14 -86 -14 -156 q0 -101 30 -167q51 -111 167 -111q75 0 156 17t131 35t126 49l115 724q-109 30 -194 43t-197 13q-44 0 -81 -11t-74.5 -41.5t-67 -79.5t-55 -128.5t-42.5 -186.5z" />
<glyph unicode="e" horiz-adv-x="1081" d="M181 569q14 79 27.5 133.5t34.5 115.5t47 101t65 79t88.5 61t117.5 35.5t152 13.5q208 0 310 -72q84 -59 84 -184q0 -27 -4 -57q-12 -92 -59.5 -160t-114.5 -105t-148.5 -58t-160.5 -24q-34 -1 -66 -1q-42 0 -84 2q-72 4 -119.5 12.5t-66.5 16.5q-15 -97 -15 -167 q-1 -79 19 -125q36 -84 163 -87q37 -2 79 -2q171 0 423 36l-13 -88q-216 -59 -500 -59q-194 0 -254 140q-31 73 -31 191q0 108 26 252zM297 562q13 -2 36.5 -4.5t90.5 -5.5q34 -2 66 -2t63 2q62 3 139.5 16.5t135.5 39t102 73.5t54 114q4 25 4 46q0 29 -8 53 q-13 40 -51 60.5t-88 28t-128 7.5q-69 0 -124.5 -11t-94 -29t-68 -48t-47.5 -60t-32.5 -73t-23 -79.5t-18.5 -86.5q-5 -27 -8 -41z" />
<glyph unicode="f" horiz-adv-x="794" d="M188 970l14 85l203 32l18 117q13 85 26.5 139.5t37 109.5t56 85.5t83 49.5t119.5 20h7q49 0 128 -14q84 -14 124 -26l-11 -76h-250q-53 0 -86.5 -14.5t-56 -52.5t-34.5 -86.5t-25 -134.5l-18 -117h346l-19 -117h-348l-158 -970h-118l157 970h-195z" />
<glyph unicode="g" horiz-adv-x="1118" d="M76 -508l12 77l507 -10h6q80 0 149 57q71 58 89 171l43 272q-98 -37 -207 -57.5t-185 -20.5q-94 0 -160 30t-101.5 80.5t-50.5 126.5q-12 64 -12 131q0 14 1 28q3 82 19 186q41 258 159 397.5t296 139.5q97 0 199.5 -8t200.5 -19.5t117 -13.5l-201 -1272 q-15 -92 -53.5 -162.5t-91.5 -111t-113 -58.5q-45 -13 -92 -13q-15 0 -31 1zM286 368q-1 -12 -1 -23q0 -35 4 -63q5 -37 19 -73.5t36.5 -59.5t59.5 -37.5t86 -14.5q109 0 187 12t219 46l133 824l-385 3h-4q-62 0 -115 -29q-55 -30 -91 -75t-64 -105.5t-42.5 -114 t-23.5 -107.5q-8 -53 -12.5 -93.5t-5.5 -89.5z" />
<glyph unicode="h" d="M123 0l254 1606h118l-103 -645q85 46 141.5 72.5t139.5 49.5t161 23q104 0 173.5 -50t94.5 -128q16 -49 15 -103q0 -33 -5 -67l-121 -758h-117l121 758q4 28 4 53q-1 73 -37 117q-50 60 -149 60q-117 0 -204 -26t-231 -93l-137 -869h-118z" />
<glyph unicode="i" horiz-adv-x="364" d="M123 0l172 1087h118l-172 -1087h-118zM306 1279l15 103q5 42 48 42h77q33 0 33 -33q0 -4 -1 -9l-15 -103q-5 -40 -46 -40h-76q-17 0 -27 11q-8 9 -8 23v6z" />
<glyph unicode="j" horiz-adv-x="399" d="M57 -553l260 1640h118l-174 -1095q-51 -331 -129 -545h-75zM328 1279l17 103q5 42 48 42h76q33 0 33 -33q0 -4 -1 -9l-17 -103q-5 -40 -45 -40h-77q-18 0 -27 11q-7 9 -7 23v6z" />
<glyph unicode="k" horiz-adv-x="991" d="M123 0l254 1602h118l-154 -968q96 13 196.5 61t178 113t133 139.5t71.5 139.5h131q-25 -88 -81.5 -172.5t-125.5 -146.5t-138 -107t-129 -68l392 -593h-142l-368 560q-22 -5 -68.5 -7t-61.5 -1l-88 -552h-118z" />
<glyph unicode="l" horiz-adv-x="608" d="M182 387l193 1217h118l-193 -1217q-8 -51 -10 -91q-1 -23 -1 -40q1 -14 1 -26q2 -26 11 -46t16.5 -30t25 -18t27.5 -11t31 -7q145 -32 151 -32l-13 -86h-137q-141 0 -196 94q-35 60 -35 164q0 58 11 129z" />
<glyph unicode="m" horiz-adv-x="1853" d="M123 0l172 1087h81l16 -129q72 39 104.5 55.5t93.5 42.5t116 36t115 10q94 0 166.5 -49t97.5 -125q104 74 231 124t256 50q140 0 222 -100q64 -78 64 -187q0 -30 -5 -63l-120 -752h-117l119 752q4 24 4 45q1 70 -39 121q-52 66 -147 66q-125 0 -226 -29t-219 -95 q3 -17 0.5 -54t-5.5 -56l-120 -750h-118l120 752q4 24 4 45q0 70 -40 121q-52 66 -147 66q-116 0 -197 -25t-228 -93l-136 -866h-118z" />
<glyph unicode="n" d="M123 0l172 1087h81l16 -126q86 47 141 73t138 49t161 23q155 0 229 -102q56 -78 56 -180q0 -32 -5 -66l-121 -758h-117l121 758q4 27 4 51q0 71 -37 117q-50 62 -149 62q-117 0 -204 -26t-231 -93l-137 -869h-118z" />
<glyph unicode="o" horiz-adv-x="1150" d="M184 533q27 169 67 276t107.5 172.5t157 91t223.5 25.5q255 0 343 -140q57 -91 57 -246q0 -85 -17 -188q-26 -155 -62.5 -253.5t-100 -163t-153 -91t-224.5 -26.5q-264 0 -354 124q-59 82 -60 239q0 80 16 180zM286 401q-1 -22 -2 -42q0 -31 4 -57q6 -42 16.5 -73.5 t31.5 -52.5t44 -35t58 -21t68.5 -9.5t80.5 -2.5q64 0 107.5 5t88.5 20t76 43.5t59.5 75t49 114.5t36.5 162q16 95 18 166q0 12 1 24q0 56 -10 97q-12 50 -34 82t-61 50.5t-84.5 25.5t-109.5 7q-55 0 -94 -3.5t-80 -14.5t-70 -31t-57.5 -53t-49.5 -81.5t-39 -115t-33 -153.5 q-11 -71 -15 -127z" />
<glyph unicode="p" horiz-adv-x="1122" d="M35 -553l268 1624q199 25 501 25q90 0 154 -34t98 -88t49 -131q14 -72 14 -144v-9q-1 -77 -14 -166q-78 -542 -451 -542q-81 0 -200.5 20.5t-203.5 56.5l-99 -612h-116zM267 154q111 -33 203 -48q50 -8 104 -8q44 0 89 5q49 4 88 17.5t76.5 44t66.5 79t53 123.5t40 175 q14 90 14 161q0 102 -29 167q-51 108 -178 108h-392z" />
<glyph unicode="q" horiz-adv-x="1130" d="M168 370q3 82 19 185q42 264 158 404.5t307 140.5q61 0 123.5 -2.5t123 -8t98 -9.5t94 -11t65.5 -8l-255 -1614h-118l96 612q-98 -37 -208 -58t-185 -21q-92 0 -156 29.5t-99.5 79t-50.5 124.5q-12 63 -12 130v27zM286 316q0 -56 12 -92t35 -67t63.5 -45.5t97.5 -14.5 q110 0 186.5 11t214.5 45l131 829h-393q-63 0 -115 -28.5t-87 -72t-61.5 -103.5t-41 -115t-23.5 -114q-11 -74 -15 -125q-5 -47 -5 -97q0 -5 1 -11z" />
<glyph unicode="r" horiz-adv-x="849" d="M123 0l172 1087h79l16 -137q5 2 40.5 21t42.5 22.5t39.5 20t44 21t41.5 17t45.5 16.5t43.5 12.5t48.5 11.5t47 5.5t51.5 2.5q112 0 149 -17l-19 -115q-59 13 -149 13q-25 0 -50 -2t-44 -3.5t-44.5 -8t-39.5 -9t-42 -13t-39 -14t-43 -17t-41.5 -17.5t-47.5 -21.5 t-48 -21.5l-135 -854h-118z" />
<glyph unicode="s" horiz-adv-x="1036" d="M131 16l14 85h541q68 0 104 23q52 34 65 114l18 107q3 19 3 35q0 102 -128 102h-291q-153 0 -217 56q-46 40 -47 129q0 34 7 74l16 101q22 134 96.5 198.5t228.5 64.5q75 0 251 -10t260 -18l-15 -88h-514q-52 0 -88.5 -12.5t-56.5 -35.5t-30 -47t-15 -56l-15 -101 q-5 -29 -5 -51.5t5 -36.5t13.5 -24.5t20 -15t26 -7t30.5 -2.5h33h20h292q127 0 192 -72q50 -55 50 -137q0 -24 -4 -50l-18 -119q-10 -64 -34.5 -110t-53.5 -70.5t-70.5 -38.5t-73.5 -17t-76 -3q-68 0 -267 13t-267 20z" />
<glyph unicode="t" horiz-adv-x="749" d="M188 972l15 87l197 31l77 303h88l-47 -303h331l-19 -118h-331l-92 -586q-8 -50 -9 -90q-1 -20 -1 -36t1 -30q2 -26 11 -46.5t16.5 -30.5t24.5 -18t27 -11t31 -7q145 -32 151 -32l-12 -86h-136q-145 -1 -199 93q-35 60 -34 163q0 59 11 131l92 586h-193z" />
<glyph unicode="u" horiz-adv-x="1107" d="M155 330l119 758h118l-119 -758q-5 -31 -5 -57q0 -73 36 -115q50 -58 151 -58q117 0 203.5 26t230.5 93l136 869h118l-172 -1087h-81l-16 127q-65 -36 -105 -55.5t-99.5 -44t-117 -35.5t-116.5 -11q-157 0 -231 100q-56 75 -56 178q0 34 6 70z" />
<glyph unicode="v" horiz-adv-x="1064" d="M193 1087h121l230 -940l418 775q18 36 26 52.5t19 48.5t16 65h91q9 -28 9 -58q0 -60 -35 -130l-487 -900h-146z" />
<glyph unicode="w" horiz-adv-x="1638" d="M193 1087h117l225 -934l418 762q18 36 26 53t19.5 49.5t16.5 65.5h84q9 -28 9 -58q0 -61 -36 -131l-82 -163l126 -571l429 760q18 36 26 53t19.5 49.5t16.5 65.5h86q9 -30 9 -60q0 -62 -36 -128l-511 -900h-119l-132 587l-319 -587h-130z" />
<glyph unicode="x" horiz-adv-x="1017" d="M49 0l481 548l-309 539h138l254 -444l390 444h152l-480 -552l304 -535h-138l-250 439l-383 -439h-159z" />
<glyph unicode="y" horiz-adv-x="1114" d="M193 1087h121l144 -849q17 -99 110 -114q32 -5 47 -1l404 805q39 78 53 167h94q9 -30 9 -62q0 -62 -35 -132l-447 -899q-29 -57 -50.5 -97t-57 -100t-65 -102t-69.5 -90t-78 -79.5t-83 -55t-90 -29.5v82q26 12 52 31t51.5 46.5t47.5 53.5t46.5 63t40.5 62t38 65t31.5 57 t27.5 52.5t20 38.5q-19 0 -38.5 4t-49.5 17.5t-54.5 36.5t-46.5 66t-31 101z" />
<glyph unicode="z" horiz-adv-x="927" d="M92 2l15 118l759 850h-649l16 117h811l-16 -117l-752 -850h614l-18 -118h-780z" />
<glyph unicode="{" horiz-adv-x="614" d="M137 682l18 110q89 4 123 15q69 24 80 94l77 488q60 376 429 376l-19 -117q-122 1 -196 -59.5t-97 -204.5l-76 -483q-11 -70 -66.5 -115.5t-132.5 -58.5q70 -11 111 -59.5t31 -112.5l-86 -536q-26 -164 27.5 -229.5t181.5 -61.5l-20 -118q-86 0 -149 24.5t-96 65.5 t-52 95t-17.5 112t8.5 117l84 522q7 43 -17 76t-64 48t-82 12z" />
<glyph unicode="|" horiz-adv-x="481" d="M152 -147l272 1724h118l-273 -1724h-117z" />
<glyph unicode="}" horiz-adv-x="606" d="M-27 -390l20 118q124 -1 196 56.5t94 197.5l83 519q12 68 66.5 113t130.5 58q-71 11 -111.5 60t-29.5 115l80 500q27 168 -26.5 237t-179.5 65l19 116q83 0 144.5 -24.5t95.5 -65.5t53.5 -95.5t19 -115t-8.5 -122.5l-79 -489q-11 -66 43 -102t121 -34l-18 -110 q-186 3 -203 -109l-83 -519q-59 -369 -427 -369z" />
<glyph unicode="~" horiz-adv-x="929" d="M287 1171q13 9 49 37.5t51.5 39t44 27.5t54.5 23t54 6q37 0 74.5 -24t73.5 -48.5t68 -24.5q23 0 45.5 5t48 17.5t39 19.5t42.5 26t34 22l24 -62q-6 -5 -41 -35t-50 -41t-45.5 -30.5t-57.5 -27t-56 -7.5q-30 0 -61.5 15.5t-54 33.5t-51.5 33.5t-54 15.5q-36 0 -66 -10.5 t-75.5 -36t-66.5 -35.5z" />
<glyph unicode="&#xa1;" horiz-adv-x="532" d="M92 -552l191 1091h111l-154 -1091h-148zM297 790l18 117q6 36 48 38h75q16 -1 26.5 -13t7.5 -30l-18 -112q-8 -36 -43 -43h-84q-33 1 -30 43z" />
<glyph unicode="&#xa2;" horiz-adv-x="993" d="M145 378q3 77 19 171q18 109 42.5 194t50.5 143.5t61 99t68 63.5t78.5 35t84.5 15t94 1l31 188h94l-32 -195q149 -15 313 -49l-13 -83q-262 22 -444 22q-49 0 -81 -6.5t-68.5 -32t-62.5 -72.5t-52 -130.5t-47 -204.5q-17 -101 -18.5 -177t11 -124t39 -78t60.5 -41.5 t80 -11.5q84 0 200.5 7.5t190.5 14.5l75 7l-14 -88q-174 -49 -343 -56l-27 -177h-94l26 175q-50 0 -92 7.5t-80 26t-66 47.5t-48.5 73t-29.5 101.5t-6 134.5z" />
<glyph unicode="&#xa3;" horiz-adv-x="1193" d="M102 0l14 90l153 28l89 571h-147l12 72l152 28l39 245q12 73 29.5 133.5t37.5 106t48.5 80.5t54.5 58.5t63.5 40t68 25.5t75.5 14t78.5 6t84.5 1q52 0 146.5 -7t162.5 -14l68 -7l-15 -88h-367q-72 0 -121.5 -4.5t-95.5 -18.5t-75.5 -37.5t-55 -63t-42 -94t-28.5 -131.5 l-38 -245l563 -28l-11 -72h-569l-89 -571h728l-19 -118h-994z" />
<glyph unicode="&#xa4;" horiz-adv-x="954" d="M162 354l104 88q-57 102 -40 206q19 118 93 197l-78 91l70 56l74 -89q99 70 209 70q133 0 209 -70l112 94l53 -72l-111 -94q55 -89 37 -200q-19 -119 -92 -204l82 -99l-74 -57l-75 93q-92 -70 -220 -70q-118 0 -195 77l-103 -90zM319 642q-16 -103 42 -178t158 -76 q114 -1 189.5 70t95.5 178q19 99 -40.5 173t-166.5 73q-108 -1 -185 -69.5t-93 -170.5z" />
<glyph unicode="&#xa5;" horiz-adv-x="1218" d="M217 344l14 90h359l19 133h-357l15 90h350l-333 842h125l287 -718l571 718h144l-667 -842h397l-15 -90h-399l-20 -133h398l-13 -90h-396l-48 -344h-118l49 344h-362z" />
<glyph unicode="&#xa6;" horiz-adv-x="483" d="M152 -147l106 671h118l-107 -671h-117zM313 879l111 698h118l-111 -698h-118z" />
<glyph unicode="&#xa7;" horiz-adv-x="1132" d="M190 16l14 85h525q81 0 126 25.5t58 98.5l23 150q12 71 -14.5 92t-119.5 21h-338q-130 0 -193.5 53.5t-42.5 184.5l20 129q13 80 41.5 125.5t86.5 59.5q-52 26 -67 67.5t-5 100.5l22 145q40 253 306 253q68 0 268.5 -13t267.5 -20l-13 -85h-541q-76 0 -117 -33t-53 -103 l-22 -144q-10 -66 24.5 -89.5t105.5 -23.5h346q139 0 195 -65.5t37 -182.5l-20 -127q-5 -31 -11 -54.5t-19 -53t-36 -47.5t-54 -22q37 -12 54 -40t15.5 -60t-5.5 -68l-23 -150q-13 -78 -37.5 -127t-68 -73.5t-91.5 -32.5t-125 -8q-68 0 -259.5 12.5t-259.5 19.5zM340.5 681 q0.5 -18 3 -30.5t11.5 -21t18 -13t27 -7t33 -3t41 -0.5h346q55 0 87 5.5t49.5 22.5t23.5 35.5t12 55.5l20 127q9 46 3.5 74t-36.5 40.5t-99 12.5h-346q-46 0 -70.5 -3.5t-47 -16.5t-34 -39t-18.5 -72l-20 -125q-4 -24 -3.5 -42z" />
<glyph unicode="&#xa8;" horiz-adv-x="923" d="M290 1192q5 34 33 57t62 23t53 -23t14 -57t-32 -58t-61 -24t-54 24t-15 58zM812 1192q5 33 33.5 56.5t62.5 23.5t53 -23t14 -57t-32 -58t-61 -24t-54.5 24t-15.5 58z" />
<glyph unicode="&#xa9;" horiz-adv-x="1689" d="M214.5 639q3.5 62 11.5 117q18 115 44.5 214t74.5 199.5t110.5 171t155.5 114.5t207 44h530q82 0 144.5 -28.5t100.5 -74.5t61.5 -112t32 -131.5t8 -142.5t-6.5 -137t-16 -122q-25 -154 -69.5 -285t-111 -237.5t-160.5 -167.5t-206 -61h-530q-80 0 -144 29.5t-105 78.5 t-70 115t-42.5 135.5t-18 144t-1 136.5zM307 569.5q-1 -91.5 16.5 -177t50.5 -151t91 -105t134 -39.5h538q144 0 265.5 171.5t171.5 485.5q11 69 17 129t7.5 127.5t-5 122.5t-24 106.5t-45.5 86t-72.5 55.5t-103.5 21h-545q-376 0 -480 -648q-15 -93 -16 -184.5zM586 750 q21 128 57 217t85.5 137.5t103 69t119.5 20.5q113 0 357 -44l-12 -78q-176 25 -360 25q-196 0 -254 -356q-14 -102 -11.5 -178t41 -120.5t113.5 -44.5q187 0 383 33l-13 -77q-196 -53 -385 -53q-133 0 -197 107.5t-27 341.5z" />
<glyph unicode="&#xaa;" horiz-adv-x="735" d="M147 564l14 89h606l-14 -89h-606zM220 1016.5q-2 57.5 7 133.5q13 84 41 148t59.5 99.5t73 58.5t72 31t66.5 12q80 8 186 -19.5t154 -75.5l-93 -624h-53l-13 115q-42 -48 -117.5 -85.5t-147.5 -37.5q-32 0 -61.5 7t-60.5 23.5t-53.5 44.5t-40 70t-19.5 99.5zM320 1128 q-21 -134 21.5 -196.5t123.5 -62.5q65 0 124 27.5t139 83.5l55 383q-53 21 -121 34t-121 5q-42 -6 -74.5 -21t-62.5 -45t-51.5 -82.5t-32.5 -125.5z" />
<glyph unicode="&#xab;" horiz-adv-x="1140" d="M217 725l487 416l73 -85l-398 -342l288 -340l-86 -76zM603 725l487 416l73 -85l-400 -341l291 -342l-87 -75z" />
<glyph unicode="&#xac;" horiz-adv-x="1083" d="M184 541l19 118h855q-9 -59 -26.5 -167t-26.5 -166h-118l34 215h-737z" />
<glyph unicode="&#xad;" horiz-adv-x="729" d="M123 535l19 118h643l-19 -118h-643z" />
<glyph unicode="&#xae;" horiz-adv-x="1689" d="M214.5 638q3.5 62 11.5 117q18 115 44.5 214t74.5 200t110.5 171t155.5 114.5t207 44.5h530q82 0 144.5 -28.5t100.5 -74.5t61.5 -112t32 -131.5t8 -142.5t-6.5 -137t-16 -122q-25 -154 -69.5 -285t-111 -237.5t-160.5 -167.5t-206 -61h-530q-80 0 -144 29.5t-105 78.5 t-70 115t-42.5 135t-18 143.5t-1 136.5zM307 569.5q-1 -91.5 16 -177t50 -151t90.5 -105t133.5 -39.5h540q144 0 265.5 171.5t171.5 485.5q13 81 19 151t6 147t-14.5 137t-41.5 109.5t-76.5 76.5t-117.5 27h-546q-376 0 -480 -648q-15 -93 -16 -184.5zM582 313l138 875h363 q38 0 71 -6.5t66 -25t55 -48t31.5 -79t1.5 -113.5q-6 -51 -19 -91t-31.5 -64t-36 -40.5t-43 -25t-41.5 -12t-41.5 -6t-33.5 -3.5l143 -361h-109l-143 363l-213 20l-61 -383h-97zM750 763h277q91 0 130 32t54 130q9 43 2.5 73t-16 48t-30.5 28t-41 13.5t-46 3.5h-278z" />
<glyph unicode="&#xaf;" horiz-adv-x="802" d="M274 1087l16 97h570l-15 -97h-571z" />
<glyph unicode="&#xb0;" horiz-adv-x="651" d="M304 1294q5 88 68.5 149.5t149.5 61.5t144 -61.5t54 -149.5q-5 -88 -67.5 -148.5t-148.5 -60.5q-87 0 -145.5 61t-54.5 148zM378 1294q-4 -55 32.5 -94t92.5 -39t97.5 39t45.5 94q4 56 -32.5 96t-91.5 40t-97.5 -40t-46.5 -96z" />
<glyph unicode="&#xb1;" horiz-adv-x="1067" d="M141 212l19 118h832l-19 -118h-832zM236 809l18 118h356l56 357h118l-57 -357h359l-18 -118h-358l-58 -357h-118l58 357h-356z" />
<glyph unicode="&#xb2;" horiz-adv-x="794" d="M154 729l13 89q18 13 70 48.5t90 62.5t97.5 71.5t103.5 81.5t94 85t84 89.5t59 88t32 87.5q14 95 -18 141t-135 46h-355q-2 0 0.5 18.5t6 36.5t4.5 17q214 25 378 25q55 0 98.5 -19t68 -49t41.5 -68t18 -75.5t-3 -71.5q-12 -79 -65 -163.5t-127.5 -155.5t-143 -127 t-133.5 -103t-77 -58h447l-16 -97h-632z" />
<glyph unicode="&#xb3;" horiz-adv-x="841" d="M156 753l11 64l361 1q180 0 204 155l7 47q12 77 -30.5 115t-112.5 40l-290 10l12 73l289 11q81 3 135 40.5t63 102.5l6 55q13 78 -22 110.5t-119 32.5h-386l10 66q53 16 120.5 23t134 7h148.5q117 -1 171.5 -69.5t40.5 -166.5l-13 -73q-11 -72 -56.5 -123.5t-91.5 -64.5 q42 -23 70.5 -73t18.5 -114l-9 -59q-19 -119 -85.5 -181t-211.5 -61q-108 0 -149.5 0.5t-109.5 8t-116 23.5z" />
<glyph unicode="&#xb4;" horiz-adv-x="464" d="M213 1087l272 273h148l-316 -273h-104z" />
<glyph unicode="&#xb5;" horiz-adv-x="1208" d="M96 -553l140 883l120 758h118l-121 -758q-17 -107 33 -168.5t149 -61.5q117 0 203.5 26t230.5 93l138 869h118l-172 -1087h-81l-16 127q-87 -47 -141.5 -73t-137.5 -49.5t-161 -23.5q-132 0 -204 87l-98 -622h-118z" />
<glyph unicode="&#xb6;" horiz-adv-x="1173" d="M242 1027l29 190q13 79 49.5 136.5t89 88t108.5 44t120 13.5h728l-20 -122h-141l-218 -1377h-118l218 1381h-240l-306 -1934h-118l208 1310q-70 -30 -121 -29q-79 0 -137 27t-88 71t-41 95.5t-2 105.5zM361 1026q-8 -48 2.5 -83.5t29.5 -53.5t47.5 -29t48 -13t40.5 -2 h115l86 540h-111q-105 0 -161.5 -47t-68.5 -128z" />
<glyph unicode="&#xb7;" horiz-adv-x="561" d="M286 740l14 86q2 20 15 31.5t33 11.5h80q43 0 35 -43l-13 -86q-7 -40 -48 -40h-80q-18 0 -28 11t-8 29z" />
<glyph unicode="&#xb8;" horiz-adv-x="526" d="M45 -354l9 55l98 24q59 17 89 61.5t43 137.5h104q-25 -159 -77.5 -218.5t-174.5 -59.5h-91z" />
<glyph unicode="&#xb9;" horiz-adv-x="565" d="M236 1506l10 65q46 0 94.5 14t84.5 34.5t66 40.5t45 34l16 14h94l-156 -979h-97l137 858q-38 -29 -114 -55t-180 -26z" />
<glyph unicode="&#xba;" horiz-adv-x="780" d="M170 569l14 88h609l-13 -88h-610zM235 1130q18 112 41.5 180t66.5 115.5t107.5 66.5t164.5 19q91 0 149 -19t94.5 -64t41.5 -119.5t-10 -185.5q-16 -103 -38.5 -166.5t-65.5 -109.5t-109.5 -65t-169.5 -19q-179 0 -241 85.5t-31 281.5zM320.5 1021.5q-1.5 -43.5 7.5 -73 t23 -47.5t41.5 -27.5t55.5 -12.5t72 -3q42 0 68.5 2t57.5 10.5t51 26t40 46.5t34 75t24 108q10 66 13 112t-4.5 78.5t-20 51.5t-40 29.5t-57.5 14t-78 3.5q-46 0 -75 -2.5t-60 -12.5t-50 -29t-37.5 -51t-31 -79.5t-23.5 -114.5q-9 -61 -10.5 -104.5z" />
<glyph unicode="&#xbb;" horiz-adv-x="1134" d="M166 385l403 345l-286 336l86 75l361 -423l-491 -420zM557 385l404 344l-287 338l87 74l360 -423l-491 -420z" />
<glyph unicode="&#xbc;" horiz-adv-x="1861" d="M236 1301l10 65q46 0 94.5 14t84.5 34t66 40.5t45 34.5l16 14h94l-156 -979h-97l137 858q-38 -29 -114 -55t-180 -26zM378 0l1150 1577h97l-1150 -1577h-97zM1051 317l518 656h116l-461 -593h397l39 247l61 99h53l-55 -346h120l-11 -77l-125 -25l-44 -277h-97l44 277 h-528z" />
<glyph unicode="&#xbd;" horiz-adv-x="1990" d="M236 1301l10 65q46 0 94.5 14t84.5 34t66 40.5t45 34.5l16 14h94l-156 -979h-97l137 858q-38 -29 -114 -55t-180 -26zM332 0l1150 1577h97l-1150 -1577h-97zM1238 1l13 89q16 11 80.5 55.5t108 76t112 83.5t117 97.5t97.5 98t78.5 104t36.5 98.5q14 96 -18 142t-135 46 h-355q-2 0 0.5 18.5t6 36.5t4.5 17q214 25 378 25q55 0 98.5 -18.5t68 -48.5t41 -67.5t18 -75t-2.5 -71.5q-10 -68 -51 -141t-94 -131.5t-118.5 -117.5t-119 -98t-102 -74.5t-60.5 -46.5h446l-16 -97h-632z" />
<glyph unicode="&#xbe;" horiz-adv-x="2093" d="M156 548l11 64l361 1q180 0 204 155l7 47q12 77 -30.5 115.5t-112.5 40.5l-290 9l12 73l289 11q80 3 134.5 41t63.5 103l6 54q13 78 -22 110.5t-119 32.5h-386l10 66q53 16 120.5 23t134 7h148.5q117 -1 171.5 -69t40.5 -166l-13 -74q-11 -72 -56.5 -123.5t-91.5 -64.5 q42 -23 70.5 -73t18.5 -114l-9 -59q-19 -119 -85.5 -181t-211.5 -61q-108 0 -149.5 0.5t-109.5 8t-116 23.5zM584 0l1150 1577h97l-1150 -1577h-97zM1224 317l519 656h115l-463 -593h400l39 247l61 99h53l-55 -346h119l-12 -77l-123 -25l-44 -277h-98l45 277h-529z" />
<glyph unicode="&#xbf;" horiz-adv-x="1101" d="M55 -171l32 206q17 109 64.5 181t120.5 106t169.5 42.5t210.5 -9.5q0 1 17 102t16 106h120l-48 -305q-200 3 -267 0q-112 -2 -190 -56.5t-96 -167.5l-33 -207q-23 -146 36.5 -205.5t228.5 -59.5h541l-12 -79q-121 -15 -190.5 -22t-171 -11.5t-202.5 -1.5 q-206 -1 -289.5 105t-56.5 276zM708 801l18 121q6 39 45 39h83q18 0 28 -10.5t8 -28.5l-19 -121q-5 -42 -48 -42h-83q-37 0 -32 42z" />
<glyph unicode="&#xc0;" horiz-adv-x="1339" d="M92 0l792 1499h125l292 -1499h-119l-88 451h-633l-239 -451h-130zM523 569h548l-145 772zM670 1905h137l213 -273h-104z" />
<glyph unicode="&#xc1;" horiz-adv-x="1339" d="M92 0l792 1499h125l292 -1499h-119l-88 451h-633l-239 -451h-130zM523 569h548l-145 772zM916 1632l271 273h148l-315 -273h-104z" />
<glyph unicode="&#xc2;" horiz-adv-x="1339" d="M92 0l792 1499h125l292 -1499h-119l-88 451h-633l-239 -451h-130zM523 569h548l-145 772zM675 1632l293 266h112l180 -266h-101l-141 192l-221 -192h-122z" />
<glyph unicode="&#xc3;" horiz-adv-x="1339" d="M92 0l792 1499h125l292 -1499h-119l-88 451h-633l-239 -451h-130zM523 569h548l-145 772zM633 1709q57 43 89 64.5t78.5 42t85.5 20.5q40 -2 81.5 -25.5t76 -47t58.5 -23.5q39 -1 109 30.5t100 52.5l24 -62q-14 -10 -48.5 -35t-52 -36.5t-46 -27.5t-53 -22t-50.5 -6 q-35 0 -68 15.5t-53.5 33.5t-46.5 32.5t-50 14.5q-30 0 -61 -9t-48.5 -17.5t-52.5 -28.5t-49 -27z" />
<glyph unicode="&#xc4;" horiz-adv-x="1339" d="M92 0l792 1499h125l292 -1499h-119l-88 451h-633l-239 -451h-130zM523 569h548l-145 772zM638 1714q5 33 33.5 56.5t62.5 23.5t53 -23t14 -57t-32 -58t-61 -24t-54.5 24t-15.5 58zM1161 1714q5 34 33 57t62 23t53 -23t14 -57t-32 -58t-61 -24t-54 24t-15 58z" />
<glyph unicode="&#xc5;" horiz-adv-x="1339" d="M92 0l792 1499h125l292 -1499h-119l-88 451h-633l-239 -451h-130zM523 569h548l-145 772zM774 1704q10 88 78.5 149.5t154.5 61.5t139.5 -61.5t43.5 -149.5t-77 -148.5t-153 -60.5q-87 0 -141.5 61t-44.5 148zM848 1704q-7 -55 28 -94t91 -39q55 0 98.5 38.5t50.5 94.5 t-27.5 95.5t-89.5 39.5t-99.5 -39.5t-51.5 -95.5z" />
<glyph unicode="&#xc6;" horiz-adv-x="1867" d="M61 0l858 1228q54 78 104.5 130t92 80.5t94 42.5t92.5 16.5t107 1.5l614 -29l-14 -90h-619q-39 0 -66.5 -7t-43 -16.5t-26 -30.5t-14 -35.5t-8.5 -44.5q-2 -11 -3 -17l-69 -431l672 -17l-14 -90l-678 -17l-68 -425q-3 -20 -3.5 -37t2.5 -29.5t7.5 -23t12 -18t15 -13 t18.5 -9t20.5 -5.5t22.5 -3t22.5 -1.5t23.5 -0.5h595l-15 -88l-595 -30q-53 -3 -99 9t-84 39.5t-54.5 81.5t-5.5 127l36 238h-451l-342 -486h-137zM618 604h393l118 718z" />
<glyph unicode="&#xc7;" horiz-adv-x="1173" d="M217.5 570q3.5 91 19.5 189q25 153 55 263.5t77.5 208t112 157.5t157.5 94t214 34q75 0 217.5 -18t254.5 -40l-13 -90q-258 33 -473 30q-44 0 -77 -4t-77.5 -19t-79 -41.5t-73.5 -75t-69 -115t-58 -167t-48 -226.5q-26 -141 -21.5 -258t34.5 -201t95 -133t162 -53 q149 -5 491 20l-12 -91q-190 -46 -488 -46q-93 0 -165.5 30.5t-118 85.5t-74 127t-37.5 160t-5.5 179zM390 -354l9 56l98 24q59 12 88.5 58t43.5 141h104q-25 -159 -77.5 -219t-174.5 -60h-91z" />
<glyph unicode="&#xc8;" horiz-adv-x="1157" d="M200 148.5q-10 45.5 1 106.5l155 981q24 143 103 206t198 57l631 -29l-14 -89h-636q-77 0 -115 -38.5t-49 -109.5l-68 -428l692 -17l-15 -90l-696 -18l-69 -428q-6 -22 -3 -40t4 -32t9.5 -24.5t14.5 -17.5t19 -12t22 -7.5t24 -4t25.5 -2t25.5 -0.5h615l-15 -88l-621 -30 q-42 -2 -79.5 5t-71.5 25t-55.5 48.5t-31.5 76zM592 1894h137l213 -272h-104z" />
<glyph unicode="&#xc9;" horiz-adv-x="1157" d="M200 148.5q-10 45.5 1 106.5l155 981q24 143 103 206t198 57l631 -29l-14 -89h-636q-77 0 -115 -38.5t-49 -109.5l-68 -428l692 -17l-15 -90l-696 -18l-69 -428q-6 -22 -3 -40t4 -32t9.5 -24.5t14.5 -17.5t19 -12t22 -7.5t24 -4t25.5 -2t25.5 -0.5h615l-15 -88l-621 -30 q-42 -2 -79.5 5t-71.5 25t-55.5 48.5t-31.5 76zM822 1622l271 272h148l-315 -272h-104z" />
<glyph unicode="&#xca;" horiz-adv-x="1157" d="M200 148.5q-10 45.5 1 106.5l155 981q24 143 103 206t198 57l631 -29l-14 -89h-636q-77 0 -115 -38.5t-49 -109.5l-68 -428l692 -17l-15 -90l-696 -18l-69 -428q-6 -22 -3 -40t4 -32t9.5 -24.5t14.5 -17.5t19 -12t22 -7.5t24 -4t25.5 -2t25.5 -0.5h615l-15 -88l-621 -30 q-42 -2 -79.5 5t-71.5 25t-55.5 48.5t-31.5 76zM590 1622l293 268h111l180 -268h-106l-135 188l-216 -188h-127z" />
<glyph unicode="&#xcb;" horiz-adv-x="1157" d="M200 148.5q-10 45.5 1 106.5l155 981q24 143 103 206t198 57l631 -29l-14 -89h-636q-77 0 -115 -38.5t-49 -109.5l-68 -428l692 -17l-15 -90l-696 -18l-69 -428q-6 -22 -3 -40t4 -32t9.5 -24.5t14.5 -17.5t19 -12t22 -7.5t24 -4t25.5 -2t25.5 -0.5h615l-15 -88l-621 -30 q-42 -2 -79.5 5t-71.5 25t-55.5 48.5t-31.5 76zM540 1726q5 34 33 57.5t62 23.5t53 -23.5t14 -57.5t-32 -58t-61 -24t-54 24t-15 58zM1062 1726q5 34 33 57.5t62 23.5t53 -23.5t14 -57.5t-32 -58t-61 -24t-54 24t-15 58z" />
<glyph unicode="&#xcc;" horiz-adv-x="438" d="M184 0l238 1499h118l-238 -1499h-118zM204 1905h137l213 -273h-104z" />
<glyph unicode="&#xcd;" horiz-adv-x="438" d="M184 0l238 1499h118l-238 -1499h-118zM450 1632l272 273h148l-316 -273h-104z" />
<glyph unicode="&#xce;" horiz-adv-x="438" d="M184 0l238 1499h118l-238 -1499h-118zM210 1632l293 266h111l180 -266h-100l-142 192l-220 -192h-122z" />
<glyph unicode="&#xcf;" horiz-adv-x="438" d="M173 1714q5 34 33 57t62 23t53 -23t14 -57t-32 -58t-61 -24t-54 24t-15 58zM184 0l238 1499h118l-238 -1499h-118zM695 1714q5 34 33 57t62 23t53 -23t14 -57t-32 -58t-61 -24t-54 24t-15 58z" />
<glyph unicode="&#xd0;" horiz-adv-x="1378" d="M143 722l14 84h133l109 692q0 1 545 1q95 0 170 -28.5t122.5 -75t79.5 -111.5t45.5 -133.5t16.5 -145t-2.5 -141t-16.5 -126.5q-23 -130 -59 -239t-91 -203t-125.5 -158.5t-165 -101t-207.5 -36.5h-549l114 722h-133zM299 122h429q87 0 163.5 36t132.5 95.5t100.5 141 t72 168.5t43.5 182q53 324 -27 480t-289 156h-426l-90 -575h298l-14 -84h-298z" />
<glyph unicode="&#xd1;" horiz-adv-x="1339" d="M164 0l237 1499h116l606 -1281l203 1281h118l-238 -1499h-112l-608 1281l-203 -1281h-119zM599 1703q57 43 89 64.5t78.5 42t85.5 20.5q40 -2 81.5 -25.5t76 -47t58.5 -23.5q39 -1 109 30t100 52l24 -62q-13 -9 -48.5 -35t-52.5 -36.5t-46 -27t-53.5 -22.5t-50.5 -6 q-35 0 -68 15.5t-53 33.5t-46 32.5t-50 14.5q-30 0 -61 -9t-48.5 -17.5t-52.5 -28.5t-49 -27z" />
<glyph unicode="&#xd2;" horiz-adv-x="1376" d="M212.5 374q-4.5 72 1.5 165t24 205q27 173 63 300t84.5 210.5t99 135t124 77.5t141 34t167.5 8q83 0 143.5 -7t121 -27t99.5 -55t70 -92.5t42.5 -139t8 -195t-25.5 -258.5q-17 -110 -38.5 -200t-46 -161t-56 -126t-64.5 -95t-75 -69t-83 -46.5t-94 -28t-103.5 -14 t-114.5 -3.5q-63 0 -110.5 3.5t-99 13t-88 26.5t-72.5 46t-58.5 69t-39 96t-21 128zM327 500q-6 -100 8 -170.5t40 -113t77 -66.5t109 -32t146 -8q71 0 124 6.5t105.5 23.5t91.5 47t75.5 77t63.5 113.5t50.5 156t41.5 205.5q21 133 25.5 234t-1.5 170.5t-32.5 116.5 t-53.5 73t-79 39.5t-94 16.5t-113 3q-65 0 -102 -2t-89.5 -10t-83.5 -26t-71 -49t-66 -79t-54 -115.5t-49.5 -160.5t-40.5 -211q-22 -139 -28 -239zM639 1905h137l213 -273h-104z" />
<glyph unicode="&#xd3;" horiz-adv-x="1376" d="M212.5 374q-4.5 72 1.5 165t24 205q27 173 63 300t84.5 210.5t99 135t124 77.5t141 34t167.5 8q83 0 143.5 -7t121 -27t99.5 -55t70 -92.5t42.5 -139t8 -195t-25.5 -258.5q-17 -110 -38.5 -200t-46 -161t-56 -126t-64.5 -95t-75 -69t-83 -46.5t-94 -28t-103.5 -14 t-114.5 -3.5q-63 0 -110.5 3.5t-99 13t-88 26.5t-72.5 46t-58.5 69t-39 96t-21 128zM327 500q-6 -100 8 -170.5t40 -113t77 -66.5t109 -32t146 -8q71 0 124 6.5t105.5 23.5t91.5 47t75.5 77t63.5 113.5t50.5 156t41.5 205.5q21 133 25.5 234t-1.5 170.5t-32.5 116.5 t-53.5 73t-79 39.5t-94 16.5t-113 3q-65 0 -102 -2t-89.5 -10t-83.5 -26t-71 -49t-66 -79t-54 -115.5t-49.5 -160.5t-40.5 -211q-22 -139 -28 -239zM885 1632l271 273h148l-315 -273h-104z" />
<glyph unicode="&#xd4;" horiz-adv-x="1376" d="M212.5 374q-4.5 72 1.5 165t24 205q27 173 63 300t84.5 210.5t99 135t124 77.5t141 34t167.5 8q83 0 143.5 -7t121 -27t99.5 -55t70 -92.5t42.5 -139t8 -195t-25.5 -258.5q-17 -110 -38.5 -200t-46 -161t-56 -126t-64.5 -95t-75 -69t-83 -46.5t-94 -28t-103.5 -14 t-114.5 -3.5q-63 0 -110.5 3.5t-99 13t-88 26.5t-72.5 46t-58.5 69t-39 96t-21 128zM327 500q-6 -100 8 -170.5t40 -113t77 -66.5t109 -32t146 -8q71 0 124 6.5t105.5 23.5t91.5 47t75.5 77t63.5 113.5t50.5 156t41.5 205.5q21 133 25.5 234t-1.5 170.5t-32.5 116.5 t-53.5 73t-79 39.5t-94 16.5t-113 3q-65 0 -102 -2t-89.5 -10t-83.5 -26t-71 -49t-66 -79t-54 -115.5t-49.5 -160.5t-40.5 -211q-22 -139 -28 -239zM644 1632l293 266h112l180 -266h-101l-142 192l-220 -192h-122z" />
<glyph unicode="&#xd5;" horiz-adv-x="1376" d="M212.5 374q-4.5 72 1.5 165t24 205q27 173 63 300t84.5 210.5t99 135t124 77.5t141 34t167.5 8q83 0 143.5 -7t121 -27t99.5 -55t70 -92.5t42.5 -139t8 -195t-25.5 -258.5q-17 -110 -38.5 -200t-46 -161t-56 -126t-64.5 -95t-75 -69t-83 -46.5t-94 -28t-103.5 -14 t-114.5 -3.5q-63 0 -110.5 3.5t-99 13t-88 26.5t-72.5 46t-58.5 69t-39 96t-21 128zM327 500q-6 -100 8 -170.5t40 -113t77 -66.5t109 -32t146 -8q71 0 124 6.5t105.5 23.5t91.5 47t75.5 77t63.5 113.5t50.5 156t41.5 205.5q21 133 25.5 234t-1.5 170.5t-32.5 116.5 t-53.5 73t-79 39.5t-94 16.5t-113 3q-65 0 -102 -2t-89.5 -10t-83.5 -26t-71 -49t-66 -79t-54 -115.5t-49.5 -160.5t-40.5 -211q-22 -139 -28 -239zM602 1709q57 43 89 64.5t78.5 42t85.5 20.5q40 -2 81.5 -25.5t76 -47t58.5 -23.5q39 -1 109 30.5t100 52.5l24 -62 q-14 -10 -48.5 -35t-52 -36.5t-46 -27.5t-53 -22t-50.5 -6q-35 0 -68 15.5t-53.5 33.5t-46.5 32.5t-50 14.5q-30 0 -61 -9t-48.5 -17.5t-52.5 -28.5t-49 -27z" />
<glyph unicode="&#xd6;" horiz-adv-x="1376" d="M212.5 374q-4.5 72 1.5 165t24 205q27 173 63 300t84.5 210.5t99 135t124 77.5t141 34t167.5 8q83 0 143.5 -7t121 -27t99.5 -55t70 -92.5t42.5 -139t8 -195t-25.5 -258.5q-17 -110 -38.5 -200t-46 -161t-56 -126t-64.5 -95t-75 -69t-83 -46.5t-94 -28t-103.5 -14 t-114.5 -3.5q-63 0 -110.5 3.5t-99 13t-88 26.5t-72.5 46t-58.5 69t-39 96t-21 128zM327 500q-6 -100 8 -170.5t40 -113t77 -66.5t109 -32t146 -8q71 0 124 6.5t105.5 23.5t91.5 47t75.5 77t63.5 113.5t50.5 156t41.5 205.5q21 133 25.5 234t-1.5 170.5t-32.5 116.5 t-53.5 73t-79 39.5t-94 16.5t-113 3q-65 0 -102 -2t-89.5 -10t-83.5 -26t-71 -49t-66 -79t-54 -115.5t-49.5 -160.5t-40.5 -211q-22 -139 -28 -239zM607 1714q5 33 33.5 56.5t62.5 23.5t53 -23t14 -57t-32 -58t-61 -24t-54.5 24t-15.5 58zM1130 1714q5 34 33 57t62 23 t53 -23t14 -57t-32 -58t-61 -24t-54 24t-15 58z" />
<glyph unicode="&#xd7;" horiz-adv-x="927" d="M190 479l291 251l-209 250l88 76l210 -250l302 261l71 -85l-300 -261l213 -253l-91 -76l-211 253l-292 -251z" />
<glyph unicode="&#xd8;" horiz-adv-x="1376" d="M152 0l117 147q-103 168 -36 594q18 116 41 211t48 169t57 131t64 98t74.5 70t82.5 46t93.5 27t102 13t113.5 3q134 0 225.5 -20t150.5 -76l68 86h96l-115 -143q107 -173 38 -621q-19 -123 -43 -222t-55.5 -173.5t-65.5 -130.5t-78.5 -94t-88.5 -62.5t-102.5 -37.5 t-114 -18t-128.5 -5q-135 0 -226 19.5t-151 76.5l-71 -88h-96zM351 739q-56 -351 3 -487l853 1067q-45 46 -114 59.5t-186 13.5q-65 0 -102 -2t-89.5 -10t-83.5 -26t-71 -49t-66 -79t-54 -115.5t-49.5 -160.5t-40.5 -211zM396 186q43 -44 117 -60t192 -16q100 0 169 13.5 t133 52t107.5 108.5t79.5 181.5t61 273.5q58 368 -4 513z" />
<glyph unicode="&#xd9;" horiz-adv-x="1359" d="M244 430q1 90 19 201l137 868h119l-137 -868q-15 -98 -18 -174.5t4 -131.5t28 -94t48 -63t69 -37.5t85 -18t103 -4.5q84 0 146.5 12.5t121 46t100 91.5t74.5 151t53 222l137 868h119l-137 -868q-21 -130 -50 -226.5t-77 -177.5t-114.5 -131.5t-161.5 -78t-218 -27.5 q-71 0 -128 8t-110 27.5t-91 51t-66.5 81.5t-42 116t-12.5 156zM650 1905h137l213 -273h-105z" />
<glyph unicode="&#xda;" horiz-adv-x="1359" d="M244 430q1 90 19 201l137 868h119l-137 -868q-15 -98 -18 -174.5t4 -131.5t28 -94t48 -63t69 -37.5t85 -18t103 -4.5q84 0 146.5 12.5t121 46t100 91.5t74.5 151t53 222l137 868h119l-137 -868q-21 -130 -50 -226.5t-77 -177.5t-114.5 -131.5t-161.5 -78t-218 -27.5 q-71 0 -128 8t-110 27.5t-91 51t-66.5 81.5t-42 116t-12.5 156zM895 1632l272 273h148l-315 -273h-105z" />
<glyph unicode="&#xdb;" horiz-adv-x="1359" d="M244 430q1 90 19 201l137 868h119l-137 -868q-15 -98 -18 -174.5t4 -131.5t28 -94t48 -63t69 -37.5t85 -18t103 -4.5q84 0 146.5 12.5t121 46t100 91.5t74.5 151t53 222l137 868h119l-137 -868q-21 -130 -50 -226.5t-77 -177.5t-114.5 -131.5t-161.5 -78t-218 -27.5 q-71 0 -128 8t-110 27.5t-91 51t-66.5 81.5t-42 116t-12.5 156zM655 1632l293 266h112l180 -266h-101l-142 192l-220 -192h-122z" />
<glyph unicode="&#xdc;" horiz-adv-x="1359" d="M244 430q1 90 19 201l137 868h119l-137 -868q-15 -98 -18 -174.5t4 -131.5t28 -94t48 -63t69 -37.5t85 -18t103 -4.5q84 0 146.5 12.5t121 46t100 91.5t74.5 151t53 222l137 868h119l-137 -868q-21 -130 -50 -226.5t-77 -177.5t-114.5 -131.5t-161.5 -78t-218 -27.5 q-71 0 -128 8t-110 27.5t-91 51t-66.5 81.5t-42 116t-12.5 156zM618 1714q5 34 33 57t62 23t53.5 -23t14.5 -57t-32.5 -58t-61.5 -24t-54 24t-15 58zM1140 1714q5 33 33.5 56.5t62.5 23.5t53 -23t14 -57t-32 -58t-61 -24t-54.5 24t-15.5 58z" />
<glyph unicode="&#xdd;" horiz-adv-x="1288" d="M307 1499h125l282 -820l579 820h141l-679 -967l-84 -532h-117l84 532zM840 1632l271 273h148l-315 -273h-104z" />
<glyph unicode="&#xde;" horiz-adv-x="1134" d="M123 0q39 249 117.5 746.5t117.5 746.5h118l-45 -289h417q32 0 62 -5t64.5 -17.5t61.5 -34.5t53 -55t38.5 -79t18.5 -107.5t-6 -140.5q-12 -89 -33 -159t-46 -117t-60 -81t-66.5 -52t-74 -28.5t-74 -13t-74.5 -2.5q-314 4 -416 34l-55 -346h-118zM308 430h417 q47 0 82.5 7.5t70.5 29.5t60 59.5t46 99t35 146.5q7 47 7.5 87t-4 69.5t-14.5 53.5t-22 40t-28.5 27.5t-31.5 18t-33.5 10.5t-32.5 5.5t-31 1.5h-417z" />
<glyph unicode="&#xdf;" horiz-adv-x="1150" d="M123 0l184 1159q14 93 50.5 168.5t97 136t153.5 94t211 33.5q109 0 191 -22.5t127.5 -60t70 -87t23.5 -104t-17.5 -111t-47 -107t-70 -92t-83.5 -67.5q-25 -15 -67 -38t-66.5 -38t-52.5 -37t-44 -49t-21 -60q-6 -38 9 -64.5t45 -39t69.5 -24t81 -19t80 -23.5t67.5 -37 t42.5 -61t4.5 -95l-15 -98q-9 -61 -35.5 -109t-62 -78.5t-81.5 -50t-91 -27.5t-93 -8t-105 4.5t-93 9.5t-89 12.5t-64 9.5l13 92q25 0 151.5 -5.5t207.5 -5.5q94 0 151 49.5t70 119.5l14 82q5 31 -7 54t-36 36t-56.5 23t-69 18t-73 18t-68 26.5t-54.5 39.5t-33 61t-2 87 q11 73 38 117.5t82.5 85.5t181.5 113q58 33 102 93.5t59 127.5q28 123 -45.5 172.5t-241.5 49.5q-341 0 -391 -315l-184 -1159h-118z" />
<glyph unicode="&#xe0;" d="M163.5 383.5q3.5 83.5 20.5 186.5q16 94 40 171t51.5 130t63 94t68.5 65.5t74 41t74 24t74 12.5q117 15 274.5 -20.5t231.5 -106.5l-144 -981h-82l-14 123q-69 -46 -180.5 -91.5t-214.5 -45.5q-53 0 -95.5 6.5t-83.5 24t-70 45.5t-51 73t-31 105t-5.5 143.5zM295 511 q-34 -215 14 -311.5t185 -96.5q59 0 110 7t107 25t88.5 30.5t102.5 42.5l110 734q-223 74 -372 50q-56 -9 -95 -22.5t-80.5 -45.5t-70 -82t-54.5 -133t-45 -198zM435 1507h136l214 -272h-105z" />
<glyph unicode="&#xe1;" d="M163.5 383.5q3.5 83.5 20.5 186.5q16 94 40 171t51.5 130t63 94t68.5 65.5t74 41t74 24t74 12.5q117 15 274.5 -20.5t231.5 -106.5l-144 -981h-82l-14 123q-69 -46 -180.5 -91.5t-214.5 -45.5q-53 0 -95.5 6.5t-83.5 24t-70 45.5t-51 73t-31 105t-5.5 143.5zM295 511 q-34 -215 14 -311.5t185 -96.5q59 0 110 7t107 25t88.5 30.5t102.5 42.5l110 734q-223 74 -372 50q-56 -9 -95 -22.5t-80.5 -45.5t-70 -82t-54.5 -133t-45 -198zM694 1235l272 272h148l-316 -272h-104z" />
<glyph unicode="&#xe2;" d="M163.5 383.5q3.5 83.5 20.5 186.5q16 94 40 171t51.5 130t63 94t68.5 65.5t74 41t74 24t74 12.5q117 15 274.5 -20.5t231.5 -106.5l-144 -981h-82l-14 123q-69 -46 -180.5 -91.5t-214.5 -45.5q-53 0 -95.5 6.5t-83.5 24t-70 45.5t-51 73t-31 105t-5.5 143.5zM295 511 q-34 -215 14 -311.5t185 -96.5q59 0 110 7t107 25t88.5 30.5t102.5 42.5l110 734q-223 74 -372 50q-56 -9 -95 -22.5t-80.5 -45.5t-70 -82t-54.5 -133t-45 -198zM440 1235l293 266h112l180 -266h-101l-142 191l-220 -191h-122z" />
<glyph unicode="&#xe3;" d="M163.5 383.5q3.5 83.5 20.5 186.5q16 94 40 171t51.5 130t63 94t68.5 65.5t74 41t74 24t74 12.5q117 15 274.5 -20.5t231.5 -106.5l-144 -981h-82l-14 123q-69 -46 -180.5 -91.5t-214.5 -45.5q-53 0 -95.5 6.5t-83.5 24t-70 45.5t-51 73t-31 105t-5.5 143.5zM295 511 q-34 -215 14 -311.5t185 -96.5q59 0 110 7t107 25t88.5 30.5t102.5 42.5l110 734q-223 74 -372 50q-56 -9 -95 -22.5t-80.5 -45.5t-70 -82t-54.5 -133t-45 -198zM408 1312q57 42 89.5 64t79 42.5t85.5 20.5q40 -2 81.5 -25.5t75.5 -47t58 -23.5q39 -1 109.5 30.5t100.5 52.5 l24 -63q-13 -9 -48.5 -35t-52.5 -36.5t-46 -27t-53.5 -22.5t-50.5 -6q-35 0 -68 15.5t-53 33.5t-46 32.5t-50 14.5q-30 0 -61 -9t-48.5 -17.5t-52.5 -28.5t-49 -27z" />
<glyph unicode="&#xe4;" d="M163.5 383.5q3.5 83.5 20.5 186.5q16 94 40 171t51.5 130t63 94t68.5 65.5t74 41t74 24t74 12.5q117 15 274.5 -20.5t231.5 -106.5l-144 -981h-82l-14 123q-69 -46 -180.5 -91.5t-214.5 -45.5q-53 0 -95.5 6.5t-83.5 24t-70 45.5t-51 73t-31 105t-5.5 143.5zM295 511 q-34 -215 14 -311.5t185 -96.5q59 0 110 7t107 25t88.5 30.5t102.5 42.5l110 734q-223 74 -372 50q-56 -9 -95 -22.5t-80.5 -45.5t-70 -82t-54.5 -133t-45 -198zM403 1317q5 34 33 57t62 23t53 -23t14 -57t-32 -58t-61 -24t-54 24t-15 58zM925 1317q5 33 33.5 56.5 t62.5 23.5t53 -23t14 -57t-32 -58t-61 -24t-54.5 24t-15.5 58z" />
<glyph unicode="&#xe5;" d="M163.5 383.5q3.5 83.5 20.5 186.5q16 94 40 171t51.5 130t63 94t68.5 65.5t74 41t74 24t74 12.5q117 15 274.5 -20.5t231.5 -106.5l-144 -981h-82l-14 123q-69 -46 -180.5 -91.5t-214.5 -45.5q-53 0 -95.5 6.5t-83.5 24t-70 45.5t-51 73t-31 105t-5.5 143.5zM295 511 q-34 -215 14 -311.5t185 -96.5q59 0 110 7t107 25t88.5 30.5t102.5 42.5l110 734q-223 74 -372 50q-56 -9 -95 -22.5t-80.5 -45.5t-70 -82t-54.5 -133t-45 -198zM572 1444q10 88 78.5 149.5t154.5 61.5t139.5 -61.5t43.5 -149.5t-77 -148.5t-153 -60.5q-87 0 -141.5 61 t-44.5 148zM646 1444q-7 -55 28 -94t91 -39q55 0 98.5 38.5t50.5 94.5t-27.5 95.5t-89.5 39.5t-99.5 -39.5t-51.5 -95.5z" />
<glyph unicode="&#xe6;" horiz-adv-x="1888" d="M81.5 360q1.5 91 22.5 206q17 97 42.5 175.5t52.5 132.5t62.5 95t67.5 64.5t73.5 40t73 23t73.5 11.5q102 13 248.5 -18t234.5 -90q116 108 356 108q101 0 174.5 -16t127.5 -51t76 -97t11 -149q-12 -92 -59.5 -160t-114.5 -105t-148 -58t-160 -24t-150.5 1t-119 12.5 t-66.5 16.5q-32 -208 4.5 -292.5t162.5 -86.5q190 -11 503 34l-15 -88q-216 -59 -499 -59q-199 0 -258 150q-79 -55 -203.5 -102.5t-235.5 -47.5q-62 0 -111 10.5t-93 35t-72.5 68t-45 106.5t-15 154zM213 511q-35 -219 10 -313t189 -95q108 -1 230.5 34.5t192.5 83.5 q-19 124 20 348q23 123 48 207.5t63 147.5q-272 91 -408 68q-56 -9 -94.5 -22.5t-80 -45.5t-70.5 -82t-55 -133t-45 -198zM971 562q13 -2 36.5 -4.5t90.5 -5.5t129 0t139.5 16.5t135.5 39t102 73.5t54 114q9 60 -4 99.5t-51 60t-88 28t-128 7.5q-69 0 -124.5 -12 t-93.5 -27.5t-68.5 -49.5t-48 -59t-33.5 -75.5t-22.5 -80t-18.5 -89.5q-5 -23 -7 -35z" />
<glyph unicode="&#xe7;" horiz-adv-x="1015" d="M187 549q18 106 41.5 189t49 140.5t59 98.5t65 64.5t73 37t76.5 17.5t83 4q159 0 437 -56l-13 -83q-262 22 -444 22q-49 0 -81 -6.5t-68.5 -32t-62.5 -72.5t-52 -130.5t-47 -204.5q-17 -101 -18.5 -177t11 -124t39 -78t60.5 -41.5t80 -11.5q84 0 200.5 7.5t190.5 14.5 l75 7l-14 -88q-127 -34 -226.5 -46.5t-230.5 -11.5q-377 2 -283 561zM277 -353l9 56l99 24q59 17 89 61.5t43 137.5h103q-25 -159 -77.5 -219t-174.5 -60h-91z" />
<glyph unicode="&#xe8;" horiz-adv-x="1081" d="M181 569q14 79 27.5 133.5t34.5 115.5t47 101t65 79t88.5 61t117.5 35.5t152 13.5q208 0 310 -72t80 -241q-12 -92 -59.5 -160t-114.5 -105t-148.5 -58t-160.5 -24t-150.5 1t-119 12.5t-66.5 16.5q-32 -208 4.5 -292.5t162.5 -86.5q189 -11 502 34l-13 -88 q-216 -59 -500 -59q-194 0 -254 140.5t-5 442.5zM297 562q13 -2 36.5 -4.5t90.5 -5.5t129 0t139.5 16.5t135.5 39t102 73.5t54 114q9 60 -4 99.5t-51 60t-88 28t-128 7.5q-69 0 -124.5 -11t-94 -29t-68 -48t-47.5 -60t-32.5 -73t-23 -79.5t-18.5 -86.5q-5 -27 -8 -41z M435 1503h137l213 -272h-104z" />
<glyph unicode="&#xe9;" horiz-adv-x="1081" d="M181 569q14 79 27.5 133.5t34.5 115.5t47 101t65 79t88.5 61t117.5 35.5t152 13.5q208 0 310 -72t80 -241q-12 -92 -59.5 -160t-114.5 -105t-148.5 -58t-160.5 -24t-150.5 1t-119 12.5t-66.5 16.5q-32 -208 4.5 -292.5t162.5 -86.5q189 -11 502 34l-13 -88 q-216 -59 -500 -59q-194 0 -254 140.5t-5 442.5zM297 562q13 -2 36.5 -4.5t90.5 -5.5t129 0t139.5 16.5t135.5 39t102 73.5t54 114q9 60 -4 99.5t-51 60t-88 28t-128 7.5q-69 0 -124.5 -11t-94 -29t-68 -48t-47.5 -60t-32.5 -73t-23 -79.5t-18.5 -86.5q-5 -27 -8 -41z M681 1231l272 272h148l-316 -272h-104z" />
<glyph unicode="&#xea;" horiz-adv-x="1081" d="M181 569q14 79 27.5 133.5t34.5 115.5t47 101t65 79t88.5 61t117.5 35.5t152 13.5q208 0 310 -72t80 -241q-12 -92 -59.5 -160t-114.5 -105t-148.5 -58t-160.5 -24t-150.5 1t-119 12.5t-66.5 16.5q-32 -208 4.5 -292.5t162.5 -86.5q189 -11 502 34l-13 -88 q-216 -59 -500 -59q-194 0 -254 140.5t-5 442.5zM297 562q13 -2 36.5 -4.5t90.5 -5.5t129 0t139.5 16.5t135.5 39t102 73.5t54 114q9 60 -4 99.5t-51 60t-88 28t-128 7.5q-69 0 -124.5 -11t-94 -29t-68 -48t-47.5 -60t-32.5 -73t-23 -79.5t-18.5 -86.5q-5 -27 -8 -41z M441 1231l293 266h111l181 -266h-101l-142 191l-220 -191h-122z" />
<glyph unicode="&#xeb;" horiz-adv-x="1081" d="M181 569q14 79 27.5 133.5t34.5 115.5t47 101t65 79t88.5 61t117.5 35.5t152 13.5q208 0 310 -72t80 -241q-12 -92 -59.5 -160t-114.5 -105t-148.5 -58t-160.5 -24t-150.5 1t-119 12.5t-66.5 16.5q-32 -208 4.5 -292.5t162.5 -86.5q189 -11 502 34l-13 -88 q-216 -59 -500 -59q-194 0 -254 140.5t-5 442.5zM297 562q13 -2 36.5 -4.5t90.5 -5.5t129 0t139.5 16.5t135.5 39t102 73.5t54 114q9 60 -4 99.5t-51 60t-88 28t-128 7.5q-69 0 -124.5 -11t-94 -29t-68 -48t-47.5 -60t-32.5 -73t-23 -79.5t-18.5 -86.5q-5 -27 -8 -41z M404 1313q5 34 33 57t62 23t53 -23t14 -57t-32 -58t-61 -24t-54 24t-15 58zM926 1313q5 34 33 57t62 23t53.5 -23t14.5 -57t-32.5 -58t-61.5 -24t-54 24t-15 58z" />
<glyph unicode="&#xec;" horiz-adv-x="378" d="M49 1493h137l213 -272h-104zM123 0l172 1087h118l-172 -1087h-118z" />
<glyph unicode="&#xed;" horiz-adv-x="378" d="M123 0l172 1087h118l-172 -1087h-118zM292 1221l272 272h148l-316 -272h-104z" />
<glyph unicode="&#xee;" horiz-adv-x="378" d="M49 1221l293 266h111l181 -266h-101l-142 191l-220 -191h-122zM123 0l172 1087h118l-172 -1087h-118z" />
<glyph unicode="&#xef;" horiz-adv-x="378" d="M7 1303q5 34 33 57t62 23t53 -23t14 -57t-32 -58t-61 -24t-54 24t-15 58zM123 0l172 1087h118l-172 -1087h-118zM529 1303q5 34 33 57t62 23t53 -23t14 -57t-32 -58t-61 -24t-54 24t-15 58z" />
<glyph unicode="&#xf0;" horiz-adv-x="1105" d="M144.5 324q-4.5 98 17.5 212q48 291 148 421t300 130h189q51 0 108 -20.5t73 -44.5q-23 215 -118 329l-327 -122l-22 91l269 102q-114 81 -294 78l16 104q267 -1 410 -135l264 99l25 -92l-222 -81q58 -84 90 -199.5t35.5 -239t-3.5 -224.5t-23 -204q-45 -282 -148.5 -405 t-297.5 -123h-196q-102 0 -168.5 41t-93.5 113t-31.5 170zM262.5 351.5q-0.5 -75.5 12.5 -120.5t41 -71t60.5 -34t78.5 -7h195q124 -1 200 93.5t112 319.5q21 141 20 238t-49 148.5t-151 51.5h-185q-48 0 -85.5 -10.5t-74 -39t-64 -77t-51.5 -126.5t-42 -185 q-17 -105 -17.5 -180.5z" />
<glyph unicode="&#xf1;" d="M123 0l172 1087h81l16 -126q86 47 141 73t138 49t161 23q155 0 229 -102.5t51 -245.5l-121 -758h-117l121 758q17 107 -33 168.5t-149 61.5q-117 0 -204 -26t-231 -93l-137 -869h-118zM417 1306q57 42 89.5 64t79 42.5t85.5 20.5q40 -2 81.5 -25.5t75.5 -47t58 -23.5 q39 -1 109.5 30.5t100.5 52.5l24 -63q-13 -9 -48.5 -35t-52.5 -37t-46 -27t-53.5 -22t-50.5 -6q-35 0 -68 15.5t-53 33.5t-46 32.5t-50 14.5q-30 0 -61 -9t-48.5 -17.5t-52.5 -28.5t-49 -27z" />
<glyph unicode="&#xf2;" horiz-adv-x="1150" d="M184 533q27 169 67 276t107.5 172.5t157 91t223.5 25.5q255 0 343 -140t40 -434q-26 -155 -62.5 -253.5t-100 -163t-153 -91t-224.5 -26.5q-265 0 -354.5 124.5t-43.5 418.5zM285.5 401q-3.5 -56 2 -98.5t16.5 -74t32 -52.5t44 -35t58 -21t68.5 -9.5t80.5 -2.5 q64 0 107.5 5t88.5 20t76 43.5t59.5 75t49 114.5t36.5 162q16 95 18.5 166t-9.5 121t-34 82t-61 50.5t-84.5 25.5t-109.5 7q-55 0 -94 -3.5t-80 -14.5t-70 -31t-57.5 -53t-49.5 -81.5t-39 -115t-33 -153.5q-12 -71 -15.5 -127zM461 1493h137l213 -272h-105z" />
<glyph unicode="&#xf3;" horiz-adv-x="1150" d="M184 533q27 169 67 276t107.5 172.5t157 91t223.5 25.5q255 0 343 -140t40 -434q-26 -155 -62.5 -253.5t-100 -163t-153 -91t-224.5 -26.5q-265 0 -354.5 124.5t-43.5 418.5zM285.5 401q-3.5 -56 2 -98.5t16.5 -74t32 -52.5t44 -35t58 -21t68.5 -9.5t80.5 -2.5 q64 0 107.5 5t88.5 20t76 43.5t59.5 75t49 114.5t36.5 162q16 95 18.5 166t-9.5 121t-34 82t-61 50.5t-84.5 25.5t-109.5 7q-55 0 -94 -3.5t-80 -14.5t-70 -31t-57.5 -53t-49.5 -81.5t-39 -115t-33 -153.5q-12 -71 -15.5 -127zM706 1221l272 272h148l-315 -272h-105z" />
<glyph unicode="&#xf4;" horiz-adv-x="1150" d="M184 533q27 169 67 276t107.5 172.5t157 91t223.5 25.5q255 0 343 -140t40 -434q-26 -155 -62.5 -253.5t-100 -163t-153 -91t-224.5 -26.5q-265 0 -354.5 124.5t-43.5 418.5zM285.5 401q-3.5 -56 2 -98.5t16.5 -74t32 -52.5t44 -35t58 -21t68.5 -9.5t80.5 -2.5 q64 0 107.5 5t88.5 20t76 43.5t59.5 75t49 114.5t36.5 162q16 95 18.5 166t-9.5 121t-34 82t-61 50.5t-84.5 25.5t-109.5 7q-55 0 -94 -3.5t-80 -14.5t-70 -31t-57.5 -53t-49.5 -81.5t-39 -115t-33 -153.5q-12 -71 -15.5 -127zM466 1221l293 266h112l180 -266h-101l-142 191 l-220 -191h-122z" />
<glyph unicode="&#xf5;" horiz-adv-x="1150" d="M184 533q27 169 67 276t107.5 172.5t157 91t223.5 25.5q255 0 343 -140t40 -434q-26 -155 -62.5 -253.5t-100 -163t-153 -91t-224.5 -26.5q-265 0 -354.5 124.5t-43.5 418.5zM285.5 401q-3.5 -56 2 -98.5t16.5 -74t32 -52.5t44 -35t58 -21t68.5 -9.5t80.5 -2.5 q64 0 107.5 5t88.5 20t76 43.5t59.5 75t49 114.5t36.5 162q16 95 18.5 166t-9.5 121t-34 82t-61 50.5t-84.5 25.5t-109.5 7q-55 0 -94 -3.5t-80 -14.5t-70 -31t-57.5 -53t-49.5 -81.5t-39 -115t-33 -153.5q-12 -71 -15.5 -127zM424 1298q57 43 89 64.5t78.5 42t85.5 20.5 q40 -2 81.5 -25.5t76 -47t58.5 -23.5q39 -1 109 30t100 52l24 -62q-13 -9 -48.5 -35t-52.5 -37t-46 -27t-53.5 -22t-50.5 -6q-35 0 -68 15.5t-53 33.5t-46 32.5t-50 14.5q-30 0 -61 -9t-48.5 -17.5t-52.5 -28.5t-49 -27z" />
<glyph unicode="&#xf6;" horiz-adv-x="1150" d="M184 533q27 169 67 276t107.5 172.5t157 91t223.5 25.5q255 0 343 -140t40 -434q-26 -155 -62.5 -253.5t-100 -163t-153 -91t-224.5 -26.5q-265 0 -354.5 124.5t-43.5 418.5zM285.5 401q-3.5 -56 2 -98.5t16.5 -74t32 -52.5t44 -35t58 -21t68.5 -9.5t80.5 -2.5 q64 0 107.5 5t88.5 20t76 43.5t59.5 75t49 114.5t36.5 162q16 95 18.5 166t-9.5 121t-34 82t-61 50.5t-84.5 25.5t-109.5 7q-55 0 -94 -3.5t-80 -14.5t-70 -31t-57.5 -53t-49.5 -81.5t-39 -115t-33 -153.5q-12 -71 -15.5 -127zM429 1303q5 34 33 57t62 23t53.5 -23t14.5 -57 t-32.5 -58t-61.5 -24t-54 24t-15 58zM952 1303q5 34 33 57t62 23t53 -23t14 -57t-32 -58t-61 -24t-54 24t-15 58z" />
<glyph unicode="&#xf7;" horiz-adv-x="1083" d="M205 664l19 118h852l-19 -118h-852zM508 345l16 102q2 20 15 31.5t33 11.5h77q37 0 32 -43l-17 -102q-5 -40 -45 -40h-76q-18 0 -27.5 11t-7.5 29zM609 982l15 103q5 42 48 42h77q37 0 32 -42l-15 -103q-2 -19 -14.5 -29t-31.5 -10h-76q-18 0 -27.5 10.5t-7.5 28.5z" />
<glyph unicode="&#xf8;" horiz-adv-x="1142" d="M104 0l110 123q-81 121 -34 413q27 168 67 275t107.5 172t157 90t223.5 25q188 0 284 -75l58 64h102l-107 -118q98 -135 46 -446q-20 -124 -47.5 -210t-68 -150t-100 -101t-137 -54.5t-185.5 -17.5q-219 0 -316 81l-64 -71h-96zM298 528q-35 -213 4 -306l636 710 q-62 48 -218 48q-55 0 -94 -3.5t-80 -14.5t-69.5 -31t-57 -53t-49.5 -81.5t-39 -115t-33 -153.5zM346 162q35 -32 92 -43t145 -11q54 0 93 3.5t79.5 13.5t69.5 29t57.5 49.5t49 75.5t38.5 106.5t31 142.5q41 246 -11 348z" />
<glyph unicode="&#xf9;" horiz-adv-x="1107" d="M155 330l119 758h118l-119 -758q-18 -115 31.5 -172.5t150.5 -57.5q117 0 203.5 26t230.5 93l136 869h118l-172 -1087h-81l-16 127q-65 -36 -105 -55.5t-99.5 -44t-117 -35.5t-116.5 -11q-157 0 -231 99.5t-50 248.5zM432 1493h137l213 -272h-104z" />
<glyph unicode="&#xfa;" horiz-adv-x="1107" d="M155 330l119 758h118l-119 -758q-18 -115 31.5 -172.5t150.5 -57.5q117 0 203.5 26t230.5 93l136 869h118l-172 -1087h-81l-16 127q-65 -36 -105 -55.5t-99.5 -44t-117 -35.5t-116.5 -11q-157 0 -231 99.5t-50 248.5zM678 1221l272 272h147l-315 -272h-104z" />
<glyph unicode="&#xfb;" horiz-adv-x="1107" d="M155 330l119 758h118l-119 -758q-18 -115 31.5 -172.5t150.5 -57.5q117 0 203.5 26t230.5 93l136 869h118l-172 -1087h-81l-16 127q-65 -36 -105 -55.5t-99.5 -44t-117 -35.5t-116.5 -11q-157 0 -231 99.5t-50 248.5zM438 1221l293 266h111l180 -266h-100l-142 191 l-220 -191h-122z" />
<glyph unicode="&#xfc;" horiz-adv-x="1107" d="M155 330l119 758h118l-119 -758q-18 -115 31.5 -172.5t150.5 -57.5q117 0 203.5 26t230.5 93l136 869h118l-172 -1087h-81l-16 127q-65 -36 -105 -55.5t-99.5 -44t-117 -35.5t-116.5 -11q-157 0 -231 99.5t-50 248.5zM401 1303q5 34 33 57t62 23t53 -23t14 -57t-32 -58 t-61 -24t-54 24t-15 58zM923 1303q5 34 33 57t62 23t53 -23t14 -57t-32 -58t-61 -24t-54 24t-15 58z" />
<glyph unicode="&#xfd;" horiz-adv-x="1114" d="M193 1087h121l144 -849q17 -99 110 -114q32 -5 47 -1l404 805q39 78 53 167h94q27 -89 -26 -194l-447 -899q-29 -57 -50.5 -97t-57 -100t-65 -102t-69.5 -90t-78 -79.5t-83 -55t-90 -29.5v82q26 12 52 31t51.5 46.5t47.5 53.5t46.5 63t40.5 62t38 65t31.5 57t27.5 52.5 t20 38.5q-19 0 -38.5 4t-49.5 17.5t-54.5 36.5t-46.5 66t-31 101zM644 1210l271 273h148l-315 -273h-104z" />
<glyph unicode="&#xfe;" horiz-adv-x="1112" d="M55 -553l342 2155h118l-102 -637q58 38 200 89.5t235 51.5q62 0 111 -24t81 -65.5t53 -96t29 -118.5t7 -129.5t-11 -131.5q-7 -46 -13 -80t-17.5 -83t-24 -85.5t-32 -80t-42.5 -75t-55.5 -63t-70.5 -51t-87 -31.5t-106 -12q-79 0 -197.5 21t-203.5 58l-96 -612h-118z M285 151q75 -22 149 -34t118 -14.5t129 -5.5q122 0 202.5 104t115.5 350q30 213 -17.5 328.5t-155.5 110.5q-64 -2 -147.5 -22t-133.5 -37t-145 -51z" />
<glyph unicode="&#xff;" horiz-adv-x="1114" d="M193 1087h121l144 -849q17 -99 110 -114q32 -5 47 -1l404 805q39 78 53 167h94q27 -89 -26 -194l-447 -899q-29 -57 -50.5 -97t-57 -100t-65 -102t-69.5 -90t-78 -79.5t-83 -55t-90 -29.5v82q26 12 52 31t51.5 46.5t47.5 53.5t46.5 63t40.5 62t38 65t31.5 57t27.5 52.5 t20 38.5q-19 0 -38.5 4t-49.5 17.5t-54.5 36.5t-46.5 66t-31 101zM371 1315q5 34 33 57t62 23t53 -23t14 -57t-32 -58t-61 -24t-54 24t-15 58zM893 1315q5 34 33 57t62 23t53 -23t14 -57t-32 -58t-61 -24t-54 24t-15 58z" />
<glyph unicode="&#x152;" horiz-adv-x="2168" d="M196.5 374q-4.5 72 1.5 165t24 205q27 173 63 300t84.5 210.5t99 135t124 77.5t141 34t167.5 8q88 0 151 -8t122.5 -30t100.5 -65.5t66 -109.5q53 213 283 203l610 -29l-14 -89h-615q-77 0 -115 -38.5t-49 -109.5l-67 -428l670 -17l-14 -90l-677 -18l-68 -428 q-6 -22 -3 -40t4 -32t9.5 -24.5t14.5 -17.5t18.5 -12t21.5 -7.5t24 -4t25.5 -2t25.5 -0.5h595l-15 -88l-599 -30q-98 -5 -165 40.5t-70 147.5q-80 -113 -194 -151.5t-292 -38.5q-63 0 -110.5 3.5t-99 13t-88 26.5t-72.5 46t-58.5 69t-39 96t-21 128zM312 500 q-6 -100 8 -170.5t40 -113t77 -66.5t109 -32t146 -8q100 0 169 13.5t133.5 52t108 108.5t79.5 181.5t61 273.5q21 133 25.5 234t-1.5 170.5t-32.5 116.5t-53.5 73t-79 39.5t-94 16.5t-113 3q-64 0 -101.5 -2t-89.5 -10t-83.5 -26t-71 -49t-65.5 -79t-54 -115.5t-49.5 -160.5 t-40.5 -211q-22 -139 -28 -239z" />
<glyph unicode="&#x153;" horiz-adv-x="1925" d="M173 537q27 168 67 275t107.5 171.5t157 89.5t223.5 25q156 0 246.5 -52t125.5 -158q56 109 159 164t279 56q101 0 175 -15.5t127.5 -51t75.5 -97.5t11 -149q-12 -92 -59.5 -160t-114.5 -105t-148 -58t-160 -24t-150.5 1t-119 12.5t-66.5 16.5q-35 -205 3 -291.5 t163 -87.5q255 -2 503 34l-13 -88q-216 -59 -501 -59q-112 0 -177 46.5t-89 143.5q-61 -100 -161.5 -143t-265.5 -43q-264 0 -354 126.5t-44 420.5zM274.5 401q-3.5 -56 2 -98.5t16.5 -74t32 -52.5t44 -35t58 -21t68.5 -9.5t80.5 -2.5q64 0 107.5 5t88.5 20t76 43.5t59.5 75 t49 114.5t36.5 162q16 95 18.5 166t-9.5 121t-34 82t-61 50.5t-84.5 25.5t-109.5 7q-55 0 -94 -3.5t-80 -14.5t-70 -31t-57.5 -53t-49.5 -81.5t-39 -115t-33 -153.5q-12 -71 -15.5 -127zM1122 562l30 -3t72.5 -6t106 -2t119 7t123.5 22.5t109 43t84.5 69.5t42.5 102 q9 60 -4 99.5t-51 60t-88 28t-128 7.5q-55 0 -101 -7.5t-81.5 -18.5t-65 -32t-50 -40.5t-38.5 -52.5t-28.5 -59t-21 -68t-16.5 -71.5t-14 -78.5z" />
<glyph unicode="&#x178;" horiz-adv-x="1288" d="M248 1499h125l282 -820l579 820h141l-679 -967l-84 -532h-117l84 532zM503 1708q5 34 33 57t62 23t53 -23t14 -57t-32.5 -58.5t-60.5 -24.5q-34 0 -54 24.5t-15 58.5zM1025 1708q5 34 33 57t62 23t53 -23t14 -57t-32.5 -58.5t-60.5 -24.5q-34 0 -54 24.5t-15 58.5z" />
<glyph unicode="&#x2c6;" horiz-adv-x="679" d="M135 1087l293 267h112l180 -267h-101l-142 192l-220 -192h-122z" />
<glyph unicode="&#x2dc;" horiz-adv-x="942" d="M274 1171q57 42 89.5 64t79 42.5t85.5 20.5q40 -2 81.5 -25.5t75.5 -47t58 -23.5q39 -1 109.5 30.5t100.5 52.5l24 -62q-13 -9 -48.5 -35t-52.5 -37t-46 -27t-53.5 -22t-50.5 -6q-35 0 -68 15.5t-53 33.5t-46 32.5t-50 14.5q-30 0 -61 -9t-48.5 -17.5t-52.5 -28.5 t-49 -27z" />
<glyph unicode="&#x2000;" horiz-adv-x="957" />
<glyph unicode="&#x2001;" horiz-adv-x="1915" />
<glyph unicode="&#x2002;" horiz-adv-x="957" />
<glyph unicode="&#x2003;" horiz-adv-x="1915" />
<glyph unicode="&#x2004;" horiz-adv-x="638" />
<glyph unicode="&#x2005;" horiz-adv-x="478" />
<glyph unicode="&#x2006;" horiz-adv-x="319" />
<glyph unicode="&#x2007;" horiz-adv-x="319" />
<glyph unicode="&#x2008;" horiz-adv-x="239" />
<glyph unicode="&#x2009;" horiz-adv-x="383" />
<glyph unicode="&#x200a;" horiz-adv-x="106" />
<glyph unicode="&#x2010;" horiz-adv-x="710" d="M123 535l19 118h623l-19 -118h-623z" />
<glyph unicode="&#x2011;" horiz-adv-x="710" d="M123 535l19 118h623l-19 -118h-623z" />
<glyph unicode="&#x2012;" horiz-adv-x="710" d="M123 535l19 118h623l-19 -118h-623z" />
<glyph unicode="&#x2013;" horiz-adv-x="917" d="M123 529l19 120h969l-19 -120h-969z" />
<glyph unicode="&#x2014;" horiz-adv-x="1509" d="M121 533l19 120h1425l-19 -120h-1425z" />
<glyph unicode="&#x2018;" horiz-adv-x="483" d="M337 1149l32 206q8 49 31 82t50 44t52.5 15.5t42.5 1.5l17 -2l-9 -53q-61 2 -70 -60l-9 -63h21q21 0 32.5 -12t7.5 -36l-19 -123q-7 -52 -57 -52h-85q-46 0 -37 52z" />
<glyph unicode="&#x2019;" horiz-adv-x="483" d="M339 1099l9 54q59 -2 68 59l10 62h-22q-21 0 -32.5 12.5t-7.5 36.5l22 124q7 52 55 52h85q47 0 38 -52l-34 -207q-8 -49 -30.5 -82t-49.5 -44t-52 -15.5t-42 -2.5z" />
<glyph unicode="&#x201a;" horiz-adv-x="483" d="M135 -178l9 53q59 -2 68 61l10 63h-21q-21 0 -32.5 12t-7.5 36l20 124q7 52 56 52h84q48 0 39 -52l-33 -206q-8 -49 -31 -82t-49.5 -44.5t-52 -16.5t-42.5 -2z" />
<glyph unicode="&#x201c;" horiz-adv-x="739" d="M324 1149l32 206q8 49 30.5 82t49.5 44t52 15.5t42 1.5l17 -2l-8 -53q-60 2 -69 -60l-9 -63h20q21 0 33 -12t8 -36l-19 -123q-7 -52 -58 -52h-84q-46 0 -37 52zM609 1149l31 206q8 49 31 82t49.5 44t52 15.5t42.5 1.5l17 -2l-8 -53q-60 2 -69 -60l-10 -63h21 q21 0 32.5 -12t7.5 -36l-19 -123q-7 -52 -57 -52h-84q-46 0 -37 52z" />
<glyph unicode="&#x201d;" horiz-adv-x="739" d="M325 1099l9 54q26 -1 42 10.5t19.5 22t5.5 26.5l10 62h-21q-21 0 -32.5 12.5t-7.5 36.5l21 124q7 52 55 52h85q47 0 38 -52l-33 -207q-8 -49 -30.5 -82t-49.5 -44t-52 -15.5t-42 -2.5zM609 1099l9 54q59 -2 68 59l10 62h-21q-21 0 -33 12.5t-8 36.5l21 124q7 52 56 52h85 q47 0 38 -52l-33 -207q-8 -49 -31 -82t-49.5 -44t-52 -15.5t-42.5 -2.5z" />
<glyph unicode="&#x201e;" horiz-adv-x="739" d="M121 -175l9 53q20 -1 34 5t20.5 17.5t8.5 19.5t4 19l10 62h-21q-21 0 -32.5 12.5t-7.5 36.5l21 123q8 53 56 53h84q47 0 38 -53l-33 -206q-8 -49 -30.5 -82t-49.5 -44.5t-52 -16t-42 -2.5zM405 -175l9 53q59 -2 68 61l10 62h-21q-21 0 -32.5 12.5t-7.5 36.5l20 123 q8 53 56 53h85q47 0 38 -53l-33 -206q-8 -49 -31 -82t-49.5 -44.5t-52 -16t-42.5 -2.5z" />
<glyph unicode="&#x2022;" horiz-adv-x="651" d="M285 715l19 130q5 33 26 52.5t54 19.5h117q70 0 60 -72l-19 -130q-11 -65 -84 -65h-118q-31 0 -45.5 17t-9.5 48z" />
<glyph unicode="&#x2026;" horiz-adv-x="1544" d="M299 40l20 120q6 42 47 42h81q41 0 35 -42l-20 -120q-7 -40 -47 -40h-81q-18 0 -27.5 11t-7.5 29zM856 40l20 120q6 42 48 42h80q41 0 35 -42l-20 -120q-7 -40 -47 -40h-80q-18 0 -28 11t-8 29zM1412 40l19 120q6 42 48 42h81q41 0 35 -42l-20 -120q-7 -40 -48 -40h-80 q-18 0 -27.5 11t-7.5 29z" />
<glyph unicode="&#x202f;" horiz-adv-x="383" />
<glyph unicode="&#x2039;" horiz-adv-x="600" d="M78 725l487 416l74 -85l-402 -342l291 -340l-86 -75z" />
<glyph unicode="&#x203a;" horiz-adv-x="745" d="M217 385l405 344l-288 338l85 74l362 -423l-491 -419z" />
<glyph unicode="&#x205f;" horiz-adv-x="478" />
<glyph unicode="&#x20ac;" horiz-adv-x="1476" d="M143 534l11 74l184 11l37 234l-178 13l11 68l181 15q22 144 49 218q122 349 520 349q77 0 221 -17t252 -38l-14 -91q-34 3 -90 8t-183.5 12.5t-202.5 7.5q-69 0 -126 -13.5t-98 -35t-73.5 -57t-53 -70.5t-37.5 -84.5t-26.5 -91t-19.5 -97.5l512 -12l-11 -72l-515 -12 l-37 -234l509 -12l-11 -74q-33 -1 -87 -1.5t-167.5 -2.5t-188 -4.5t-72.5 -3.5q-72 -413 296 -416q92 -1 215.5 7t201.5 16l78 9l-15 -87q-244 -62 -494 -62q-26 0 -51.5 2.5t-57.5 7.5t-61 16t-60 26t-56.5 38t-49 51.5t-39.5 68t-25.5 86.5t-9.5 107.5t11 129.5z" />
<glyph unicode="&#x2122;" horiz-adv-x="1298" d="M96 1402l15 97h531l-15 -97h-216l-97 -618h-98l98 618h-218zM609 784l168 715h86l142 -552l286 552h102l-49 -715h-96l35 492l-257 -492h-79l-127 494l-114 -494h-97z" />
<glyph unicode="&#x25fc;" horiz-adv-x="1085" d="M0 0v1085h1085v-1085h-1085z" />
<glyph unicode="&#xfb03;" horiz-adv-x="1982" d="M188 970l14 86l207 31l29 183q5 31 9.5 53.5t15.5 58.5t24.5 61.5t37 55t52.5 47.5t71.5 30.5t93.5 12.5q106 0 256 -43l-12 -76l-238 4q-92 2 -133.5 -47.5t-59.5 -156.5l-31 -183h623l16 109q30 192 151 303t303 111q213 0 370 -45l-12 -76l-347 5q-60 1 -113 -13 t-102 -46.5t-84 -93.5t-48 -145l-16 -109l740 -18l-169 -1069h-119l153 970h-627l-153 -970h-118l153 970h-620l-153 -970h-118l153 970h-199z" />
<glyph unicode="&#xfb04;" horiz-adv-x="2222" d="M188 970l14 86l207 31l29 183q5 32 9.5 54t15.5 58t24.5 61.5t37 55t52 47.5t71 30.5t93.5 12.5q107 0 257 -43l-12 -76l-238 4q-92 2 -133.5 -47.5t-59.5 -156.5l-31 -183h620l17 112q14 87 42 157.5t74.5 128.5t117.5 90.5t162 34.5h534l-192 -1221q-10 -66 -10 -113 t6.5 -73.5t24 -44.5t33.5 -24.5t43 -13.5q153 -36 167 -36l-13 -82h-166q-141 0 -188.5 88.5t-14.5 298.5l173 1106h-387q-116 0 -189.5 -67t-99.5 -232l-16 -109h300l-19 -117h-303l-153 -970h-118l153 970h-617l-153 -970h-118l153 970h-199z" />
</font>
</defs>
</svg>
