<?xml version="1.0" standalone="no"?>
<!DOCTYPE svg PUBLIC "-//W3C//DTD SVG 1.1//EN" "http://www.w3.org/Graphics/SVG/1.1/DTD/svg11.dtd" >
<svg xmlns="http://www.w3.org/2000/svg">
<metadata></metadata>
<defs>
<font id="ostrich_sansheavy" horiz-adv-x="831" >
<font-face units-per-em="2048" ascent="1638" descent="-410" />
<missing-glyph horiz-adv-x="430" />
<glyph horiz-adv-x="0" />
<glyph horiz-adv-x="682" />
<glyph unicode="&#xd;" horiz-adv-x="430" />
<glyph unicode=" "  horiz-adv-x="430" />
<glyph unicode="&#x09;" horiz-adv-x="430" />
<glyph unicode="&#xa0;" horiz-adv-x="430" />
<glyph unicode="!" horiz-adv-x="292" d="M-12 76v78q0 31 21 52t50 21h58q31 0 52 -21t21 -52v-78q0 -31 -21 -52.5t-52 -21.5h-58q-29 0 -50 21.5t-21 52.5zM-12 356v953q0 31 21 52t50 21h58q31 0 52 -21t21 -52v-953q0 -30 -21.5 -51.5t-51.5 -21.5h-58q-29 0 -50 22t-21 51z" />
<glyph unicode="&#x22;" horiz-adv-x="434" d="M-8 1147v160q0 31 21.5 52t52.5 21h57q29 0 50.5 -21t21.5 -52v-160q0 -31 -21.5 -52.5t-50.5 -21.5h-57q-31 0 -52.5 21.5t-21.5 52.5zM100 1147v160q0 31 21.5 52t52.5 21h57q31 0 52.5 -21t21.5 -52v-160q0 -31 -21.5 -52.5t-52.5 -21.5h-57q-31 0 -52.5 21.5 t-21.5 52.5z" />
<glyph unicode="#" horiz-adv-x="1212" d="M-43 487v58q0 31 21.5 52t52.5 21h207q3 18 12 60.5t16 81.5h-180q-30 0 -52 22t-22 52v57q0 30 22 52t52 22h219q11 61 34.5 178.5l35.5 177.5q3 24 23.5 41.5t45.5 17.5h62q35 0 56.5 -26.5t15.5 -61.5l-64 -327h109l67 356q4 25 25.5 42t46.5 17h59q35 0 56.5 -25.5 t15.5 -60.5l-66 -329h136q29 0 50 -21.5t21 -52.5v-57q0 -31 -21 -52.5t-50 -21.5h-172l-27 -142h141q30 0 52 -21.5t22 -51.5v-58q0 -30 -22 -51.5t-52 -21.5h-184q-12 -72 -38.5 -205t-29.5 -150q-3 -25 -24 -42t-47 -17h-58q-35 0 -56 25.5t-15 60.5l61 328h-108 q-32 -152 -70 -355q-4 -25 -25.5 -42t-46.5 -17h-59q-35 0 -56.5 25.5t-15.5 60.5l66 328h-168q-31 0 -52.5 21t-21.5 52zM444 618h109q20 92 29 142h-109q-18 -76 -29 -142z" />
<glyph unicode="$" horiz-adv-x="815" d="M2 401v27q0 31 21.5 52.5t52.5 21.5h57q30 0 52 -22t22 -52v-27q0 -129 47 -170q26 -26 86 -26q67 0 100 33t33 112q0 34 -14.5 67t-46.5 66.5t-59 56.5t-74 60v-2q-55 43 -82.5 66t-71.5 68t-66 82t-39.5 91t-17.5 113q0 143 60 233.5t174 118.5v80q0 31 21 52.5 t52 21.5h58q29 0 51 -22t22 -52v-80q117 -28 177.5 -127t60.5 -262v-29q0 -31 -21.5 -52t-52.5 -21h-57q-31 0 -52.5 21t-21.5 52v29q0 101 -32.5 149t-100.5 48q-133 0 -133 -154q0 -37 15.5 -72t49.5 -70.5t60.5 -58.5t75.5 -61h-2q39 -30 58.5 -45.5t53.5 -45.5t52.5 -51 t42.5 -54t35.5 -63t20.5 -68.5t9 -80.5q0 -144 -61 -230.5t-177 -111.5v-71q0 -31 -22 -52.5t-51 -21.5h-58q-31 0 -52 21.5t-21 52.5v71q-234 56 -234 389z" />
<glyph unicode="%" horiz-adv-x="1134" d="M10 979v158q0 108 62.5 174.5t160.5 66.5q99 0 161.5 -66.5t62.5 -174.5v-158q0 -108 -62.5 -175t-161.5 -67q-98 0 -160.5 67t-62.5 175zM195 100l493 1235q8 17 29 31t41 14h61q41 0 62 -31t6 -69l-494 -1235q-8 -17 -28 -31t-39 -14h-64q-41 0 -61.5 31t-5.5 69z M207 979q0 -12 8 -21.5t18 -9.5q9 0 17 9.5t8 21.5v158q0 12 -8 21t-17 9q-10 0 -18 -9t-8 -21v-158zM643 242v157q0 108 61.5 174t161.5 66q99 0 160 -66t61 -174v-157q0 -107 -61.5 -174.5t-159.5 -67.5q-100 0 -161.5 67.5t-61.5 174.5zM840 242q0 -13 7.5 -23t18.5 -10 q9 0 17 10t8 23v157q-5 33 -25 33q-12 0 -19 -11t-7 -22v-157z" />
<glyph unicode="&#x26;" horiz-adv-x="980" d="M-12 377q0 130 67 231q46 67 152 156q-96 194 -96 350q0 124 58 195t185 71q131 0 195.5 -83t64.5 -214q0 -97 -38.5 -197.5t-104.5 -168.5l107 -185v86q0 31 21 52.5t52 21.5h60q29 0 50 -21.5t21 -52.5v-18q0 -63 -1.5 -102.5t-13 -106.5t-34.5 -123l90 -157 q23 -40 3 -75.5t-64 -35.5h-68q-14 0 -35 12t-28 25l-27 47q-103 -84 -266 -84q-159 0 -254.5 106.5t-95.5 270.5zM193 377q0 -80 34 -125q42 -49 111 -49q105 0 162 63l-189 318q-57 -47 -88 -92q-30 -40 -30 -115zM311 1096q0 -15 2.5 -32t4.5 -28.5t9 -32.5t9.5 -28 t12.5 -32.5t11 -29.5q52 96 52 183q0 82 -52 82q-49 0 -49 -82z" />
<glyph unicode="'" horiz-adv-x="268" d="M-10 1147v160q0 31 21 52t50 21h58q31 0 52.5 -21t21.5 -52v-160q0 -31 -21.5 -52.5t-52.5 -21.5h-58q-29 0 -50 21.5t-21 52.5z" />
<glyph unicode="(" horiz-adv-x="442" d="M-12 686q0 330 92 526l-2 -2q28 71 74 117l30 27q26 26 59.5 23t53.5 -34l33 -49q15 -22 10.5 -49t-23.5 -45q-20 -17 -34 -43l-23 -43l2 2q-70 -153 -70 -430q0 -270 68 -424q24 -50 39 -65q1 -2 3.5 -5t2.5 -4q26 -15 33 -43.5t-8 -54.5l-27 -47q-20 -35 -54.5 -39.5 t-62.5 23.5l-24 22q-44 38 -82 121l2 -2q-92 185 -92 518z" />
<glyph unicode=")" horiz-adv-x="425" d="M1.5 137q3.5 26 18.5 41q19 15 37 45l23 43q67 147 67 428q0 152 -22 277q-16 90 -43 149v-2q-20 44 -35 64l-12 10l-12 10q-15 15 -19 41t6 45l29 49q19 32 52 39t61 -16l32 -29q39 -36 78 -119q90 -187 90 -518q0 -332 -92 -524q-39 -82 -76 -119v2l-28 -26 q-28 -28 -62.5 -23.5t-54.5 39.5l-31 49q-10 19 -6.5 45z" />
<glyph unicode="*" horiz-adv-x="706" d="M4 1143l21 55q9 29 37 43t57 4l80 -28v83q0 30 21.5 51t51.5 21h56q30 0 51.5 -21t21.5 -51v-83l78 28q31 11 59 -2.5t37 -44.5l21 -55q8 -28 -5 -53.5t-40 -34.5l-76 -29q53 -61 62 -70q21 -25 19 -54t-26 -50l-45 -39q-22 -20 -52 -18.5t-50 24.5l-84 94l-82 -94 q-22 -23 -51 -24.5t-51 18.5l-45 39q-24 21 -26 50t19 54l62 70l-78 29q-26 9 -38.5 34.5t-4.5 53.5z" />
<glyph unicode="+" horiz-adv-x="888" d="M8 655v60q0 29 21.5 50t52.5 21h194v195q0 31 21.5 52.5t50.5 21.5h60q31 0 52 -21.5t21 -52.5v-195h195q29 0 50.5 -21t21.5 -50v-60q0 -31 -21 -52t-51 -21h-195v-193q0 -31 -21 -52.5t-52 -21.5h-60q-29 0 -50.5 21.5t-21.5 52.5v193h-194q-31 0 -52.5 21t-21.5 52z " />
<glyph unicode="," horiz-adv-x="276" d="M-6 0v152q0 31 21.5 52t52.5 21h57q30 0 52 -21.5t22 -51.5v-152q0 -30 -22 -52t-52 -22h-57q-31 0 -52.5 21.5t-21.5 52.5z" />
<glyph unicode="-" horiz-adv-x="714" d="M6 662v55q0 31 21.5 52.5t52.5 21.5h446q31 0 52.5 -21.5t21.5 -52.5v-55q0 -31 -21.5 -52.5t-52.5 -21.5h-446q-31 0 -52.5 21.5t-21.5 52.5z" />
<glyph unicode="." horiz-adv-x="268" d="M-8 74v78q0 30 22 51.5t52 21.5h59q30 0 52 -21.5t22 -51.5v-78q0 -30 -22 -52t-52 -22h-59q-30 0 -52 22t-22 52z" />
<glyph unicode="/" horiz-adv-x="888" d="M31 100l493 1235q8 17 28.5 31t39.5 14h63q41 0 62 -31t6 -69l-496 -1235q-6 -17 -26.5 -31t-40.5 -14h-62q-41 0 -61.5 31t-5.5 69z" />
<glyph unicode="0" horiz-adv-x="757" d="M-2 406v571q0 196 75.5 299.5t227.5 103.5q150 0 225.5 -105t75.5 -298v-571q0 -193 -76.5 -299.5t-224.5 -106.5q-150 0 -226.5 105t-76.5 301zM203 385q0 -98 23.5 -138t74.5 -40q49 0 72.5 40t23.5 138v612q0 97 -23.5 137t-72.5 40q-51 0 -74.5 -40t-23.5 -137v-612z " />
<glyph unicode="1" horiz-adv-x="499" d="M-10 1053q-5 30 14 55l189 244q6 9 25.5 18.5t31.5 9.5h57q31 0 52.5 -21t21.5 -52v-1233q0 -31 -21.5 -52.5t-52.5 -21.5h-59q-29 0 -50.5 21.5t-21.5 52.5v919l-10 -10q-19 -25 -50.5 -29t-56.5 17l-39 35q-25 17 -30 47z" />
<glyph unicode="2" horiz-adv-x="757" d="M4 74v28q0 173 49 304l-2 -3q55 148 189 273q163 154 163 336q0 76 -25.5 121t-70.5 45q-98 0 -98 -172v-13q0 -29 -21.5 -50t-50.5 -21h-59q-31 0 -52.5 21t-21.5 50v13q0 181 76.5 277.5t226.5 96.5q141 0 221 -102.5t80 -265.5q0 -284 -231 -490q-74 -65 -113 -140.5 t-49 -178.5h320q31 0 52 -21.5t21 -52.5v-55q0 -31 -21 -52.5t-52 -21.5h-457q-31 0 -52.5 21.5t-21.5 52.5z" />
<glyph unicode="3" horiz-adv-x="722" d="M0 399v11q0 31 21.5 52t52.5 21h59q29 0 50.5 -21.5t21.5 -51.5v-11q0 -196 98 -196q64 0 88 98q8 54 8 90q0 103 -55 154q-43 43 -88 43h-27q-31 0 -52 21.5t-21 52.5v55q0 31 21 52.5t52 21.5h27q48 0 90 45h-2q55 52 55 151q0 104 -34 154q-21 37 -62 37 q-98 0 -98 -199v-10q0 -31 -21.5 -52.5t-50.5 -21.5h-59q-31 0 -52.5 21.5t-21.5 52.5v10q0 193 77 297t226 104q155 0 236 -133l-2 2q67 -97 67 -262q0 -182 -117 -299q117 -113 117 -297q0 -181 -82 -286t-219 -105q-149 0 -226 104t-77 295z" />
<glyph unicode="4" horiz-adv-x="765" d="M4 451v73l440 817q8 14 28.5 26.5t35.5 12.5h55q31 0 52.5 -21t21.5 -52v-1233q0 -31 -21.5 -52.5t-52.5 -21.5h-57q-31 0 -52.5 21.5t-21.5 52.5v303h-354q-31 0 -52.5 21.5t-21.5 52.5zM244 580h188l2 331z" />
<glyph unicode="5" horiz-adv-x="737" d="M-2 354v8q0 29 21.5 50.5t52.5 21.5h59q29 0 51.5 -21.5t22.5 -50.5v-8q0 -92 24 -121.5t72 -29.5q17 0 31.5 7.5t23 17t16 25.5t10.5 27t7 27q8 54 8 88v131q0 96 -23 140.5t-73 44.5q-44 0 -70 -25t-26 -74q0 -30 -22 -51.5t-52 -21.5h-59q-31 0 -52.5 21t-21.5 52v695 q0 31 21.5 52t52.5 21h458q30 0 51 -21t21 -52v-56q0 -31 -21 -52t-51 -21h-325v-312q5 14 39.5 31.5t62.5 17.5q91 0 142 -26t96 -88q57 -82 57 -275v-131q0 -157 -65 -260q-84 -135 -236 -135q-153 0 -228 85t-75 269z" />
<glyph unicode="6" horiz-adv-x="741" d="M-2 362v541q0 257 100 381q78 96 203 96q148 0 224.5 -93t76.5 -257v-2q0 -29 -21.5 -51.5t-50.5 -22.5h-59q-30 0 -52 22t-22 52v2q0 72 -25 110t-71 38q-26 0 -47.5 -21.5t-32.5 -54.5q-5 -15 -8 -36t-5 -39.5t-2.5 -46t-0.5 -43v-42.5v-33v-4q13 25 47 40t74 15 q141 0 208.5 -103.5t67.5 -291.5v-115q0 -158 -65 -264q-83 -139 -236 -139q-143 0 -223 95.5t-80 266.5zM205 362q0 -75 20 -114q20 -45 76 -45q63 0 88 106q8 54 8 94v115q0 193 -96 193q-46 0 -71 -51.5t-25 -139.5v-158z" />
<glyph unicode="7" horiz-adv-x="872" d="M-2 1251v56q0 31 21 52t51 21h610q31 0 52.5 -21t21.5 -52v-70l-498 -1192q-8 -17 -28.5 -31t-39.5 -14h-63q-41 0 -62 31t-6 69l451 1078h-438q-30 0 -51 21t-21 52z" />
<glyph unicode="8" horiz-adv-x="782" d="M-4 395q0 179 74 283q2 4 10 12l-10 12q-74 104 -74 283q0 198 77.5 296.5t243.5 98.5t244 -97t78 -298q0 -181 -74 -285l-8 -10l8 -10q74 -104 74 -285q0 -201 -78 -298t-244 -97t-243.5 98.5t-77.5 296.5zM201 395q0 -102 27.5 -147t88.5 -45t84 30q33 44 33 162 q0 104 -27.5 149.5t-89.5 45.5q-61 0 -88.5 -46t-27.5 -149zM201 985q0 -115 30 -162q24 -30 86 -30t89.5 45t27.5 147t-27.5 147.5t-89.5 45.5q-60 0 -88 -45.5t-28 -147.5z" />
<glyph unicode="9" horiz-adv-x="733" d="M-2 350v2q0 29 21.5 51.5t50.5 22.5h59q30 0 52 -22t22 -52v-2q0 -72 25 -109.5t71 -37.5q26 0 47.5 21.5t32.5 54.5q5 15 8 36t5 39.5t2.5 45.5t0.5 42.5v42.5v33v4q-13 -25 -47 -40t-74 -15q-141 0 -208.5 103.5t-67.5 291.5v115q0 158 65 264q83 139 236 139 q143 0 223 -95.5t80 -266.5v-541q0 -257 -100 -381q-78 -96 -203 -96q-148 0 -224.5 93t-76.5 257zM203 862q0 -192 96 -192q46 0 71 51t25 139v158q0 76 -20 115q-20 45 -76 45q-63 0 -88 -107q-8 -54 -8 -94v-115z" />
<glyph unicode=":" horiz-adv-x="333" d="M-4 371v139q0 31 21.5 52.5t52.5 21.5h57q30 0 52 -22t22 -52v-139q0 -29 -22.5 -50.5t-51.5 -21.5h-57q-31 0 -52.5 21.5t-21.5 50.5zM-4 874v140q0 31 21.5 52t52.5 21h57q30 0 52 -21.5t22 -51.5v-140q0 -29 -22 -50t-52 -21h-57q-31 0 -52.5 21t-21.5 50z" />
<glyph unicode=";" horiz-adv-x="301" d="M-6 305v205q0 31 21.5 52.5t52.5 21.5h59q30 0 52 -22t22 -52v-205q0 -29 -22.5 -50.5t-51.5 -21.5h-59q-31 0 -52.5 21.5t-21.5 50.5zM-6 874v140q0 31 21.5 52t52.5 21h59q30 0 52 -21.5t22 -51.5v-140q0 -29 -22 -50t-52 -21h-59q-31 0 -52.5 21t-21.5 50z" />
<glyph unicode="&#x3c;" horiz-adv-x="598" d="M-28 733.5q0 28.5 22 50.5q11 12 30.5 32t72 71.5t96.5 90.5t88.5 71t64.5 32h2h53q52 0 70.5 -43t-18.5 -80l-224 -225l224 -223q37 -37 18.5 -80t-70.5 -43h-65h-2q-26 0 -101 63.5t-137 127.5l-61 63l-41 41q-22 23 -22 51.5z" />
<glyph unicode="=" horiz-adv-x="741" d="M6 440v58q0 31 21.5 52t52.5 21h446q31 0 52.5 -21t21.5 -52v-58q0 -29 -21.5 -50t-52.5 -21h-446q-31 0 -52.5 21t-21.5 50zM6 825v58q0 31 21.5 52t52.5 21h446q31 0 52.5 -21t21.5 -52v-58q0 -31 -21.5 -52t-52.5 -21h-446q-31 0 -52.5 21t-21.5 52z" />
<glyph unicode="&#x3e;" horiz-adv-x="598" d="M-4.5 430q-18.5 43 18.5 80l224 223l-224 225q-37 37 -18.5 80t70.5 43h53h2q31 0 119 -74.5t160 -148.5l73 -74q22 -22 22 -50.5t-22 -51.5l-41 -41q-10 -10 -26.5 -27.5t-61 -61t-81.5 -77t-75 -61t-55 -27.5h-2h-65q-52 0 -70.5 43z" />
<glyph unicode="?" horiz-adv-x="722" d="M8 965v26q0 186 76.5 288.5t226.5 102.5q145 0 234 -127q67 -109 67 -254q0 -128 -63 -233q-37 -60 -82.5 -120.5t-61.5 -85.5t-28 -74.5t-12 -129.5q0 -30 -22 -51.5t-52 -21.5h-58q-31 0 -52 21t-21 52v35q0 56 9 104.5t29.5 92t35 69t44 67t37.5 54.5q45 65 60 90 q33 60 33 131q0 94 -31 142q-26 37 -66 37q-45 0 -65 -33q-33 -48 -33 -156v-26q0 -31 -21.5 -52.5t-52.5 -21.5h-57q-31 0 -52.5 21.5t-21.5 52.5zM158 76v78q0 30 21.5 51.5t51.5 21.5h60q30 0 52 -21.5t22 -51.5v-78q0 -30 -22 -52t-52 -22h-60q-29 0 -51 22t-22 52z" />
<glyph unicode="@" horiz-adv-x="1427" d="M10 602q0 60 15 133l-2 -2q33 219 188 387q139 142 334 183q60 16 137 16q102 0 209 -39q79 -31 146.5 -85t111.5 -122q63 -101 80 -254q10 -155 -39 -276q-24 -56 -74 -106.5t-110 -82.5q-63 -34 -131.5 -45.5t-120.5 2.5h2q-76 18 -109 82q-25 -4 -84 -4 q-258 0 -258 244q0 23 4 63q15 144 91 220.5t208 76.5q25 0 44 -0.5t53 -3.5t59 -8t53.5 -15.5t46 -25t27.5 -37t6 -51.5l-16 -76l2 6q-1 -6 -6 -26t-5 -29l-6 -35l2 4q-2 -12 -7.5 -43t-6.5 -47q-1 -9 -5 -27.5t-5 -25.5q-4 -12 -4 -23l-2 -22q34 3 86 33q60 32 77 80v-3 q28 72 25 185q-14 104 -49 162q-50 85 -160 125q-62 22 -135 22q-53 0 -94 -8h2q-127 -26 -223 -119q-114 -105 -142 -283q-8 -49 -8 -94q0 -218 172 -323q130 -80 318 -70t317 104l23 17q24 18 54 13.5t48 -30.5l35 -45q18 -24 13.5 -54t-30.5 -48l-24 -18 q-182 -131 -426 -146h-43q-224 0 -393 105q-132 83 -201.5 207t-69.5 282zM512 672q-4 -43 7.5 -59.5t43.5 -16.5q54 0 64 2q18 21 43 154l-2 -2q4 18 4 32q-2 1 -6 1t-7 1h3q-24 4 -54 4q-48 0 -65 -20q-21 -28 -31 -96z" />
<glyph unicode="A" horiz-adv-x="905" d="M6 88l98 434l187 801q6 23 27 40t44 17h46q24 0 45.5 -17t25.5 -40l283 -1233q2 -9 2 -18q0 -24 -16 -44q-22 -28 -58 -28h-59q-23 0 -44.5 17t-27.5 40l-70 320h-208l-72 -320q-6 -23 -27.5 -40t-44.5 -17h-59q-36 0 -58 26q-16 19 -16 44q0 9 2 18zM328 580h114 q-10 42 -23 137t-34 190z" />
<glyph unicode="B" horiz-adv-x="790" d="M14 74v1233q0 31 21.5 52t52.5 21h203q178 0 262 -97.5t84 -297.5q0 -53 -9 -103t-22 -83.5t-26 -59t-22 -37.5l-9 -12q88 -110 88 -295q0 -200 -84 -297.5t-262 -97.5h-203q-31 0 -52.5 21.5t-21.5 52.5zM219 203h72q75 0 108 44.5t33 147.5q0 104 -33 149.5t-108 45.5 h-72v-387zM219 793h72q75 0 108 44.5t33 147.5t-33 148t-108 45h-72v-385z" />
<glyph unicode="C" horiz-adv-x="806" d="M-2 401v580q0 216 111 319q89 80 227 80q136 0 225 -80q109 -101 109 -319v-29q0 -30 -21 -51.5t-51 -21.5h-59q-31 0 -52.5 21t-21.5 52v29q0 197 -129 197q-131 0 -131 -197v-580q0 -102 32 -150t99 -48q61 0 94 37q35 46 35 161v29q0 31 21.5 52.5t52.5 21.5h59 q29 0 50.5 -21.5t21.5 -52.5v-29q0 -212 -107 -319q-84 -82 -227 -82q-146 0 -230 82q-108 108 -108 319z" />
<glyph unicode="D" horiz-adv-x="815" d="M6 74v1233q0 31 21.5 52t52.5 21h209q360 0 360 -405v-569q0 -406 -360 -406h-209q-31 0 -52.5 21.5t-21.5 52.5zM209 203h80q81 0 117 49.5t36 153.5v569q0 104 -36 153.5t-117 49.5h-80v-975z" />
<glyph unicode="E" horiz-adv-x="722" d="M0 74v1233q0 31 21.5 52t52.5 21h442q31 0 52.5 -21t21.5 -52v-56q0 -31 -21.5 -52t-52.5 -21h-313v-385h258q31 0 52.5 -21.5t21.5 -52.5v-55q0 -31 -21.5 -52.5t-52.5 -21.5h-258v-387h313q31 0 52.5 -21.5t21.5 -52.5v-55q0 -31 -21.5 -52.5t-52.5 -21.5h-442 q-31 0 -52.5 21.5t-21.5 52.5z" />
<glyph unicode="F" horiz-adv-x="733" d="M-6 74v1233q0 31 21.5 52t52.5 21h442q31 0 52.5 -21t21.5 -52v-56q0 -31 -21.5 -52t-52.5 -21h-311v-385h229q31 0 52.5 -21.5t21.5 -52.5v-55q0 -31 -21.5 -52.5t-52.5 -21.5h-229v-516q0 -30 -22 -52t-52 -22h-57q-31 0 -52.5 21.5t-21.5 52.5z" />
<glyph unicode="G" horiz-adv-x="823" d="M2 399v584q0 196 85 296.5t253 100.5q336 0 336 -397v-29q0 -30 -21 -51.5t-51 -21.5h-59q-31 0 -52.5 21t-21.5 52v29q0 127 -45 168q-29 27 -86 27q-59 0 -86 -27q-47 -41 -47 -168v-584q0 -196 133 -196q131 0 131 196v88h-72q-41 0 -65 32q-25 33 -25 72q0 38 23 69 q24 32 67 32h205q29 0 50.5 -21.5t21.5 -52.5v-219q0 -196 -84 -297.5t-252 -101.5t-253 102t-85 297z" />
<glyph unicode="H" horiz-adv-x="806" d="M2 74v1233q0 31 21.5 52t52.5 21h57q31 0 52.5 -21t21.5 -52v-516h227v516q0 31 21.5 52t52.5 21h57q31 0 52.5 -21t21.5 -52v-1233q0 -31 -21.5 -52.5t-52.5 -21.5h-57q-31 0 -52.5 21.5t-21.5 52.5v514h-227v-514q0 -31 -21.5 -52.5t-52.5 -21.5h-57q-31 0 -52.5 21.5 t-21.5 52.5z" />
<glyph unicode="I" horiz-adv-x="335" d="M-6 74v1233q0 31 21.5 52t52.5 21h57q30 0 52 -21.5t22 -51.5v-1233q0 -30 -22 -52t-52 -22h-57q-31 0 -52.5 21.5t-21.5 52.5z" />
<glyph unicode="J" horiz-adv-x="765" d="M-18 375v28q0 29 21 50.5t52 21.5h58q29 0 51 -21.5t22 -50.5v-28q0 -111 41 -152q20 -20 74 -20q113 0 113 172v932q0 31 21 52t52 21h58q29 0 50 -21t21 -52v-932q0 -375 -315 -375q-319 0 -319 375z" />
<glyph unicode="K" horiz-adv-x="794" d="M0 74v1233q0 31 21.5 52t52.5 21h57q31 0 52.5 -21t21.5 -52v-443l297 482q8 12 27 23t34 11h70q47 0 67 -36q9 -16 10 -33q0 -21 -14 -43l-342 -551l344 -606q11 -21 11 -40q1 -17 -9 -35q-20 -36 -67 -36h-66q-15 0 -35.5 12t-27.5 25l-275 479l-24 -37v-405 q0 -31 -21.5 -52.5t-52.5 -21.5h-57q-31 0 -52.5 21.5t-21.5 52.5z" />
<glyph unicode="L" horiz-adv-x="686" d="M-12 74v1233q0 31 21 52t52 21h60q29 0 50.5 -21t21.5 -52v-1104h305q31 0 52 -21.5t21 -52.5v-55q0 -31 -21 -52.5t-52 -21.5h-437q-31 0 -52 21.5t-21 52.5z" />
<glyph unicode="M" horiz-adv-x="907" d="M-2 74v1233q0 31 21.5 52t52.5 21h61q23 0 44.5 -17t25.5 -40l162 -825l159 825q4 23 26 40t46 17h61q31 0 52.5 -21t21.5 -52v-1233q0 -31 -21.5 -52.5t-52.5 -21.5h-57q-31 0 -52.5 21.5t-21.5 52.5v440l-67 -455q-6 -25 -27.5 -42t-44.5 -17h-45q-23 0 -44.5 17 t-25.5 40l-69 461v-444q0 -30 -22 -52t-52 -22h-57q-31 0 -52.5 21.5t-21.5 52.5z" />
<glyph unicode="N" horiz-adv-x="839" d="M0 74v1233q0 30 22 51.5t52 21.5h49q20 0 40.5 -14t26.5 -31l285 -704v676q0 31 21.5 52t52.5 21h57q31 0 52.5 -21t21.5 -52v-1233q0 -31 -21.5 -52.5t-52.5 -21.5h-47q-19 0 -40 14t-27 31l-285 705v-676q0 -30 -22 -52t-52 -22h-59q-30 0 -52 22t-22 52z" />
<glyph unicode="O" d="M2 401v580q0 195 85 297t251 102q168 0 252 -101.5t84 -297.5v-580q0 -212 -107 -319q-84 -82 -229 -82q-143 0 -227 82q-109 109 -109 319zM207 401q0 -198 131 -198q66 0 98.5 47.5t32.5 150.5v580q0 102 -32 149.5t-99 47.5t-99 -48.5t-32 -148.5v-580z" />
<glyph unicode="P" horiz-adv-x="798" d="M4 74v1233q0 31 21.5 52t52.5 21h221q186 0 273 -97.5t87 -297.5t-87 -297.5t-273 -97.5h-92v-516q0 -31 -21.5 -52.5t-50.5 -21.5h-57q-31 0 -52.5 21.5t-21.5 52.5zM207 793h92q83 0 119.5 46t36.5 146q0 103 -36.5 148t-119.5 45h-92v-385z" />
<glyph unicode="Q" horiz-adv-x="815" d="M-4 406v581q0 194 85 293.5t253 99.5q334 0 334 -393v-581q0 -138 -52 -242l86 -103q20 -24 20 -49q0 -14 -6 -29q-19 -40 -69 -40h-76q-10 0 -30 8.5t-27 17.5l-45 58q-61 -27 -135 -27q-167 0 -252.5 105t-85.5 301zM201 406q0 -194 121 -203l-11 12q-20 25 -20 49 q0 16 8 32q20 40 70 40h73q11 0 17 -2q4 40 4 72v581q0 99 -31.5 145t-97.5 46q-133 0 -133 -191v-581z" />
<glyph unicode="R" horiz-adv-x="815" d="M4 76v1233q0 31 21.5 52t52.5 21h258q185 0 262.5 -95.5t77.5 -305.5q0 -207 -86 -293q-3 -3 -8.5 -8t-8.5 -8q89 -95 89 -254v-342q0 -31 -21.5 -52.5t-52.5 -21.5h-58q-31 0 -52 21.5t-21 52.5v342q0 76 -41.5 118t-116.5 42h-92v-502q0 -31 -21.5 -52.5t-50.5 -21.5 h-57q-31 0 -52.5 21.5t-21.5 52.5zM207 784h92q88 0 131 47t43 150q0 107 -29.5 152t-107.5 45h-129v-394z" />
<glyph unicode="S" horiz-adv-x="815" d="M2 401v27q0 31 21.5 52.5t52.5 21.5h57q30 0 52 -22t22 -52v-27q0 -129 47 -170q26 -26 86 -26q67 0 100 33t33 112q0 34 -14.5 67t-46.5 66.5t-59 56.5t-74 60v-2q-55 43 -82.5 66t-71.5 68t-66 82t-39.5 91t-17.5 113q0 174 88 269t250 95q165 0 251.5 -103t86.5 -298 v-29q0 -31 -21.5 -52t-52.5 -21h-57q-31 0 -52.5 21t-21.5 52v29q0 101 -32.5 149t-100.5 48q-133 0 -133 -154q0 -37 15.5 -72t49.5 -70.5t60.5 -58.5t75.5 -61h-2q39 -30 58.5 -45.5t53.5 -45.5t52.5 -51t42.5 -54t35.5 -63t20.5 -68.5t9 -80.5q0 -171 -87.5 -261.5 t-250.5 -90.5q-338 0 -338 399z" />
<glyph unicode="T" horiz-adv-x="821" d="M-6 1251v58q0 31 21.5 52t52.5 21h536q31 0 52.5 -21t21.5 -52v-58q0 -31 -21.5 -52t-52.5 -21h-168v-1102q0 -31 -21.5 -52.5t-52.5 -21.5h-55q-31 0 -52.5 21.5t-21.5 52.5v1102h-165q-31 0 -52.5 21t-21.5 52z" />
<glyph unicode="U" horiz-adv-x="837" d="M-12 377v932q0 31 21 52t50 21h58q31 0 52 -21t21 -52v-932q0 -86 31 -129t103 -43q133 0 133 172v932q0 31 21 52t50 21h58q31 0 52 -21t21 -52v-932q0 -375 -335 -375q-175 0 -255.5 100.5t-80.5 274.5z" />
<glyph unicode="V" horiz-adv-x="890" d="M8 1292q-3 10 -3 20q-1 22 15 42q22 28 60 28h57q23 0 44.5 -17t27.5 -40l182 -780l182 780q4 23 26 40t46 17h60q35 0 57 -27q16 -20 16 -44q0 -9 -2 -19l-291 -1233q-6 -24 -26.5 -40.5t-44.5 -16.5h-43q-25 0 -46.5 16.5t-25.5 40.5z" />
<glyph unicode="W" horiz-adv-x="1146" d="M-6 1296q-1 7 -1 13q0 26 17 46q21 25 56 25h59q27 0 48.5 -17.5t25.5 -43.5l94 -621l106 623q4 25 25.5 42t46.5 17h45q25 0 46.5 -17t25.5 -42l104 -619l92 617q3 26 25 43.5t49 17.5h60q34 0 56 -25q18 -21 18 -49q0 -5 -1 -10l-196 -1235q-5 -25 -26.5 -43t-47.5 -18 h-47q-25 0 -46.5 17t-25.5 42l-108 654l-111 -654q-4 -25 -25.5 -42t-46.5 -17h-45q-26 0 -46 18t-25 43z" />
<glyph unicode="X" horiz-adv-x="905" d="M-14 104l278 586l-278 586q-8 18 -8 34q0 20 11 38q20 32 64 32h64q18 0 38.5 -14t26.5 -29l195 -405q32 67 96 202t96 203q6 17 26.5 30t39.5 13h63q43 0 64 -33q11 -17 11 -36q0 -17 -9 -35l-275 -586l279 -586q9 -18 9 -35q-1 -18 -11 -36q-20 -33 -64 -33h-63 q-19 0 -40 13t-28 30l-192 408l-197 -408q-6 -15 -26.5 -29t-38.5 -14h-64q-43 0 -63 33q-11 18 -12 38q0 16 8 33z" />
<glyph unicode="Y" d="M-29 1278q-8 17 -8 33q0 19 12 37q21 32 64 32h65q19 0 40.5 -14t27.5 -29l166 -376l164 376q8 15 29 29t38 14h68q41 0 62 -32q12 -19 12 -39q0 -15 -6 -31l-265 -614v-590q0 -31 -21 -52.5t-52 -21.5h-58q-29 0 -50 21.5t-21 52.5v592q-44 102 -133.5 306t-133.5 306z " />
<glyph unicode="Z" horiz-adv-x="841" d="M-16 1251v56q0 31 21 52t52 21h545q31 0 52.5 -21t21.5 -52v-70l-434 -1034h352q30 0 52 -22t22 -52v-55q0 -30 -22 -52t-52 -22h-528q-29 0 -50.5 21.5t-21.5 52.5v71l432 1033h-369q-31 0 -52 21t-21 52z" />
<glyph unicode="\" horiz-adv-x="880" d="M33 1280q-15 38 5.5 69t61.5 31h62q20 0 40.5 -14t26.5 -31l496 -1235q15 -38 -6.5 -69t-61.5 -31h-63q-19 0 -39.5 14t-28.5 31z" />
<glyph unicode="^" horiz-adv-x="485" d="M-13 1509.5q-19 41.5 15 79.5l127 152q7 9 25.5 17.5t29.5 8.5h27h10h70q11 0 30 -8.5t25 -17.5l129 -152q32 -38 13.5 -79.5t-68.5 -41.5h-70q-11 0 -30.5 9t-26.5 18l-55 66l-58 -66q-6 -9 -24.5 -18t-30.5 -9h-68q-51 0 -70 41.5z" />
<glyph unicode="_" horiz-adv-x="1046" d="M29 16v58q0 30 21.5 51.5t51.5 21.5h740q29 0 51 -22t22 -51v-58q0 -30 -21.5 -51.5t-51.5 -21.5h-740q-31 0 -52 21t-21 52z" />
<glyph unicode="`" horiz-adv-x="454" d="M3.5 1686q-3.5 32 18 56.5t56.5 24.5q64 0 151 -41.5t142 -82.5l55 -41q28 -20 32 -52t-17 -57t-56 -25q-56 0 -143.5 41.5t-147.5 82.5l-59 42q-28 20 -31.5 52z" />
<glyph unicode="a" horiz-adv-x="905" d="M6 88l98 434l187 801q6 23 27 40t44 17h46q24 0 45.5 -17t25.5 -40l283 -1233q2 -9 2 -18q0 -24 -16 -44q-22 -28 -58 -28h-59q-23 0 -44.5 17t-27.5 40l-70 320h-208l-72 -320q-6 -23 -27.5 -40t-44.5 -17h-59q-36 0 -58 26q-16 19 -16 44q0 9 2 18zM328 580h114 q-10 42 -23 137t-34 190z" />
<glyph unicode="b" horiz-adv-x="790" d="M14 74v1233q0 31 21.5 52t52.5 21h203q178 0 262 -97.5t84 -297.5q0 -53 -9 -103t-22 -83.5t-26 -59t-22 -37.5l-9 -12q88 -110 88 -295q0 -200 -84 -297.5t-262 -97.5h-203q-31 0 -52.5 21.5t-21.5 52.5zM219 203h72q75 0 108 44.5t33 147.5q0 104 -33 149.5t-108 45.5 h-72v-387zM219 793h72q75 0 108 44.5t33 147.5t-33 148t-108 45h-72v-385z" />
<glyph unicode="c" horiz-adv-x="806" d="M-2 401v580q0 216 111 319q89 80 227 80q136 0 225 -80q109 -101 109 -319v-29q0 -30 -21 -51.5t-51 -21.5h-59q-31 0 -52.5 21t-21.5 52v29q0 197 -129 197q-131 0 -131 -197v-580q0 -102 32 -150t99 -48q61 0 94 37q35 46 35 161v29q0 31 21.5 52.5t52.5 21.5h59 q29 0 50.5 -21.5t21.5 -52.5v-29q0 -212 -107 -319q-84 -82 -227 -82q-146 0 -230 82q-108 108 -108 319z" />
<glyph unicode="d" horiz-adv-x="815" d="M6 74v1233q0 31 21.5 52t52.5 21h209q360 0 360 -405v-569q0 -406 -360 -406h-209q-31 0 -52.5 21.5t-21.5 52.5zM209 203h80q81 0 117 49.5t36 153.5v569q0 104 -36 153.5t-117 49.5h-80v-975z" />
<glyph unicode="e" horiz-adv-x="722" d="M0 74v1233q0 31 21.5 52t52.5 21h442q31 0 52.5 -21t21.5 -52v-56q0 -31 -21.5 -52t-52.5 -21h-313v-385h258q31 0 52.5 -21.5t21.5 -52.5v-55q0 -31 -21.5 -52.5t-52.5 -21.5h-258v-387h313q31 0 52.5 -21.5t21.5 -52.5v-55q0 -31 -21.5 -52.5t-52.5 -21.5h-442 q-31 0 -52.5 21.5t-21.5 52.5z" />
<glyph unicode="f" horiz-adv-x="733" d="M-6 74v1233q0 31 21.5 52t52.5 21h442q31 0 52.5 -21t21.5 -52v-56q0 -31 -21.5 -52t-52.5 -21h-311v-385h229q31 0 52.5 -21.5t21.5 -52.5v-55q0 -31 -21.5 -52.5t-52.5 -21.5h-229v-516q0 -30 -22 -52t-52 -22h-57q-31 0 -52.5 21.5t-21.5 52.5z" />
<glyph unicode="g" horiz-adv-x="823" d="M2 399v584q0 196 85 296.5t253 100.5q336 0 336 -397v-29q0 -30 -21 -51.5t-51 -21.5h-59q-31 0 -52.5 21t-21.5 52v29q0 127 -45 168q-29 27 -86 27q-59 0 -86 -27q-47 -41 -47 -168v-584q0 -196 133 -196q131 0 131 196v88h-72q-41 0 -65 32q-25 33 -25 72q0 38 23 69 q24 32 67 32h205q29 0 50.5 -21.5t21.5 -52.5v-219q0 -196 -84 -297.5t-252 -101.5t-253 102t-85 297z" />
<glyph unicode="h" horiz-adv-x="806" d="M2 74v1233q0 31 21.5 52t52.5 21h57q31 0 52.5 -21t21.5 -52v-516h227v516q0 31 21.5 52t52.5 21h57q31 0 52.5 -21t21.5 -52v-1233q0 -31 -21.5 -52.5t-52.5 -21.5h-57q-31 0 -52.5 21.5t-21.5 52.5v514h-227v-514q0 -31 -21.5 -52.5t-52.5 -21.5h-57q-31 0 -52.5 21.5 t-21.5 52.5z" />
<glyph unicode="i" horiz-adv-x="335" d="M-6 74v1233q0 31 21.5 52t52.5 21h57q30 0 52 -21.5t22 -51.5v-1233q0 -30 -22 -52t-52 -22h-57q-31 0 -52.5 21.5t-21.5 52.5z" />
<glyph unicode="j" horiz-adv-x="765" d="M-18 375v28q0 29 21 50.5t52 21.5h58q29 0 51 -21.5t22 -50.5v-28q0 -111 41 -152q20 -20 74 -20q113 0 113 172v932q0 31 21 52t52 21h58q29 0 50 -21t21 -52v-932q0 -375 -315 -375q-319 0 -319 375z" />
<glyph unicode="k" horiz-adv-x="839" d="M0 74v1233q0 31 21.5 52t52.5 21h57q31 0 52.5 -21t21.5 -52v-443l297 482q8 12 27 23t34 11h70q47 0 67 -36q9 -16 10 -33q0 -21 -14 -43l-342 -551l344 -606q11 -21 11 -40q1 -17 -9 -35q-20 -36 -67 -36h-66q-15 0 -35.5 12t-27.5 25l-275 479l-24 -37v-405 q0 -31 -21.5 -52.5t-52.5 -21.5h-57q-31 0 -52.5 21.5t-21.5 52.5z" />
<glyph unicode="l" horiz-adv-x="686" d="M-12 74v1233q0 31 21 52t52 21h60q29 0 50.5 -21t21.5 -52v-1104h305q31 0 52 -21.5t21 -52.5v-55q0 -31 -21 -52.5t-52 -21.5h-437q-31 0 -52 21.5t-21 52.5z" />
<glyph unicode="m" horiz-adv-x="907" d="M-2 74v1233q0 31 21.5 52t52.5 21h61q23 0 44.5 -17t25.5 -40l162 -825l159 825q4 23 26 40t46 17h61q31 0 52.5 -21t21.5 -52v-1233q0 -31 -21.5 -52.5t-52.5 -21.5h-57q-31 0 -52.5 21.5t-21.5 52.5v440l-67 -455q-6 -25 -27.5 -42t-44.5 -17h-45q-23 0 -44.5 17 t-25.5 40l-69 461v-444q0 -30 -22 -52t-52 -22h-57q-31 0 -52.5 21.5t-21.5 52.5z" />
<glyph unicode="n" horiz-adv-x="839" d="M0 74v1233q0 30 22 51.5t52 21.5h49q20 0 40.5 -14t26.5 -31l285 -704v676q0 31 21.5 52t52.5 21h57q31 0 52.5 -21t21.5 -52v-1233q0 -31 -21.5 -52.5t-52.5 -21.5h-47q-19 0 -40 14t-27 31l-285 705v-676q0 -30 -22 -52t-52 -22h-59q-30 0 -52 22t-22 52z" />
<glyph unicode="o" d="M2 401v580q0 195 85 297t251 102q168 0 252 -101.5t84 -297.5v-580q0 -212 -107 -319q-84 -82 -229 -82q-143 0 -227 82q-109 109 -109 319zM207 401q0 -198 131 -198q66 0 98.5 47.5t32.5 150.5v580q0 102 -32 149.5t-99 47.5t-99 -48.5t-32 -148.5v-580z" />
<glyph unicode="p" horiz-adv-x="798" d="M4 74v1233q0 31 21.5 52t52.5 21h221q186 0 273 -97.5t87 -297.5t-87 -297.5t-273 -97.5h-92v-516q0 -31 -21.5 -52.5t-50.5 -21.5h-57q-31 0 -52.5 21.5t-21.5 52.5zM207 793h92q83 0 119.5 46t36.5 146q0 103 -36.5 148t-119.5 45h-92v-385z" />
<glyph unicode="q" horiz-adv-x="815" d="M-4 406v581q0 194 85 293.5t253 99.5q334 0 334 -393v-581q0 -138 -52 -242l86 -103q20 -24 20 -49q0 -14 -6 -29q-19 -40 -69 -40h-76q-10 0 -30 8.5t-27 17.5l-45 58q-61 -27 -135 -27q-167 0 -252.5 105t-85.5 301zM201 406q0 -194 121 -203l-11 12q-20 25 -20 49 q0 16 8 32q20 40 70 40h73q11 0 17 -2q4 40 4 72v581q0 99 -31.5 145t-97.5 46q-133 0 -133 -191v-581z" />
<glyph unicode="r" horiz-adv-x="815" d="M4 76v1233q0 31 21.5 52t52.5 21h258q185 0 262.5 -95.5t77.5 -305.5q0 -207 -86 -293q-3 -3 -8.5 -8t-8.5 -8q89 -95 89 -254v-342q0 -31 -21.5 -52.5t-52.5 -21.5h-58q-31 0 -52 21.5t-21 52.5v342q0 76 -41.5 118t-116.5 42h-92v-502q0 -31 -21.5 -52.5t-50.5 -21.5 h-57q-31 0 -52.5 21.5t-21.5 52.5zM207 784h92q88 0 131 47t43 150q0 107 -29.5 152t-107.5 45h-129v-394z" />
<glyph unicode="s" horiz-adv-x="815" d="M2 401v27q0 31 21.5 52.5t52.5 21.5h57q30 0 52 -22t22 -52v-27q0 -129 47 -170q26 -26 86 -26q67 0 100 33t33 112q0 34 -14.5 67t-46.5 66.5t-59 56.5t-74 60v-2q-55 43 -82.5 66t-71.5 68t-66 82t-39.5 91t-17.5 113q0 174 88 269t250 95q165 0 251.5 -103t86.5 -298 v-29q0 -31 -21.5 -52t-52.5 -21h-57q-31 0 -52.5 21t-21.5 52v29q0 101 -32.5 149t-100.5 48q-133 0 -133 -154q0 -37 15.5 -72t49.5 -70.5t60.5 -58.5t75.5 -61h-2q39 -30 58.5 -45.5t53.5 -45.5t52.5 -51t42.5 -54t35.5 -63t20.5 -68.5t9 -80.5q0 -171 -87.5 -261.5 t-250.5 -90.5q-338 0 -338 399z" />
<glyph unicode="t" horiz-adv-x="821" d="M-6 1251v58q0 31 21.5 52t52.5 21h536q31 0 52.5 -21t21.5 -52v-58q0 -31 -21.5 -52t-52.5 -21h-168v-1102q0 -31 -21.5 -52.5t-52.5 -21.5h-55q-31 0 -52.5 21.5t-21.5 52.5v1102h-165q-31 0 -52.5 21t-21.5 52z" />
<glyph unicode="u" horiz-adv-x="837" d="M-12 377v932q0 31 21 52t50 21h58q31 0 52 -21t21 -52v-932q0 -86 31 -129t103 -43q133 0 133 172v932q0 31 21 52t50 21h58q31 0 52 -21t21 -52v-932q0 -375 -335 -375q-175 0 -255.5 100.5t-80.5 274.5z" />
<glyph unicode="v" horiz-adv-x="890" d="M8 1292q-3 10 -3 20q-1 22 15 42q22 28 60 28h57q23 0 44.5 -17t27.5 -40l182 -780l182 780q4 23 26 40t46 17h60q35 0 57 -27q16 -20 16 -44q0 -9 -2 -19l-291 -1233q-6 -24 -26.5 -40.5t-44.5 -16.5h-43q-25 0 -46.5 16.5t-25.5 40.5z" />
<glyph unicode="w" horiz-adv-x="1136" d="M-6 1296q-1 7 -1 13q0 26 17 46q21 25 56 25h59q27 0 48.5 -17.5t25.5 -43.5l94 -621l106 623q4 25 25.5 42t46.5 17h45q25 0 46.5 -17t25.5 -42l104 -619l92 617q3 26 25 43.5t49 17.5h60q34 0 56 -25q18 -21 18 -49q0 -5 -1 -10l-196 -1235q-5 -25 -26.5 -43t-47.5 -18 h-47q-25 0 -46.5 17t-25.5 42l-108 654l-111 -654q-4 -25 -25.5 -42t-46.5 -17h-45q-26 0 -46 18t-25 43z" />
<glyph unicode="x" horiz-adv-x="905" d="M-14 104l278 586l-278 586q-8 18 -8 34q0 20 11 38q20 32 64 32h64q18 0 38.5 -14t26.5 -29l195 -405q32 67 96 202t96 203q6 17 26.5 30t39.5 13h63q43 0 64 -33q11 -17 11 -36q0 -17 -9 -35l-275 -586l279 -586q9 -18 9 -35q-1 -18 -11 -36q-20 -33 -64 -33h-63 q-19 0 -40 13t-28 30l-192 408l-197 -408q-6 -15 -26.5 -29t-38.5 -14h-64q-43 0 -63 33q-11 18 -12 38q0 16 8 33z" />
<glyph unicode="y" d="M-29 1278q-8 17 -8 33q0 19 12 37q21 32 64 32h65q19 0 40.5 -14t27.5 -29l166 -376l164 376q8 15 29 29t38 14h68q41 0 62 -32q12 -19 12 -39q0 -15 -6 -31l-265 -614v-590q0 -31 -21 -52.5t-52 -21.5h-58q-29 0 -50 21.5t-21 52.5v592q-44 102 -133.5 306t-133.5 306z " />
<glyph unicode="z" horiz-adv-x="841" d="M-16 1251v56q0 31 21 52t52 21h545q31 0 52.5 -21t21.5 -52v-70l-434 -1034h352q30 0 52 -22t22 -52v-55q0 -30 -22 -52t-52 -22h-528q-29 0 -50.5 21.5t-21.5 52.5v71l432 1033h-369q-31 0 -52 21t-21 52z" />
<glyph unicode="|" horiz-adv-x="284" d="M-6 74v1233q0 31 21.5 52t52.5 21h57q30 0 52 -21.5t22 -51.5v-1233q0 -30 -22 -52t-52 -22h-57q-31 0 -52.5 21.5t-21.5 52.5z" />
<glyph unicode="~" horiz-adv-x="659" d="M-8 1427q40 80 99.5 117t123.5 37q93 0 150 -63q32 -23 47 -23v-2q6 19 26.5 34t40.5 15h74q43 0 64 -33t4 -71q-36 -75 -93.5 -109.5t-121.5 -34.5q-48 0 -92.5 18t-71.5 46q-8 14 -27 14q-9 0 -22 -18q-6 -11 -26.5 -22t-33.5 -11h-76q-43 0 -64 33.5t-1 72.5z" />
<glyph unicode="&#xa1;" horiz-adv-x="292" d="M-12 76v952q0 30 21 52t50 22h58q30 0 51.5 -22t21.5 -52v-952q0 -31 -21 -52.5t-52 -21.5h-58q-29 0 -50 21.5t-21 52.5zM-12 1231v78q0 31 21 52t50 21h58q31 0 52 -21t21 -52v-78q0 -31 -21 -52.5t-52 -21.5h-58q-29 0 -50 21.5t-21 52.5z" />
<glyph unicode="&#xa3;" horiz-adv-x="763" d="M-14 74v61q0 10 7.5 27.5t14.5 23.5q50 52 70.5 150.5t23.5 251.5h-41q-31 0 -52 21.5t-21 52.5v55q0 31 21 52.5t52 21.5h39q-2 72 -2 221q0 165 74.5 266.5t216.5 101.5q110 0 170.5 -52.5t89.5 -158.5q6 -25 -7 -51.5t-36 -36.5l-49 -24q-23 -9 -40.5 0.5t-30 29 t-24.5 40t-31 36t-42 15.5q-84 0 -84 -166v-221h203q30 0 52 -22t22 -52v-55q0 -30 -22 -52t-52 -22h-205q-6 -266 -51 -379h346q31 0 52.5 -21.5t21.5 -52.5v-61q0 -31 -21.5 -52.5t-52.5 -21.5h-539q-31 0 -52 21.5t-21 52.5z" />
<glyph unicode="&#xa8;" horiz-adv-x="468" d="M-20 1542v78q0 31 21 52.5t52 21.5h58q31 0 52 -21.5t21 -52.5v-78q0 -31 -21 -52.5t-52 -21.5h-58q-31 0 -52 21.5t-21 52.5zM248 1542v78q0 31 21.5 52.5t52.5 21.5h59q29 0 50.5 -21.5t21.5 -52.5v-78q0 -31 -21.5 -52.5t-50.5 -21.5h-59q-31 0 -52.5 21.5t-21.5 52.5 z" />
<glyph unicode="&#xa9;" horiz-adv-x="1452" d="M25 696q0 142 45 268.5t126 219.5t200.5 147.5t260.5 54.5q142 0 262.5 -54.5t202 -147.5t127 -219.5t45.5 -268.5t-45.5 -268.5t-127 -219.5t-202 -147.5t-262.5 -54.5q-141 0 -260.5 54.5t-200.5 147.5t-126 219.5t-45 268.5zM223 696q0 -137 52.5 -249t152 -178 t229.5 -66q131 0 232 66t154 178t53 249q0 135 -53 245.5t-154 176.5t-232 66q-130 0 -230 -66t-152 -176.5t-52 -245.5zM393 553v297q0 69 16.5 122t42.5 84t62 50.5t69 26t70 6.5t70 -6.5t69 -26t62 -50.5t42.5 -84t16.5 -122v-37q0 -29 -21 -50.5t-50 -21.5h-56 q-30 0 -51.5 21.5t-21.5 50.5v37q0 88 -60 88q-57 0 -57 -88v-297q0 -40 14 -65t43 -25q30 0 45 26t15 64v35q0 29 21 50t52 21h56q29 0 50 -21t21 -50v-35q0 -70 -16.5 -123t-42.5 -84t-62 -51t-69 -26.5t-70 -6.5t-70 6.5t-69 26.5t-62 51t-42.5 84t-16.5 123z" />
<glyph unicode="&#xad;" horiz-adv-x="714" d="M6 662v55q0 31 21.5 52.5t52.5 21.5h446q31 0 52.5 -21.5t21.5 -52.5v-55q0 -31 -21.5 -52.5t-52.5 -21.5h-446q-31 0 -52.5 21.5t-21.5 52.5z" />
<glyph unicode="&#xae;" horiz-adv-x="1480" d="M25 696q0 142 45 268.5t126 219.5t200.5 147.5t260.5 54.5q142 0 262.5 -54.5t202 -147.5t127 -219.5t45.5 -268.5t-45.5 -268.5t-127 -219.5t-202 -147.5t-262.5 -54.5q-141 0 -260.5 54.5t-200.5 147.5t-126 219.5t-45 268.5zM223 696q0 -137 52.5 -249t152 -178 t229.5 -66q131 0 232 66t154 178t53 249q0 135 -53 245.5t-154 176.5t-232 66q-130 0 -230 -66t-152 -176.5t-52 -245.5zM451 354v684q0 31 21 52.5t52 21.5h142q125 0 176 -62.5t51 -199.5q0 -114 -33 -184q31 -50 31 -125v-187q0 -31 -21.5 -52t-52.5 -21h-51 q-31 0 -52.5 21t-21.5 52v181q0 22 -37 22h-8v-203q0 -31 -21.5 -52t-52.5 -21h-49q-31 0 -52 21t-21 52zM647 754h8q43 0 43 96q0 35 -10 49t-33 14h-8v-159z" />
<glyph unicode="&#xaf;" horiz-adv-x="473" d="M-12 1542v57q0 29 21 50.5t50 21.5h324q29 0 50.5 -21.5t21.5 -50.5v-57q0 -31 -21.5 -52.5t-50.5 -21.5h-324q-29 0 -50 21.5t-21 52.5z" />
<glyph unicode="&#xb0;" horiz-adv-x="290" d="M-25 1473q0 63 45 108t109 45q63 0 108.5 -45t45.5 -108t-45.5 -108.5t-108.5 -45.5q-64 0 -109 45.5t-45 108.5zM82 1473q0 -20 12.5 -33t32.5 -13q18 0 30.5 13t12.5 33q0 17 -13 30t-30 13q-20 0 -32.5 -12.5t-12.5 -30.5z" />
<glyph unicode="&#xb4;" horiz-adv-x="505" d="M3 1550q4 32 32 52q8 7 23 18t58 39.5t83.5 50t92 39.5t91.5 18q35 0 56.5 -24.5t18 -56.5t-31.5 -52q-9 -7 -25 -18t-61.5 -39.5t-87 -50.5t-91.5 -40t-85 -18t-56 25t-17 57z" />
<glyph unicode="&#xb7;" horiz-adv-x="169" d="M-29 743v78q0 31 21.5 52.5t52.5 21.5h57q31 0 52.5 -21.5t21.5 -52.5v-78q0 -31 -21.5 -52t-52.5 -21h-57q-31 0 -52.5 21t-21.5 52z" />
<glyph unicode="&#xb8;" horiz-adv-x="411" d="M-18 -301q0 24 17 37t42 8q57 -18 127 -18q29 0 53.5 7.5t30.5 20.5q-8 4 -121 4h-16q-21 0 -34 14t-13 33v189q0 21 13 34t34 13h65q20 0 33.5 -13.5t13.5 -33.5v-78q21 0 39 -1.5t48 -11t50.5 -26t36 -50t15.5 -79.5q0 -50 -22 -86.5t-59.5 -55.5t-78.5 -27.5t-88 -8.5 q-80 0 -133 33.5t-53 95.5z" />
<glyph unicode="&#xba;" horiz-adv-x="286" d="M-25 1473q0 63 45 108t109 45q63 0 108.5 -45t45.5 -108t-45.5 -108.5t-108.5 -45.5q-64 0 -109 45.5t-45 108.5zM82 1473q0 -20 12.5 -33t32.5 -13q18 0 30.5 13t12.5 33q0 17 -13 30t-30 13q-20 0 -32.5 -12.5t-12.5 -30.5z" />
<glyph unicode="&#xbf;" horiz-adv-x="722" d="M-43 383q0 128 63 233q33 52 69.5 102t54 73t34 56.5t22 73.5t5.5 105q0 30 22 52t52 22h57q31 0 52.5 -21.5t21.5 -52.5v-35q0 -56 -9.5 -104.5t-29.5 -91.5t-35 -69t-44 -67t-38 -55q-37 -53 -59 -90q-33 -60 -33 -131q0 -93 31 -141q26 -37 65 -37q46 0 66 33 q32 46 32 155v27q0 31 21.5 52.5t52.5 21.5h57q31 0 52.5 -21.5t21.5 -52.5v-27q0 -186 -76.5 -288.5t-226.5 -102.5q-144 0 -233 127q-68 111 -68 254zM205 1231v78q0 30 22 51.5t52 21.5h59q30 0 52 -21.5t22 -51.5v-78q0 -30 -22 -52t-52 -22h-59q-30 0 -52 22t-22 52z " />
<glyph unicode="&#xc0;" horiz-adv-x="905" d="M6 88l98 434l187 801q6 23 27 40t44 17h46q24 0 45.5 -17t25.5 -40l283 -1233q8 -35 -13.5 -62.5t-58.5 -27.5h-59q-23 0 -44.5 17t-27.5 40l-70 320h-208l-72 -320q-6 -23 -27.5 -40t-44.5 -17h-59q-37 0 -58.5 26.5t-13.5 61.5zM183.5 1686q-3.5 32 18 56.5t56.5 24.5 q64 0 151 -41.5t142 -82.5l55 -41q28 -20 32 -52t-17 -57t-56 -25q-56 0 -143.5 41.5t-147.5 82.5l-59 42q-28 20 -31.5 52zM328 580h114q-10 42 -23 137t-34 190z" />
<glyph unicode="&#xc1;" horiz-adv-x="905" d="M6 88l98 434l187 801q6 23 27 40t44 17h46q24 0 45.5 -17t25.5 -40l283 -1233q8 -35 -13.5 -62.5t-58.5 -27.5h-59q-23 0 -44.5 17t-27.5 40l-70 320h-208l-72 -320q-6 -23 -27.5 -40t-44.5 -17h-59q-37 0 -58.5 26.5t-13.5 61.5zM163 1545q4 32 32 52q8 7 23 18t58 39.5 t83.5 50.5t92 40t91.5 18q35 0 56.5 -24.5t18 -56.5t-31.5 -52q-9 -7 -25 -18t-61.5 -39.5t-87 -50.5t-91.5 -40t-85 -18t-56 24.5t-17 56.5zM328 580h114q-10 42 -23 137t-34 190z" />
<glyph unicode="&#xc2;" horiz-adv-x="905" d="M6 88l98 434l187 801q6 23 27 40t44 17h46q24 0 45.5 -17t25.5 -40l283 -1233q8 -35 -13.5 -62.5t-58.5 -27.5h-59q-23 0 -44.5 17t-27.5 40l-70 320h-208l-72 -320q-6 -23 -27.5 -40t-44.5 -17h-59q-37 0 -58.5 26.5t-13.5 61.5zM165.5 1508.5q-19.5 40.5 12.5 78.5 l125 152q6 9 25 18.5t30 9.5h74q11 0 30.5 -9.5t26.5 -18.5l125 -152q31 -38 11.5 -78.5t-68.5 -40.5h-70q-11 0 -30.5 9t-26.5 18l-35 59l-35 -59q-6 -9 -25.5 -18t-31.5 -9h-67q-51 0 -70.5 40.5zM328 580h114q-10 42 -23 137t-34 190z" />
<glyph unicode="&#xc3;" horiz-adv-x="905" d="M6 88l98 434l187 801q6 23 27 40t44 17h46q24 0 45.5 -17t25.5 -40l283 -1233q8 -35 -13.5 -62.5t-58.5 -27.5h-59q-23 0 -44.5 17t-27.5 40l-70 320h-208l-72 -320q-6 -23 -27.5 -40t-44.5 -17h-59q-37 0 -58.5 26.5t-13.5 61.5zM82 1571q40 79 99.5 116t123.5 37 q93 0 150 -63q32 -23 47 -23v-2q6 19 26.5 34.5t40.5 15.5h74q43 0 64 -33.5t4 -71.5q-36 -74 -93 -108.5t-122 -34.5q-49 0 -93 17.5t-71 45.5q-9 15 -27 15q-8 0 -22 -19q-6 -11 -26.5 -22t-33.5 -11h-76q-43 0 -64 34t-1 73zM328 580h114q-10 42 -23 137t-34 190z" />
<glyph unicode="&#xc4;" horiz-adv-x="905" d="M6 88l98 434l187 801q6 23 27 40t44 17h46q24 0 45.5 -17t25.5 -40l283 -1233q8 -35 -13.5 -62.5t-58.5 -27.5h-59q-23 0 -44.5 17t-27.5 40l-70 320h-208l-72 -320q-6 -23 -27.5 -40t-44.5 -17h-59q-37 0 -58.5 26.5t-13.5 61.5zM158 1542v78q0 31 21 52.5t52 21.5h58 q31 0 52 -21.5t21 -52.5v-78q0 -31 -21 -52.5t-52 -21.5h-58q-31 0 -52 21.5t-21 52.5zM328 580h114q-10 42 -23 137t-34 190zM426 1542v78q0 31 21.5 52.5t52.5 21.5h59q29 0 50.5 -21.5t21.5 -52.5v-78q0 -31 -21.5 -52.5t-50.5 -21.5h-59q-31 0 -52.5 21.5t-21.5 52.5z " />
<glyph unicode="&#xc5;" horiz-adv-x="905" d="M6 88q-8 -35 13.5 -61.5t58.5 -26.5h59q23 0 44.5 17t27.5 40l72 320h208l70 -320q6 -23 27.5 -40t44.5 -17h59q37 0 58.5 27.5t13.5 62.5l-283 1233q-4 23 -25.5 40t-45.5 17h-46q-23 0 -44 -17t-27 -40l-187 -801zM248 1616q0 63 44.5 108t108.5 45q63 0 108.5 -45 t45.5 -108t-45.5 -108.5t-108.5 -45.5q-64 0 -108.5 45.5t-44.5 108.5zM328 580l57 327q21 -95 34 -190t23 -137h-114zM354 1616q0 -20 12.5 -32.5t32.5 -12.5q18 0 30.5 12.5t12.5 32.5q0 17 -13 30t-30 13q-20 0 -32.5 -12.5t-12.5 -30.5z" />
<glyph unicode="&#xc6;" horiz-adv-x="1361" d="M14 102l559 1235q6 15 27 29t39 14h446q31 0 52.5 -21t21.5 -52v-56q0 -31 -21.5 -52t-52.5 -21h-313v-385h313q31 0 52.5 -21.5t21.5 -52.5v-55q0 -31 -21.5 -52.5t-52.5 -21.5h-313v-387h313q31 0 52.5 -21.5t21.5 -52.5v-55q0 -31 -21.5 -52.5t-52.5 -21.5h-442 q-31 0 -52.5 21.5t-21.5 52.5v303h-204q-67 -141 -156 -334q-8 -15 -28.5 -29t-37.5 -14h-63q-42 0 -63.5 32t-2.5 70zM457 580h112v251z" />
<glyph unicode="&#xc7;" horiz-adv-x="806" d="M-2 401v580q0 216 111 319q89 80 227 80q136 0 225 -80q109 -101 109 -319v-29q0 -30 -21 -51.5t-51 -21.5h-59q-31 0 -52.5 21t-21.5 52v29q0 197 -129 197q-131 0 -131 -197v-580q0 -102 32 -150t99 -48q61 0 94 37q35 46 35 161v29q0 31 21.5 52.5t52.5 21.5h59 q29 0 50.5 -21.5t21.5 -52.5v-29q0 -212 -107 -319q-84 -82 -227 -82q-146 0 -230 82q-108 108 -108 319zM172 -301q0 24 17 37t42 8q57 -18 127 -18q29 0 53.5 7.5t30.5 20.5q-8 4 -120 4h-17q-21 0 -34 14t-13 33v189q0 21 13 34t34 13h66q20 0 33.5 -13.5t13.5 -33.5v-78 q21 0 39 -1.5t47.5 -11t50 -26t36 -50t15.5 -79.5q0 -50 -22 -86.5t-59.5 -55.5t-78.5 -27.5t-88 -8.5q-80 0 -133 33.5t-53 95.5z" />
<glyph unicode="&#xc8;" horiz-adv-x="722" d="M0 74v1233q0 31 21.5 52t52.5 21h442q31 0 52.5 -21t21.5 -52v-56q0 -31 -21.5 -52t-52.5 -21h-313v-385h258q31 0 52.5 -21.5t21.5 -52.5v-55q0 -31 -21.5 -52.5t-52.5 -21.5h-258v-387h313q31 0 52.5 -21.5t21.5 -52.5v-55q0 -31 -21.5 -52.5t-52.5 -21.5h-442 q-31 0 -52.5 21.5t-21.5 52.5zM97.5 1686q-3.5 32 18 56.5t56.5 24.5q64 0 151 -41.5t142 -82.5l55 -41q28 -20 32 -52t-17 -57t-56 -25q-56 0 -143.5 41.5t-147.5 82.5l-59 42q-28 20 -31.5 52z" />
<glyph unicode="&#xc9;" horiz-adv-x="722" d="M0 74v1233q0 31 21.5 52t52.5 21h442q31 0 52.5 -21t21.5 -52v-56q0 -31 -21.5 -52t-52.5 -21h-313v-385h258q31 0 52.5 -21.5t21.5 -52.5v-55q0 -31 -21.5 -52.5t-52.5 -21.5h-258v-387h313q31 0 52.5 -21.5t21.5 -52.5v-55q0 -31 -21.5 -52.5t-52.5 -21.5h-442 q-31 0 -52.5 21.5t-21.5 52.5zM77 1550q4 32 32 52q8 7 23 18t58 39.5t83.5 50t92 39.5t91.5 18q35 0 56.5 -24.5t18 -56.5t-31.5 -52q-9 -7 -25 -18t-61.5 -39.5t-87 -50.5t-91.5 -40t-85 -18t-56 25t-17 57z" />
<glyph unicode="&#xca;" horiz-adv-x="722" d="M0 74v1233q0 31 21.5 52t52.5 21h442q31 0 52.5 -21t21.5 -52v-56q0 -31 -21.5 -52t-52.5 -21h-313v-385h258q31 0 52.5 -21.5t21.5 -52.5v-55q0 -31 -21.5 -52.5t-52.5 -21.5h-258v-387h313q31 0 52.5 -21.5t21.5 -52.5v-55q0 -31 -21.5 -52.5t-52.5 -21.5h-442 q-31 0 -52.5 21.5t-21.5 52.5zM63 1508.5q-19 40.5 13 78.5l125 152q6 9 25 18.5t30 9.5h74q11 0 30.5 -9.5t26.5 -18.5l125 -152q31 -38 11.5 -78.5t-68.5 -40.5h-70q-11 0 -30.5 9t-26.5 18l-35 59l-35 -59q-6 -9 -25.5 -18t-31.5 -9h-68q-51 0 -70 40.5z" />
<glyph unicode="&#xcb;" horiz-adv-x="722" d="M0 74v1233q0 31 21.5 52t52.5 21h442q31 0 52.5 -21t21.5 -52v-56q0 -31 -21.5 -52t-52.5 -21h-313v-385h258q31 0 52.5 -21.5t21.5 -52.5v-55q0 -31 -21.5 -52.5t-52.5 -21.5h-258v-387h313q31 0 52.5 -21.5t21.5 -52.5v-55q0 -31 -21.5 -52.5t-52.5 -21.5h-442 q-31 0 -52.5 21.5t-21.5 52.5zM68 1542v78q0 31 21 52.5t52 21.5h58q31 0 52 -21.5t21 -52.5v-78q0 -31 -21 -52.5t-52 -21.5h-58q-31 0 -52 21.5t-21 52.5zM336 1542v78q0 31 21.5 52.5t52.5 21.5h59q29 0 50.5 -21.5t21.5 -52.5v-78q0 -31 -21.5 -52.5t-50.5 -21.5h-59 q-31 0 -52.5 21.5t-21.5 52.5z" />
<glyph unicode="&#xcc;" horiz-adv-x="325" d="M-92.5 1686q-3.5 32 18 56.5t56.5 24.5q64 0 151 -41.5t142 -82.5l55 -41q28 -20 32 -52t-17 -57t-56 -25q-56 0 -143.5 41.5t-147.5 82.5l-59 42q-28 20 -31.5 52zM-6 74v1233q0 31 21.5 52t52.5 21h57q30 0 52 -21.5t22 -51.5v-1233q0 -30 -22 -52t-52 -22h-57 q-31 0 -52.5 21.5t-21.5 52.5z" />
<glyph unicode="&#xcd;" horiz-adv-x="325" d="M-114 1550q4 32 32 52q8 7 23 18t58 39.5t83.5 50t92 39.5t91.5 18q35 0 56.5 -24.5t18 -56.5t-31.5 -52q-9 -7 -25 -18t-61.5 -39.5t-87 -50.5t-91.5 -40t-85 -18t-56 25t-17 57zM-6 74v1233q0 31 21.5 52t52.5 21h57q30 0 52 -21.5t22 -51.5v-1233q0 -30 -22 -52 t-52 -22h-57q-31 0 -52.5 21.5t-21.5 52.5z" />
<glyph unicode="&#xce;" horiz-adv-x="325" d="M-123.5 1508.5q-19.5 40.5 12.5 78.5l125 152q6 9 25.5 18.5t30.5 9.5h73q11 0 31 -9.5t27 -18.5l125 -152q31 -38 11 -78.5t-69 -40.5h-69q-11 0 -31 9t-27 18l-35 59l-34 -59q-6 -9 -26 -18t-32 -9h-67q-51 0 -70.5 40.5zM-6 74v1233q0 31 21.5 52t52.5 21h57 q30 0 52 -21.5t22 -51.5v-1233q0 -30 -22 -52t-52 -22h-57q-31 0 -52.5 21.5t-21.5 52.5z" />
<glyph unicode="&#xcf;" horiz-adv-x="325" d="M-119 1542v78q0 31 21.5 52.5t52.5 21.5h57q31 0 52.5 -21.5t21.5 -52.5v-78q0 -31 -21.5 -52.5t-52.5 -21.5h-57q-31 0 -52.5 21.5t-21.5 52.5zM-6 74v1233q0 31 21.5 52t52.5 21h57q30 0 52 -21.5t22 -51.5v-1233q0 -30 -22 -52t-52 -22h-57q-31 0 -52.5 21.5 t-21.5 52.5zM150 1542v78q0 31 21 52.5t52 21.5h60q29 0 50 -21.5t21 -52.5v-78q0 -31 -21 -52.5t-50 -21.5h-60q-31 0 -52 21.5t-21 52.5z" />
<glyph unicode="&#xd0;" horiz-adv-x="815" d="M-176 662v55q0 31 21.5 52.5t50.5 21.5h446q31 0 52.5 -21.5t21.5 -52.5v-55q0 -31 -21.5 -52.5t-52.5 -21.5h-446q-29 0 -50.5 21.5t-21.5 52.5zM0 74v1233q0 31 21.5 52t52.5 21h211q182 0 270 -101.5t88 -303.5v-569q0 -406 -358 -406h-211q-31 0 -52.5 21.5 t-21.5 52.5zM203 203h82q81 0 117 49.5t36 153.5v569q0 104 -36 153.5t-117 49.5h-82v-975z" />
<glyph unicode="&#xd1;" horiz-adv-x="839" d="M0 74v1233q0 30 22 51.5t52 21.5h49q20 0 40.5 -14t26.5 -31l285 -704v676q0 31 21.5 52t52.5 21h57q31 0 52.5 -21t21.5 -52v-1233q0 -31 -21.5 -52.5t-52.5 -21.5h-47q-19 0 -40 14t-27 31l-285 705v-676q0 -30 -22 -52t-52 -22h-59q-30 0 -52 22t-22 52zM37 1571 q40 79 99.5 116t123.5 37q93 0 150 -63q32 -23 47 -23v-2q6 19 26.5 34.5t40.5 15.5h74q43 0 64 -33.5t4 -71.5q-36 -74 -93 -108.5t-122 -34.5q-49 0 -93 17.5t-71 45.5q-9 15 -27 15q-8 0 -22 -19q-6 -11 -26.5 -22t-33.5 -11h-76q-43 0 -64 34t-1 73z" />
<glyph unicode="&#xd2;" d="M2 401v580q0 195 85 297t251 102q168 0 252 -101.5t84 -297.5v-580q0 -212 -107 -319q-84 -82 -229 -82q-143 0 -227 82q-109 109 -109 319zM138.5 1686q-3.5 32 18 56.5t56.5 24.5q64 0 151 -41.5t142 -82.5l55 -41q28 -20 32 -52t-17 -57t-56 -25q-56 0 -143.5 41.5 t-146.5 82.5l-60 42q-28 20 -31.5 52zM207 401q0 -198 131 -198q66 0 98.5 47.5t32.5 150.5v580q0 102 -32 149.5t-99 47.5t-99 -48.5t-32 -148.5v-580z" />
<glyph unicode="&#xd3;" d="M2 401v580q0 195 85 297t251 102q168 0 252 -101.5t84 -297.5v-580q0 -212 -107 -319q-84 -82 -229 -82q-143 0 -227 82q-109 109 -109 319zM103 1550q4 32 32 52q8 7 23 18t58 39.5t83.5 50t92 39.5t91.5 18q35 0 56.5 -24.5t18 -56.5t-31.5 -52q-9 -7 -25 -18 t-61.5 -39.5t-87 -50.5t-91.5 -40t-85 -18t-56 25t-17 57zM207 401q0 -198 131 -198q66 0 98.5 47.5t32.5 150.5v580q0 102 -32 149.5t-99 47.5t-99 -48.5t-32 -148.5v-580z" />
<glyph unicode="&#xd4;" d="M2 401v580q0 195 85 297t251 102q168 0 252 -101.5t84 -297.5v-580q0 -212 -107 -319q-84 -82 -229 -82q-143 0 -227 82q-109 109 -109 319zM112 1508.5q-19 40.5 13 78.5l125 152q6 9 25 18.5t30 9.5h74q11 0 30.5 -9.5t26.5 -18.5l125 -152q31 -38 11.5 -78.5 t-68.5 -40.5h-70q-11 0 -30.5 9t-26.5 18l-35 59l-35 -59q-6 -9 -25.5 -18t-31.5 -9h-68q-51 0 -70 40.5zM207 401q0 -198 131 -198q66 0 98.5 47.5t32.5 150.5v580q0 102 -32 149.5t-99 47.5t-99 -48.5t-32 -148.5v-580z" />
<glyph unicode="&#xd5;" d="M2 401v580q0 195 85 297t251 102q168 0 252 -101.5t84 -297.5v-580q0 -212 -107 -319q-84 -82 -229 -82q-143 0 -227 82q-109 109 -109 319zM29 1571q40 79 99.5 116t123.5 37q92 0 149 -63q32 -23 48 -23v-2q6 19 26.5 34.5t40.5 15.5h74q43 0 63.5 -33.5t3.5 -71.5 q-36 -74 -93 -108.5t-122 -34.5q-49 0 -92.5 17.5t-70.5 45.5q-9 15 -27 15q-9 0 -23 -19q-6 -11 -26 -22t-33 -11h-76q-43 0 -64 34t-1 73zM207 401q0 -198 131 -198q66 0 98.5 47.5t32.5 150.5v580q0 102 -32 149.5t-99 47.5t-99 -48.5t-32 -148.5v-580z" />
<glyph unicode="&#xd6;" d="M2 401v580q0 195 85 297t251 102q168 0 252 -101.5t84 -297.5v-580q0 -212 -107 -319q-84 -82 -229 -82q-143 0 -227 82q-109 109 -109 319zM111 1542v78q0 31 21 52.5t52 21.5h58q31 0 52 -21.5t21 -52.5v-78q0 -31 -21 -52.5t-52 -21.5h-58q-31 0 -52 21.5t-21 52.5z M207 401q0 -198 131 -198q66 0 98.5 47.5t32.5 150.5v580q0 102 -32 149.5t-99 47.5t-99 -48.5t-32 -148.5v-580zM379 1542v78q0 31 21.5 52.5t52.5 21.5h59q29 0 50.5 -21.5t21.5 -52.5v-78q0 -31 -21.5 -52.5t-50.5 -21.5h-59q-31 0 -52.5 21.5t-21.5 52.5z" />
<glyph unicode="&#xd7;" horiz-adv-x="602" d="M-7 563.5q0 28.5 23 50.5l86 86l-86 86q-23 23 -23 52t23 51l39 41q23 22 52 22t51 -22l86 -86l86 86q23 22 52 22t52 -22l39 -41q22 -22 22 -51t-22 -52l-86 -86l86 -86q22 -22 22 -50.5t-22 -51.5l-39 -39q-23 -23 -52 -23t-52 23l-86 86l-86 -86q-22 -23 -51 -23 t-52 23l-39 39q-23 23 -23 51.5z" />
<glyph unicode="&#xd8;" d="M2 401v580q0 195 85 297t251 102q100 0 170 -37q26 37 63 37h64q41 0 61.5 -31t5.5 -69l-51 -125q23 -84 23 -174v-580q0 -212 -107 -319q-84 -82 -229 -82q-80 0 -143 27q-24 -27 -56 -27h-61q-41 0 -62 31t-6 69l33 80q-41 90 -41 221zM207 592l219 551q-30 35 -88 35 q-67 0 -99 -48.5t-32 -148.5v-389zM274 217q25 -14 64 -14q66 0 98.5 47.5t32.5 150.5v297z" />
<glyph unicode="&#xd9;" horiz-adv-x="837" d="M-12 377v932q0 31 21 52t50 21h58q31 0 52 -21t21 -52v-932q0 -86 31 -129t103 -43q133 0 133 172v932q0 31 21 52t50 21h58q31 0 52 -21t21 -52v-932q0 -375 -335 -375q-175 0 -255.5 100.5t-80.5 274.5zM128.5 1686q-3.5 32 18 56.5t56.5 24.5q64 0 151 -41.5 t142 -82.5l55 -41q28 -20 32 -52t-17 -57t-56 -25q-56 0 -143.5 41.5t-146.5 82.5l-60 42q-28 20 -31.5 52z" />
<glyph unicode="&#xda;" horiz-adv-x="837" d="M-12 377v932q0 31 21 52t50 21h58q31 0 52 -21t21 -52v-932q0 -86 31 -129t103 -43q133 0 133 172v932q0 31 21 52t50 21h58q31 0 52 -21t21 -52v-932q0 -375 -335 -375q-175 0 -255.5 100.5t-80.5 274.5zM124 1550q4 32 32 52q8 7 23 18t58 39.5t83.5 50t92 39.5 t91.5 18q35 0 56.5 -24.5t18 -56.5t-31.5 -52q-9 -7 -25 -18t-61.5 -39.5t-87 -50.5t-91.5 -40t-85 -18t-56 25t-17 57z" />
<glyph unicode="&#xdb;" horiz-adv-x="837" d="M-12 377v932q0 31 21 52t50 21h58q31 0 52 -21t21 -52v-932q0 -86 31 -129t103 -43q133 0 133 172v932q0 31 21 52t50 21h58q31 0 52 -21t21 -52v-932q0 -375 -335 -375q-175 0 -255.5 100.5t-80.5 274.5zM87.5 1508.5q-19.5 40.5 12.5 78.5l125 152q6 9 25.5 18.5 t30.5 9.5h73q11 0 31 -9.5t27 -18.5l125 -152q31 -38 11 -78.5t-69 -40.5h-69q-11 0 -31 9t-27 18l-35 59l-34 -59q-6 -9 -26 -18t-32 -9h-67q-51 0 -70.5 40.5z" />
<glyph unicode="&#xdc;" horiz-adv-x="837" d="M-12 377v932q0 31 21 52t50 21h58q31 0 52 -21t21 -52v-932q0 -86 31 -129t103 -43q133 0 133 172v932q0 31 21 52t50 21h58q31 0 52 -21t21 -52v-932q0 -375 -335 -375q-175 0 -255.5 100.5t-80.5 274.5zM98 1542v78q0 31 21.5 52.5t52.5 21.5h57q31 0 52.5 -21.5 t21.5 -52.5v-78q0 -31 -21.5 -52.5t-52.5 -21.5h-57q-31 0 -52.5 21.5t-21.5 52.5zM367 1542v78q0 31 21 52.5t52 21.5h60q29 0 50 -21.5t21 -52.5v-78q0 -31 -21 -52.5t-50 -21.5h-60q-31 0 -52 21.5t-21 52.5z" />
<glyph unicode="&#xdd;" d="M-29 1278q-17 38 4 70t64 32h65q19 0 40.5 -14t27.5 -29l166 -376l164 376q8 15 29 29t38 14h68q41 0 62 -32t6 -70l-265 -614v-590q0 -31 -21 -52.5t-52 -21.5h-58q-29 0 -50 21.5t-21 52.5v592q-44 102 -133.5 306t-133.5 306zM128 1550q4 32 32 52q8 7 23 18t58 39.5 t83.5 50t92 39.5t91.5 18q35 0 56.5 -24.5t18 -56.5t-31.5 -52q-9 -7 -25 -18t-61.5 -39.5t-87 -50.5t-91.5 -40t-85 -18t-56 25t-17 57z" />
<glyph unicode="&#xde;" horiz-adv-x="790" d="M-8 74v1233q0 31 21.5 52t52.5 21h55q31 0 52.5 -21t21.5 -52v-273h167q189 0 287.5 -92t98.5 -246q0 -153 -100.5 -246.5t-285.5 -93.5h-167v-282q0 -31 -21.5 -52.5t-52.5 -21.5h-55q-31 0 -52.5 21.5t-21.5 52.5zM195 561h167q93 0 138 37.5t45 97.5t-45 97.5 t-138 37.5h-167v-270z" />
<glyph unicode="&#xdf;" horiz-adv-x="770" d="M-8 70v837q-2 87 11.5 156.5t34 112.5t51.5 74.5t57 46.5t60 23.5t49.5 9.5t35.5 1q84 0 144 -26.5t94.5 -76t49.5 -113t15 -146.5q0 -167 -84 -285q67 -44 106 -121.5t39 -185.5q0 -109 -23 -183t-69.5 -116t-108 -60t-147.5 -18h-12q-29 0 -50.5 21t-21.5 49v55 q0 29 21.5 50.5t50.5 21.5h12q81 0 115.5 37t34.5 143q0 103 -47 147.5t-115 44.5q-29 0 -50.5 20.5t-21.5 49.5v55q0 29 21.5 49.5t50.5 20.5q55 0 77.5 50.5t22.5 154.5q0 83 -22.5 124.5t-85.5 41.5q-99 0 -99 -246v-819q0 -28 -20 -49t-49 -21h-58q-29 0 -49 21t-20 49z " />
<glyph unicode="&#xe0;" horiz-adv-x="905" d="M6 88l98 434l187 801q6 23 27 40t44 17h46q24 0 45.5 -17t25.5 -40l283 -1233q8 -35 -13.5 -62.5t-58.5 -27.5h-59q-23 0 -44.5 17t-27.5 40l-70 320h-208l-72 -320q-6 -23 -27.5 -40t-44.5 -17h-59q-37 0 -58.5 26.5t-13.5 61.5zM183.5 1686q-3.5 32 18 56.5t56.5 24.5 q64 0 151 -41.5t142 -82.5l55 -41q28 -20 32 -52t-17 -57t-56 -25q-56 0 -143.5 41.5t-147.5 82.5l-59 42q-28 20 -31.5 52zM328 580h114q-10 42 -23 137t-34 190z" />
<glyph unicode="&#xe1;" horiz-adv-x="905" d="M6 88l98 434l187 801q6 23 27 40t44 17h46q24 0 45.5 -17t25.5 -40l283 -1233q8 -35 -13.5 -62.5t-58.5 -27.5h-59q-23 0 -44.5 17t-27.5 40l-70 320h-208l-72 -320q-6 -23 -27.5 -40t-44.5 -17h-59q-37 0 -58.5 26.5t-13.5 61.5zM163 1545q4 32 32 52q8 7 23 18t58 39.5 t83.5 50.5t92 40t91.5 18q35 0 56.5 -24.5t18 -56.5t-31.5 -52q-9 -7 -25 -18t-61.5 -39.5t-87 -50.5t-91.5 -40t-85 -18t-56 24.5t-17 56.5zM328 580h114q-10 42 -23 137t-34 190z" />
<glyph unicode="&#xe2;" horiz-adv-x="905" d="M6 88l98 434l187 801q6 23 27 40t44 17h46q24 0 45.5 -17t25.5 -40l283 -1233q8 -35 -13.5 -62.5t-58.5 -27.5h-59q-23 0 -44.5 17t-27.5 40l-70 320h-208l-72 -320q-6 -23 -27.5 -40t-44.5 -17h-59q-37 0 -58.5 26.5t-13.5 61.5zM165.5 1508.5q-19.5 40.5 12.5 78.5 l125 152q6 9 25 18.5t30 9.5h74q11 0 30.5 -9.5t26.5 -18.5l125 -152q31 -38 11.5 -78.5t-68.5 -40.5h-70q-11 0 -30.5 9t-26.5 18l-35 59l-35 -59q-6 -9 -25.5 -18t-31.5 -9h-67q-51 0 -70.5 40.5zM328 580h114q-10 42 -23 137t-34 190z" />
<glyph unicode="&#xe3;" horiz-adv-x="905" d="M6 88l98 434l187 801q6 23 27 40t44 17h46q24 0 45.5 -17t25.5 -40l283 -1233q8 -35 -13.5 -62.5t-58.5 -27.5h-59q-23 0 -44.5 17t-27.5 40l-70 320h-208l-72 -320q-6 -23 -27.5 -40t-44.5 -17h-59q-37 0 -58.5 26.5t-13.5 61.5zM82 1571q40 79 99.5 116t123.5 37 q93 0 150 -63q32 -23 47 -23v-2q6 19 26.5 34.5t40.5 15.5h74q43 0 64 -33.5t4 -71.5q-36 -74 -93 -108.5t-122 -34.5q-49 0 -93 17.5t-71 45.5q-9 15 -27 15q-8 0 -22 -19q-6 -11 -26.5 -22t-33.5 -11h-76q-43 0 -64 34t-1 73zM328 580h114q-10 42 -23 137t-34 190z" />
<glyph unicode="&#xe4;" horiz-adv-x="905" d="M6 88l98 434l187 801q6 23 27 40t44 17h46q24 0 45.5 -17t25.5 -40l283 -1233q8 -35 -13.5 -62.5t-58.5 -27.5h-59q-23 0 -44.5 17t-27.5 40l-70 320h-208l-72 -320q-6 -23 -27.5 -40t-44.5 -17h-59q-37 0 -58.5 26.5t-13.5 61.5zM158 1542v78q0 31 21 52.5t52 21.5h58 q31 0 52 -21.5t21 -52.5v-78q0 -31 -21 -52.5t-52 -21.5h-58q-31 0 -52 21.5t-21 52.5zM328 580h114q-10 42 -23 137t-34 190zM426 1542v78q0 31 21.5 52.5t52.5 21.5h59q29 0 50.5 -21.5t21.5 -52.5v-78q0 -31 -21.5 -52.5t-50.5 -21.5h-59q-31 0 -52.5 21.5t-21.5 52.5z " />
<glyph unicode="&#xe5;" horiz-adv-x="905" d="M6 88q-8 -35 13.5 -61.5t58.5 -26.5h59q23 0 44.5 17t27.5 40l72 320h208l70 -320q6 -23 27.5 -40t44.5 -17h59q37 0 58.5 27.5t13.5 62.5l-283 1233q-4 23 -25.5 40t-45.5 17h-46q-23 0 -44 -17t-27 -40l-187 -801zM248 1616q0 63 44.5 108t108.5 45q63 0 108.5 -45 t45.5 -108t-45.5 -108.5t-108.5 -45.5q-64 0 -108.5 45.5t-44.5 108.5zM328 580l57 327q21 -95 34 -190t23 -137h-114zM354 1616q0 -20 12.5 -32.5t32.5 -12.5q18 0 30.5 12.5t12.5 32.5q0 17 -13 30t-30 13q-20 0 -32.5 -12.5t-12.5 -30.5z" />
<glyph unicode="&#xe6;" horiz-adv-x="1361" d="M27 98l536 1190q7 17 27 30t37 13h432q29 0 49 -20.5t20 -48.5v-56q0 -29 -20 -50t-49 -21h-303v-371h303q29 0 49 -20.5t20 -49.5v-55q0 -29 -20 -49.5t-49 -20.5h-303v-372h303q29 0 49 -21t20 -51v-55q0 -28 -20 -49t-49 -21h-428q-29 0 -49.5 21t-20.5 49v295h-199 q-29 -62 -80.5 -174.5t-68.5 -149.5q-6 -15 -26 -28t-37 -13h-60q-42 0 -62 30.5t-1 67.5zM451 559h110v242z" />
<glyph unicode="&#xe7;" horiz-adv-x="806" d="M-2 401v580q0 216 111 319q89 80 227 80q136 0 225 -80q109 -101 109 -319v-29q0 -30 -21 -51.5t-51 -21.5h-59q-31 0 -52.5 21t-21.5 52v29q0 197 -129 197q-131 0 -131 -197v-580q0 -102 32 -150t99 -48q61 0 94 37q35 46 35 161v29q0 31 21.5 52.5t52.5 21.5h59 q29 0 50.5 -21.5t21.5 -52.5v-29q0 -212 -107 -319q-84 -82 -227 -82q-146 0 -230 82q-108 108 -108 319zM172 -301q0 24 17 37t42 8q57 -18 127 -18q29 0 53.5 7.5t30.5 20.5q-8 4 -120 4h-17q-21 0 -34 14t-13 33v189q0 21 13 34t34 13h66q20 0 33.5 -13.5t13.5 -33.5v-78 q21 0 39 -1.5t47.5 -11t50 -26t36 -50t15.5 -79.5q0 -50 -22 -86.5t-59.5 -55.5t-78.5 -27.5t-88 -8.5q-80 0 -133 33.5t-53 95.5z" />
<glyph unicode="&#xe8;" horiz-adv-x="722" d="M0 74v1233q0 31 21.5 52t52.5 21h442q31 0 52.5 -21t21.5 -52v-56q0 -31 -21.5 -52t-52.5 -21h-313v-385h258q31 0 52.5 -21.5t21.5 -52.5v-55q0 -31 -21.5 -52.5t-52.5 -21.5h-258v-387h313q31 0 52.5 -21.5t21.5 -52.5v-55q0 -31 -21.5 -52.5t-52.5 -21.5h-442 q-31 0 -52.5 21.5t-21.5 52.5zM97.5 1686q-3.5 32 18 56.5t56.5 24.5q64 0 151 -41.5t142 -82.5l55 -41q28 -20 32 -52t-17 -57t-56 -25q-56 0 -143.5 41.5t-147.5 82.5l-59 42q-28 20 -31.5 52z" />
<glyph unicode="&#xe9;" horiz-adv-x="722" d="M0 74v1233q0 31 21.5 52t52.5 21h442q31 0 52.5 -21t21.5 -52v-56q0 -31 -21.5 -52t-52.5 -21h-313v-385h258q31 0 52.5 -21.5t21.5 -52.5v-55q0 -31 -21.5 -52.5t-52.5 -21.5h-258v-387h313q31 0 52.5 -21.5t21.5 -52.5v-55q0 -31 -21.5 -52.5t-52.5 -21.5h-442 q-31 0 -52.5 21.5t-21.5 52.5zM77 1550q4 32 32 52q8 7 23 18t58 39.5t83.5 50t92 39.5t91.5 18q35 0 56.5 -24.5t18 -56.5t-31.5 -52q-9 -7 -25 -18t-61.5 -39.5t-87 -50.5t-91.5 -40t-85 -18t-56 25t-17 57z" />
<glyph unicode="&#xea;" horiz-adv-x="722" d="M0 74v1233q0 31 21.5 52t52.5 21h442q31 0 52.5 -21t21.5 -52v-56q0 -31 -21.5 -52t-52.5 -21h-313v-385h258q31 0 52.5 -21.5t21.5 -52.5v-55q0 -31 -21.5 -52.5t-52.5 -21.5h-258v-387h313q31 0 52.5 -21.5t21.5 -52.5v-55q0 -31 -21.5 -52.5t-52.5 -21.5h-442 q-31 0 -52.5 21.5t-21.5 52.5zM63 1508.5q-19 40.5 13 78.5l125 152q6 9 25 18.5t30 9.5h74q11 0 30.5 -9.5t26.5 -18.5l125 -152q31 -38 11.5 -78.5t-68.5 -40.5h-70q-11 0 -30.5 9t-26.5 18l-35 59l-35 -59q-6 -9 -25.5 -18t-31.5 -9h-68q-51 0 -70 40.5z" />
<glyph unicode="&#xeb;" horiz-adv-x="722" d="M0 74v1233q0 31 21.5 52t52.5 21h442q31 0 52.5 -21t21.5 -52v-56q0 -31 -21.5 -52t-52.5 -21h-313v-385h258q31 0 52.5 -21.5t21.5 -52.5v-55q0 -31 -21.5 -52.5t-52.5 -21.5h-258v-387h313q31 0 52.5 -21.5t21.5 -52.5v-55q0 -31 -21.5 -52.5t-52.5 -21.5h-442 q-31 0 -52.5 21.5t-21.5 52.5zM68 1542v78q0 31 21 52.5t52 21.5h58q31 0 52 -21.5t21 -52.5v-78q0 -31 -21 -52.5t-52 -21.5h-58q-31 0 -52 21.5t-21 52.5zM336 1542v78q0 31 21.5 52.5t52.5 21.5h59q29 0 50.5 -21.5t21.5 -52.5v-78q0 -31 -21.5 -52.5t-50.5 -21.5h-59 q-31 0 -52.5 21.5t-21.5 52.5z" />
<glyph unicode="&#xec;" horiz-adv-x="325" d="M-92.5 1686q-3.5 32 18 56.5t56.5 24.5q64 0 151 -41.5t142 -82.5l55 -41q28 -20 32 -52t-17 -57t-56 -25q-56 0 -143.5 41.5t-147.5 82.5l-59 42q-28 20 -31.5 52zM-6 74v1233q0 31 21.5 52t52.5 21h57q30 0 52 -21.5t22 -51.5v-1233q0 -30 -22 -52t-52 -22h-57 q-31 0 -52.5 21.5t-21.5 52.5z" />
<glyph unicode="&#xed;" horiz-adv-x="325" d="M-114 1550q4 32 32 52q8 7 23 18t58 39.5t83.5 50t92 39.5t91.5 18q35 0 56.5 -24.5t18 -56.5t-31.5 -52q-9 -7 -25 -18t-61.5 -39.5t-87 -50.5t-91.5 -40t-85 -18t-56 25t-17 57zM-6 74v1233q0 31 21.5 52t52.5 21h57q30 0 52 -21.5t22 -51.5v-1233q0 -30 -22 -52 t-52 -22h-57q-31 0 -52.5 21.5t-21.5 52.5z" />
<glyph unicode="&#xee;" horiz-adv-x="325" d="M-123.5 1508.5q-19.5 40.5 12.5 78.5l125 152q6 9 25.5 18.5t30.5 9.5h73q11 0 31 -9.5t27 -18.5l125 -152q31 -38 11 -78.5t-69 -40.5h-69q-11 0 -31 9t-27 18l-35 59l-34 -59q-6 -9 -26 -18t-32 -9h-67q-51 0 -70.5 40.5zM-6 74v1233q0 31 21.5 52t52.5 21h57 q30 0 52 -21.5t22 -51.5v-1233q0 -30 -22 -52t-52 -22h-57q-31 0 -52.5 21.5t-21.5 52.5z" />
<glyph unicode="&#xef;" horiz-adv-x="325" d="M-119 1542v78q0 31 21.5 52.5t52.5 21.5h57q31 0 52.5 -21.5t21.5 -52.5v-78q0 -31 -21.5 -52.5t-52.5 -21.5h-57q-31 0 -52.5 21.5t-21.5 52.5zM-6 74v1233q0 31 21.5 52t52.5 21h57q30 0 52 -21.5t22 -51.5v-1233q0 -30 -22 -52t-52 -22h-57q-31 0 -52.5 21.5 t-21.5 52.5zM150 1542v78q0 31 21 52.5t52 21.5h60q29 0 50 -21.5t21 -52.5v-78q0 -31 -21 -52.5t-50 -21.5h-60q-31 0 -52 21.5t-21 52.5z" />
<glyph unicode="&#xf0;" horiz-adv-x="815" d="M-166 637v55q0 29 21.5 49.5t50.5 20.5h430q29 0 49.5 -20.5t20.5 -49.5v-55q0 -29 -20.5 -49.5t-49.5 -20.5h-430q-29 0 -50.5 20.5t-21.5 49.5zM6 70v1192q0 28 20.5 48.5t49.5 20.5h203q346 0 346 -391v-549q0 -391 -346 -391h-203q-29 0 -49.5 21t-20.5 49zM201 197 h78q78 0 113.5 47t35.5 147v549q0 100 -35.5 147.5t-113.5 47.5h-78v-938z" />
<glyph unicode="&#xf1;" horiz-adv-x="839" d="M0 74v1233q0 30 22 51.5t52 21.5h49q20 0 40.5 -14t26.5 -31l285 -704v676q0 31 21.5 52t52.5 21h57q31 0 52.5 -21t21.5 -52v-1233q0 -31 -21.5 -52.5t-52.5 -21.5h-47q-19 0 -40 14t-27 31l-285 705v-676q0 -30 -22 -52t-52 -22h-59q-30 0 -52 22t-22 52zM37 1571 q40 79 99.5 116t123.5 37q93 0 150 -63q32 -23 47 -23v-2q6 19 26.5 34.5t40.5 15.5h74q43 0 64 -33.5t4 -71.5q-36 -74 -93 -108.5t-122 -34.5q-49 0 -93 17.5t-71 45.5q-9 15 -27 15q-8 0 -22 -19q-6 -11 -26.5 -22t-33.5 -11h-76q-43 0 -64 34t-1 73z" />
<glyph unicode="&#xf2;" d="M2 401v580q0 195 85 297t251 102q168 0 252 -101.5t84 -297.5v-580q0 -212 -107 -319q-84 -82 -229 -82q-143 0 -227 82q-109 109 -109 319zM138.5 1686q-3.5 32 18 56.5t56.5 24.5q64 0 151 -41.5t142 -82.5l55 -41q28 -20 32 -52t-17 -57t-56 -25q-56 0 -143.5 41.5 t-146.5 82.5l-60 42q-28 20 -31.5 52zM207 401q0 -198 131 -198q66 0 98.5 47.5t32.5 150.5v580q0 102 -32 149.5t-99 47.5t-99 -48.5t-32 -148.5v-580z" />
<glyph unicode="&#xf3;" d="M2 401v580q0 195 85 297t251 102q168 0 252 -101.5t84 -297.5v-580q0 -212 -107 -319q-84 -82 -229 -82q-143 0 -227 82q-109 109 -109 319zM128 1550q4 32 32 52q8 7 23 18t58 39.5t83.5 50t92 39.5t91.5 18q35 0 56.5 -24.5t18 -56.5t-31.5 -52q-9 -7 -25 -18 t-61.5 -39.5t-87 -50.5t-91.5 -40t-85 -18t-56 25t-17 57zM207 401q0 -198 131 -198q66 0 98.5 47.5t32.5 150.5v580q0 102 -32 149.5t-99 47.5t-99 -48.5t-32 -148.5v-580z" />
<glyph unicode="&#xf4;" d="M2 401v580q0 195 85 297t251 102q168 0 252 -101.5t84 -297.5v-580q0 -212 -107 -319q-84 -82 -229 -82q-143 0 -227 82q-109 109 -109 319zM112 1508.5q-19 40.5 13 78.5l125 152q6 9 25 18.5t30 9.5h74q11 0 30.5 -9.5t26.5 -18.5l125 -152q31 -38 11.5 -78.5 t-68.5 -40.5h-70q-11 0 -30.5 9t-26.5 18l-35 59l-35 -59q-6 -9 -25.5 -18t-31.5 -9h-68q-51 0 -70 40.5zM207 401q0 -198 131 -198q66 0 98.5 47.5t32.5 150.5v580q0 102 -32 149.5t-99 47.5t-99 -48.5t-32 -148.5v-580z" />
<glyph unicode="&#xf5;" d="M2 401v580q0 195 85 297t251 102q168 0 252 -101.5t84 -297.5v-580q0 -212 -107 -319q-84 -82 -229 -82q-143 0 -227 82q-109 109 -109 319zM29 1571q40 79 99.5 116t123.5 37q92 0 149 -63q32 -23 48 -23v-2q6 19 26.5 34.5t40.5 15.5h74q43 0 63.5 -33.5t3.5 -71.5 q-36 -74 -93 -108.5t-122 -34.5q-49 0 -92.5 17.5t-70.5 45.5q-9 15 -27 15q-9 0 -23 -19q-6 -11 -26 -22t-33 -11h-76q-43 0 -64 34t-1 73zM207 401q0 -198 131 -198q66 0 98.5 47.5t32.5 150.5v580q0 102 -32 149.5t-99 47.5t-99 -48.5t-32 -148.5v-580z" />
<glyph unicode="&#xf6;" d="M2 401v580q0 195 85 297t251 102q168 0 252 -101.5t84 -297.5v-580q0 -212 -107 -319q-84 -82 -229 -82q-143 0 -227 82q-109 109 -109 319zM111 1542v78q0 31 21 52.5t52 21.5h58q31 0 52 -21.5t21 -52.5v-78q0 -31 -21 -52.5t-52 -21.5h-58q-31 0 -52 21.5t-21 52.5z M207 401q0 -198 131 -198q66 0 98.5 47.5t32.5 150.5v580q0 102 -32 149.5t-99 47.5t-99 -48.5t-32 -148.5v-580zM379 1542v78q0 31 21.5 52.5t52.5 21.5h59q29 0 50.5 -21.5t21.5 -52.5v-78q0 -31 -21.5 -52.5t-50.5 -21.5h-59q-31 0 -52.5 21.5t-21.5 52.5z" />
<glyph unicode="&#xf7;" horiz-adv-x="333" d="M-4 371v139q0 31 21.5 52.5t52.5 21.5h57q30 0 52 -22t22 -52v-139q0 -29 -22.5 -50.5t-51.5 -21.5h-57q-31 0 -52.5 21.5t-21.5 50.5zM-4 874v140q0 31 21.5 52t52.5 21h57q30 0 52 -21.5t22 -51.5v-140q0 -29 -22 -50t-52 -21h-57q-31 0 -52.5 21t-21.5 50z" />
<glyph unicode="&#xf8;" d="M2 401v580q0 195 85 297t251 102q100 0 170 -37q26 37 63 37h64q41 0 61.5 -31t5.5 -69l-51 -125q23 -84 23 -174v-580q0 -212 -107 -319q-84 -82 -229 -82q-80 0 -143 27q-24 -27 -56 -27h-61q-41 0 -62 31t-6 69l33 80q-41 90 -41 221zM207 592l219 551q-30 35 -88 35 q-67 0 -99 -48.5t-32 -148.5v-389zM274 217q25 -14 64 -14q66 0 98.5 47.5t32.5 150.5v297z" />
<glyph unicode="&#xf9;" horiz-adv-x="837" d="M-12 377v932q0 31 21 52t50 21h58q31 0 52 -21t21 -52v-932q0 -86 31 -129t103 -43q133 0 133 172v932q0 31 21 52t50 21h58q31 0 52 -21t21 -52v-932q0 -375 -335 -375q-175 0 -255.5 100.5t-80.5 274.5zM128.5 1686q-3.5 32 18 56.5t56.5 24.5q64 0 151 -41.5 t142 -82.5l55 -41q28 -20 32 -52t-17 -57t-56 -25q-56 0 -143.5 41.5t-146.5 82.5l-60 42q-28 20 -31.5 52z" />
<glyph unicode="&#xfa;" horiz-adv-x="837" d="M-12 377v932q0 31 21 52t50 21h58q31 0 52 -21t21 -52v-932q0 -86 31 -129t103 -43q133 0 133 172v932q0 31 21 52t50 21h58q31 0 52 -21t21 -52v-932q0 -375 -335 -375q-175 0 -255.5 100.5t-80.5 274.5zM124 1550q4 32 32 52q8 7 23 18t58 39.5t83.5 50t92 39.5 t91.5 18q35 0 56.5 -24.5t18 -56.5t-31.5 -52q-9 -7 -25 -18t-61.5 -39.5t-87 -50.5t-91.5 -40t-85 -18t-56 25t-17 57z" />
<glyph unicode="&#xfb;" horiz-adv-x="837" d="M-12 377v932q0 31 21 52t50 21h58q31 0 52 -21t21 -52v-932q0 -86 31 -129t103 -43q133 0 133 172v932q0 31 21 52t50 21h58q31 0 52 -21t21 -52v-932q0 -375 -335 -375q-175 0 -255.5 100.5t-80.5 274.5zM87.5 1508.5q-19.5 40.5 12.5 78.5l125 152q6 9 25.5 18.5 t30.5 9.5h73q11 0 31 -9.5t27 -18.5l125 -152q31 -38 11 -78.5t-69 -40.5h-69q-11 0 -31 9t-27 18l-35 59l-34 -59q-6 -9 -26 -18t-32 -9h-67q-51 0 -70.5 40.5z" />
<glyph unicode="&#xfc;" horiz-adv-x="837" d="M-12 377v932q0 31 21 52t50 21h58q31 0 52 -21t21 -52v-932q0 -86 31 -129t103 -43q133 0 133 172v932q0 31 21 52t50 21h58q31 0 52 -21t21 -52v-932q0 -375 -335 -375q-175 0 -255.5 100.5t-80.5 274.5zM98 1542v78q0 31 21.5 52.5t52.5 21.5h57q31 0 52.5 -21.5 t21.5 -52.5v-78q0 -31 -21.5 -52.5t-52.5 -21.5h-57q-31 0 -52.5 21.5t-21.5 52.5zM367 1542v78q0 31 21 52.5t52 21.5h60q29 0 50 -21.5t21 -52.5v-78q0 -31 -21 -52.5t-50 -21.5h-60q-31 0 -52 21.5t-21 52.5z" />
<glyph unicode="&#xfd;" d="M-29 1278q-17 38 4 70t64 32h65q19 0 40.5 -14t27.5 -29l166 -376l164 376q8 15 29 29t38 14h68q41 0 62 -32t6 -70l-265 -614v-590q0 -31 -21 -52.5t-52 -21.5h-58q-29 0 -50 21.5t-21 52.5v592q-44 102 -133.5 306t-133.5 306zM128 1550q4 32 32 52q8 7 23 18t58 39.5 t83.5 50t92 39.5t91.5 18q35 0 56.5 -24.5t18 -56.5t-31.5 -52q-9 -7 -25 -18t-61.5 -39.5t-87 -50.5t-91.5 -40t-85 -18t-56 25t-17 57z" />
<glyph unicode="&#xfe;" horiz-adv-x="790" d="M0 70v1192q0 28 20.5 48.5t49.5 20.5h55q29 0 49.5 -20.5t20.5 -48.5v-265h163q182 0 276.5 -88.5t94.5 -236.5q0 -147 -96.5 -237.5t-274.5 -90.5h-163v-274q0 -28 -20.5 -49t-49.5 -21h-55q-29 0 -49.5 21t-20.5 49zM195 543h163q89 0 131.5 35.5t42.5 93.5t-42.5 93.5 t-131.5 35.5h-163v-258z" />
<glyph unicode="&#xff;" d="M-29 1278q-17 38 4 70t64 32h65q19 0 40.5 -14t27.5 -29l166 -376l164 376q8 15 29 29t38 14h68q41 0 62 -32t6 -70l-265 -614v-590q0 -31 -21 -52.5t-52 -21.5h-58q-29 0 -50 21.5t-21 52.5v592q-44 102 -133.5 306t-133.5 306zM111 1542v78q0 31 21 52.5t52 21.5h58 q31 0 52 -21.5t21 -52.5v-78q0 -31 -21 -52.5t-52 -21.5h-58q-31 0 -52 21.5t-21 52.5zM379 1542v78q0 31 21.5 52.5t52.5 21.5h59q29 0 50.5 -21.5t21.5 -52.5v-78q0 -31 -21.5 -52.5t-50.5 -21.5h-59q-31 0 -52.5 21.5t-21.5 52.5z" />
<glyph unicode="&#x152;" horiz-adv-x="1114" d="M10 473v471q0 93 34 175t90.5 138.5t130.5 89.5t153 33h444q30 0 51 -21t21 -52v-56q0 -31 -21 -52t-51 -21h-313v-385h313q29 0 50.5 -21.5t21.5 -52.5v-55q0 -31 -21.5 -52.5t-50.5 -21.5h-313v-387h313q29 0 50.5 -21.5t21.5 -52.5v-55q0 -31 -21.5 -52.5t-50.5 -21.5 h-444q-207 0 -307.5 128t-100.5 345zM213 438q0 -78 37.5 -136.5t95.5 -84.5v944q-58 -24 -95.5 -82t-37.5 -135v-506z" />
<glyph unicode="&#x153;" horiz-adv-x="1114" d="M18 455v456q0 89 33 168t88 134t127 86.5t148 31.5h426q29 0 50 -20.5t21 -48.5v-56q0 -29 -21 -50t-50 -21h-301v-371h301q29 0 50 -20.5t21 -49.5v-55q0 -29 -21 -49.5t-50 -20.5h-301v-372h301q29 0 50 -21.5t21 -50.5v-55q0 -28 -21 -49t-50 -21h-426 q-103 0 -180 33.5t-123.5 95.5t-69.5 143.5t-23 182.5zM215 422q0 -75 36 -131.5t91 -79.5v909q-55 -24 -91 -80t-36 -129v-489z" />
<glyph unicode="&#x178;" d="M-29 1278q-17 38 4 70t64 32h65q19 0 40.5 -14t27.5 -29l166 -376l164 376q8 15 29 29t38 14h68q41 0 62 -32t6 -70l-265 -614v-590q0 -31 -21 -52.5t-52 -21.5h-58q-29 0 -50 21.5t-21 52.5v592q-44 102 -133.5 306t-133.5 306zM111 1542v78q0 31 21 52.5t52 21.5h58 q31 0 52 -21.5t21 -52.5v-78q0 -31 -21 -52.5t-52 -21.5h-58q-31 0 -52 21.5t-21 52.5zM379 1542v78q0 31 21.5 52.5t52.5 21.5h59q29 0 50.5 -21.5t21.5 -52.5v-78q0 -31 -21.5 -52.5t-50.5 -21.5h-59q-31 0 -52.5 21.5t-21.5 52.5z" />
<glyph unicode="&#x2c6;" horiz-adv-x="485" d="M-13 1508.5q-19 40.5 13 78.5l125 152q6 9 25 18.5t30 9.5h74q11 0 30.5 -9.5t26.5 -18.5l125 -152q31 -38 11.5 -78.5t-68.5 -40.5h-70q-11 0 -30.5 9t-26.5 18l-35 59l-35 -59q-6 -9 -25.5 -18t-31.5 -9h-68q-51 0 -70 40.5z" />
<glyph unicode="&#x2dc;" horiz-adv-x="653" d="M-8 1571q40 79 99.5 116t123.5 37q93 0 150 -63q32 -23 47 -23v-2q6 19 26.5 34.5t40.5 15.5h74q43 0 64 -33.5t4 -71.5q-36 -74 -93 -108.5t-122 -34.5q-49 0 -93 17.5t-71 45.5q-9 15 -27 15q-8 0 -22 -19q-6 -11 -26.5 -22t-33.5 -11h-76q-43 0 -64 34t-1 73z" />
<glyph unicode="&#x2000;" horiz-adv-x="884" />
<glyph unicode="&#x2001;" horiz-adv-x="1769" />
<glyph unicode="&#x2002;" horiz-adv-x="884" />
<glyph unicode="&#x2003;" horiz-adv-x="1769" />
<glyph unicode="&#x2004;" horiz-adv-x="589" />
<glyph unicode="&#x2005;" horiz-adv-x="442" />
<glyph unicode="&#x2006;" horiz-adv-x="294" />
<glyph unicode="&#x2007;" horiz-adv-x="294" />
<glyph unicode="&#x2008;" horiz-adv-x="221" />
<glyph unicode="&#x2009;" horiz-adv-x="353" />
<glyph unicode="&#x200a;" horiz-adv-x="98" />
<glyph unicode="&#x2010;" horiz-adv-x="714" d="M6 662v55q0 31 21.5 52.5t52.5 21.5h446q31 0 52.5 -21.5t21.5 -52.5v-55q0 -31 -21.5 -52.5t-52.5 -21.5h-446q-31 0 -52.5 21.5t-21.5 52.5z" />
<glyph unicode="&#x2011;" horiz-adv-x="714" d="M6 662v55q0 31 21.5 52.5t52.5 21.5h446q31 0 52.5 -21.5t21.5 -52.5v-55q0 -31 -21.5 -52.5t-52.5 -21.5h-446q-31 0 -52.5 21.5t-21.5 52.5z" />
<glyph unicode="&#x2012;" horiz-adv-x="714" d="M6 662v55q0 31 21.5 52.5t52.5 21.5h446q31 0 52.5 -21.5t21.5 -52.5v-55q0 -31 -21.5 -52.5t-52.5 -21.5h-446q-31 0 -52.5 21.5t-21.5 52.5z" />
<glyph unicode="&#x2013;" horiz-adv-x="714" d="M6 662v55q0 31 21.5 52.5t52.5 21.5h446q31 0 52.5 -21.5t21.5 -52.5v-55q0 -31 -21.5 -52.5t-52.5 -21.5h-446q-31 0 -52.5 21.5t-21.5 52.5z" />
<glyph unicode="&#x2014;" horiz-adv-x="714" d="M6 662v55q0 31 21.5 52.5t52.5 21.5h446q31 0 52.5 -21.5t21.5 -52.5v-55q0 -31 -21.5 -52.5t-52.5 -21.5h-446q-31 0 -52.5 21.5t-21.5 52.5z" />
<glyph unicode="&#x2018;" horiz-adv-x="268" d="M-10 1147v160q0 31 21 52t50 21h58q31 0 52.5 -21t21.5 -52v-160q0 -31 -21.5 -52.5t-52.5 -21.5h-58q-29 0 -50 21.5t-21 52.5z" />
<glyph unicode="&#x2019;" horiz-adv-x="268" d="M-10 1147v160q0 31 21 52t50 21h58q31 0 52.5 -21t21.5 -52v-160q0 -31 -21.5 -52.5t-52.5 -21.5h-58q-29 0 -50 21.5t-21 52.5z" />
<glyph unicode="&#x201c;" horiz-adv-x="409" d="M-8 1147v160q0 31 21.5 52t52.5 21h57q29 0 50.5 -21t21.5 -52v-160q0 -31 -21.5 -52.5t-50.5 -21.5h-57q-31 0 -52.5 21.5t-21.5 52.5zM100 1147v160q0 31 21.5 52t52.5 21h57q31 0 52.5 -21t21.5 -52v-160q0 -31 -21.5 -52.5t-52.5 -21.5h-57q-31 0 -52.5 21.5 t-21.5 52.5z" />
<glyph unicode="&#x201d;" horiz-adv-x="409" d="M-8 1147v160q0 31 21.5 52t52.5 21h57q29 0 50.5 -21t21.5 -52v-160q0 -31 -21.5 -52.5t-50.5 -21.5h-57q-31 0 -52.5 21.5t-21.5 52.5zM100 1147v160q0 31 21.5 52t52.5 21h57q31 0 52.5 -21t21.5 -52v-160q0 -31 -21.5 -52.5t-52.5 -21.5h-57q-31 0 -52.5 21.5 t-21.5 52.5z" />
<glyph unicode="&#x2022;" horiz-adv-x="317" d="M-8 768q0 61 41.5 102t103.5 41t104 -41t42 -102q0 -63 -42 -104t-104 -41t-103.5 41t-41.5 104z" />
<glyph unicode="&#x202f;" horiz-adv-x="353" />
<glyph unicode="&#x205f;" horiz-adv-x="442" />
<glyph unicode="&#x20ac;" horiz-adv-x="757" d="M-76 459v57q0 31 21.5 52.5t52.5 21.5h35v127h-35q-31 0 -52.5 21t-21.5 50v58q0 31 21.5 52.5t52.5 21.5h35v61q0 95 23 168t58 115.5t84 69.5t95 36.5t96 9.5q56 0 104.5 -12.5t78 -31t51 -36.5t30.5 -30l9 -13q10 -19 7.5 -43.5t-14.5 -39.5l-39 -44 q-29 -33 -66 -27.5t-54 44.5q-2 3 -7 8.5t-32 14t-68 8.5q-78 0 -113.5 -56.5t-35.5 -140.5v-61h223q29 0 50.5 -21.5t21.5 -52.5v-58q0 -29 -21.5 -50t-50.5 -21h-223v-127h223q29 0 50.5 -21.5t21.5 -52.5v-57q0 -29 -21.5 -50.5t-50.5 -21.5h-223q2 -82 39 -133t110 -51 q22 0 41.5 5.5t31.5 12.5t20.5 14.5t11.5 12.5l4 6q15 32 47.5 39.5t60.5 -14.5l53 -39q21 -17 26 -45.5t-9 -51.5q-4 -6 -11 -15.5t-33 -34t-56 -43.5t-80.5 -34.5t-106.5 -15.5q-49 0 -94.5 9t-93.5 35.5t-83.5 68t-59 112t-25.5 162.5h-35q-31 0 -52.5 21.5t-21.5 50.5z " />
<glyph unicode="&#x2122;" horiz-adv-x="1331" d="M14 1272v37q0 31 21.5 52t52.5 21h393q31 0 52.5 -21t21.5 -52v-37q0 -31 -21.5 -52.5t-52.5 -21.5h-106v-319q0 -31 -21.5 -52.5t-52.5 -21.5h-35q-31 0 -52 21.5t-21 52.5v319h-105q-31 0 -52.5 21.5t-21.5 52.5zM635 877v430q0 31 21.5 52t52.5 21h20q23 0 44.5 -17 t25.5 -40l141 -289l139 289q4 23 26 40t46 17h20q31 0 52.5 -21t21.5 -52v-430q0 -31 -21.5 -52.5t-52.5 -21.5h-16q-31 0 -52.5 21.5t-21.5 52.5v194l-67 -209q-11 -40 -44 -54.5t-64 0.5t-38 52l-69 215v-198q0 -30 -22 -52t-52 -22h-16q-31 0 -52.5 21.5t-21.5 52.5z" />
<glyph unicode="&#x25fc;" horiz-adv-x="1382" d="M0 0v1382h1382v-1382h-1382z" />
</font>
</defs>
</svg>
