<?xml version="1.0" standalone="no"?>
<!DOCTYPE svg PUBLIC "-//W3C//DTD SVG 1.1//EN" "http://www.w3.org/Graphics/SVG/1.1/DTD/svg11.dtd" >
<svg xmlns="http://www.w3.org/2000/svg">
<metadata></metadata>
<defs>
<font id="ostrich_sansmedium" horiz-adv-x="729" >
<font-face units-per-em="2048" ascent="1638" descent="-410" />
<missing-glyph horiz-adv-x="430" />
<glyph horiz-adv-x="0" />
<glyph horiz-adv-x="682" />
<glyph unicode="&#xd;" horiz-adv-x="430" />
<glyph unicode=" "  horiz-adv-x="430" />
<glyph unicode="&#x09;" horiz-adv-x="430" />
<glyph unicode="&#xa0;" horiz-adv-x="430" />
<glyph unicode="!" horiz-adv-x="190" d="M18 2v88h64v-88h-64zM18 203v1179h64v-1179h-64z" />
<glyph unicode="&#x22;" horiz-adv-x="331" d="M20 1200v180h64v-180h-64zM141 1200v180h66v-180h-66z" />
<glyph unicode="#" horiz-adv-x="1110" d="M-41 463v65h299l64 322h-299v65h311l90 465h68l-93 -465h291l88 465h66l-88 -465h245v-65h-260l-61 -322h258v-65h-272l-88 -463h-66l88 463h-289l-90 -463h-65l90 463h-287zM324 528h288l64 322h-289z" />
<glyph unicode="$" horiz-adv-x="655" d="M39 414v32h63v-32q0 -133 52 -195q43 -52 108 -55v498q-3 1 -8 4t-8 4q-88 45 -129 90q-78 82 -78 205q0 135 59.5 218t163.5 95v102h64v-102q99 -11 153 -70q70 -84 70 -243v-33h-64v33q0 135 -51 196q-35 42 -108 53v-514q2 -2 8 -2l6 -4q87 -40 133 -86 q76 -80 76 -202q0 -133 -62 -216q-60 -78 -161 -90v-100h-64v100q-97 11 -151 72q-72 79 -72 242zM102 965q0 -97 54 -154q41 -46 106 -76v477q-82 -12 -123 -88q-37 -64 -37 -159zM326 166q75 11 117 73.5t42 166.5q0 93 -53 153q-36 36 -106 70v-463z" />
<glyph unicode="%" horiz-adv-x="919" d="M0 922v176q0 84 47 136t121 52t121 -52t47 -136v-176q0 -84 -47 -136.5t-121 -52.5t-121 52.5t-47 136.5zM63 922q0 -49 26 -86t79 -37q52 0 77 36.5t25 86.5v176q0 50 -25 86.5t-77 36.5q-53 0 -79 -37t-26 -86v-176zM109 0l553 1380h69l-553 -1380h-69zM502 281v176 q0 84 46.5 135t121.5 51q74 0 120 -51t46 -135v-176q0 -84 -46 -136.5t-120 -52.5q-75 0 -121.5 52t-46.5 137zM565 281q0 -50 25 -87.5t80 -37.5q52 0 77 37.5t25 87.5v176q0 48 -22 82q-26 41 -80 41q-56 0 -82 -41q-23 -36 -23 -82v-176z" />
<glyph unicode="&#x26;" horiz-adv-x="878" d="M0 340q0 124 61 211q8 12 18 24.5t18.5 22.5t20.5 22.5t20 20t22 20.5t20.5 19t23 19.5t21.5 17.5l22.5 18t20.5 17q-56 94 -91 200.5t-40 203.5t42.5 160.5t148.5 63.5q73 0 122 -37.5t68 -96t17 -132t-24.5 -144.5t-63.5 -134.5t-93 -100.5l264 -454q41 109 41 309v20 h66v-20q0 -239 -63 -375v-2q-3 0 -3 -2l123 -211h-73l-86 147q-105 -147 -314 -147q-140 0 -224.5 95.5t-84.5 244.5zM63 340q0 -115 60 -190q70 -87 186 -87q190 0 277 146l-285 483q-141 -109 -186 -176q-52 -71 -52 -176zM207.5 1156q3.5 -68 22 -143.5t44 -136 t45.5 -88.5q30 26 46 46q47 61 76 144t32.5 158.5t-33 128t-112.5 52.5q-65 0 -94.5 -46.5t-26 -114.5z" />
<glyph unicode="'" horiz-adv-x="165" d="M20 1200v180h64v-180h-64z" />
<glyph unicode="(" horiz-adv-x="339" d="M14 686q0 347 95 553q35 77 65 107l35 30l37 -55q-32 -28 -53 -64q-16 -22 -31 -57q-84 -190 -84 -514q0 -329 84 -510q33 -67 55 -92q14 -17 27 -25l-33 -55l-35 33q-31 24 -67 104q-95 198 -95 545z" />
<glyph unicode=")" horiz-adv-x="323" d="M27 59q27 27 51 64q16 22 31 57q84 181 84 514q0 184 -27 326q-21 106 -55 184q-29 65 -56 92q-5 4 -9.5 8.5t-7.5 7t-5.5 5l-3.5 3.5t-2 1h2l32 55l37 -30q30 -27 66 -107q94 -192 94 -545q0 -347 -94 -551q-39 -80 -68 -106l-35 -33z" />
<glyph unicode="*" horiz-adv-x="604" d="M20 1174l23 61l199 -74v211h63v-211l199 74l22 -61l-198 -74l149 -168l-49 -43l-156 176l-153 -176l-49 43l147 168z" />
<glyph unicode="+" horiz-adv-x="786" d="M25 651v66h299v299h65v-299h299v-66h-299v-299h-65v299h-299z" />
<glyph unicode="," horiz-adv-x="174" d="M27 -82v170h63v-170h-63z" />
<glyph unicode="-" horiz-adv-x="612" d="M27 657v64h499v-64h-499z" />
<glyph unicode="." horiz-adv-x="165" d="M25 0v88h65v-88h-65z" />
<glyph unicode="/" horiz-adv-x="786" d="M43 0l553 1380h70l-553 -1380h-70z" />
<glyph unicode="0" horiz-adv-x="655" d="M18 371v641q0 368 256 368q127 0 191.5 -96.5t64.5 -271.5v-641q0 -175 -65.5 -273t-190.5 -98q-127 0 -191.5 96t-64.5 275zM82 371q0 -308 192 -308q191 0 191 308v641q0 305 -191 305q-192 0 -192 -305v-641z" />
<glyph unicode="1" horiz-adv-x="397" d="M16 1108l209 272h64v-1380h-66v1270l-157 -203z" />
<glyph unicode="2" horiz-adv-x="655" d="M25 0v33q0 178 49 309q52 148 186 270q211 193 211 439q0 125 -49.5 195.5t-140.5 70.5q-97 0 -144 -66.5t-47 -208.5v-12h-65v12q0 164 64.5 251t191.5 87q120 0 188 -92t68 -237q0 -279 -234 -488q-108 -96 -158 -214.5t-55 -285.5h447v-63h-512z" />
<glyph unicode="3" horiz-adv-x="620" d="M20 365v12h66v-12q0 -302 190 -302q42 0 75 16.5t53 44t32 55.5t19 59q12 52 12 118q0 148 -88 232q-74 69 -156 69h-59v64h59q86 0 160 74q84 88 84 227q0 135 -51 215q-50 80 -140 80q-190 0 -190 -303v-13h-66v13q0 176 65 271t191 95q128 0 195 -110q61 -91 61 -248 q0 -173 -108 -277q-34 -34 -78 -57q42 -19 78 -55q108 -104 108 -277q0 -164 -69.5 -260t-186.5 -96q-126 0 -191 95t-65 270z" />
<glyph unicode="4" horiz-adv-x="663" d="M20 422v61l486 897h61v-1380h-65v422h-482zM96 485h406v750z" />
<glyph unicode="5" horiz-adv-x="634" d="M18 360v9h66v-9q0 -153 47.5 -225t142.5 -72q140 0 179 181q12 52 12 116v146q0 151 -46.5 220t-144.5 69q-87 0 -138.5 -73t-51.5 -175v-12h-66v845h512v-63h-446v-561q70 104 190 104q125 0 195 -94q61 -88 61 -260v-146q0 -148 -61 -247q-70 -113 -195 -113 q-126 0 -191 93.5t-65 266.5z" />
<glyph unicode="6" horiz-adv-x="638" d="M18 324v604q0 260 93 375q62 77 163 77q125 0 190.5 -84.5t65.5 -230.5v-31h-65v31q0 122 -49.5 187t-141.5 65q-110 0 -157 -139q-33 -98 -33 -250v-174q70 104 190 104q256 0 256 -360v-129q0 -151 -61 -254q-68 -115 -195 -115q-121 0 -188.5 85t-67.5 239zM84 324 q0 -101 33 -166q48 -95 157 -95q140 0 179 185q12 55 12 121v129q0 153 -48 225t-143 72q-90 0 -140 -80t-50 -215v-176z" />
<glyph unicode="7" horiz-adv-x="770" d="M12 1317v63h682v-61l-551 -1319h-69l551 1317h-613z" />
<glyph unicode="8" horiz-adv-x="679" d="M14 360q0 178 66 269q25 38 70 61q-44 23 -70 62q-66 91 -66 268q0 181 67.5 270.5t211.5 89.5q142 0 209 -88t67 -272q0 -182 -65 -268q-26 -39 -70 -62q45 -23 70 -61q65 -86 65 -269q0 -184 -67 -272t-209 -88q-144 0 -211.5 89.5t-67.5 270.5zM80 360 q0 -158 51 -227.5t162 -69.5q110 0 160 68q51 68 51 229q0 159 -50 229t-161 70t-162 -70.5t-51 -228.5zM80 1020q0 -161 51 -229q53 -68 162 -68q111 0 161 69t50 228t-50 228t-161 69t-162 -69.5t-51 -227.5z" />
<glyph unicode="9" horiz-adv-x="630" d="M16 334v33h66v-33q0 -133 48.5 -202t141.5 -69q106 0 156 130q35 89 35 258v155q-67 -106 -191 -106q-127 0 -191.5 92.5t-64.5 271.5v152q0 166 69.5 265t186.5 99q126 0 191 -83.5t65 -235.5v-610q0 -216 -64 -333.5t-192 -117.5q-125 0 -190.5 89t-65.5 245zM82 864 q0 -157 47 -228t143 -71q136 0 179 176q12 55 12 121v199q0 256 -191 256q-87 0 -138.5 -82.5t-51.5 -218.5v-152z" />
<glyph unicode=":" horiz-adv-x="231" d="M29 334v155h63v-155h-63zM29 897v156h63v-156h-63z" />
<glyph unicode=";" horiz-adv-x="198" d="M27 260v229h65v-229h-65zM27 897v156h65v-156h-65z" />
<glyph unicode="&#x3c;" horiz-adv-x="495" d="M-6 739l45 45l264 263h88l-307 -308l307 -307h-88l-264 262z" />
<glyph unicode="=" horiz-adv-x="638" d="M27 412v63h499v-63h-499zM27 842v63h499v-63h-499z" />
<glyph unicode="&#x3e;" horiz-adv-x="495" d="M-6 432l307 307l-307 308h88l264 -263l45 -45l-45 -45l-264 -262h-88z" />
<glyph unicode="?" horiz-adv-x="620" d="M29 997v31q0 168 65 261t191 93q121 0 194 -104q62 -95 62 -240q0 -125 -60 -221q-23 -37 -59.5 -94t-54.5 -85.5t-42 -77t-35 -89t-19.5 -99.5t-8.5 -128v-39h-63v39q0 61 3 92t15 96q15 88 44.5 152.5t88 149t78.5 118.5q47 78 47 186q0 130 -49 203q-54 78 -141 78 q-94 0 -140 -70q-51 -68 -51 -221v-31h-65zM197 2v88h65v-88h-65z" />
<glyph unicode="@" horiz-adv-x="1325" d="M25 727q37 228 188 389q136 139 332 180q185 38 342 -22q159 -61 248 -199q62 -97 75 -248q10 -155 -36 -270q-44 -106 -170 -172q-56 -30 -116 -40.5t-104 1.5q-43 11 -64.5 43.5t-17.5 79.5q-28 -21 -63 -27t-92 -6q-237 0 -201 252q14 126 77.5 193t174.5 67 q105 0 158 -37q14 -11 16 -14l4 16l4 31l64 -10l-4 -33l-4 -29q-8 -38 -13 -71q-3 -13 -5.5 -28t-5.5 -34.5t-5 -31.5q-12 -70 -16 -101q-10 -57 -15 -86l-8 -55q-9 -45 35 -57q25 -5 33 -5q77 0 157 50q89 52 121 129q42 112 33 239q-13 133 -66 219q-75 120 -221 174 q-144 53 -301 19q-169 -40 -289 -154q-147 -140 -182 -362q-29 -183 27.5 -323.5t193.5 -225.5q168 -105 404 -92q233 13 399 133l25 18l39 -51l-27 -20q-187 -134 -432 -146h-45q-227 0 -398 103q-155 97 -219.5 254t-29.5 360zM410 680q-12 -102 20 -140t117 -38 q56 0 83 5t46 23q38 38 72 213q9 58 0 82q-12 23 -28.5 34.5t-47.5 17.5q-34 6 -74 6q-84 0 -131 -47q-45 -51 -57 -156z" />
<glyph unicode="A" horiz-adv-x="802" d="M20 0l109 479v6l209 895h51l316 -1380h-66l-94 422h-365l-94 -422h-66zM197 485h333l-168 721z" />
<glyph unicode="B" horiz-adv-x="688" d="M35 0v1380h227q157 0 231 -89t74 -271q0 -179 -71 -268q-35 -41 -76 -62q44 -21 76 -59q71 -89 71 -271t-74 -271t-231 -89h-227zM100 63h162q129 0 184.5 68.5t55.5 228.5t-56 229.5t-184 69.5h-162v-596zM100 723h162q128 0 184 69.5t56 227.5q0 160 -55.5 228.5 t-184.5 68.5h-162v-594z" />
<glyph unicode="C" horiz-adv-x="704" d="M16 367v649q0 207 97 297q72 67 198 67q125 0 197 -67q96 -89 96 -297v-33h-65v33q0 301 -228 301q-115 0 -172 -72.5t-57 -228.5v-649q0 -157 56.5 -230.5t172.5 -73.5q110 0 170 72q58 76 58 232v32h65v-32q0 -204 -96 -297q-73 -70 -197 -70q-125 0 -198 70 q-97 94 -97 297z" />
<glyph unicode="D" horiz-adv-x="712" d="M25 0v1380h235q163 0 241.5 -93t78.5 -279v-635q0 -186 -78.5 -279.5t-241.5 -93.5h-235zM88 63h172q133 0 193.5 74.5t60.5 235.5v635q0 160 -60.5 234.5t-193.5 74.5h-172v-1254z" />
<glyph unicode="E" horiz-adv-x="620" d="M20 0v1380h496v-63h-432v-594h371v-64h-371v-596h432v-63h-496z" />
<glyph unicode="F" horiz-adv-x="630" d="M14 0v1380h496v-63h-432v-594h432v-64h-432v-659h-64z" />
<glyph unicode="G" horiz-adv-x="720" d="M20 365v653q0 362 295 362t295 -362v-33h-65v33q0 179 -78 250q-54 49 -152 49q-97 0 -151 -49q-80 -73 -80 -250v-653q0 -154 57 -228t174 -74q116 0 173 74.5t57 227.5v180h-299v65h364v-245q0 -180 -74 -272.5t-221 -92.5t-221 93.5t-74 271.5z" />
<glyph unicode="H" horiz-adv-x="704" d="M20 0v1380h66v-659h418v659h65v-1380h-65v657h-418v-657h-66z" />
<glyph unicode="I" horiz-adv-x="223" d="M27 0v1380h63v-1380h-63z" />
<glyph unicode="J" horiz-adv-x="663" d="M0 338v31h63v-31q0 -161 72 -229q48 -46 139 -46q209 0 209 275v1042h64v-1042q0 -338 -273 -338q-274 0 -274 338z" />
<glyph unicode="K" horiz-adv-x="692" d="M16 0v1380h66v-784l483 784h78l-410 -659l410 -721h-74l-372 653l-115 -174v-479h-66z" />
<glyph unicode="L" horiz-adv-x="583" d="M8 0v1380h66v-1317h422v-63h-488z" />
<glyph unicode="M" horiz-adv-x="804" d="M14 0v1380h68l260 -1169l258 1169h70v-1380h-66v1098l-237 -1098h-50l-239 1098v-1098h-64z" />
<glyph unicode="N" horiz-adv-x="737" d="M18 0v1380h56l475 -1181v1181h65v-1380h-53l-477 1182v-1182h-66z" />
<glyph unicode="O" d="M20 367v649q0 178 74 271t219 93q147 0 221 -92.5t74 -271.5v-649q0 -204 -96 -297q-73 -70 -199 -70q-123 0 -196 70q-97 94 -97 297zM84 367q0 -155 56.5 -229.5t172.5 -74.5q115 0 172.5 73.5t57.5 230.5v649q0 156 -56.5 228.5t-173.5 72.5t-173 -73.5t-56 -227.5 v-649z" />
<glyph unicode="P" horiz-adv-x="696" d="M23 0v1380h247q165 0 243.5 -89.5t78.5 -270.5t-79 -271t-243 -90h-184v-659h-63zM86 723h184q135 0 195.5 70.5t60.5 226.5q0 159 -59.5 228t-196.5 69h-184v-594z" />
<glyph unicode="Q" horiz-adv-x="712" d="M12 373v649q0 358 295 358q293 0 293 -358v-649q0 -176 -72 -273l-4 -4l133 -159h-84l-94 114q-68 -51 -172 -51q-146 0 -220.5 96t-74.5 277zM78 373q0 -310 229 -310q79 0 131 37l-92 113h82l55 -66q52 76 52 226v649q0 154 -55.5 224.5t-172.5 70.5q-116 0 -172.5 -72 t-56.5 -223v-649z" />
<glyph unicode="R" horiz-adv-x="712" d="M23 2v1380h288q163 0 231 -86.5t68 -279.5q0 -188 -75 -275q-6 -6 -14 -13t-15 -11.5t-19.5 -11t-18 -9.5t-19.5 -10t-17 -8q38 -17 70 -49q92 -89 92 -244v-383h-66v383q0 125 -67.5 193.5t-190.5 68.5h-184v-645h-63zM86 713h184q139 0 208 73t69 230q0 165 -51 233 t-185 68h-225v-604z" />
<glyph unicode="S" horiz-adv-x="712" d="M20 367v30h64v-30q0 -179 80 -252q54 -49 151 -49q116 0 174 56t58 187q0 62 -29 119t-75.5 102t-103 89.5t-112.5 91t-102.5 95.5t-75.5 114t-29 137q0 155 77 240t218 85q146 0 221.5 -93.5t75.5 -272.5v-33h-65v33q0 154 -57 227.5t-175 73.5q-231 0 -231 -254 q0 -66 29 -125.5t75.5 -105t103 -89.5t113 -89t103 -93t75.5 -111t29 -135q0 -153 -77 -233t-220 -80q-295 0 -295 365z" />
<glyph unicode="T" horiz-adv-x="718" d="M10 1317v65h602v-65h-270v-1315h-63v1315h-269z" />
<glyph unicode="U" horiz-adv-x="735" d="M4 340v1042h64v-1042q0 -137 53 -205.5t178 -68.5q66 0 112 20t71 58.5t35.5 85.5t10.5 110v1042h64v-1042q0 -161 -71.5 -249.5t-221.5 -88.5q-154 0 -224.5 90.5t-70.5 247.5z" />
<glyph unicode="V" horiz-adv-x="788" d="M20 1382h66l285 -1216l282 1216h68l-326 -1380h-49z" />
<glyph unicode="W" horiz-adv-x="1044" d="M0 1380h66l184 -1198l203 1198h51l203 -1198l178 1198h67l-219 -1380h-53l-203 1198l-203 -1198h-51z" />
<glyph unicode="X" horiz-adv-x="802" d="M-8 0l327 690l-327 690h71l293 -614l287 614h72l-324 -690l328 -690h-72l-291 614l-293 -614h-71z" />
<glyph unicode="Y" d="M-20 1380h73l260 -596l260 596h74l-301 -698v-682h-63v682z" />
<glyph unicode="Z" horiz-adv-x="739" d="M0 1317v63h610v-59l-528 -1258h518v-63h-590v63l527 1254h-537z" />
<glyph unicode="\" horiz-adv-x="778" d="M45 1380h70l553 -1380h-70z" />
<glyph unicode="^" horiz-adv-x="382" d="M6 1483l144 170h77l-143 -170h-78zM145 1653h78l144 -170h-78z" />
<glyph unicode="_" horiz-adv-x="944" d="M41 0h827v-63h-827v63z" />
<glyph unicode="`" horiz-adv-x="352" d="M6 1653h98l246 -170h-98z" />
<glyph unicode="a" horiz-adv-x="802" d="M20 0l109 479v6l209 895h51l316 -1380h-66l-94 422h-365l-94 -422h-66zM197 485h333l-168 721z" />
<glyph unicode="b" horiz-adv-x="688" d="M35 0v1380h227q157 0 231 -89t74 -271q0 -179 -71 -268q-35 -41 -76 -62q44 -21 76 -59q71 -89 71 -271t-74 -271t-231 -89h-227zM100 63h162q129 0 184.5 68.5t55.5 228.5t-56 229.5t-184 69.5h-162v-596zM100 723h162q128 0 184 69.5t56 227.5q0 160 -55.5 228.5 t-184.5 68.5h-162v-594z" />
<glyph unicode="c" horiz-adv-x="704" d="M16 367v649q0 207 97 297q72 67 198 67q125 0 197 -67q96 -89 96 -297v-33h-65v33q0 301 -228 301q-115 0 -172 -72.5t-57 -228.5v-649q0 -157 56.5 -230.5t172.5 -73.5q110 0 170 72q58 76 58 232v32h65v-32q0 -204 -96 -297q-73 -70 -197 -70q-125 0 -198 70 q-97 94 -97 297z" />
<glyph unicode="d" horiz-adv-x="712" d="M25 0v1380h235q163 0 241.5 -93t78.5 -279v-635q0 -186 -78.5 -279.5t-241.5 -93.5h-235zM88 63h172q133 0 193.5 74.5t60.5 235.5v635q0 160 -60.5 234.5t-193.5 74.5h-172v-1254z" />
<glyph unicode="e" horiz-adv-x="620" d="M20 0v1380h496v-63h-432v-594h371v-64h-371v-596h432v-63h-496z" />
<glyph unicode="f" horiz-adv-x="630" d="M14 0v1380h496v-63h-432v-594h432v-64h-432v-659h-64z" />
<glyph unicode="g" horiz-adv-x="720" d="M20 365v653q0 362 295 362t295 -362v-33h-65v33q0 179 -78 250q-54 49 -152 49q-97 0 -151 -49q-80 -73 -80 -250v-653q0 -154 57 -228t174 -74q116 0 173 74.5t57 227.5v180h-299v65h364v-245q0 -180 -74 -272.5t-221 -92.5t-221 93.5t-74 271.5z" />
<glyph unicode="h" horiz-adv-x="704" d="M20 0v1380h66v-659h418v659h65v-1380h-65v657h-418v-657h-66z" />
<glyph unicode="i" horiz-adv-x="223" d="M27 0v1380h63v-1380h-63z" />
<glyph unicode="j" horiz-adv-x="663" d="M0 338v31h63v-31q0 -161 72 -229q48 -46 139 -46q209 0 209 275v1042h64v-1042q0 -338 -273 -338q-274 0 -274 338z" />
<glyph unicode="k" horiz-adv-x="737" d="M16 0v1380h66v-784l483 784h78l-410 -659l410 -721h-74l-372 653l-115 -174v-479h-66z" />
<glyph unicode="l" horiz-adv-x="583" d="M8 0v1380h66v-1317h422v-63h-488z" />
<glyph unicode="m" horiz-adv-x="804" d="M14 0v1380h68l260 -1169l258 1169h70v-1380h-66v1098l-237 -1098h-50l-239 1098v-1098h-64z" />
<glyph unicode="n" horiz-adv-x="737" d="M18 0v1380h56l475 -1181v1181h65v-1380h-53l-477 1182v-1182h-66z" />
<glyph unicode="o" d="M20 367v649q0 178 74 271t219 93q147 0 221 -92.5t74 -271.5v-649q0 -204 -96 -297q-73 -70 -199 -70q-123 0 -196 70q-97 94 -97 297zM84 367q0 -155 56.5 -229.5t172.5 -74.5q115 0 172.5 73.5t57.5 230.5v649q0 156 -56.5 228.5t-173.5 72.5t-173 -73.5t-56 -227.5 v-649z" />
<glyph unicode="p" horiz-adv-x="696" d="M23 0v1380h247q165 0 243.5 -89.5t78.5 -270.5t-79 -271t-243 -90h-184v-659h-63zM86 723h184q135 0 195.5 70.5t60.5 226.5q0 159 -59.5 228t-196.5 69h-184v-594z" />
<glyph unicode="q" horiz-adv-x="712" d="M12 373v649q0 358 295 358q293 0 293 -358v-649q0 -176 -72 -273l-4 -4l133 -159h-84l-94 114q-68 -51 -172 -51q-146 0 -220.5 96t-74.5 277zM78 373q0 -310 229 -310q79 0 131 37l-92 113h82l55 -66q52 76 52 226v649q0 154 -55.5 224.5t-172.5 70.5q-116 0 -172.5 -72 t-56.5 -223v-649z" />
<glyph unicode="r" horiz-adv-x="712" d="M23 2v1380h288q163 0 231 -86.5t68 -279.5q0 -188 -75 -275q-6 -6 -14 -13t-15 -11.5t-19.5 -11t-18 -9.5t-19.5 -10t-17 -8q38 -17 70 -49q92 -89 92 -244v-383h-66v383q0 125 -67.5 193.5t-190.5 68.5h-184v-645h-63zM86 713h184q139 0 208 73t69 230q0 165 -51 233 t-185 68h-225v-604z" />
<glyph unicode="s" horiz-adv-x="712" d="M20 367v30h64v-30q0 -179 80 -252q54 -49 151 -49q116 0 174 56t58 187q0 62 -29 119t-75.5 102t-103 89.5t-112.5 91t-102.5 95.5t-75.5 114t-29 137q0 155 77 240t218 85q146 0 221.5 -93.5t75.5 -272.5v-33h-65v33q0 154 -57 227.5t-175 73.5q-231 0 -231 -254 q0 -66 29 -125.5t75.5 -105t103 -89.5t113 -89t103 -93t75.5 -111t29 -135q0 -153 -77 -233t-220 -80q-295 0 -295 365z" />
<glyph unicode="t" horiz-adv-x="718" d="M10 1317v65h602v-65h-270v-1315h-63v1315h-269z" />
<glyph unicode="u" horiz-adv-x="735" d="M4 340v1042h64v-1042q0 -137 53 -205.5t178 -68.5q66 0 112 20t71 58.5t35.5 85.5t10.5 110v1042h64v-1042q0 -161 -71.5 -249.5t-221.5 -88.5q-154 0 -224.5 90.5t-70.5 247.5z" />
<glyph unicode="v" horiz-adv-x="788" d="M20 1382h66l285 -1216l282 1216h68l-326 -1380h-49z" />
<glyph unicode="w" horiz-adv-x="1034" d="M0 1380h66l184 -1198l203 1198h51l203 -1198l178 1198h67l-219 -1380h-53l-203 1198l-203 -1198h-51z" />
<glyph unicode="x" horiz-adv-x="802" d="M-8 0l327 690l-327 690h71l293 -614l287 614h72l-324 -690l328 -690h-72l-291 614l-293 -614h-71z" />
<glyph unicode="y" d="M-20 1380h73l260 -596l260 596h74l-301 -698v-682h-63v682z" />
<glyph unicode="z" horiz-adv-x="739" d="M0 1317v63h610v-59l-528 -1258h518v-63h-590v63l527 1254h-537z" />
<glyph unicode="|" horiz-adv-x="182" d="M27 0v1380h63v-1380h-63z" />
<glyph unicode="~" horiz-adv-x="557" d="M2 1479q29 57 70.5 89t81.5 36t75.5 -7.5t57.5 -35.5q26 -29 63 -43.5t72 -5t51 48.5h84q-25 -54 -66.5 -83t-84 -30.5t-79.5 11t-59 34.5q-25 26 -54 37.5t-64.5 0.5t-63.5 -52h-84z" />
<glyph unicode="&#xa1;" horiz-adv-x="190" d="M18 2v1180h64v-1180h-64zM18 1294v88h64v-88h-64z" />
<glyph unicode="&#xa3;" horiz-adv-x="661" d="M2 0v70q78 78 104.5 220t26.5 367h-129v64h129q-4 208 -4 330q0 148 61.5 238.5t180.5 90.5q89 0 138 -43.5t73 -132.5l-56 -28q-13 70 -48 105.5t-107 35.5q-176 0 -176 -266q0 -236 -2 -330h311v-64h-311q-3 -261 -27 -390t-88 -197h528v-70h-604z" />
<glyph unicode="&#xa8;" horiz-adv-x="366" d="M2 1483v88h66v-88h-66zM303 1483v88h66v-88h-66z" />
<glyph unicode="&#xa9;" horiz-adv-x="1349" d="M25 696q0 191 75.5 347t219.5 249.5t331 93.5t332 -93t222 -249.5t77 -347.5t-77 -347.5t-222 -249.5t-332 -93t-331 93.5t-219.5 249.5t-75.5 347zM84 696q0 -131 40 -246.5t112 -201.5t179.5 -135.5t235.5 -49.5q170 0 301.5 85.5t201 229t69.5 318.5 q0 174 -69.5 316.5t-201 227.5t-301.5 85q-128 0 -235.5 -49.5t-179.5 -134.5t-112 -200t-40 -245zM438 467v448q0 71 19.5 121t52 74.5t66 34.5t71.5 10q29 0 55.5 -5.5t55.5 -22t50 -42t34.5 -69.5t13.5 -101v-41h-61v41q0 78 -37 129.5t-111 51.5q-76 0 -111.5 -52.5 t-35.5 -128.5v-448q0 -79 36.5 -130.5t110.5 -51.5q73 0 110.5 53.5t37.5 128.5v39h61v-39q0 -71 -19.5 -121.5t-52.5 -75.5t-66.5 -35t-70.5 -10q-38 0 -71.5 10t-66 35t-52 75.5t-19.5 121.5z" />
<glyph unicode="&#xad;" horiz-adv-x="612" d="M27 657v64h499v-64h-499z" />
<glyph unicode="&#xae;" horiz-adv-x="1378" d="M25 696q0 191 75.5 347t219.5 249.5t331 93.5t332 -93t222 -249.5t77 -347.5t-77 -347.5t-222 -249.5t-332 -93t-331 93.5t-219.5 249.5t-75.5 347zM84 696q0 -131 40 -246.5t112 -201.5t179.5 -135.5t235.5 -49.5q170 0 301.5 85.5t201 229t69.5 318.5 q0 174 -69.5 316.5t-201 227.5t-301.5 85q-128 0 -235.5 -49.5t-179.5 -134.5t-112 -200t-40 -245zM502 291v858h157q95 0 135 -50.5t40 -160.5q0 -173 -70 -217q65 -31 65 -129v-301h-57v295q0 60 -29 83t-94 23h-92v-401h-55zM557 748h92q129 0 129 190q0 82 -30 118 t-99 36h-92v-344z" />
<glyph unicode="&#xaf;" horiz-adv-x="370" d="M10 1483v63h361v-63h-361z" />
<glyph unicode="&#xb0;" horiz-adv-x="188" d="M2 1565q0 37 26.5 63.5t63.5 26.5t63.5 -26.5t26.5 -63.5t-26.5 -63.5t-63.5 -26.5t-63.5 26.5t-26.5 63.5zM57 1565q0 -13 9.5 -23t23.5 -10t23.5 10t9.5 23t-9.5 22.5t-23.5 9.5t-23.5 -9.5t-9.5 -22.5z" />
<glyph unicode="&#xb4;" horiz-adv-x="403" d="M27 1483l245 170h99l-246 -170h-98z" />
<glyph unicode="&#xb7;" horiz-adv-x="67" d="M2 750v88h66v-88h-66z" />
<glyph unicode="&#xb8;" horiz-adv-x="309" d="M10 -248l12 -3t30.5 -5.5t43.5 -5.5t47.5 -1.5t46.5 5.5t36.5 17t21.5 30q5 21 -2.5 33t-33.5 17t-46 6t-64 1h-16v168h59v-110q1 -2 17 0t41.5 -3.5t49 -14.5t41 -32.5t17.5 -56.5q0 -47 -31 -76t-75.5 -36.5t-88.5 -6.5t-75 9.5t-31 15.5v49z" />
<glyph unicode="&#xba;" horiz-adv-x="184" d="M2 1565q0 37 26.5 63.5t63.5 26.5t63.5 -26.5t26.5 -63.5t-26.5 -63.5t-63.5 -26.5t-63.5 26.5t-26.5 63.5zM57 1565q0 -13 9.5 -23t23.5 -10t23.5 10t9.5 23t-9.5 22.5t-23.5 9.5t-23.5 -9.5t-9.5 -22.5z" />
<glyph unicode="&#xbf;" horiz-adv-x="620" d="M29 346q0 126 59 221q22 37 59 94t55 85.5t42 77.5t35 89.5t19.5 99.5t8.5 128v39h64v-39q0 -87 -19 -189q-15 -88 -44.5 -152.5t-88 -149t-78.5 -118.5q-47 -78 -47 -186q0 -130 49 -203q53 -77 142 -77q93 0 139 69q51 68 51 221v31h66v-31q0 -168 -65 -261t-191 -93 q-122 0 -195 104q-61 94 -61 240zM307 1294v88h66v-88h-66z" />
<glyph unicode="&#xc0;" horiz-adv-x="802" d="M20 0l109 479v6l209 895h51l316 -1380h-66l-94 422h-365l-94 -422h-66zM186 1653h99l245 -170h-98zM197 485h333l-168 721z" />
<glyph unicode="&#xc1;" horiz-adv-x="802" d="M20 0l109 479v6l209 895h51l316 -1380h-66l-94 422h-365l-94 -422h-66zM186 1479l246 170h98l-245 -170h-99zM197 485h333l-168 721z" />
<glyph unicode="&#xc2;" horiz-adv-x="802" d="M20 0l109 479v6l209 895h51l316 -1380h-66l-94 422h-365l-94 -422h-66zM184 1483l140 170h82l139 -170h-78l-102 121l-103 -121h-78zM197 485h333l-168 721z" />
<glyph unicode="&#xc3;" horiz-adv-x="802" d="M20 0l109 479v6l209 895h51l316 -1380h-66l-94 422h-365l-94 -422h-66zM92 1479q29 57 70.5 89t81.5 36t75.5 -7.5t57.5 -35.5q26 -29 63 -43.5t72 -5t51 48.5h84q-25 -54 -66.5 -83t-84 -30.5t-79.5 11t-59 34.5q-25 26 -54 37.5t-64.5 0.5t-63.5 -52h-84zM197 485h333 l-168 721z" />
<glyph unicode="&#xc4;" horiz-adv-x="802" d="M20 0l109 479v6l209 895h51l316 -1380h-66l-94 422h-365l-94 -422h-66zM180 1483v88h66v-88h-66zM197 485h333l-168 721zM481 1483v88h66v-88h-66z" />
<glyph unicode="&#xc5;" horiz-adv-x="802" d="M20 0h66l94 422h365l94 -422h66l-316 1380h-51l-209 -895v-6zM197 485l165 721l168 -721h-333zM274 1565q0 37 27 63.5t64 26.5t63.5 -26.5t26.5 -63.5t-26.5 -63.5t-63.5 -26.5t-64 26.5t-27 63.5zM330 1565q0 -14 9.5 -23.5t22.5 -9.5q14 0 23.5 10t9.5 23t-9.5 22.5 t-23.5 9.5t-23 -9.5t-9 -22.5z" />
<glyph unicode="&#xc6;" horiz-adv-x="1259" d="M10 0l625 1380h500v-63h-433v-594h433v-64h-433v-596h433v-63h-496v422h-363l-196 -422h-70zM305 485h334v738z" />
<glyph unicode="&#xc7;" horiz-adv-x="704" d="M16 367v649q0 207 97 297q72 67 198 67q125 0 197 -67q96 -89 96 -297v-33h-65v33q0 301 -228 301q-115 0 -172 -72.5t-57 -228.5v-649q0 -157 56.5 -230.5t172.5 -73.5q110 0 170 72q58 76 58 232v32h65v-32q0 -204 -96 -297q-73 -70 -197 -70q-125 0 -198 70 q-97 94 -97 297zM201 -248l12 -3t30.5 -5.5t43.5 -5.5t47 -1.5t46.5 5.5t36.5 17t21 30q5 21 -2.5 33t-33.5 17t-46 6t-64 1h-16v168h60v-110q1 -2 17 0t41.5 -3.5t49 -14.5t41 -32.5t17.5 -56.5q0 -47 -31 -76t-75 -36.5t-88.5 -6.5t-75.5 9.5t-31 15.5v49z" />
<glyph unicode="&#xc8;" horiz-adv-x="620" d="M20 0v1380h496v-63h-432v-594h371v-64h-371v-596h432v-63h-496zM100 1653h99l245 -170h-98z" />
<glyph unicode="&#xc9;" horiz-adv-x="620" d="M20 0v1380h496v-63h-432v-594h371v-64h-371v-596h432v-63h-496zM100 1483l246 170h98l-245 -170h-99z" />
<glyph unicode="&#xca;" horiz-adv-x="620" d="M20 0v1380h496v-63h-432v-594h371v-64h-371v-596h432v-63h-496zM82 1483l139 170h82l139 -170h-77l-103 121l-102 -121h-78z" />
<glyph unicode="&#xcb;" horiz-adv-x="620" d="M20 0v1380h496v-63h-432v-594h371v-64h-371v-596h432v-63h-496zM90 1483v88h66v-88h-66zM391 1483v88h66v-88h-66z" />
<glyph unicode="&#xcc;" horiz-adv-x="223" d="M-90 1653h98l246 -170h-98zM27 0v1380h63v-1380h-63z" />
<glyph unicode="&#xcd;" horiz-adv-x="223" d="M-90 1483l246 170h98l-246 -170h-98zM27 0v1380h63v-1380h-63z" />
<glyph unicode="&#xce;" horiz-adv-x="223" d="M-104 1483l139 170h82l139 -170h-78l-102 121l-103 -121h-77zM27 0v1380h63v-1380h-63z" />
<glyph unicode="&#xcf;" horiz-adv-x="223" d="M-96 1483v88h65v-88h-65zM27 0v1380h63v-1380h-63zM205 1483v88h65v-88h-65z" />
<glyph unicode="&#xd0;" horiz-adv-x="712" d="M-174 657v64h500v-64h-500zM25 0v1380h235q163 0 241.5 -93t78.5 -279v-635q0 -186 -78.5 -279.5t-241.5 -93.5h-235zM88 63h172q133 0 193.5 74.5t60.5 235.5v635q0 160 -60.5 234.5t-193.5 74.5h-172v-1254z" />
<glyph unicode="&#xd1;" horiz-adv-x="737" d="M18 0v1380h56l475 -1181v1181h65v-1380h-53l-477 1182v-1182h-66zM47 1479q29 57 70.5 89t81.5 36t75.5 -7.5t57.5 -35.5q26 -29 63 -43.5t72 -5t51 48.5h84q-25 -54 -66.5 -83t-84 -30.5t-79.5 11t-59 34.5q-25 26 -54 37.5t-64.5 0.5t-63.5 -52h-84z" />
<glyph unicode="&#xd2;" d="M20 367v649q0 178 74 271t219 93q147 0 221 -92.5t74 -271.5v-649q0 -204 -96 -297q-73 -70 -199 -70q-123 0 -196 70q-97 94 -97 297zM84 367q0 -155 56.5 -229.5t172.5 -74.5q115 0 172.5 73.5t57.5 230.5v649q0 156 -56.5 228.5t-173.5 72.5t-173 -73.5t-56 -227.5 v-649zM141 1653h99l245 -170h-98z" />
<glyph unicode="&#xd3;" d="M20 367v649q0 178 74 271t219 93q147 0 221 -92.5t74 -271.5v-649q0 -204 -96 -297q-73 -70 -199 -70q-123 0 -196 70q-97 94 -97 297zM84 367q0 -155 56.5 -229.5t172.5 -74.5q115 0 172.5 73.5t57.5 230.5v649q0 156 -56.5 228.5t-173.5 72.5t-173 -73.5t-56 -227.5 v-649zM127 1483l246 170h98l-246 -170h-98z" />
<glyph unicode="&#xd4;" d="M20 367v649q0 178 74 271t219 93q147 0 221 -92.5t74 -271.5v-649q0 -204 -96 -297q-73 -70 -199 -70q-123 0 -196 70q-97 94 -97 297zM84 367q0 -155 56.5 -229.5t172.5 -74.5q115 0 172.5 73.5t57.5 230.5v649q0 156 -56.5 228.5t-173.5 72.5t-173 -73.5t-56 -227.5 v-649zM131 1483l139 170h82l140 -170h-78l-103 121l-102 -121h-78z" />
<glyph unicode="&#xd5;" d="M20 367v649q0 178 74 271t219 93q147 0 221 -92.5t74 -271.5v-649q0 -204 -96 -297q-73 -70 -199 -70q-123 0 -196 70q-97 94 -97 297zM39 1479q29 57 70.5 89t81.5 36t75.5 -7.5t57.5 -35.5q26 -29 63 -43.5t72 -5t51 48.5h84q-25 -54 -66.5 -83t-84 -30.5t-79.5 11 t-59 34.5q-25 26 -54 37.5t-64.5 0.5t-63.5 -52h-84zM84 367q0 -155 56.5 -229.5t172.5 -74.5q115 0 172.5 73.5t57.5 230.5v649q0 156 -56.5 228.5t-173.5 72.5t-173 -73.5t-56 -227.5v-649z" />
<glyph unicode="&#xd6;" d="M20 367v649q0 178 74 271t219 93q147 0 221 -92.5t74 -271.5v-649q0 -204 -96 -297q-73 -70 -199 -70q-123 0 -196 70q-97 94 -97 297zM84 367q0 -155 56.5 -229.5t172.5 -74.5q115 0 172.5 73.5t57.5 230.5v649q0 156 -56.5 228.5t-173.5 72.5t-173 -73.5t-56 -227.5 v-649zM133 1483v88h66v-88h-66zM434 1483v88h66v-88h-66z" />
<glyph unicode="&#xd7;" horiz-adv-x="499" d="M16 549l154 153l-154 154l45 45l154 -153l154 153l45 -45l-154 -154l154 -153l-45 -45l-154 153l-154 -153z" />
<glyph unicode="&#xd8;" d="M20 367v649q0 178 74 271t219 93q147 0 221 -92.5t74 -271.5v-649q0 -204 -96 -297q-73 -70 -199 -70q-123 0 -196 70q-97 94 -97 297zM23 0l552 1380h70l-553 -1380h-69zM84 367q0 -155 56.5 -229.5t172.5 -74.5q115 0 172.5 73.5t57.5 230.5v649q0 156 -56.5 228.5 t-173.5 72.5t-173 -73.5t-56 -227.5v-649z" />
<glyph unicode="&#xd9;" horiz-adv-x="735" d="M4 340v1042h64v-1042q0 -137 53 -205.5t178 -68.5q66 0 112 20t71 58.5t35.5 85.5t10.5 110v1042h64v-1042q0 -161 -71.5 -249.5t-221.5 -88.5q-154 0 -224.5 90.5t-70.5 247.5zM131 1653h98l246 -170h-98z" />
<glyph unicode="&#xda;" horiz-adv-x="735" d="M4 340v1042h64v-1042q0 -137 53 -205.5t178 -68.5q66 0 112 20t71 58.5t35.5 85.5t10.5 110v1042h64v-1042q0 -161 -71.5 -249.5t-221.5 -88.5q-154 0 -224.5 90.5t-70.5 247.5zM147 1483l246 170h99l-246 -170h-99z" />
<glyph unicode="&#xdb;" horiz-adv-x="735" d="M4 340v1042h64v-1042q0 -137 53 -205.5t178 -68.5q66 0 112 20t71 58.5t35.5 85.5t10.5 110v1042h64v-1042q0 -161 -71.5 -249.5t-221.5 -88.5q-154 0 -224.5 90.5t-70.5 247.5zM106 1483l140 170h82l139 -170h-78l-102 121l-103 -121h-78z" />
<glyph unicode="&#xdc;" horiz-adv-x="735" d="M4 340v1042h64v-1042q0 -137 53 -205.5t178 -68.5q66 0 112 20t71 58.5t35.5 85.5t10.5 110v1042h64v-1042q0 -161 -71.5 -249.5t-221.5 -88.5q-154 0 -224.5 90.5t-70.5 247.5zM121 1483v88h65v-88h-65zM422 1483v88h65v-88h-65z" />
<glyph unicode="&#xdd;" d="M-20 1380h73l260 -596l260 596h74l-301 -698v-682h-63v682zM152 1483l245 170h99l-246 -170h-98z" />
<glyph unicode="&#xde;" horiz-adv-x="688" d="M6 0v1380h64v-387h270q171 0 259.5 -80.5t88.5 -216.5q0 -133 -90.5 -215t-257.5 -82h-270v-399h-64zM70 465h270q144 0 214.5 64t70.5 167q0 104 -70.5 169t-214.5 65h-270v-465z" />
<glyph unicode="&#xdf;" horiz-adv-x="667" d="M0 0v971q-2 84 10 151t30 109t46 72t51 44.5t53 22.5t44 9t32 1q145 0 207 -89t62 -249q0 -156 -56 -248t-129 -100q110 -19 183 -105t73 -235q0 -102 -24 -172.5t-72 -109.5t-108 -55.5t-142 -16.5h-14v63h14q68 0 116.5 12.5t87 44t58 90t19.5 144.5q0 69 -18.5 123 t-48.5 87.5t-69.5 55.5t-78.5 30.5t-80 8.5v64q106 0 164.5 82t58.5 237q0 137 -44 206t-163 69q-30 0 -54.5 -7t-52 -30.5t-46 -62t-31 -107.5t-12.5 -162v-948h-66z" />
<glyph unicode="&#xe0;" horiz-adv-x="802" d="M20 0l109 479v6l209 895h51l316 -1380h-66l-94 422h-365l-94 -422h-66zM186 1653h99l245 -170h-98zM197 485h333l-168 721z" />
<glyph unicode="&#xe1;" horiz-adv-x="802" d="M20 0l109 479v6l209 895h51l316 -1380h-66l-94 422h-365l-94 -422h-66zM186 1479l246 170h98l-245 -170h-99zM197 485h333l-168 721z" />
<glyph unicode="&#xe2;" horiz-adv-x="802" d="M20 0l109 479v6l209 895h51l316 -1380h-66l-94 422h-365l-94 -422h-66zM184 1483l140 170h82l139 -170h-78l-102 121l-103 -121h-78zM197 485h333l-168 721z" />
<glyph unicode="&#xe3;" horiz-adv-x="802" d="M20 0l109 479v6l209 895h51l316 -1380h-66l-94 422h-365l-94 -422h-66zM92 1479q29 57 70.5 89t81.5 36t75.5 -7.5t57.5 -35.5q26 -29 63 -43.5t72 -5t51 48.5h84q-25 -54 -66.5 -83t-84 -30.5t-79.5 11t-59 34.5q-25 26 -54 37.5t-64.5 0.5t-63.5 -52h-84zM197 485h333 l-168 721z" />
<glyph unicode="&#xe4;" horiz-adv-x="802" d="M20 0l109 479v6l209 895h51l316 -1380h-66l-94 422h-365l-94 -422h-66zM180 1483v88h66v-88h-66zM197 485h333l-168 721zM481 1483v88h66v-88h-66z" />
<glyph unicode="&#xe5;" horiz-adv-x="802" d="M20 0h66l94 422h365l94 -422h66l-316 1380h-51l-209 -895v-6zM197 485l165 721l168 -721h-333zM274 1565q0 37 27 63.5t64 26.5t63.5 -26.5t26.5 -63.5t-26.5 -63.5t-63.5 -26.5t-64 26.5t-27 63.5zM330 1565q0 -14 9.5 -23.5t22.5 -9.5q14 0 23.5 10t9.5 23t-9.5 22.5 t-23.5 9.5t-23 -9.5t-9 -22.5z" />
<glyph unicode="&#xe6;" horiz-adv-x="1259" d="M10 0l625 1380h500v-63h-433v-594h433v-64h-433v-596h433v-63h-496v422h-363l-196 -422h-70zM305 485h334v738z" />
<glyph unicode="&#xe7;" horiz-adv-x="704" d="M16 367v649q0 207 97 297q72 67 198 67q125 0 197 -67q96 -89 96 -297v-33h-65v33q0 301 -228 301q-115 0 -172 -72.5t-57 -228.5v-649q0 -157 56.5 -230.5t172.5 -73.5q110 0 170 72q58 76 58 232v32h65v-32q0 -204 -96 -297q-73 -70 -197 -70q-125 0 -198 70 q-97 94 -97 297zM201 -248l12 -3t30.5 -5.5t43.5 -5.5t47 -1.5t46.5 5.5t36.5 17t21 30q5 21 -2.5 33t-33.5 17t-46 6t-64 1h-16v168h60v-110q1 -2 17 0t41.5 -3.5t49 -14.5t41 -32.5t17.5 -56.5q0 -47 -31 -76t-75 -36.5t-88.5 -6.5t-75.5 9.5t-31 15.5v49z" />
<glyph unicode="&#xe8;" horiz-adv-x="620" d="M20 0v1380h496v-63h-432v-594h371v-64h-371v-596h432v-63h-496zM100 1653h99l245 -170h-98z" />
<glyph unicode="&#xe9;" horiz-adv-x="620" d="M20 0v1380h496v-63h-432v-594h371v-64h-371v-596h432v-63h-496zM100 1483l246 170h98l-245 -170h-99z" />
<glyph unicode="&#xea;" horiz-adv-x="620" d="M20 0v1380h496v-63h-432v-594h371v-64h-371v-596h432v-63h-496zM82 1483l139 170h82l139 -170h-77l-103 121l-102 -121h-78z" />
<glyph unicode="&#xeb;" horiz-adv-x="620" d="M20 0v1380h496v-63h-432v-594h371v-64h-371v-596h432v-63h-496zM90 1483v88h66v-88h-66zM391 1483v88h66v-88h-66z" />
<glyph unicode="&#xec;" horiz-adv-x="223" d="M-90 1653h98l246 -170h-98zM27 0v1380h63v-1380h-63z" />
<glyph unicode="&#xed;" horiz-adv-x="223" d="M-90 1483l246 170h98l-246 -170h-98zM27 0v1380h63v-1380h-63z" />
<glyph unicode="&#xee;" horiz-adv-x="223" d="M-104 1483l139 170h82l139 -170h-78l-102 121l-103 -121h-77zM27 0v1380h63v-1380h-63z" />
<glyph unicode="&#xef;" horiz-adv-x="223" d="M-96 1483v88h65v-88h-65zM27 0v1380h63v-1380h-63zM205 1483v88h65v-88h-65z" />
<glyph unicode="&#xf0;" horiz-adv-x="712" d="M-174 657v64h500v-64h-500zM25 0v1380h235q163 0 241.5 -93t78.5 -279v-635q0 -186 -78.5 -279.5t-241.5 -93.5h-235zM88 63h172q133 0 193.5 74.5t60.5 235.5v635q0 160 -60.5 234.5t-193.5 74.5h-172v-1254z" />
<glyph unicode="&#xf1;" horiz-adv-x="737" d="M18 0v1380h56l475 -1181v1181h65v-1380h-53l-477 1182v-1182h-66zM47 1479q29 57 70.5 89t81.5 36t75.5 -7.5t57.5 -35.5q26 -29 63 -43.5t72 -5t51 48.5h84q-25 -54 -66.5 -83t-84 -30.5t-79.5 11t-59 34.5q-25 26 -54 37.5t-64.5 0.5t-63.5 -52h-84z" />
<glyph unicode="&#xf2;" d="M20 367v649q0 178 74 271t219 93q147 0 221 -92.5t74 -271.5v-649q0 -204 -96 -297q-73 -70 -199 -70q-123 0 -196 70q-97 94 -97 297zM84 367q0 -155 56.5 -229.5t172.5 -74.5q115 0 172.5 73.5t57.5 230.5v649q0 156 -56.5 228.5t-173.5 72.5t-173 -73.5t-56 -227.5 v-649zM141 1653h99l245 -170h-98z" />
<glyph unicode="&#xf3;" d="M20 367v649q0 178 74 271t219 93q147 0 221 -92.5t74 -271.5v-649q0 -204 -96 -297q-73 -70 -199 -70q-123 0 -196 70q-97 94 -97 297zM84 367q0 -155 56.5 -229.5t172.5 -74.5q115 0 172.5 73.5t57.5 230.5v649q0 156 -56.5 228.5t-173.5 72.5t-173 -73.5t-56 -227.5 v-649zM152 1483l245 170h99l-246 -170h-98z" />
<glyph unicode="&#xf4;" d="M20 367v649q0 178 74 271t219 93q147 0 221 -92.5t74 -271.5v-649q0 -204 -96 -297q-73 -70 -199 -70q-123 0 -196 70q-97 94 -97 297zM84 367q0 -155 56.5 -229.5t172.5 -74.5q115 0 172.5 73.5t57.5 230.5v649q0 156 -56.5 228.5t-173.5 72.5t-173 -73.5t-56 -227.5 v-649zM131 1483l139 170h82l140 -170h-78l-103 121l-102 -121h-78z" />
<glyph unicode="&#xf5;" d="M20 367v649q0 178 74 271t219 93q147 0 221 -92.5t74 -271.5v-649q0 -204 -96 -297q-73 -70 -199 -70q-123 0 -196 70q-97 94 -97 297zM39 1479q29 57 70.5 89t81.5 36t75.5 -7.5t57.5 -35.5q26 -29 63 -43.5t72 -5t51 48.5h84q-25 -54 -66.5 -83t-84 -30.5t-79.5 11 t-59 34.5q-25 26 -54 37.5t-64.5 0.5t-63.5 -52h-84zM84 367q0 -155 56.5 -229.5t172.5 -74.5q115 0 172.5 73.5t57.5 230.5v649q0 156 -56.5 228.5t-173.5 72.5t-173 -73.5t-56 -227.5v-649z" />
<glyph unicode="&#xf6;" d="M20 367v649q0 178 74 271t219 93q147 0 221 -92.5t74 -271.5v-649q0 -204 -96 -297q-73 -70 -199 -70q-123 0 -196 70q-97 94 -97 297zM84 367q0 -155 56.5 -229.5t172.5 -74.5q115 0 172.5 73.5t57.5 230.5v649q0 156 -56.5 228.5t-173.5 72.5t-173 -73.5t-56 -227.5 v-649zM133 1483v88h66v-88h-66zM434 1483v88h66v-88h-66z" />
<glyph unicode="&#xf7;" horiz-adv-x="231" d="M29 334v155h63v-155h-63zM29 897v156h63v-156h-63z" />
<glyph unicode="&#xf8;" d="M20 367v649q0 178 74 271t219 93q147 0 221 -92.5t74 -271.5v-649q0 -204 -96 -297q-73 -70 -199 -70q-123 0 -196 70q-97 94 -97 297zM23 0l552 1380h70l-553 -1380h-69zM84 367q0 -155 56.5 -229.5t172.5 -74.5q115 0 172.5 73.5t57.5 230.5v649q0 156 -56.5 228.5 t-173.5 72.5t-173 -73.5t-56 -227.5v-649z" />
<glyph unicode="&#xf9;" horiz-adv-x="735" d="M4 340v1042h64v-1042q0 -137 53 -205.5t178 -68.5q66 0 112 20t71 58.5t35.5 85.5t10.5 110v1042h64v-1042q0 -161 -71.5 -249.5t-221.5 -88.5q-154 0 -224.5 90.5t-70.5 247.5zM131 1653h98l246 -170h-98z" />
<glyph unicode="&#xfa;" horiz-adv-x="735" d="M4 340v1042h64v-1042q0 -137 53 -205.5t178 -68.5q66 0 112 20t71 58.5t35.5 85.5t10.5 110v1042h64v-1042q0 -161 -71.5 -249.5t-221.5 -88.5q-154 0 -224.5 90.5t-70.5 247.5zM147 1483l246 170h99l-246 -170h-99z" />
<glyph unicode="&#xfb;" horiz-adv-x="735" d="M4 340v1042h64v-1042q0 -137 53 -205.5t178 -68.5q66 0 112 20t71 58.5t35.5 85.5t10.5 110v1042h64v-1042q0 -161 -71.5 -249.5t-221.5 -88.5q-154 0 -224.5 90.5t-70.5 247.5zM106 1483l140 170h82l139 -170h-78l-102 121l-103 -121h-78z" />
<glyph unicode="&#xfc;" horiz-adv-x="735" d="M4 340v1042h64v-1042q0 -137 53 -205.5t178 -68.5q66 0 112 20t71 58.5t35.5 85.5t10.5 110v1042h64v-1042q0 -161 -71.5 -249.5t-221.5 -88.5q-154 0 -224.5 90.5t-70.5 247.5zM121 1483v88h65v-88h-65zM422 1483v88h65v-88h-65z" />
<glyph unicode="&#xfd;" d="M-20 1380h73l260 -596l260 596h74l-301 -698v-682h-63v682zM152 1483l245 170h99l-246 -170h-98z" />
<glyph unicode="&#xfe;" horiz-adv-x="688" d="M6 0v1380h64v-387h270q171 0 259.5 -80.5t88.5 -216.5q0 -133 -90.5 -215t-257.5 -82h-270v-399h-64zM70 465h270q144 0 214.5 64t70.5 167q0 104 -70.5 169t-214.5 65h-270v-465z" />
<glyph unicode="&#xff;" d="M-20 1380h73l260 -596l260 596h74l-301 -698v-682h-63v682zM133 1483v88h66v-88h-66zM434 1483v88h66v-88h-66z" />
<glyph unicode="&#x152;" horiz-adv-x="1011" d="M20 446v529q0 173 112.5 289t262.5 116h496v-63h-432v-594h432v-64h-432v-596h432v-63h-479h-17q-191 0 -283 120t-92 326zM84 408q0 -149 95 -247t216 -98v1254q-122 0 -216.5 -97t-94.5 -245v-567z" />
<glyph unicode="&#x153;" horiz-adv-x="1011" d="M20 446v529q0 173 112.5 289t262.5 116h496v-63h-432v-594h432v-64h-432v-596h432v-63h-479h-17q-191 0 -283 120t-92 326zM84 408q0 -149 95 -247t216 -98v1254q-122 0 -216.5 -97t-94.5 -245v-567z" />
<glyph unicode="&#x178;" d="M-20 1380h73l260 -596l260 596h74l-301 -698v-682h-63v682zM133 1483v88h66v-88h-66zM434 1483v88h66v-88h-66z" />
<glyph unicode="&#x2c6;" horiz-adv-x="382" d="M6 1483l139 170h82l140 -170h-78l-103 121l-102 -121h-78z" />
<glyph unicode="&#x2dc;" horiz-adv-x="550" d="M2 1479q29 57 70.5 89t81.5 36t75.5 -7.5t57.5 -35.5q26 -29 63 -43.5t72 -5t51 48.5h84q-25 -54 -66.5 -83t-84 -30.5t-79.5 11t-59 34.5q-25 26 -54 37.5t-64.5 0.5t-63.5 -52h-84z" />
<glyph unicode="&#x2000;" horiz-adv-x="827" />
<glyph unicode="&#x2001;" horiz-adv-x="1655" />
<glyph unicode="&#x2002;" horiz-adv-x="827" />
<glyph unicode="&#x2003;" horiz-adv-x="1655" />
<glyph unicode="&#x2004;" horiz-adv-x="551" />
<glyph unicode="&#x2005;" horiz-adv-x="413" />
<glyph unicode="&#x2006;" horiz-adv-x="275" />
<glyph unicode="&#x2007;" horiz-adv-x="275" />
<glyph unicode="&#x2008;" horiz-adv-x="206" />
<glyph unicode="&#x2009;" horiz-adv-x="331" />
<glyph unicode="&#x200a;" horiz-adv-x="91" />
<glyph unicode="&#x2010;" horiz-adv-x="612" d="M27 657v64h499v-64h-499z" />
<glyph unicode="&#x2011;" horiz-adv-x="612" d="M27 657v64h499v-64h-499z" />
<glyph unicode="&#x2012;" horiz-adv-x="612" d="M27 657v64h499v-64h-499z" />
<glyph unicode="&#x2013;" horiz-adv-x="612" d="M27 657v64h499v-64h-499z" />
<glyph unicode="&#x2014;" horiz-adv-x="612" d="M27 657v64h499v-64h-499z" />
<glyph unicode="&#x2018;" horiz-adv-x="165" d="M20 1200v180h64v-180h-64z" />
<glyph unicode="&#x2019;" horiz-adv-x="165" d="M20 1200v180h64v-180h-64z" />
<glyph unicode="&#x201c;" horiz-adv-x="307" d="M20 1200v180h64v-180h-64zM141 1200v180h66v-180h-66z" />
<glyph unicode="&#x201d;" horiz-adv-x="307" d="M20 1200v180h64v-180h-64zM141 1200v180h66v-180h-66z" />
<glyph unicode="&#x2022;" horiz-adv-x="215" d="M-43 776q0 34 23 57t57 23t57 -23t23 -57t-23 -57t-57 -23t-57 23t-23 57z" />
<glyph unicode="&#x202f;" horiz-adv-x="331" />
<glyph unicode="&#x205f;" horiz-adv-x="413" />
<glyph unicode="&#x20ac;" horiz-adv-x="655" d="M-66 432v64h123v305h-123v63h123v152q0 87 20.5 153.5t51.5 105.5t74.5 63.5t84 33t85.5 8.5q50 0 92.5 -10t67.5 -24t43 -28t25 -24l7 -10l-43 -49q-1 3 -4.5 8.5t-18 20t-34 25t-55.5 19.5t-80 9q-67 0 -117 -25t-78 -69t-41.5 -95.5t-13.5 -111.5v-152h332v-63h-332 v-305h332v-64h-332v-65q0 -133 62 -218.5t188 -85.5q39 0 73 10.5t55 25.5t36 29.5t21 25.5l7 10l60 -43q-3 -5 -9 -13t-28.5 -29t-49 -37t-71 -29t-94.5 -13q-45 0 -85.5 8.5t-84 33.5t-74.5 64.5t-51.5 106.5t-20.5 154v65h-123z" />
<glyph unicode="&#x2122;" horiz-adv-x="753" d="M-10 1317v65h315v-65h-127v-326h-63v326h-125zM358 991v389h68l76 -260l73 260h70v-389h-65v189l-54 -189h-49l-55 189v-189h-64z" />
<glyph unicode="&#x25fc;" horiz-adv-x="1382" d="M0 0v1382h1382v-1382h-1382z" />
</font>
</defs>
</svg>
